<svg width="413" height="200" viewBox="0 0 413 200" fill="none" xmlns="http://www.w3.org/2000/svg">
<path fill-rule="evenodd" clip-rule="evenodd" d="M195.116 53.2993C195.46 53.0833 195.914 53.1869 196.13 53.5308C197.401 55.5538 201.757 58.4042 208.241 61.6817C212.806 63.989 217.806 66.2144 222.651 68.2179C223.026 68.3731 223.205 68.8031 223.05 69.1784C222.894 69.5536 222.464 69.7321 222.089 69.5769C217.212 67.5604 212.182 65.3213 207.578 62.9942L207.175 62.7901C200.651 59.4659 196.327 56.6099 194.885 54.313C194.669 53.9691 194.772 53.5153 195.116 53.2993Z" fill="#164E63"/>
<path fill-rule="evenodd" clip-rule="evenodd" d="M198.775 25.2388C200.485 24.2848 201.757 24.1499 202.891 25.0984C204.198 26.1922 204.07 27.7958 202.976 29.6189C202.767 29.9671 202.315 30.08 201.967 29.8711C201.619 29.6622 201.506 29.2105 201.715 28.8623C202.482 27.5833 202.55 26.731 201.947 26.2262C201.393 25.7623 200.729 25.8326 199.492 26.523L199.421 26.5636C198.636 27.0248 195.504 29.1356 194.498 29.7412C191.601 31.486 188.761 32.6688 185.475 33.2959C181.594 34.0436 175.527 40.0809 172.015 47.0412C167.827 55.3431 167.831 63.1957 173.093 68.6054C173.376 68.8964 173.37 69.362 173.079 69.6451C172.788 69.9283 172.322 69.9218 172.039 69.6307C166.265 63.695 166.26 55.1828 170.703 46.3787C174.399 39.0524 180.78 32.7029 185.198 31.8517C188.299 31.2599 190.981 30.1427 193.739 28.4814L193.846 28.4166C194.927 27.7508 197.98 25.6948 198.737 25.2602L198.775 25.2388Z" fill="#164E63"/>
<path fill-rule="evenodd" clip-rule="evenodd" d="M198.694 28.4808V31.422C202.1 31.6671 204.821 32.2063 205.532 32.5985C207.076 33.4808 207.321 36.8142 203.718 36.6916C202.346 36.6426 200.507 36.471 198.718 36.275V37.3044C202.297 38.4808 205.36 39.6573 205.924 40.2946C207.199 41.7897 205.066 44.6083 201.414 43.4563L198.718 42.721V43.6769C201.071 44.6573 203.154 45.5887 203.645 45.9808C204.061 46.324 204.184 46.9857 203.963 47.623H240.066V28.4808H198.694V28.4808Z" fill="#06D0B6"/>
<path fill-rule="evenodd" clip-rule="evenodd" d="M215.287 42.2552C215.693 42.2552 216.022 42.5845 216.022 42.9905C216.022 43.3821 215.716 43.7022 215.33 43.7246L215.287 43.7258H205.63C205.224 43.7258 204.895 43.3966 204.895 42.9905C204.895 42.599 205.201 42.2789 205.587 42.2565L205.63 42.2552H215.287Z" fill="#164E63"/>
<path fill-rule="evenodd" clip-rule="evenodd" d="M234.037 38.9464C234.443 38.9464 234.772 39.2756 234.772 39.6817C234.772 40.0733 234.466 40.3934 234.08 40.4158L234.037 40.417H205.532C205.126 40.417 204.797 40.0878 204.797 39.6817C204.797 39.2901 205.103 38.97 205.489 38.9477L205.532 38.9464H234.037Z" fill="#164E63"/>
<path fill-rule="evenodd" clip-rule="evenodd" d="M235.801 35.7847C236.208 35.7847 236.537 36.1139 236.537 36.52C236.537 36.9115 236.231 37.2316 235.845 37.254L235.801 37.2553H205.728C205.322 37.2553 204.993 36.9261 204.993 36.52C204.993 36.1284 205.299 35.8083 205.685 35.7859L205.728 35.7847H235.801Z" fill="#164E63"/>
<path fill-rule="evenodd" clip-rule="evenodd" d="M234.037 32.5984C234.443 32.5984 234.772 32.9276 234.772 33.3337C234.772 33.7253 234.466 34.0454 234.08 34.0677L234.037 34.069H206.365C205.959 34.069 205.63 33.7398 205.63 33.3337C205.63 32.9421 205.936 32.622 206.322 32.5996L206.365 32.5984H234.037Z" fill="#164E63"/>
<path fill-rule="evenodd" clip-rule="evenodd" d="M185.498 31.7528C188.632 30.7233 192.874 30.3782 197.424 30.6019L197.664 30.6142C201.399 30.8137 204.911 31.3969 205.897 31.96C206.953 32.5635 207.535 33.9403 207.274 35.1738C206.97 36.6139 205.663 37.4934 203.693 37.4264L203.42 37.4158C202.72 37.3856 201.888 37.327 200.943 37.2436L200.829 37.2332L201.395 37.4321C204.054 38.3771 205.928 39.2151 206.455 39.7857L206.484 39.8175C207.39 40.8814 207.131 42.4036 206.008 43.4145C205.097 44.2349 203.784 44.6037 202.318 44.41L202.225 44.3969L202.527 44.5382C203.266 44.8889 203.779 45.1657 204.052 45.3673L204.112 45.4132C205.188 46.2995 204.998 48.1729 203.696 49.1791C202.531 50.0785 200.736 50.228 198.415 49.5248L198.256 49.4754L198.444 49.5944C198.83 49.8424 199.128 50.0518 199.332 50.2202L199.366 50.2489C200.052 50.8322 200.047 51.7576 199.505 52.5613C199.034 53.2596 198.189 53.8461 197.139 54.1838C194.805 54.9343 191.855 54.428 188.703 52.4511L188.578 52.3724L188.522 52.4861C188.355 52.811 188.155 53.1322 187.918 53.4409L187.827 53.5561C186.155 55.626 183.436 56.3469 179.622 54.9819C179.24 54.845 179.041 54.4242 179.178 54.0418C179.315 53.6595 179.735 53.4605 180.118 53.5973C183.351 54.7544 185.409 54.2086 186.683 52.6319C186.964 52.2836 187.183 51.9081 187.346 51.5335C187.391 51.4298 187.429 51.3328 187.46 51.2444L187.482 51.1798C187.501 51.1219 187.511 51.0852 187.514 51.0735C187.639 50.5708 188.23 50.351 188.653 50.6503C191.784 52.8678 194.604 53.454 196.688 52.7838C197.441 52.5418 198.011 52.1462 198.286 51.7386C198.382 51.5959 198.425 51.4761 198.425 51.4004L198.425 51.3829C198.424 51.3795 198.423 51.3775 198.42 51.3747L198.356 51.3221C197.824 50.8953 196.406 50.0495 194.399 48.944L193.771 48.6001C192.805 48.0736 191.777 47.5256 190.741 46.9822L190.052 46.6219L188.8 45.9735C188.281 45.708 188.262 44.9733 188.767 44.6821C188.843 44.6382 188.924 44.6092 189.011 44.5918L189.057 44.5837C189.799 44.4763 191.82 45.107 196.137 47.0265L197.011 47.4186C199.872 48.7127 201.824 48.767 202.797 48.0153C203.397 47.552 203.474 46.7925 203.184 46.5538C202.8 46.2454 200.902 45.3778 198.095 44.2115L197.289 43.8785L197.073 43.79C195.815 43.2749 194.477 42.7382 193.129 42.2063L192.004 41.764L190.684 41.2502C189.827 40.9199 190.231 39.6487 191.101 39.8445L191.144 39.8554L201.61 42.7475L201.635 42.755C203.066 43.2062 204.288 42.9849 205.024 42.3216C205.599 41.8046 205.706 41.1726 205.364 40.7707C204.772 40.0741 199 38.0344 192.832 36.2963C191.966 36.0522 192.217 34.779 193.087 34.8551L194.288 35.0144L194.437 35.0337C195.443 35.164 196.5 35.2943 197.558 35.4159L198.212 35.4899C198.536 35.5259 198.855 35.5604 199.167 35.5932L199.833 35.6615C201.417 35.82 202.748 35.9228 203.743 35.9567C205.039 36.0008 205.689 35.5639 205.836 34.8699C205.967 34.2492 205.657 33.5168 205.167 33.2368C204.452 32.8284 201.088 32.2698 197.585 32.0827C193.111 31.8436 188.941 32.1696 185.957 33.1499C185.572 33.2767 185.156 33.0667 185.029 32.6809C184.903 32.2951 185.113 31.8796 185.498 31.7528Z" fill="#164E63"/>
<path fill-rule="evenodd" clip-rule="evenodd" d="M338.203 101.226C337.247 100.907 335.434 100.466 333.105 99.9268L337.664 101.912C330.581 111.643 317.566 120.491 304.037 117.476C283.448 112.893 295.238 93.0886 295.948 91.8386L298.988 93.0396L298.865 92.7945C296.708 91.9121 268.056 80.27 257.958 76.2504C258.277 76.3484 258.252 110.147 258.252 110.147L277.051 117.476C277.051 117.476 269.404 125.736 267.125 132.77C266.733 133.995 266.61 135.981 266.684 138.432C281.806 147.672 296.61 155.368 296.61 155.368L315.066 133.383L349.919 150.025C339.306 166.961 318.645 180.098 307.493 185.123C302.983 187.157 297.836 187.353 293.179 185.711C285.164 182.893 277.811 179.192 271.169 175.025L266.463 199.118L345.973 198.922L341.757 161.25C376.831 121.471 353.081 106.054 338.203 101.226Z" fill="#164E63"/>
<path fill-rule="evenodd" clip-rule="evenodd" d="M319.356 76.3116C319.715 76.1552 320.131 76.3081 320.305 76.653L320.324 76.6921L329.399 97.5301L337.958 101.263C338.375 101.445 338.526 101.955 338.284 102.332L338.259 102.369C334.456 107.593 329.272 112.182 323.599 115.15C317.173 118.511 310.414 119.677 303.877 118.218C295.276 116.306 291.335 111.637 291.206 105.136C291.146 102.08 291.932 98.8407 293.281 95.5981C293.69 94.6158 294.126 93.6946 294.573 92.8366C294.737 92.5225 294.894 92.2342 295.047 91.9604L295.156 91.7682L295.309 91.4997C295.482 91.1962 295.842 91.0577 296.171 91.1624L296.214 91.1775L297.295 91.596L294.553 86.8902C294.357 86.5524 294.459 86.1224 294.78 85.9084L294.819 85.8847C295.156 85.6879 295.586 85.7906 295.8 86.1118L295.824 86.1498L299.623 92.6694C299.966 93.2587 299.394 93.9493 298.76 93.7388L298.722 93.7254L296.275 92.7776L296.256 92.8113C296.158 92.989 296.058 93.1736 295.955 93.3686L295.877 93.5168C295.448 94.3389 295.03 95.2221 294.639 96.1629C293.362 99.2334 292.621 102.286 292.677 105.107C292.792 110.92 296.248 115.015 304.197 116.783C310.373 118.161 316.783 117.055 322.918 113.846C328.092 111.14 332.861 107.018 336.471 102.306L336.521 102.24L328.547 98.7627C328.392 98.6952 328.266 98.5767 328.188 98.4278L328.167 98.3823L318.975 77.2793C318.813 76.907 318.984 76.4738 319.356 76.3116Z" fill="#164E63"/>
<path fill-rule="evenodd" clip-rule="evenodd" d="M163.866 163.704C163.973 163.313 164.377 163.081 164.769 163.188C165.147 163.291 165.375 163.67 165.295 164.049L165.285 164.091L156.959 194.682H208.867L200.85 164.207C200.75 163.828 200.965 163.441 201.333 163.321L201.374 163.309C201.753 163.209 202.14 163.424 202.26 163.791L202.272 163.833L210.532 195.23C210.651 195.682 210.324 196.125 209.864 196.151L209.821 196.152H155.997C155.527 196.152 155.182 195.719 155.278 195.266L155.288 195.224L163.866 163.704Z" fill="#164E63"/>
<path fill-rule="evenodd" clip-rule="evenodd" d="M182.174 171.03C178.181 171.03 174.944 174.267 174.944 178.26C174.944 182.253 178.181 185.491 182.174 185.491C186.167 185.491 189.404 182.253 189.404 178.26C189.404 174.267 186.167 171.03 182.174 171.03ZM182.174 172.5C185.355 172.5 187.934 175.079 187.934 178.26C187.934 181.441 185.355 184.02 182.174 184.02C178.993 184.02 176.414 181.441 176.414 178.26C176.414 175.079 178.993 172.5 182.174 172.5Z" fill="#164E63"/>
<path fill-rule="evenodd" clip-rule="evenodd" d="M196.368 163.182C196.75 163.092 197.131 163.317 197.241 163.687L197.252 163.729L204.458 194.366C204.551 194.762 204.306 195.157 203.911 195.25C203.53 195.34 203.148 195.115 203.038 194.745L203.027 194.703L195.821 164.066C195.728 163.67 195.973 163.275 196.368 163.182Z" fill="#164E63"/>
<path fill-rule="evenodd" clip-rule="evenodd" d="M255.409 68.4072C257.261 68.4072 258.798 69.9202 258.84 71.7627L258.841 71.8386V133.015C258.841 133.421 258.511 133.75 258.105 133.75C257.714 133.75 257.394 133.444 257.371 133.058L257.37 133.015V71.8386C257.37 70.7942 256.507 69.9117 255.469 69.8788L255.409 69.8778H105.777C104.732 69.8778 103.85 70.7406 103.817 71.7785L103.816 71.8386V77.2798C103.816 77.6859 103.487 78.0151 103.081 78.0151C102.689 78.0151 102.369 77.709 102.347 77.323L102.345 77.2798V71.8386C102.345 69.9873 103.858 68.4493 105.701 68.4081L105.777 68.4072H255.409Z" fill="#164E63"/>
<path fill-rule="evenodd" clip-rule="evenodd" d="M103.081 106.103C103.472 106.103 103.792 106.409 103.815 106.795L103.816 106.839V161.103C103.816 162.148 104.679 163.03 105.717 163.063L105.777 163.064L255.401 163.064C255.402 163.063 255.408 163.062 255.422 163.06L255.438 163.058C255.533 163.046 255.596 163.04 255.679 163.04C256.085 163.04 256.414 163.369 256.414 163.775C256.414 164.166 256.108 164.487 255.722 164.509L255.672 164.511L255.559 164.525C255.508 164.532 255.478 164.534 255.436 164.534L105.777 164.535C103.926 164.535 102.388 163.022 102.346 161.179L102.345 161.103V106.839C102.345 106.432 102.675 106.103 103.081 106.103Z" fill="#164E63"/>
<path fill-rule="evenodd" clip-rule="evenodd" d="M242.125 74.3386C244 74.3386 245.515 75.8277 245.555 77.6931L245.556 77.77V123.579C245.556 123.985 245.227 124.314 244.821 124.314C244.429 124.314 244.109 124.008 244.087 123.622L244.086 123.579V77.77C244.086 76.7015 243.247 75.8422 242.186 75.8101L242.125 75.8092H118.571C118.165 75.8092 117.836 75.48 117.836 75.0739C117.836 74.6823 118.142 74.3622 118.528 74.3399L118.571 74.3386H242.125Z" fill="#164E63"/>
<path fill-rule="evenodd" clip-rule="evenodd" d="M110.483 103.701C110.874 103.701 111.194 104.007 111.217 104.393L111.218 104.437V153.064C111.218 154.132 112.057 154.992 113.117 155.024L113.179 155.025H242.125C243.193 155.025 244.053 154.186 244.085 153.125L244.086 153.064C244.086 152.658 244.415 152.329 244.821 152.329C245.227 152.329 245.556 152.658 245.556 153.064C245.556 154.94 244.067 156.454 242.202 156.495L242.125 156.495H113.179C111.303 156.495 109.789 155.006 109.748 153.141L109.747 153.064V104.437C109.747 104.03 110.077 103.701 110.483 103.701Z" fill="#164E63"/>
<path fill-rule="evenodd" clip-rule="evenodd" d="M251.61 159.192C252.002 159.192 252.322 159.498 252.344 159.884L252.346 159.927V162.966C252.346 163.372 252.016 163.701 251.61 163.701C251.219 163.701 250.899 163.395 250.876 163.009L250.875 162.966V159.927C250.875 159.521 251.204 159.192 251.61 159.192Z" fill="#164E63"/>
<path fill-rule="evenodd" clip-rule="evenodd" d="M251.61 69.1426C252.002 69.1426 252.322 69.4487 252.344 69.8347L252.346 69.8779V128.53C252.346 128.936 252.016 129.265 251.61 129.265C251.219 129.265 250.899 128.959 250.876 128.573L250.875 128.53V69.8779C250.875 69.4718 251.204 69.1426 251.61 69.1426Z" fill="#164E63"/>
<path fill-rule="evenodd" clip-rule="evenodd" d="M215.188 105.515C209.012 105.589 200.066 108.309 194.772 110.736C192.296 108.162 190.777 104.682 190.777 100.834C190.777 92.9415 197.174 86.5444 205.066 86.5444C209.772 86.5444 213.938 88.8238 216.536 92.3287C214.11 96.1033 215.507 102.255 215.188 105.515Z" fill="#06D0B6"/>
<rect x="189.625" y="99.7307" width="2.20589" height="2.20588" fill="#164E63"/>
<rect x="203.963" y="85.417" width="2.20589" height="2.20589" fill="#164E63"/>
<path fill-rule="evenodd" clip-rule="evenodd" d="M219.429 86.0787C219.687 86.0787 219.899 86.2787 219.918 86.5323L219.919 86.5689V89.4366C219.919 89.7073 219.7 89.9268 219.429 89.9268C219.17 89.9268 218.959 89.7268 218.94 89.4732L218.939 89.4366L218.938 87.0589H191.194V112.549C191.194 112.808 190.994 113.019 190.74 113.038L190.703 113.04C190.445 113.04 190.233 112.84 190.214 112.586L190.213 112.549V86.5689C190.213 86.3105 190.413 86.0988 190.667 86.0801L190.703 86.0787H219.429Z" fill="#164E63"/>
<rect x="189.6" y="85.417" width="2.20589" height="2.20589" fill="#164E63"/>
<rect x="218.252" y="85.417" width="2.20589" height="2.20589" fill="#164E63"/>
<path fill-rule="evenodd" clip-rule="evenodd" d="M225.14 199.829H140.654C139.159 199.829 137.958 198.628 137.958 197.133V196.814C137.958 195.319 139.159 194.118 140.654 194.118H225.14C226.635 194.118 227.836 195.319 227.836 196.814V197.133C227.836 198.603 226.635 199.829 225.14 199.829Z" fill="#164E63"/>
<path fill-rule="evenodd" clip-rule="evenodd" d="M217.961 88.922C218.77 88.2985 219.642 88.4364 220.257 89.2169C220.969 90.1206 221.42 91.7845 222.041 95.2014L222.669 98.7468L222.753 99.2066C223.205 101.653 223.599 103.363 224.072 104.766C224.201 105.151 223.994 105.568 223.609 105.697C223.225 105.827 222.807 105.62 222.678 105.235L222.605 105.016C222.138 103.577 221.748 101.864 221.308 99.4785L221.153 98.6247C220.987 97.689 220.703 96.0696 220.648 95.7626L220.57 95.3286C220.025 92.3575 219.603 90.7956 219.124 90.1568L219.034 90.0389C218.992 89.9876 218.98 89.9904 218.924 90.0352L218.859 90.0866C218.464 90.3911 217.931 91.2035 217.299 92.5449C216.746 93.7164 216.359 95.0934 216.123 96.6341C215.756 99.0287 215.775 101.602 216.028 104.029L216.058 104.308C216.084 104.535 216.11 104.746 216.137 104.94L216.178 105.228L216.207 105.415C216.276 105.815 216.008 106.195 215.607 106.264C215.207 106.333 214.827 106.065 214.758 105.664L214.729 105.484C214.719 105.421 214.708 105.346 214.696 105.261C214.651 104.944 214.607 104.582 214.565 104.182C214.3 101.64 214.281 98.9485 214.669 96.4116C214.925 94.7393 215.35 93.2281 215.969 91.9176L216.089 91.6666C216.764 90.274 217.367 89.3802 217.961 88.922Z" fill="#164E63"/>
<path fill-rule="evenodd" clip-rule="evenodd" d="M201.219 107.615L204.821 106.366C206.742 105.688 210.345 105.196 215.182 104.831C215.587 104.8 215.94 105.104 215.971 105.509C216.001 105.914 215.698 106.267 215.293 106.297L214.52 106.358C210.332 106.696 207.158 107.141 205.458 107.702L201.615 109.034L200.635 109.381C199.245 109.876 197.958 110.349 196.727 110.82L196.18 111.031C194.92 111.52 193.768 111.991 192.733 112.443L192.513 112.539C190.723 113.329 189.334 114.044 188.415 114.664C187.947 114.98 187.615 115.262 187.433 115.492C187.389 115.547 187.358 115.594 187.338 115.632L187.33 115.646L187.341 115.654C187.365 115.671 187.395 115.688 187.431 115.707L187.47 115.725C187.675 115.821 187.984 115.903 188.385 115.964C189.184 116.085 190.291 116.115 191.645 116.061C193.87 115.972 196.643 115.662 199.292 115.254C199.694 115.192 200.069 115.468 200.131 115.869C200.193 116.27 199.917 116.646 199.516 116.708L198.956 116.792C196.43 117.165 193.835 117.445 191.704 117.531L191.307 117.545C188.145 117.642 186.339 117.323 185.917 116.128C185.367 114.576 187.473 113.155 191.919 111.194C193.18 110.638 194.612 110.055 196.201 109.447C197.635 108.898 199.141 108.348 200.795 107.764L201.219 107.615Z" fill="#164E63"/>
<path fill-rule="evenodd" clip-rule="evenodd" d="M223.914 104.412L223.943 104.413C224.436 104.432 225.375 104.874 227.004 106.075L227.265 106.27C229.794 108.176 233.316 111.424 238.007 116.331L238.172 116.503L238.194 116.527C241.471 120.289 247.474 125.044 255.669 130.545L255.918 130.712C259.034 132.797 262.426 134.965 266.053 137.196C272.569 141.205 279.536 145.236 286.52 149.104L287.296 149.533C289.62 150.816 291.792 151.995 293.764 153.052L295.113 153.771L296.427 154.467L314.503 132.934C314.708 132.69 315.046 132.607 315.34 132.725L315.383 132.744L350.212 149.386C350.607 149.575 350.751 150.067 350.518 150.439C345.602 158.313 338.243 165.857 329.339 172.659C322.12 178.174 314.189 182.926 307.77 185.818C303.101 187.924 297.783 188.139 292.911 186.43C276.961 180.846 262.598 171.429 249.854 159.259C242.362 152.104 235.89 144.439 230.454 136.774C228.55 134.09 226.912 131.597 225.54 129.358L225.24 128.866C224.95 128.386 224.687 127.942 224.453 127.538L224.21 127.116L224.148 127.137C223.363 127.391 222.424 127.462 221.293 127.387L221.15 127.377C220.184 127.304 219.46 127.196 217.684 126.866L216.047 126.559C215.677 126.49 215.377 126.436 215.074 126.385L214.992 126.37C214.205 126.237 213.522 126.14 212.884 126.075C212.48 126.034 212.186 125.673 212.227 125.269C212.268 124.865 212.629 124.571 213.033 124.612C213.651 124.675 214.302 124.765 215.036 124.887L215.407 124.949C215.772 125.012 216.142 125.08 216.635 125.172L217.418 125.32C221.449 126.071 222.948 126.172 224.092 125.576L224.17 125.534C224.514 125.343 224.946 125.458 225.151 125.788L225.182 125.842L225.272 126.006C225.344 126.136 225.429 126.286 225.526 126.455L225.803 126.934C226.092 127.43 226.422 127.983 226.794 128.59C228.149 130.801 229.769 133.267 231.653 135.923C237.038 143.516 243.45 151.109 250.87 158.195C263.472 170.23 277.661 179.533 293.398 185.042C297.915 186.626 302.842 186.428 307.166 184.477C313.481 181.632 321.315 176.937 328.446 171.49C336.842 165.077 343.832 158.006 348.635 150.656L348.829 150.355L315.263 134.316L297.173 155.865C296.962 156.117 296.61 156.197 296.313 156.065L296.271 156.045L295.304 155.537C294.892 155.319 294.437 155.078 293.941 154.814L292.799 154.203C290.894 153.181 288.809 152.048 286.585 150.82C279.324 146.812 272.062 142.619 265.282 138.449C261.792 136.301 258.517 134.212 255.493 132.197L255.1 131.934C246.845 126.408 240.751 121.612 237.294 117.73L237.095 117.504L236.624 117.012C232.038 112.236 228.623 109.11 226.215 107.321L226.131 107.259C225.28 106.631 224.632 106.231 224.167 106.012C224.058 105.961 223.971 105.925 223.903 105.901L223.846 105.883H223.546C223.155 105.883 222.835 105.577 222.812 105.191L222.811 105.147C222.811 104.756 223.117 104.436 223.503 104.413L223.546 104.412H223.914Z" fill="#164E63"/>
<path fill-rule="evenodd" clip-rule="evenodd" d="M207.443 110.001C207.639 110.34 207.534 110.769 207.211 110.982L206.856 111.194L206.793 111.232C206.485 111.418 206.141 111.632 205.771 111.871C204.713 112.553 203.655 113.293 202.671 114.063C201.258 115.168 200.121 116.24 199.362 117.227C198.599 118.22 198.273 119.063 198.388 119.698C198.612 120.938 199.086 121.585 199.727 121.85C200.119 122.012 200.56 122.024 200.969 121.941C201.003 121.934 201.034 121.927 201.062 121.92L201.127 121.903C201.512 121.771 201.93 121.977 202.061 122.361C202.192 122.745 201.987 123.163 201.603 123.294L201.539 123.315C201.467 123.336 201.374 123.36 201.26 123.383C200.59 123.518 199.866 123.499 199.165 123.209C198.036 122.742 197.249 121.67 196.94 119.96C196.737 118.831 197.205 117.621 198.196 116.331C199.042 115.229 200.263 114.08 201.765 112.905C202.788 112.105 203.881 111.34 204.974 110.635L205.256 110.455C205.486 110.309 205.704 110.173 205.91 110.048L206.276 109.827L206.439 109.731C206.791 109.528 207.241 109.649 207.443 110.001Z" fill="#164E63"/>
<path fill-rule="evenodd" clip-rule="evenodd" d="M209.542 113.943C209.774 114.276 209.692 114.735 209.359 114.967L209.152 115.114L209.054 115.186C208.806 115.368 208.529 115.577 208.23 115.809C207.377 116.475 206.523 117.197 205.73 117.95C204.574 119.045 203.647 120.106 203.035 121.085C202.374 122.142 202.125 123.035 202.298 123.716C202.59 124.861 203.067 125.469 203.666 125.716C204.075 125.884 204.537 125.88 204.977 125.766C205.06 125.744 205.123 125.724 205.161 125.71L205.19 125.698C205.563 125.537 205.996 125.708 206.157 126.081C206.319 126.453 206.148 126.886 205.775 127.048C205.682 127.088 205.537 127.14 205.348 127.189C204.626 127.377 203.854 127.383 203.106 127.075C202.051 126.641 201.274 125.652 200.873 124.079C200.582 122.935 200.935 121.67 201.788 120.305C202.476 119.205 203.48 118.055 204.718 116.882C205.549 116.095 206.437 115.342 207.326 114.65L207.554 114.473C207.779 114.3 207.99 114.142 208.185 113.999L208.339 113.888L208.518 113.76C208.852 113.528 209.31 113.61 209.542 113.943Z" fill="#164E63"/>
<path fill-rule="evenodd" clip-rule="evenodd" d="M212.306 118.812C212.533 119.129 212.472 119.566 212.174 119.81L211.946 119.979L211.897 120.016C211.7 120.164 211.481 120.334 211.244 120.523C210.568 121.064 209.893 121.649 209.264 122.255C208.426 123.063 207.739 123.845 207.26 124.566C206.148 126.24 206.263 127.195 207.89 127.79C211.197 128.989 213.399 129.164 214.693 128.782L214.776 128.757L214.859 128.728L214.885 128.673L214.902 128.634C215.074 128.229 215.096 127.83 214.897 127.472C214.528 126.806 213.437 126.238 211.377 125.923C210.975 125.862 210.699 125.487 210.761 125.086C210.822 124.684 211.197 124.408 211.599 124.47C214.065 124.846 215.552 125.621 216.183 126.759C216.635 127.573 216.588 128.426 216.256 129.209C216.161 129.432 216.063 129.602 215.988 129.71C215.936 129.785 215.87 129.849 215.794 129.9C215.659 129.991 215.433 130.097 215.109 130.193C213.487 130.671 210.971 130.472 207.387 129.171C204.707 128.192 204.459 126.125 206.035 123.753C206.582 122.93 207.335 122.072 208.244 121.196C208.908 120.556 209.617 119.942 210.326 119.375C210.503 119.233 210.671 119.101 210.829 118.981L211.065 118.801L211.279 118.643C211.609 118.406 212.069 118.482 212.306 118.812Z" fill="#164E63"/>
<path fill-rule="evenodd" clip-rule="evenodd" d="M374.674 198.407C375.08 198.407 375.409 198.736 375.409 199.143C375.409 199.534 375.103 199.854 374.717 199.877L374.674 199.878H38.3259C37.9198 199.878 37.5906 199.549 37.5906 199.143C37.5906 198.751 37.8967 198.431 38.2827 198.408L38.3259 198.407H374.674Z" fill="#164E63"/>
<path fill-rule="evenodd" clip-rule="evenodd" d="M298.492 23.1152C290.788 24.8683 284.563 32.676 279.776 48.2594L279.632 48.734C278.321 53.0769 277.424 60.3371 278.016 66.6561C278.891 75.9838 282.723 82.7732 290.247 85.6147C298.165 88.6003 306.268 87.4779 313.465 82.8683C320.052 78.6494 325.462 71.7215 328.45 63.8394C334.311 48.374 330.672 33.0655 319.998 28.7549L319.714 28.6381C319.169 28.4113 318.575 28.1463 317.844 27.8066L317.045 27.4313C316.37 27.112 315.073 26.4975 314.596 26.2761L314.177 26.0825C311.349 24.7829 309.18 23.9507 306.945 23.3904C303.942 22.6381 301.158 22.5085 298.492 23.1152ZM280.996 49.3039L281.039 49.1592C285.708 33.7132 291.654 26.1795 298.818 24.5492C301.239 23.9982 303.795 24.1171 306.587 24.8169C308.77 25.3641 310.915 26.1945 313.771 27.5145L314.716 27.9567C315.54 28.3456 316.648 28.8709 316.819 28.951L317.382 29.2133C318.189 29.5863 318.836 29.8708 319.447 30.1182C329.252 34.0778 332.684 48.5174 327.074 63.3182C324.196 70.9134 318.984 77.5869 312.672 81.63C305.852 85.9981 298.231 87.0537 290.767 84.2389C283.856 81.629 280.308 75.3431 279.481 66.5187C278.914 60.4721 279.761 53.4918 280.996 49.3039Z" fill="#164E63"/>
<rect width="6.22539" height="10.9802" transform="matrix(0.795914 0.60541 -0.605411 0.795913 344.212 15.7616)" fill="#06D0B6"/>
<path fill-rule="evenodd" clip-rule="evenodd" d="M352.517 22.0837C358.581 22.0837 363.497 17.1676 363.497 11.1033C363.497 5.03901 358.581 0.122925 352.517 0.122925C346.453 0.122925 341.537 5.03901 341.537 11.1033C341.537 17.1676 346.453 22.0837 352.517 22.0837Z" fill="#164E63"/>
<path fill-rule="evenodd" clip-rule="evenodd" d="M339.723 21.6425C331.757 15.2209 322.493 10.0984 312.566 10.1719C281.953 11.8386 274.282 31.4464 281.757 44.6327V44.6327C286.733 30.5641 292.762 25.1474 298.767 23.8239C300.752 34.167 314.821 47.9415 330.213 54.118C330.189 54.2651 330.164 54.4121 330.14 54.5592C334.576 55.6866 341.095 58.6523 338.644 66.3239C335.262 76.9366 324.944 72.2553 323.644 71.618C322.468 73.4072 321.144 75.0984 319.698 76.6425L323.595 85.0739L357.689 90.2945C359.772 91.0543 362.002 89.5592 362.125 87.3288C362.762 73.4317 365.189 42.6719 339.723 21.6425Z" fill="#164E63"/>
<path fill-rule="evenodd" clip-rule="evenodd" d="M329.466 54.7645C329.542 54.3656 329.928 54.1039 330.326 54.18C333.455 54.7769 335.771 55.6196 337.52 57.149C339.946 59.2705 340.68 62.3873 339.345 66.5727C337.944 70.9439 335.327 73.2439 331.888 73.773C329.824 74.0905 327.646 73.7497 325.517 72.993C324.968 72.7981 324.464 72.589 324.015 72.3794L323.825 72.2889C323.649 72.2038 323.518 72.1354 323.435 72.0894C323.08 71.8925 322.952 71.4449 323.149 71.0898C323.338 70.7478 323.76 70.6162 324.108 70.7828L324.266 70.8657L324.402 70.9339C324.474 70.9696 324.553 71.0074 324.638 71.047C325.046 71.2376 325.506 71.4288 326.009 71.6073C327.929 72.2895 329.877 72.5944 331.664 72.3195C334.544 71.8764 336.712 69.9718 337.944 66.1249C339.108 62.4776 338.519 59.9756 336.552 58.2561C335.051 56.9435 332.942 56.1762 330.051 55.6246C329.652 55.5485 329.39 55.1634 329.466 54.7645Z" fill="#164E63"/>
<path fill-rule="evenodd" clip-rule="evenodd" d="M298.45 70.3805C298.741 70.0972 299.206 70.1034 299.49 70.3943C299.773 70.6852 299.767 71.1507 299.476 71.4341C297.103 73.7447 294.716 73.849 292.7 72.5931C292.43 72.4246 292.19 72.2439 291.982 72.0618C291.853 71.9485 291.759 71.8558 291.703 71.7943C291.43 71.4939 291.452 71.0288 291.752 70.7556C292.041 70.4928 292.482 70.503 292.759 70.7712L292.828 70.8423C292.856 70.8701 292.898 70.9087 292.951 70.9556C293.102 71.0874 293.278 71.2206 293.478 71.345C294.949 72.2616 296.592 72.1898 298.45 70.3805Z" fill="#164E63"/>
<path fill-rule="evenodd" clip-rule="evenodd" d="M296.92 41.4149C297.086 41.0445 297.521 40.879 297.892 41.0453C298.249 41.2056 298.415 41.616 298.278 41.9773L298.261 42.0172L290.113 60.1683L294.294 61.2493C294.673 61.3473 294.906 61.7238 294.832 62.1031L294.822 62.1452C294.724 62.5243 294.347 62.7576 293.968 62.6827L293.926 62.6731L288.901 61.374C288.475 61.2637 288.243 60.8074 288.398 60.4014L288.415 60.361L296.92 41.4149Z" fill="#164E63"/>
<path fill-rule="evenodd" clip-rule="evenodd" d="M306.216 43.3225C308.468 42.3309 310.509 43.0405 312.195 44.7617C312.583 45.1573 312.922 45.579 313.213 46.001L313.296 46.1246C313.428 46.3229 313.523 46.4817 313.58 46.5862C313.774 46.9432 313.641 47.3895 313.284 47.5831C312.94 47.7694 312.514 47.6535 312.31 47.3258L312.238 47.2018L312.221 47.1744C312.16 47.0729 312.086 46.9585 312.001 46.8346C311.756 46.4783 311.469 46.1216 311.145 45.7909C309.844 44.4627 308.409 43.9638 306.808 44.6684C306.437 44.8321 306.003 44.6634 305.839 44.2918C305.675 43.9201 305.844 43.4861 306.216 43.3225Z" fill="#164E63"/>
<path fill-rule="evenodd" clip-rule="evenodd" d="M284.485 37.7564C286.659 36.4198 288.843 36.9217 290.786 38.5075C291.176 38.8261 291.526 39.1661 291.832 39.5068L291.929 39.6155C292.065 39.772 292.165 39.8977 292.227 39.9813C292.468 40.3085 292.397 40.7687 292.07 41.0093C291.756 41.2407 291.318 41.1848 291.071 40.8894L290.972 40.7632C290.906 40.6816 290.828 40.5896 290.739 40.4899C290.48 40.2024 290.184 39.9144 289.856 39.6468C288.346 38.4148 286.8 38.0593 285.255 39.0091C284.909 39.2218 284.456 39.1138 284.244 38.7679C284.031 38.4219 284.139 37.9691 284.485 37.7564Z" fill="#164E63"/>
<path fill-rule="evenodd" clip-rule="evenodd" d="M305.352 53.5949C305.668 52.1537 305.174 50.8208 304.249 50.6178C303.323 50.4148 302.317 51.4187 302 52.8599C301.684 54.3011 302.179 55.634 303.104 55.837C304.03 56.0399 305.036 55.0361 305.352 53.5949Z" fill="#164E63"/>
<path fill-rule="evenodd" clip-rule="evenodd" d="M287.529 49.7604C287.845 48.3192 287.351 46.9863 286.425 46.7833C285.5 46.5804 284.493 47.5842 284.177 49.0254C283.861 50.4667 284.355 51.7995 285.281 52.0025C286.206 52.2055 287.213 51.2017 287.529 49.7604Z" fill="#164E63"/>
<path fill-rule="evenodd" clip-rule="evenodd" d="M299.757 48.6838C297.94 56.8113 301.5 64.5944 307.838 66.0115C314.176 67.4286 320.711 61.9026 322.528 53.7751C324.345 45.6477 320.786 37.8646 314.448 36.4475C308.11 35.0304 301.574 40.5563 299.757 48.6838ZM301.192 49.0047C302.849 41.597 308.681 36.6651 314.127 37.8826C319.572 39.1001 322.749 46.0466 321.093 53.4543C319.437 60.8619 313.604 65.7939 308.159 64.5763C302.713 63.3588 299.536 56.4124 301.192 49.0047Z" fill="#06D0B6"/>
<path fill-rule="evenodd" clip-rule="evenodd" d="M269.324 42.5356C267.506 50.6631 271.066 58.4462 277.404 59.8633C283.742 61.2804 290.277 55.7544 292.095 47.6269C293.912 39.4995 290.352 31.7164 284.014 30.2993C277.676 28.8822 271.141 34.4082 269.324 42.5356ZM270.759 42.8565C272.415 35.4488 278.248 30.5169 283.693 31.7344C289.139 32.952 292.316 39.8984 290.66 47.3061C289.003 54.7138 283.17 59.6457 277.725 58.4281C272.279 57.2106 269.103 50.2642 270.759 42.8565Z" fill="#06D0B6"/>
<path fill-rule="evenodd" clip-rule="evenodd" d="M291.529 45.3328C291.613 44.9504 291.981 44.7034 292.363 44.7644L292.405 44.7724L300.886 46.6351C301.282 46.7223 301.533 47.1144 301.446 47.5111C301.362 47.8935 300.994 48.1405 300.613 48.0795L300.57 48.0715L292.09 46.2087C291.693 46.1216 291.442 45.7295 291.529 45.3328Z" fill="#06D0B6"/>
<path fill-rule="evenodd" clip-rule="evenodd" d="M322.096 50.6458C322.261 50.2913 322.672 50.1304 323.031 50.2721L323.073 50.2898L332.386 54.628C332.754 54.7995 332.914 55.2369 332.742 55.605C332.577 55.9595 332.165 56.1204 331.807 55.9788L331.765 55.9611L322.452 51.6228C322.083 51.4514 321.924 51.0139 322.096 50.6458Z" fill="#06D0B6"/>
<rect x="178.34" y="131.47" width="38.8246" height="38.8246" transform="rotate(153.737 178.34 131.47)" fill="#06D0B6"/>
<path fill-rule="evenodd" clip-rule="evenodd" d="M132.698 139.216C133.09 139.221 133.406 139.532 133.423 139.918L133.424 139.961L133.409 141.064L134.512 141.079C134.904 141.084 135.22 141.394 135.237 141.781L135.238 141.824C135.232 142.215 134.922 142.531 134.536 142.549L134.493 142.549L132.654 142.525C132.263 142.52 131.947 142.209 131.93 141.823L131.929 141.78L131.953 139.942C131.959 139.536 132.292 139.211 132.698 139.216Z" fill="#164E63"/>
<path fill-rule="evenodd" clip-rule="evenodd" d="M138.414 142.598L142.32 142.651C142.726 142.656 143.06 142.331 143.065 141.925C143.07 141.519 142.746 141.186 142.34 141.18L138.434 141.128C138.028 141.122 137.694 141.447 137.689 141.853C137.683 142.259 138.008 142.593 138.414 142.598ZM146.226 142.703L150.131 142.755C150.537 142.761 150.871 142.436 150.876 142.03C150.882 141.624 150.557 141.29 150.151 141.285L146.245 141.232C145.839 141.227 145.506 141.552 145.5 141.958C145.495 142.364 145.82 142.697 146.226 142.703ZM154.037 142.808L157.943 142.86C158.349 142.865 158.683 142.54 158.688 142.134C158.693 141.728 158.369 141.395 157.963 141.389L154.057 141.337C153.651 141.332 153.317 141.656 153.312 142.062C153.306 142.468 153.631 142.802 154.037 142.808ZM161.849 142.912L165.754 142.964C166.16 142.97 166.494 142.645 166.499 142.239C166.505 141.833 166.18 141.499 165.774 141.494L161.868 141.442C161.462 141.436 161.129 141.761 161.123 142.167C161.118 142.573 161.443 142.907 161.849 142.912Z" fill="#164E63"/>
<path fill-rule="evenodd" clip-rule="evenodd" d="M171.547 139.731C171.938 139.736 172.254 140.046 172.271 140.433L172.272 140.476L172.247 142.314C172.242 142.706 171.932 143.022 171.546 143.039L171.502 143.04L169.664 143.015C169.258 143.01 168.933 142.676 168.939 142.27C168.944 141.878 169.254 141.562 169.641 141.545L169.684 141.545L170.787 141.559L170.802 140.456C170.807 140.065 171.117 139.749 171.503 139.732L171.547 139.731Z" fill="#164E63"/>
<path fill-rule="evenodd" clip-rule="evenodd" d="M172.321 136.578L172.37 132.672C172.375 132.266 172.05 131.933 171.644 131.928C171.238 131.923 170.905 132.248 170.9 132.654L170.851 136.56C170.846 136.966 171.171 137.299 171.577 137.304C171.983 137.309 172.316 136.984 172.321 136.578ZM172.419 128.767L172.468 124.861C172.473 124.455 172.148 124.122 171.742 124.116C171.336 124.111 171.003 124.436 170.998 124.842L170.949 128.748C170.944 129.154 171.269 129.488 171.675 129.493C172.081 129.498 172.414 129.173 172.419 128.767ZM172.517 120.955L172.566 117.049C172.571 116.643 172.246 116.31 171.84 116.305C171.434 116.3 171.101 116.625 171.096 117.031L171.047 120.937C171.042 121.343 171.367 121.676 171.773 121.681C172.179 121.686 172.512 121.361 172.517 120.955ZM172.615 113.143L172.664 109.238C172.669 108.832 172.344 108.498 171.938 108.493C171.532 108.488 171.199 108.813 171.194 109.219L171.145 113.125C171.14 113.531 171.465 113.864 171.871 113.869C172.277 113.875 172.61 113.55 172.615 113.143Z" fill="#164E63"/>
<path fill-rule="evenodd" clip-rule="evenodd" d="M170.174 102.721L172.012 102.746C172.404 102.751 172.72 103.061 172.737 103.447L172.738 103.491L172.713 105.329C172.708 105.735 172.374 106.06 171.968 106.054C171.577 106.049 171.261 105.739 171.243 105.352L171.243 105.309L171.257 104.206L170.154 104.192C169.763 104.186 169.447 103.876 169.43 103.49L169.429 103.446C169.434 103.055 169.745 102.739 170.131 102.722L170.174 102.721Z" fill="#164E63"/>
<path fill-rule="evenodd" clip-rule="evenodd" d="M166.277 102.672L162.371 102.62C161.965 102.614 161.632 102.939 161.626 103.345C161.621 103.751 161.946 104.085 162.352 104.09L166.257 104.142C166.663 104.148 166.997 103.823 167.002 103.417C167.008 103.011 166.683 102.677 166.277 102.672ZM158.466 102.567L154.56 102.515C154.154 102.51 153.82 102.834 153.815 103.241C153.809 103.647 154.134 103.98 154.54 103.986L158.446 104.038C158.852 104.043 159.185 103.719 159.191 103.313C159.196 102.906 158.872 102.573 158.466 102.567ZM150.654 102.463L146.748 102.411C146.342 102.405 146.009 102.73 146.003 103.136C145.998 103.542 146.323 103.876 146.729 103.881L150.634 103.933C151.04 103.939 151.374 103.614 151.379 103.208C151.385 102.802 151.06 102.468 150.654 102.463ZM142.843 102.358L138.937 102.306C138.531 102.301 138.197 102.625 138.192 103.031C138.186 103.437 138.511 103.771 138.917 103.776L142.823 103.829C143.229 103.834 143.562 103.509 143.568 103.103C143.573 102.697 143.249 102.364 142.843 102.358Z" fill="#164E63"/>
<path fill-rule="evenodd" clip-rule="evenodd" d="M133.189 102.231L135.027 102.255C135.433 102.261 135.758 102.594 135.752 103C135.747 103.392 135.437 103.708 135.051 103.725L135.007 103.726L133.904 103.711L133.89 104.814C133.884 105.206 133.574 105.522 133.188 105.539L133.145 105.54C132.753 105.534 132.437 105.224 132.42 104.838L132.419 104.794L132.444 102.956C132.449 102.565 132.759 102.249 133.146 102.232L133.189 102.231Z" fill="#164E63"/>
<path fill-rule="evenodd" clip-rule="evenodd" d="M132.37 108.692L132.318 112.597C132.313 113.003 132.637 113.337 133.043 113.342C133.449 113.348 133.783 113.023 133.788 112.617L133.841 108.711C133.846 108.305 133.521 107.972 133.115 107.966C132.709 107.961 132.376 108.285 132.37 108.692ZM132.266 116.503L132.213 120.409C132.208 120.815 132.533 121.148 132.939 121.154C133.345 121.159 133.678 120.835 133.684 120.428L133.736 116.523C133.742 116.117 133.417 115.783 133.011 115.778C132.605 115.772 132.271 116.097 132.266 116.503ZM132.161 124.315L132.109 128.22C132.104 128.626 132.428 128.96 132.834 128.965C133.24 128.971 133.574 128.646 133.579 128.24L133.632 124.334C133.637 123.928 133.312 123.595 132.906 123.589C132.5 123.584 132.167 123.908 132.161 124.315ZM132.057 132.126L132.004 136.032C131.999 136.438 132.324 136.771 132.73 136.777C133.136 136.782 133.469 136.458 133.475 136.051L133.527 132.146C133.533 131.74 133.208 131.406 132.802 131.401C132.396 131.395 132.062 131.72 132.057 132.126Z" fill="#164E63"/>
<path fill-rule="evenodd" clip-rule="evenodd" d="M141.995 128.064L142.281 128.064C142.687 128.068 143.012 128.402 143.007 128.808C143.003 129.199 142.693 129.516 142.307 129.533L142.248 129.534L142.095 129.534L141.994 129.535C141.834 129.537 141.65 129.541 141.445 129.547L141.132 129.557C140.652 129.576 140.12 129.604 139.54 129.645C137.567 129.784 135.388 130.04 133.057 130.442C126.492 131.573 119.947 133.627 113.842 136.83C107.024 140.408 101.166 145.221 96.5532 151.428C91.1816 158.657 87.6291 167.609 86.1872 178.455C86.1336 178.858 85.7639 179.14 85.3614 179.087C84.9588 179.033 84.6759 178.664 84.7294 178.261C86.2037 167.171 89.8498 157.984 95.3728 150.551C100.123 144.158 106.153 139.204 113.159 135.528C119.411 132.247 126.1 130.148 132.808 128.993C135.189 128.583 137.416 128.321 139.437 128.178C140.099 128.131 140.702 128.1 141.242 128.082L141.57 128.072C141.731 128.068 141.873 128.066 141.995 128.064Z" fill="#164E63"/>
<path fill-rule="evenodd" clip-rule="evenodd" d="M142.174 130.613C143.203 130.613 144.037 129.779 144.037 128.75C144.037 127.722 143.203 126.888 142.174 126.888C141.145 126.888 140.311 127.722 140.311 128.75C140.311 129.779 141.145 130.613 142.174 130.613Z" fill="#164E63"/>
<path fill-rule="evenodd" clip-rule="evenodd" d="M124.87 198.628H108.988C108.007 198.628 107.223 197.844 107.223 196.863V195.883C107.223 194.902 108.007 194.118 108.988 194.118H124.87C125.85 194.118 126.635 194.902 126.635 195.883V196.863C126.635 197.844 125.85 198.628 124.87 198.628Z" fill="#164E63"/>
<path fill-rule="evenodd" clip-rule="evenodd" d="M117.377 72.0866L91.2126 80.7915C90.8273 80.9198 90.6188 81.3361 90.747 81.7214L99.452 107.886C99.5802 108.271 99.9965 108.48 100.382 108.352L126.546 99.6465C126.932 99.5183 127.14 99.102 127.012 98.7167L118.307 72.5522C118.179 72.1668 117.762 71.9584 117.377 72.0866ZM117.143 73.7141L125.384 98.4832L100.615 106.724L92.3744 81.9548L117.143 73.7141Z" fill="#164E63"/>
<path fill-rule="evenodd" clip-rule="evenodd" d="M116.959 72.4624C117.142 72.1001 117.585 71.955 117.947 72.1383C118.296 72.3149 118.443 72.7316 118.29 73.0858L118.271 73.1264L100.747 107.759C100.563 108.121 100.121 108.266 99.7584 108.083C99.4095 107.906 99.262 107.49 99.4153 107.135L99.4344 107.095L116.959 72.4624Z" fill="#164E63"/>
<path fill-rule="evenodd" clip-rule="evenodd" d="M90.8055 81.1663C90.9806 80.8166 91.3967 80.6674 91.7515 80.8191L91.7922 80.838L126.645 98.289C127.008 98.4708 127.155 98.9125 126.973 99.2757C126.798 99.6253 126.382 99.7746 126.027 99.6228L125.987 99.6039L91.1338 82.1529C90.7707 81.9711 90.6237 81.5294 90.8055 81.1663Z" fill="#164E63"/>
<rect x="122.514" y="56.6039" width="31.8134" height="31.2742" transform="rotate(9.9333 122.514 56.6039)" fill="#06D0B6"/>
<path fill-rule="evenodd" clip-rule="evenodd" d="M146.831 77.9092L139.516 76.6282C139.116 76.5581 138.734 76.8256 138.664 77.2256L137.383 84.5407C137.313 84.9407 137.581 85.3217 137.981 85.3918L145.296 86.6729C145.696 86.7429 146.077 86.4754 146.147 86.0754L147.428 78.7604C147.498 78.3604 147.231 77.9793 146.831 77.9092ZM145.853 79.2307L144.825 85.0973L138.959 84.0699L139.986 78.2033L145.853 79.2307Z" fill="#164E63"/>
<path fill-rule="evenodd" clip-rule="evenodd" d="M146.286 78.0499C146.619 77.817 147.078 77.8979 147.31 78.2306C147.534 78.5505 147.468 78.9866 147.167 79.2268L147.13 79.2546L138.551 85.2595C138.219 85.4924 137.76 85.4115 137.527 85.0788C137.303 84.7589 137.37 84.3227 137.671 84.0826L137.708 84.0548L146.286 78.0499Z" fill="#164E63"/>
<path fill-rule="evenodd" clip-rule="evenodd" d="M148.913 65.6383L125.784 61.5879C125.384 61.5178 125.003 61.7853 124.933 62.1853L123.711 69.1624C123.641 69.5624 123.909 69.9435 124.309 70.0135L147.437 74.0639C147.837 74.1339 148.218 73.8665 148.288 73.4665L149.51 66.4894C149.58 66.0894 149.313 65.7083 148.913 65.6383ZM147.934 66.9598L146.966 72.4884L125.287 68.6917L126.255 63.1631L147.934 66.9598Z" fill="#164E63"/>
<path fill-rule="evenodd" clip-rule="evenodd" d="M121.474 82.0794C121.542 81.6936 121.898 81.4311 122.282 81.4756L122.325 81.4818L134.09 83.5407C134.49 83.6107 134.757 83.9917 134.687 84.3917C134.62 84.7774 134.263 85.04 133.879 84.9954L133.836 84.9892L122.072 82.9304C121.672 82.8604 121.404 82.4794 121.474 82.0794Z" fill="#164E63"/>
<path fill-rule="evenodd" clip-rule="evenodd" d="M121.964 79.2118C122.032 78.8261 122.388 78.5636 122.773 78.6081L122.815 78.6143L134.58 80.6731C134.98 80.7431 135.248 81.1241 135.178 81.5241C135.11 81.9099 134.753 82.1724 134.369 82.1279L134.326 82.1217L122.562 80.0629C122.162 79.9929 121.894 79.6118 121.964 79.2118Z" fill="#164E63"/>
<path fill-rule="evenodd" clip-rule="evenodd" d="M122.454 76.3441C122.522 75.9584 122.879 75.6959 123.263 75.7404L123.306 75.7466L135.07 77.8054C135.47 77.8754 135.738 78.2565 135.668 78.6565C135.6 79.0422 135.244 79.3047 134.86 79.2602L134.817 79.254L123.052 77.1952C122.652 77.1252 122.384 76.7442 122.454 76.3441Z" fill="#164E63"/>
<path fill-rule="evenodd" clip-rule="evenodd" d="M122.969 73.501C123.037 73.1153 123.393 72.8527 123.777 72.8972L123.82 72.9035L135.585 74.9623C135.985 75.0323 136.252 75.4133 136.182 75.8133C136.115 76.1991 135.758 76.4616 135.374 76.4171L135.331 76.4109L123.567 74.352C123.167 74.282 122.899 73.901 122.969 73.501Z" fill="#164E63"/>
<path fill-rule="evenodd" clip-rule="evenodd" d="M148.704 65.6427C149.107 65.5944 149.473 65.8821 149.521 66.2853C149.568 66.6741 149.302 67.0284 148.922 67.0965L148.879 67.1029L124.541 70.0196C124.137 70.0679 123.771 69.7802 123.723 69.377C123.676 68.9882 123.942 68.6339 124.323 68.5658L124.366 68.5594L148.704 65.6427Z" fill="#164E63"/>
<path fill-rule="evenodd" clip-rule="evenodd" d="M216.365 131.765H198.939C196.4 131.765 194.331 133.834 194.331 136.373V136.814C194.331 139.352 196.4 141.422 198.939 141.422H216.365C218.904 141.422 220.973 139.352 220.973 136.814V136.373C220.973 133.834 218.904 131.765 216.365 131.765ZM198.939 133.236H216.365C218.091 133.236 219.502 134.647 219.502 136.373V136.814C219.502 138.54 218.091 139.951 216.365 139.951H198.939C197.212 139.951 195.801 138.54 195.801 136.814V136.373C195.801 134.647 197.212 133.236 198.939 133.236Z" fill="#164E63"/>
<path fill-rule="evenodd" clip-rule="evenodd" d="M215.728 142.77C219.234 142.77 222.076 139.928 222.076 136.422C222.076 132.916 219.234 130.074 215.728 130.074C212.222 130.074 209.38 132.916 209.38 136.422C209.38 139.928 212.222 142.77 215.728 142.77Z" fill="#06D0B6"/>
<path fill-rule="evenodd" clip-rule="evenodd" d="M225.777 146.642C226.183 146.642 226.512 146.972 226.512 147.378C226.512 147.769 226.206 148.089 225.82 148.112L225.777 148.113H206.708C206.302 148.113 205.973 147.784 205.973 147.378C205.973 146.986 206.279 146.666 206.665 146.644L206.708 146.642H225.777Z" fill="#164E63"/>
</svg>
