<svg width="413" height="200" viewBox="0 0 413 200" fill="none" xmlns="http://www.w3.org/2000/svg">
<g clip-path="url(#clip0_35_3365)">
<path fill-rule="evenodd" clip-rule="evenodd" d="M111.327 89.054C111.742 89.054 112.079 89.3902 112.079 89.8049C112.079 90.2049 111.766 90.5318 111.371 90.5547L111.327 90.5559H83.6018C64.9701 90.5559 49.8206 105.512 49.5195 124.063L49.5149 124.626V199.099C49.5149 199.514 49.1785 199.85 48.7636 199.85C48.3634 199.85 48.0363 199.537 48.0135 199.143L48.0122 199.099V124.626C48.0122 105.182 63.6347 89.373 83.0135 89.0587L83.6018 89.054H111.327Z" fill="#164E63"/>
<path fill-rule="evenodd" clip-rule="evenodd" d="M189.291 75.1509C189.517 74.8036 189.983 74.7057 190.33 74.9323C195.264 78.1492 198.35 82.3814 200.001 87.517L200.058 87.6965C201.247 91.4888 201.538 94.6166 201.577 100.273L201.585 101.732L201.588 101.976L201.709 102.147C204.858 106.595 208.092 112.115 211.932 119.377L212.438 120.34C214.444 124.178 219.238 133.563 219.688 134.429L219.897 134.831C222.35 139.537 224.094 142.616 225.556 144.726L225.66 144.876L225.806 144.928C227.169 145.42 228.511 145.962 229.897 146.577L230.276 146.746C230.654 146.916 230.823 147.361 230.653 147.739C230.483 148.117 230.038 148.286 229.659 148.116C228.047 147.391 226.508 146.767 224.934 146.211C224.788 146.16 224.662 146.065 224.572 145.94L224.45 145.767C222.974 143.668 221.258 140.669 218.863 136.097L218.246 134.912C217.342 133.155 212.394 123.472 210.761 120.377L210.292 119.491C206.513 112.377 203.327 106.983 200.229 102.659C200.14 102.534 200.091 102.386 200.088 102.233L200.081 101.585L200.074 100.285C200.036 94.7711 199.755 91.755 198.624 88.1457C197.089 83.2508 194.198 79.2471 189.509 76.1902C189.162 75.9636 189.064 75.4983 189.291 75.1509Z" fill="#164E63"/>
<path fill-rule="evenodd" clip-rule="evenodd" d="M145.792 69.1378C146.201 69.0699 146.588 69.3465 146.656 69.7557C146.724 70.1648 146.447 70.5516 146.038 70.6195C130.474 73.2024 120.422 77.57 115.508 83.3179C111.31 88.229 110.975 94.0719 114.032 100.392C114.207 100.754 114.066 101.19 113.712 101.381C107.366 104.795 100.776 109.338 94.2101 115.177C85.8897 122.575 78.1487 131.588 71.2616 142.377C60.7463 158.853 58.7924 173.155 63.764 184.081C67.7054 192.743 76.0365 198.423 83.2009 198.423L85.3069 198.418C91.6823 198.396 107.799 198.296 131.581 198.135L171.099 197.86L248.486 197.3L248.491 197.289C248.562 197.122 248.638 196.94 248.718 196.743L248.865 196.372C249.297 195.262 249.731 193.995 250.136 192.595C252.39 184.802 252.816 176.641 250.273 169.037C250.148 168.663 250.016 168.291 249.877 167.922C249.73 167.534 249.926 167.101 250.315 166.955C250.703 166.808 251.136 167.004 251.283 167.392C251.429 167.779 251.567 168.168 251.698 168.56C253.151 172.904 253.678 177.496 253.432 182.217C253.236 185.954 252.569 189.59 251.579 193.013C251.161 194.457 250.713 195.766 250.265 196.917L250.161 197.18C250.06 197.435 249.963 197.669 249.873 197.88L249.743 198.179C249.718 198.235 249.696 198.282 249.679 198.319L249.657 198.368C249.541 198.613 249.302 198.776 249.033 198.796L224.961 198.974L165.627 199.4C118.931 199.73 88.8231 199.925 83.2009 199.925C75.431 199.925 66.5752 193.887 62.3961 184.703C57.197 173.277 59.2229 158.447 69.9947 141.57C76.9573 130.662 84.7888 121.544 93.2112 114.055C99.5433 108.424 105.902 103.978 112.057 100.572L112.376 100.397L112.301 100.229C109.445 93.7733 109.924 87.6546 114.228 82.5045L114.365 82.3422C119.553 76.2738 129.912 71.7732 145.792 69.1378Z" fill="#164E63"/>
<path fill-rule="evenodd" clip-rule="evenodd" d="M142.684 86.9512L139.378 89.3543C139.378 89.3543 161.493 112.36 171.411 159.221C172.538 164.553 173.34 168.584 173.891 171.663C173.866 171.688 180.603 172.389 180.427 172.314C178.474 159.422 175.769 135.941 179.676 124.576C185.211 108.454 185.361 99.1172 181.605 87.3517C180.703 84.523 179.451 105.651 172.789 113.186C155.983 94.5111 142.684 86.9512 142.684 86.9512Z" fill="#06D0B6"/>
<path fill-rule="evenodd" clip-rule="evenodd" d="M148.592 76.7128L148.636 76.7139C149.036 76.736 149.345 77.0662 149.346 77.461L149.345 77.5052L149.119 81.5855C149.111 81.734 149.059 81.8762 148.971 81.9944L148.936 82.0376L144.399 87.2391L144.829 87.5227C145.069 87.6816 145.323 87.8518 145.59 88.0332L146.071 88.3611L146.515 88.6678C148.309 89.9114 150.283 91.3573 152.396 92.9996C158.934 98.081 165.471 103.993 171.574 110.677C171.878 111.01 172.181 111.344 172.481 111.68L172.787 112.022L172.803 112C173.011 111.715 173.236 111.384 173.474 111.005L173.554 110.877C174.561 109.251 175.574 107.154 176.522 104.54C178.209 99.8896 179.5 94.1368 180.231 87.1732C180.275 86.7607 180.644 86.4615 181.057 86.5048C181.47 86.5481 181.769 86.9176 181.726 87.3301C180.982 94.4122 179.664 100.284 177.934 105.053C176.951 107.762 175.894 109.952 174.832 111.668C174.456 112.275 174.105 112.781 173.787 113.191L173.659 113.353C173.525 113.519 173.423 113.635 173.357 113.705C173.052 114.023 172.54 114.012 172.249 113.681C171.661 113.012 171.066 112.348 170.464 111.689C164.546 105.208 158.212 99.4565 151.87 94.4944L151.474 94.1853C149.296 92.4926 147.268 91.0117 145.439 89.7496L144.921 89.3949C144.432 89.0618 143.988 88.7654 143.591 88.5064L143.154 88.2233L142.865 88.0405C142.484 87.8051 142.395 87.2945 142.663 86.9451L142.694 86.9084L147.633 81.245L147.844 77.4224C147.866 77.0378 148.173 76.7369 148.548 76.7141L148.592 76.7128Z" fill="#164E63"/>
<path fill-rule="evenodd" clip-rule="evenodd" d="M153.696 120.819C154.179 120.587 154.756 120.777 155.009 121.242L155.062 121.349L155.265 121.781L155.451 122.181C155.755 122.84 156.091 123.585 156.452 124.405L156.542 124.612C157.671 127.187 158.799 129.944 159.853 132.775C160.946 135.712 161.896 138.562 162.662 141.266C163.65 144.759 164.305 147.916 164.569 150.665C164.622 151.215 164.218 151.704 163.668 151.757C163.117 151.81 162.627 151.406 162.575 150.856C162.324 148.242 161.692 145.197 160.734 141.811C159.984 139.163 159.05 136.362 157.975 133.473C156.935 130.681 155.821 127.958 154.707 125.415L154.442 124.813C154.152 124.16 153.881 123.56 153.631 123.019L153.369 122.456L153.227 122.156C152.987 121.657 153.197 121.059 153.696 120.819Z" fill="#164E63"/>
<path fill-rule="evenodd" clip-rule="evenodd" d="M185.913 120.121C186.435 120.241 186.767 120.75 186.673 121.271L186.545 121.853L186.426 122.41C186.363 122.704 186.298 123.022 186.229 123.363C185.902 124.987 185.574 126.78 185.268 128.689C184.592 132.911 184.121 137.079 183.947 140.967C183.809 144.025 183.862 146.808 184.128 149.25C184.188 149.8 183.791 150.294 183.241 150.354C182.691 150.414 182.196 150.017 182.136 149.467C181.858 146.913 181.803 144.03 181.945 140.877C182.124 136.904 182.603 132.664 183.29 128.373L183.407 127.652C183.664 126.103 183.933 124.636 184.203 123.279L184.265 122.967C184.335 122.621 184.402 122.296 184.465 121.996L184.626 121.248L184.711 120.87C184.836 120.332 185.374 119.996 185.913 120.121Z" fill="#164E63"/>
<path fill-rule="evenodd" clip-rule="evenodd" d="M200.367 194.004L200.395 194.048C200.588 194.357 200.731 194.61 200.82 194.803C201.18 195.58 200.88 196.395 200.142 196.852C199.505 197.246 198.606 197.349 197.629 197.139C195.439 196.667 193.122 194.766 191.09 191.438L191.034 191.347L164.419 190.287C164.007 190.27 163.688 189.926 163.697 189.519L163.7 189.475L165.278 170.025C165.312 169.606 165.682 169.299 166.095 169.338L166.288 169.366L167.484 169.552C168.399 169.695 169.404 169.854 170.48 170.028L171.023 170.116C174.47 170.675 177.916 171.259 181.16 171.843L182.501 172.087C184.2 172.399 185.792 172.703 187.258 172.996L187.817 173.109C188.093 173.165 188.364 173.22 188.627 173.275L188.889 173.329L191.122 173.771L191.269 173.782C192.528 173.884 193.796 174.191 195.017 174.618L195.21 174.686L195.458 174.778C197.228 175.45 201.258 177.25 205.11 179.09L205.99 179.512C210.764 181.817 213.858 183.496 214.45 184.236C215.247 185.231 215.143 186.684 214.214 187.572C213.562 188.196 212.642 188.444 211.565 188.29L211.527 188.284L211.72 188.491C212.644 189.497 213.149 190.204 213.304 190.716L213.314 190.751C213.671 192.141 212.534 193.204 210.9 193.378C209.684 193.507 208.334 193.161 207.1 192.375L207.071 192.356L207.224 192.542C207.602 193.007 207.86 193.361 207.993 193.599L208.028 193.666C208.675 195.006 207.401 196.398 205.608 196.473C204.086 196.537 202.334 195.768 200.501 194.125L200.367 194.004ZM166.71 170.951L165.261 188.817L191.503 189.862C191.742 189.872 191.962 189.995 192.095 190.192L192.122 190.236C194.021 193.503 196.117 195.277 197.946 195.67C198.567 195.804 199.073 195.746 199.35 195.575L199.403 195.541C199.475 195.492 199.476 195.475 199.457 195.434L199.425 195.369C199.112 194.744 198.064 193.242 196.54 191.205L196.274 190.852C195.636 190.003 194.957 189.116 194.273 188.233L193.584 187.347L192.937 186.522C192.534 186.013 192.924 185.268 193.572 185.307C194.253 185.348 195.855 186.738 199.446 190.829L200.03 191.497C202.164 193.955 204.105 195.033 205.545 194.972C206.02 194.952 206.376 194.801 206.568 194.591C206.682 194.467 206.701 194.373 206.68 194.328L206.658 194.288C206.358 193.759 204.733 191.899 202.34 189.323L202.053 189.014L201.416 188.334C200.665 187.532 199.884 186.707 199.1 185.884L198.019 184.754L197.269 183.975C196.613 183.298 197.546 182.29 198.267 182.857L198.301 182.885L207.01 190.411C208.206 191.515 209.596 192.006 210.741 191.884C211.576 191.795 211.943 191.453 211.862 191.138C211.737 190.686 210.581 189.378 208.381 187.261L207.841 186.746L206.975 186.3C206.655 186.135 206.321 185.962 205.975 185.782L204.916 185.229L203.995 184.745C203.064 184.255 202.105 183.748 201.146 183.238L199.421 182.318L198.756 181.962C198.39 181.766 198.253 181.31 198.45 180.945C198.639 180.593 199.068 180.453 199.426 180.618L201.373 181.657L202.808 182.42C203.443 182.757 204.075 183.09 204.695 183.416L205.859 184.027C206.674 184.453 207.427 184.844 208.109 185.195L208.237 185.26L208.265 185.264C208.397 185.284 208.525 185.339 208.634 185.429L208.669 185.461L208.717 185.506L209.432 185.869C209.581 185.944 209.724 186.016 209.862 186.085L210.364 186.334C211.716 187 212.681 186.959 213.175 186.487C213.544 186.134 213.585 185.559 213.277 185.174C212.45 184.141 198.765 177.568 194.699 176.099C193.477 175.658 192.201 175.345 190.974 175.266L190.925 175.261L190.876 175.253L188.589 174.801L187.954 174.67C187.738 174.625 187.52 174.581 187.298 174.536L186.963 174.469C185.297 174.136 183.466 173.788 181.497 173.431L180.285 173.212C177.637 172.739 174.863 172.266 172.072 171.809L170.24 171.511C169.525 171.395 168.841 171.286 168.194 171.184L166.71 170.951Z" fill="#164E63"/>
<path fill-rule="evenodd" clip-rule="evenodd" d="M118.41 157.544L122.129 157.864L125.58 158.166C129.953 158.551 134.326 158.944 138.504 159.329L142.294 159.681L146.027 160.035C155.537 160.948 161.738 161.629 163.593 162.004L163.651 162.016C166.037 162.515 167.11 163.464 168.142 165.383L168.291 165.662C169.022 167.036 169.465 167.525 170.569 167.895L171.222 168.111C172.382 168.496 173.334 168.824 174.096 169.097L174.3 169.17C174.481 169.235 174.643 169.295 174.788 169.349L175.227 169.516C175.286 169.539 175.328 169.556 175.355 169.567C175.749 169.73 175.926 170.185 175.753 170.569L175.649 170.776L175.592 170.892C175.475 171.13 175.345 171.407 175.204 171.719C174.801 172.615 174.397 173.613 174.021 174.686C172.977 177.66 172.34 180.624 172.308 183.369C172.283 185.527 172.638 187.46 173.418 189.116C173.569 189.437 173.476 189.82 173.193 190.034L173.147 190.068C173.086 190.111 172.999 190.167 172.885 190.236C172.656 190.373 172.372 190.522 172.031 190.681C171.079 191.124 169.846 191.563 168.297 191.969L168.009 192.043C166.91 192.314 166.427 192.751 165.639 193.98L165.421 194.322C164.254 196.15 163.136 197.018 160.783 197.349L157.629 197.792C155.834 198.042 154.154 198.262 152.384 198.473C147.962 198.999 143.745 199.369 139.777 199.535C138.015 199.608 136.332 199.639 134.738 199.625C134.323 199.621 133.989 199.281 133.993 198.867C133.997 198.452 134.337 198.119 134.752 198.123C136.319 198.137 137.977 198.107 139.714 198.034C143.639 197.87 147.82 197.503 152.206 196.981C153.77 196.795 155.263 196.602 156.83 196.386L160.441 195.88L160.469 195.876C162.338 195.632 163.129 195.072 164.05 193.676L164.196 193.45C164.225 193.403 164.26 193.348 164.314 193.263L164.436 193.073C165.365 191.646 166.095 190.988 167.549 190.61L167.781 190.551L167.915 190.516C169.38 190.132 170.529 189.724 171.396 189.32C171.495 189.274 171.587 189.23 171.673 189.187L171.785 189.129L171.774 189.101C171.11 187.437 170.801 185.576 170.804 183.554L170.805 183.351C170.84 180.421 171.509 177.305 172.603 174.189C172.994 173.073 173.414 172.036 173.834 171.103L173.942 170.864L174.032 170.671L173.485 170.473C172.611 170.162 171.492 169.78 170.095 169.321C168.569 168.809 167.887 168.079 167.018 166.467L166.819 166.094C165.995 164.563 165.27 163.908 163.445 163.508L163.343 163.486C161.571 163.116 154.868 162.386 144.666 161.414L141.638 161.128L139.75 160.952C135.849 160.591 131.756 160.221 127.633 159.855L122.296 159.387L118.326 159.043C117.912 159.008 117.606 158.645 117.641 158.231C117.675 157.833 118.015 157.534 118.41 157.544Z" fill="#164E63"/>
<path fill-rule="evenodd" clip-rule="evenodd" d="M168.356 191.889C172.313 190.913 173.665 189.937 173.665 189.937C169.683 181.701 176.12 169.61 176.12 169.61C176.12 169.61 174.868 169.109 171.011 167.833C169.458 167.307 168.807 166.381 168.256 165.38C159.014 173.615 161.944 190.387 163.397 196.521C165.501 195.069 165.375 192.615 168.356 191.889Z" fill="#164E63"/>
<path fill-rule="evenodd" clip-rule="evenodd" d="M122.261 146.56C122.341 146.153 122.736 145.888 123.143 145.968L123.207 145.982C123.303 146.003 123.437 146.038 123.606 146.088C123.947 146.189 124.323 146.325 124.726 146.5C125.871 146.995 127.012 147.706 128.077 148.67C130.645 150.997 132.347 154.403 132.788 159.05C132.827 159.463 132.523 159.83 132.11 159.869C131.697 159.908 131.331 159.605 131.291 159.192C130.887 154.917 129.358 151.857 127.068 149.783C126.132 148.935 125.129 148.311 124.129 147.878C123.782 147.728 123.461 147.612 123.176 147.527L123.075 147.498C122.997 147.476 122.937 147.46 122.894 147.451L122.853 147.442C122.446 147.362 122.181 146.967 122.261 146.56Z" fill="#164E63"/>
<path fill-rule="evenodd" clip-rule="evenodd" d="M225.194 174.133C225.599 174.222 225.856 174.622 225.768 175.027L225.711 175.277C225.695 175.343 225.679 175.415 225.66 175.491L225.592 175.772C225.522 176.06 225.442 176.369 225.355 176.696C225.023 177.942 224.643 179.189 224.22 180.357C223.531 182.256 222.798 183.76 222.001 184.748L221.928 184.836C221.256 185.639 221.471 186.381 222.433 186.963C223.439 187.572 224.8 187.646 225.658 187.099L225.975 186.887C226.038 186.845 226.085 186.812 226.136 186.776C226.178 186.746 226.218 186.718 226.257 186.689C226.362 186.611 226.463 186.531 226.577 186.435C226.894 186.167 227.368 186.206 227.636 186.523C227.904 186.839 227.864 187.313 227.548 187.581C227.409 187.698 227.282 187.799 227.151 187.896L227.078 187.949L226.95 188.04C226.88 188.089 226.811 188.136 226.703 188.208L226.563 188.302C225.193 189.248 223.158 189.158 221.655 188.248C219.99 187.241 219.467 185.499 220.724 183.936L220.776 183.873C221.461 183.053 222.153 181.65 222.807 179.846C223.214 178.723 223.582 177.517 223.903 176.31L223.985 175.998C224.064 175.693 224.136 175.406 224.199 175.142L224.299 174.707C224.388 174.302 224.788 174.045 225.194 174.133Z" fill="#164E63"/>
<path fill-rule="evenodd" clip-rule="evenodd" d="M233.533 163.753C233.947 163.731 234.301 164.048 234.324 164.462C234.347 164.876 234.03 165.23 233.615 165.253C229.272 165.491 226.703 167.667 226.491 172.178L226.488 172.267L226.732 174.692C226.877 176.148 227.022 177.62 227.162 179.053L227.45 182.047C227.708 184.773 227.898 186.892 227.998 188.22L228.037 188.76C228.126 190.071 228.682 190.669 229.521 190.734C230.248 190.79 231.041 190.401 231.294 189.936L231.316 189.894C231.491 189.518 231.939 189.356 232.314 189.532C232.69 189.708 232.853 190.155 232.677 190.53C232.169 191.615 230.746 192.335 229.406 192.231C227.827 192.11 226.711 190.935 226.545 188.957L226.493 188.242C226.387 186.865 226.189 184.661 225.92 181.836L225.784 180.415L225.545 177.963C225.505 177.549 225.464 177.132 225.422 176.716L224.987 172.364C224.984 172.33 224.983 172.296 224.984 172.262C225.18 166.821 228.418 164.034 233.533 163.753Z" fill="#164E63"/>
<path fill-rule="evenodd" clip-rule="evenodd" d="M237.724 164.743C237.813 164.338 238.213 164.082 238.619 164.17C242.586 165.038 246.242 166.899 247.026 168.538L247.038 168.564L247.069 168.599C248.332 170.052 248.63 174.163 248.295 180.077L248.267 180.548C247.981 185.174 247.304 190.192 246.853 191.156C246.328 192.277 244.935 192.839 243.642 192.511C242.973 192.341 242.402 191.963 241.971 191.408L241.949 191.379L241.938 191.396C241.351 192.336 240.107 192.796 238.93 192.528L238.858 192.511C238.189 192.341 237.619 191.963 237.187 191.408L237.149 191.358C236.591 192.494 235.281 193.021 233.998 192.688L233.925 192.668C232.459 192.249 231.431 190.852 231.297 188.861L231.274 188.507C231.202 187.363 231.131 185.844 231.061 184.035C231.015 182.859 230.972 181.616 230.933 180.359L230.88 178.619L230.844 177.314C230.834 176.9 231.162 176.555 231.576 176.544C231.991 176.534 232.336 176.861 232.347 177.276L232.4 179.166L232.435 180.312C232.469 181.408 232.506 182.495 232.545 183.534L232.607 185.091C232.67 186.581 232.733 187.826 232.796 188.76C232.89 190.144 233.509 190.987 234.338 191.224C235.016 191.417 235.648 191.14 235.847 190.584C236.045 190.035 236.137 188.285 236.127 185.772L236.125 185.369L236.07 184.01C236.024 182.834 235.981 181.591 235.942 180.334L235.89 178.594L235.854 177.289C235.828 176.303 237.3 176.243 237.355 177.228L237.398 178.062C237.43 178.717 237.463 179.434 237.493 180.19L237.524 181.012C237.559 181.966 237.586 182.9 237.605 183.797L237.612 184.179C237.616 184.412 237.62 184.641 237.623 184.864L237.628 185.346L237.679 186.465C237.718 187.294 237.758 188.019 237.798 188.621L237.805 188.735C237.898 190.105 238.456 190.859 239.229 191.055C239.856 191.214 240.505 190.952 240.71 190.515C240.757 190.417 240.822 189.676 240.851 188.6L240.861 188.153C240.879 187.068 240.872 185.697 240.843 184.106L240.827 183.31L240.82 183.116C240.787 182.211 240.755 181.276 240.726 180.334L240.673 178.594L240.637 177.289C240.612 176.297 242.097 176.246 242.139 177.238L242.176 178.17C242.203 178.9 242.231 179.692 242.256 180.52L242.285 181.497C242.294 181.82 242.303 182.14 242.31 182.456L242.329 183.271L242.385 184.704C242.452 186.355 242.521 187.726 242.589 188.735C242.682 190.105 243.24 190.859 244.012 191.055C244.639 191.214 245.289 190.952 245.491 190.52C245.833 189.789 246.508 184.762 246.776 180.312L246.784 180.177C247.111 174.587 246.798 170.445 245.918 169.564L245.891 169.539C245.809 169.464 245.745 169.372 245.702 169.27L245.683 169.218C245.357 168.219 241.943 166.435 238.298 165.637C237.892 165.549 237.635 165.149 237.724 164.743Z" fill="#164E63"/>
<path fill-rule="evenodd" clip-rule="evenodd" d="M239.585 165.229C243.116 166.181 246.022 167.858 246.397 169.034C248.125 170.611 247.775 179.022 247.149 184.955C249.578 182.127 251.031 178.472 251.031 174.441C251.031 167.232 246.322 161.124 239.785 159.046" fill="#164E63"/>
<path fill-rule="evenodd" clip-rule="evenodd" d="M233.424 158.37C225.184 159.096 218.722 166.03 218.722 174.466C218.722 177.971 219.849 181.2 221.728 183.854C223.706 180.95 225.034 174.892 225.034 174.892L226.136 176.244C225.91 173.966 225.735 172.339 225.735 172.339C225.91 166.806 229.392 164.804 233.449 164.553" fill="#164E63"/>
<path fill-rule="evenodd" clip-rule="evenodd" d="M228.528 149.759C228.943 149.752 229.284 150.083 229.291 150.498C229.298 150.897 228.99 151.229 228.597 151.259L228.351 151.269L228.193 151.278C228.056 151.286 227.904 151.298 227.738 151.313C227.069 151.373 226.322 151.475 225.517 151.627C223.215 152.062 220.914 152.815 218.772 153.959C212.841 157.127 209.233 162.634 209.054 171.153C209.046 171.567 208.702 171.897 208.288 171.888C207.873 171.879 207.543 171.536 207.552 171.121C207.743 162.042 211.668 156.051 218.064 152.634C220.351 151.412 222.795 150.613 225.237 150.151C226.092 149.99 226.887 149.882 227.603 149.817L227.77 149.803C228.118 149.774 228.375 149.761 228.528 149.759Z" fill="#164E63"/>
<path fill-rule="evenodd" clip-rule="evenodd" d="M206.024 153.025C208.686 148.339 213.422 145.596 220.622 145.804C221.037 145.816 221.363 146.162 221.351 146.576C221.339 146.991 220.993 147.317 220.579 147.305C213.942 147.114 209.722 149.558 207.331 153.767C206.522 155.192 205.984 156.724 205.668 158.258C205.558 158.794 205.483 159.291 205.438 159.735L205.421 159.911C205.416 159.966 205.412 160.019 205.409 160.068L205.4 160.198C205.399 160.231 205.398 160.254 205.398 160.266C205.387 160.681 205.043 161.009 204.628 160.998C204.213 160.988 203.885 160.644 203.895 160.229L203.9 160.117C203.905 160.003 203.917 159.847 203.935 159.656L203.943 159.582C203.993 159.09 204.075 158.543 204.196 157.955C204.542 156.277 205.131 154.598 206.024 153.025Z" fill="#164E63"/>
<path fill-rule="evenodd" clip-rule="evenodd" d="M200.013 101.295C200.013 101.595 200.013 101.871 200.038 102.146C197.584 115.589 195.405 113.937 189.619 124.576C189.569 124.651 189.544 124.726 189.494 124.826C197.409 121.722 203.62 117.692 207.176 110.808C207.201 110.808 202.543 104.249 200.013 101.295Z" fill="#164E63"/>
<path fill-rule="evenodd" clip-rule="evenodd" d="M113.957 100.219C110.175 102.246 105.692 105.075 100.633 109.03C104.865 111.459 136.322 129.007 150.924 125.252C140.705 125.252 120.068 113.186 113.957 100.219Z" fill="#164E63"/>
<path fill-rule="evenodd" clip-rule="evenodd" d="M157.994 23.2512C154.161 25.5836 151.217 28.8232 149.057 32.7323C147.439 35.6579 146.351 38.7861 145.689 41.9134C145.457 43.0082 145.296 44.0257 145.191 44.9408L145.166 45.1757C145.15 45.3278 145.136 45.471 145.125 45.6047L145.109 45.7982C145.098 45.9502 145.091 46.0575 145.089 46.1168L145.088 46.1475V46.2477L145.09 46.2916C145.112 46.6698 145.414 46.9756 145.797 46.9974L150.259 47.2515L150.284 47.2964C151.337 49.2155 152.802 56.2574 153.585 62.2164C153.64 62.6361 154.03 62.9242 154.443 62.861L154.77 62.7964C154.98 62.7559 155.224 62.7112 155.502 62.6633L155.623 62.6425C156.563 62.4822 157.658 62.3217 158.896 62.1717L159.225 62.1325C165.493 61.3961 172.657 61.2173 180.351 61.9267L180.747 61.9638L181.185 62.0242L181.785 62.11C182.02 62.1444 182.267 62.1812 182.523 62.2204L182.718 62.2502C184.21 62.4807 185.703 62.739 187.093 63.0187L187.599 63.1223C189.531 63.526 191.062 63.9379 192.038 64.3399C192.465 64.5161 192.949 64.2679 193.055 63.8178C195.295 54.3204 196.586 44.4554 196.406 35.6434C196.255 28.8546 192.546 24.3313 186.437 21.7165C184.227 20.7706 181.817 20.1286 179.329 19.7341C177.723 19.4796 176.32 19.3593 175.104 19.3177L174.939 19.3125C168.147 19.1059 162.527 20.4925 157.994 23.2512ZM174.895 20.8139C176.09 20.8484 177.485 20.9627 179.093 21.2176C181.468 21.594 183.76 22.2048 185.845 23.0973C191.455 25.498 194.767 29.5382 194.904 35.6755L194.911 36.0764C195.035 44.2435 193.887 53.3373 191.893 62.1719L191.785 62.6468L191.765 62.6402C190.643 62.2668 189.16 61.9025 187.389 61.5463C186.116 61.2901 184.762 61.0522 183.401 60.8369L182.947 60.7659C182.616 60.7148 182.3 60.6674 182.002 60.6238L181.307 60.5247L180.926 60.4728L180.9 60.4699C172.802 59.6921 165.272 59.886 158.715 60.6807L158.248 60.7386C157.252 60.865 156.352 60.9978 155.553 61.1312L155.124 61.2045L154.968 61.2319L154.91 60.815C153.999 54.3965 152.503 47.6012 151.259 46.0529L151.228 46.0158C151.096 45.8719 150.912 45.7845 150.716 45.7733L146.639 45.5408L146.66 45.3313C146.668 45.26 146.676 45.1866 146.684 45.111C146.783 44.2416 146.938 43.2707 147.159 42.2242C147.792 39.2334 148.833 36.2434 150.372 33.4587C152.412 29.7675 155.179 26.7227 158.775 24.5342C163.052 21.9315 168.384 20.6158 174.895 20.8139Z" fill="#164E63"/>
<path fill-rule="evenodd" clip-rule="evenodd" d="M143.663 49.7025C144.078 49.6899 144.424 50.0158 144.437 50.4304C144.449 50.845 144.123 51.1912 143.709 51.2038C142.007 51.2553 140.355 51.6327 139.069 52.4638C137.327 53.589 136.448 55.4344 136.695 58.2744C136.91 60.7802 138.026 62.2334 139.896 62.9185C141.383 63.4629 143.262 63.493 145.29 63.1551C145.7 63.0869 146.087 63.3633 146.155 63.7724C146.223 64.1815 145.947 64.5684 145.538 64.6366C143.276 65.0134 141.156 64.9794 139.379 64.3287C136.962 63.4433 135.463 61.491 135.198 58.4036C134.904 55.0164 136.039 52.6329 138.253 51.2024C139.811 50.196 141.713 49.7616 143.663 49.7025Z" fill="#164E63"/>
<path fill-rule="evenodd" clip-rule="evenodd" d="M143.323 45.3976C142.877 45.3749 142.514 45.7427 142.535 46.1822L142.569 46.5159L142.833 48.97C142.878 49.3818 142.925 49.8086 142.973 50.2484L143.174 52.0564C143.442 54.4628 143.715 56.8436 143.984 59.0961L144.115 60.1906C144.173 60.6692 144.23 61.1373 144.286 61.5941L144.448 62.8978C144.907 66.5402 145.29 69.2256 145.578 70.7216L145.648 71.0792C146.794 76.8489 148.189 79.1569 153.884 84.161C157.206 87.0798 162.472 89.3802 167.718 90.1231C173.714 90.972 179.123 89.7737 182.865 86.327C185.372 84.01 187.475 80.7677 189.223 76.8361C190.493 73.9804 191.502 70.9273 192.28 67.875C192.532 66.8892 192.742 65.968 192.913 65.1311L192.956 64.9236C193.018 64.6107 193.071 64.3324 193.114 64.0918L193.166 63.7893C193.221 63.4471 193.034 63.1118 192.715 62.9779C191.574 62.5008 189.813 62.0365 187.578 61.5832L187.4 61.5474C185.983 61.2635 184.467 61.0014 182.951 60.7672L182.371 60.6789C182.183 60.6509 182.002 60.6241 181.827 60.5988L180.926 60.4729L180.9 60.4699C172.802 59.6922 165.272 59.886 158.715 60.6808L158.248 60.7386C157.252 60.865 156.352 60.9978 155.553 61.1312L155.124 61.2045L154.968 61.232L154.91 60.815C153.999 54.3966 152.503 47.6013 151.259 46.053C151.125 45.8858 150.926 45.784 150.712 45.7731L143.323 45.3976ZM144.125 46.9421L150.26 47.254L150.284 47.2964C151.337 49.2155 152.802 56.2574 153.585 62.2164C153.64 62.6361 154.03 62.9242 154.443 62.861L154.77 62.7964C154.98 62.7559 155.224 62.7112 155.502 62.6632L155.623 62.6425C156.563 62.4822 157.658 62.3217 158.896 62.1717L159.225 62.1325C165.493 61.3961 172.657 61.2173 180.351 61.9267L180.745 61.9638L181.275 62.0371L181.611 62.0852C181.957 62.1352 182.328 62.1907 182.721 62.2514C184.081 62.4615 185.44 62.6942 186.722 62.9444L187.271 63.0535L187.631 63.1275C189.233 63.461 190.558 63.7989 191.518 64.1306L191.575 64.1505L191.504 64.5163L191.482 64.6281C191.308 65.495 191.09 66.4621 190.824 67.5041C190.066 70.4801 189.082 73.4553 187.85 76.2261C186.178 79.9866 184.181 83.0647 181.846 85.2233C178.476 88.3275 173.514 89.4267 167.929 88.6359C162.963 87.9328 157.971 85.7515 154.876 83.0328L154.548 82.7429C149.32 78.1108 148.153 76.0695 147.086 70.6079L147.024 70.283C146.747 68.7977 146.378 66.1938 145.939 62.7053L145.819 61.7499C145.708 60.8501 145.593 59.9045 145.476 58.9184L145.341 57.7839C145.117 55.8768 144.89 53.8921 144.667 51.8896L144.354 49.0559L144.125 46.9421Z" fill="#164E63"/>
<path fill-rule="evenodd" clip-rule="evenodd" d="M143.385 48.8511C143.385 48.8511 140.33 41.0909 140.029 33.631C139.754 26.5968 144.287 20.2134 151.099 18.436C156.81 16.9591 160.266 19.7127 160.266 19.7127C160.266 19.7127 156.634 9.22392 166.552 2.59019C170.059 0.262124 174.392 -0.563963 178.499 0.387289C188.542 2.71535 189.945 11.8774 189.945 11.8774C189.945 11.8774 204.747 -5.82088 224.558 10.3754C226.561 12.0026 228.415 15.8076 229.166 18.2858C233.8 33.2305 206.45 44.3952 193.627 43.1436C179.551 41.7668 171.937 37.8616 168.155 33.606C171.111 36.2345 163.271 56.1357 143.385 48.8511Z" fill="#164E63"/>
<path fill-rule="evenodd" clip-rule="evenodd" d="M181.503 54.4084C182.039 54.4074 182.478 54.8282 182.505 55.3579L182.506 55.4079L182.531 68.7504C182.533 69.4358 181.862 69.9151 181.219 69.7045L181.176 69.689L176.667 67.9868C176.15 67.7914 175.889 67.2135 176.084 66.6962C176.274 66.1951 176.822 65.9345 177.327 66.0964L177.375 66.1134L180.525 67.3027L180.503 55.4116C180.502 54.8754 180.923 54.4368 181.453 54.4098L181.503 54.4084Z" fill="#164E63"/>
<path fill-rule="evenodd" clip-rule="evenodd" d="M187.938 55.9149C188.067 54.7608 187.569 53.7581 186.827 53.6753C186.085 53.5925 185.379 54.461 185.25 55.6151C185.121 56.7692 185.618 57.772 186.36 57.8547C187.103 57.9375 187.809 57.0691 187.938 55.9149Z" fill="#164E63"/>
<path fill-rule="evenodd" clip-rule="evenodd" d="M175.015 54.3016C175.144 53.1475 174.647 52.1448 173.904 52.062C173.162 51.9792 172.456 52.8477 172.327 54.0018C172.198 55.1559 172.695 56.1587 173.438 56.2415C174.18 56.3243 174.886 55.4558 175.015 54.3016Z" fill="#164E63"/>
<path fill-rule="evenodd" clip-rule="evenodd" d="M168.599 44.7326C170.224 43.7273 172.161 43.3307 174.323 43.9029C174.857 44.0445 175.176 44.5926 175.034 45.1272C174.893 45.6618 174.344 45.9804 173.81 45.8388C172.223 45.4187 170.839 45.7021 169.653 46.4355C169.373 46.609 169.128 46.7944 168.922 46.9775L168.851 47.0419C168.797 47.0916 168.757 47.131 168.732 47.1577L168.708 47.1834C168.343 47.5991 167.71 47.6404 167.294 47.2757C166.878 46.911 166.837 46.2783 167.202 45.8626C167.28 45.7741 167.409 45.6422 167.59 45.4816C167.879 45.2246 168.215 44.9698 168.599 44.7326Z" fill="#164E63"/>
<path fill-rule="evenodd" clip-rule="evenodd" d="M185.484 44.7056C186.248 44.6436 187.101 44.6954 187.936 44.9549C189.432 45.4194 190.499 46.4667 190.805 48.1457C190.905 48.6897 190.544 49.2112 190 49.3105C189.472 49.4068 188.965 49.0707 188.844 48.5542L188.834 48.5053C188.672 47.6179 188.17 47.1244 187.342 46.8673C186.827 46.7072 186.259 46.6641 185.753 46.6941L185.59 46.7066L185.528 46.7133C184.981 46.7915 184.473 46.4111 184.395 45.8637C184.317 45.3162 184.697 44.809 185.245 44.7308L185.306 44.7229C185.354 44.7173 185.413 44.7113 185.484 44.7056Z" fill="#164E63"/>
<path fill-rule="evenodd" clip-rule="evenodd" d="M170.257 70.4437C170.772 70.2952 171.309 70.5782 171.482 71.0791L171.51 71.1691C171.532 71.2342 171.571 71.3405 171.63 71.4756C171.755 71.7642 171.914 72.0529 172.107 72.3173C172.795 73.2652 173.667 73.6465 174.949 73.2524C175.478 73.0898 176.038 73.3864 176.201 73.915C176.364 74.4435 176.067 75.0038 175.538 75.1665C173.36 75.8362 171.64 75.0847 170.485 73.4937C170.201 73.102 169.972 72.6877 169.792 72.2733C169.682 72.0203 169.611 71.8162 169.572 71.6833C169.419 71.1519 169.726 70.5969 170.257 70.4437Z" fill="#164E63"/>
<path fill-rule="evenodd" clip-rule="evenodd" d="M162.771 199.099H256.816V192.34C256.816 190.813 255.589 189.586 254.061 189.586H165.601C164.048 189.586 162.771 190.863 162.771 192.415V199.099H162.771Z" fill="#164E63"/>
<path fill-rule="evenodd" clip-rule="evenodd" d="M412.249 198.498C412.664 198.498 413 198.834 413 199.249C413 199.65 412.687 199.977 412.293 200L412.249 200.001H0.751364C0.336397 200.001 0 199.664 0 199.249C0 198.849 0.312798 198.522 0.707216 198.499L0.751364 198.498H412.249Z" fill="#164E63"/>
<path fill-rule="evenodd" clip-rule="evenodd" d="M307.408 118.943C304.929 119.018 303.852 119.569 303.852 121.722C303.852 124.926 307.108 168.509 307.133 168.959C307.158 169.385 309.036 195.519 309.036 195.519C309.161 197.271 310.589 198.623 312.342 198.623L315.974 198.498L307.283 119.444C307.258 119.269 307.308 119.094 307.408 118.943Z" fill="#164E63"/>
<path fill-rule="evenodd" clip-rule="evenodd" d="M325.867 144.702C325.842 144.702 325.842 144.702 325.817 144.702C323.963 144.702 322.21 145.428 321.008 146.68C319.906 147.831 319.355 149.308 319.43 150.885C319.605 154.365 322.811 157.219 326.568 157.244C326.593 157.244 326.593 157.244 326.618 157.244C328.472 157.244 330.225 156.518 331.427 155.266C332.529 154.115 333.08 152.638 333.005 151.061C332.854 147.581 329.649 144.727 325.867 144.702Z" fill="#164E63"/>
<path fill-rule="evenodd" clip-rule="evenodd" d="M349.259 194.468L343.048 168.659C343.048 168.659 333.506 124.175 332.829 121.096C332.329 118.793 330.1 118.893 329.849 118.918C329.649 118.943 329.523 118.918 329.298 118.918H308.585C308.661 119.018 308.711 119.144 308.736 119.269L317.452 198.498H346.003C348.132 198.523 349.71 196.545 349.259 194.468ZM332.529 156.292C331.051 157.845 328.897 158.721 326.618 158.721C326.593 158.721 326.568 158.721 326.543 158.721C321.985 158.696 318.128 155.191 317.902 150.935C317.802 148.958 318.503 147.055 319.906 145.628C321.384 144.076 323.538 143.2 325.817 143.2C325.842 143.2 325.867 143.2 325.892 143.2C330.45 143.225 334.307 146.73 334.533 150.986C334.608 152.963 333.906 154.841 332.529 156.292Z" fill="#164E63"/>
<path fill-rule="evenodd" clip-rule="evenodd" d="M262.126 198.523H344.1V189.586H264.956C263.403 189.586 262.126 190.863 262.126 192.415V198.523Z" fill="#164E63"/>
<path fill-rule="evenodd" clip-rule="evenodd" d="M382.269 68.2267C382.269 65.8736 380.416 63.9711 378.162 63.9711L243.367 64.3966C243.292 64.3966 243.191 64.3966 243.116 64.4217L232.397 64.4467C230.143 64.4467 228.314 66.3742 228.314 68.7273L228.815 167.532C228.815 169.885 230.669 171.788 232.923 171.788L242.716 171.563C243.091 171.688 243.492 171.738 243.893 171.738L305.73 170.261C305.705 169.961 305.655 169.585 305.63 169.084C305.505 167.282 302.349 125.001 302.349 121.747C302.349 117.466 305.93 117.466 308.285 117.466H330.024C330.174 117.466 330.3 117.492 330.325 117.492C331.727 117.542 333.781 118.318 334.307 120.821C334.958 123.8 344.05 166.331 344.701 169.36L378.662 168.559C380.917 168.559 382.745 166.631 382.745 164.278L382.269 68.2267ZM241.163 170.687C241.113 171.062 240.787 171.362 240.411 171.362C240.386 171.362 240.361 171.362 240.336 171.362C237.13 171.012 235.352 168.609 235.327 164.604C235.327 162.326 234.876 75.0606 234.851 70.3795C234.826 66.0989 238.383 64.8722 240.261 64.7971C240.662 64.7971 241.013 65.1226 241.038 65.5231C241.038 65.9487 240.737 66.2741 240.311 66.2991C239.911 66.3241 236.329 66.5494 236.354 70.3545C236.379 75.0356 236.83 162.3 236.83 164.578C236.855 167.858 238.057 169.585 240.512 169.86C240.887 169.885 241.188 170.261 241.163 170.687Z" fill="#164E63"/>
<path fill-rule="evenodd" clip-rule="evenodd" d="M303.777 31.378H303.451C302.75 31.378 302.199 30.8273 302.199 30.1264V28.7496C302.199 28.0486 302.75 27.4979 303.451 27.4979H303.777C304.478 27.4979 305.029 28.0486 305.029 28.7496V30.1264C305.029 30.8273 304.478 31.378 303.777 31.378Z" fill="#06D0B6"/>
<path fill-rule="evenodd" clip-rule="evenodd" d="M299.87 31.378H282.939C282.238 31.378 281.687 30.8273 281.687 30.1264V28.7496C281.687 28.0486 282.238 27.4979 282.939 27.4979H299.87C300.571 27.4979 301.122 28.0486 301.122 28.7496V30.1264C301.122 30.8273 300.571 31.378 299.87 31.378Z" fill="#164E63"/>
<path fill-rule="evenodd" clip-rule="evenodd" d="M301.623 49.3517H282.939C282.238 49.3517 281.687 48.8009 281.687 48.1V46.7232C281.687 46.0223 282.238 45.4716 282.939 45.4716H301.623C302.324 45.4716 302.875 46.0223 302.875 46.7232V48.1C302.875 48.8009 302.324 49.3517 301.623 49.3517Z" fill="#164E63"/>
<path fill-rule="evenodd" clip-rule="evenodd" d="M318.679 43.3689H288.299C287.597 43.3689 287.046 42.8182 287.046 42.1172V40.7404C287.046 40.0395 287.597 39.4888 288.299 39.4888H318.679C319.38 39.4888 319.931 40.0395 319.931 40.7404V42.1172C319.931 42.8182 319.355 43.3689 318.679 43.3689Z" fill="#06D0B6"/>
<path fill-rule="evenodd" clip-rule="evenodd" d="M338.264 43.3689H323.012C322.31 43.3689 321.759 42.8182 321.759 42.1172V40.7404C321.759 40.0395 322.31 39.4888 323.012 39.4888H338.264C338.966 39.4888 339.517 40.0395 339.517 40.7404V42.1172C339.517 42.8182 338.966 43.3689 338.264 43.3689Z" fill="#06D0B6"/>
<path fill-rule="evenodd" clip-rule="evenodd" d="M344.275 37.3861H343.95C343.248 37.3861 342.697 36.8354 342.697 36.1344V34.7576C342.697 34.0567 343.248 33.506 343.95 33.506H344.275C344.976 33.506 345.527 34.0567 345.527 34.7576V36.1344C345.527 36.8354 344.976 37.3861 344.275 37.3861Z" fill="#164E63"/>
<path fill-rule="evenodd" clip-rule="evenodd" d="M314.446 37.3861H282.964C282.262 37.3861 281.711 36.8354 281.711 36.1344V34.7576C281.711 34.0567 282.262 33.506 282.964 33.506H314.446C315.147 33.506 315.698 34.0567 315.698 34.7576V36.1344C315.698 36.8103 315.122 37.3861 314.446 37.3861Z" fill="#164E63"/>
<path fill-rule="evenodd" clip-rule="evenodd" d="M324.464 31.378H307.534C306.832 31.378 306.281 30.8273 306.281 30.1264V28.7496C306.281 28.0486 306.832 27.4979 307.534 27.4979H324.464C325.166 27.4979 325.717 28.0486 325.717 28.7496V30.1264C325.717 30.8273 325.166 31.378 324.464 31.378Z" fill="#164E63"/>
<path fill-rule="evenodd" clip-rule="evenodd" d="M339.942 37.3861H318.453C317.752 37.3861 317.201 36.8354 317.201 36.1344V34.7326C317.201 34.0317 317.752 33.481 318.453 33.481H339.942C340.644 33.481 341.195 34.0317 341.195 34.7326V36.1344C341.195 36.8354 340.619 37.3861 339.942 37.3861Z" fill="#06D0B6"/>
<path fill-rule="evenodd" clip-rule="evenodd" d="M82.6001 168.609C78.16 168.609 74.5605 172.206 74.5605 176.644C74.5605 181.082 78.16 184.68 82.6001 184.68C87.0403 184.68 90.6397 181.082 90.6397 176.644C90.6397 172.206 87.0403 168.609 82.6001 168.609ZM82.6001 170.111C86.2103 170.111 89.137 173.036 89.137 176.644C89.137 180.253 86.2103 183.178 82.6001 183.178C78.9899 183.178 76.0632 180.253 76.0632 176.644C76.0632 173.036 78.9899 170.111 82.6001 170.111Z" fill="#164E63"/>
<path fill-rule="evenodd" clip-rule="evenodd" d="M84.5037 166.731V191.088C84.5037 195.244 87.8598 198.598 92.0173 198.598H107.445C111.603 198.598 114.959 195.244 114.959 191.088V166.731H84.5037V166.731ZM96.826 184.029C97.0264 184.154 97.1015 184.304 97.1015 184.505C97.1015 184.655 97.0514 184.78 96.9513 184.905C96.8511 185.005 96.7008 185.055 96.5505 185.055C96.4503 185.055 96.3502 185.03 96.275 184.98L90.765 181.676C90.5647 181.551 90.4645 181.375 90.4645 181.175C90.4645 180.975 90.5647 180.8 90.765 180.675L96.275 177.37C96.3502 177.32 96.4503 177.295 96.5505 177.295C96.7008 177.295 96.826 177.345 96.9513 177.47C97.0514 177.57 97.1015 177.721 97.1015 177.871C97.1015 178.071 97.0013 178.221 96.826 178.347L92.0924 181.175L96.826 184.029ZM103.714 175.893L99.2805 186.958C99.2555 187.008 99.2054 187.058 99.1804 187.108C99.0802 187.208 98.9299 187.283 98.7796 187.283C98.6294 187.283 98.5041 187.233 98.3789 187.108C98.2787 187.008 98.2286 186.858 98.2286 186.708C98.2286 186.632 98.2537 186.557 98.2787 186.482L102.712 175.418C102.737 175.368 102.787 175.318 102.837 175.267C102.937 175.167 103.062 175.117 103.213 175.117C103.363 175.117 103.488 175.167 103.613 175.292C103.714 175.393 103.764 175.543 103.764 175.693C103.764 175.743 103.739 175.818 103.714 175.893ZM111.202 181.701L105.692 185.005C105.617 185.055 105.517 185.08 105.417 185.08C105.266 185.08 105.141 185.03 105.016 184.93C104.916 184.83 104.866 184.68 104.866 184.53C104.866 184.329 104.966 184.179 105.141 184.054L109.875 181.225L105.141 178.397C104.941 178.271 104.866 178.121 104.866 177.921C104.866 177.771 104.916 177.646 105.016 177.52C105.116 177.42 105.266 177.345 105.417 177.345C105.517 177.345 105.617 177.37 105.692 177.42L111.202 180.725C111.402 180.85 111.503 181.025 111.503 181.225C111.503 181.426 111.402 181.551 111.202 181.701Z" fill="#164E63"/>
</g>
<defs>
<clipPath id="clip0_35_3365">
<rect width="413" height="200.001" fill="white"/>
</clipPath>
</defs>
</svg>
