<svg width="413" height="200" viewBox="0 0 413 200" fill="none" xmlns="http://www.w3.org/2000/svg">
<path fill-rule="evenodd" clip-rule="evenodd" d="M295.287 0.000366211C299.787 0.000366211 303.435 3.60371 303.508 8.08623L303.509 8.22233V119.766C303.509 120.188 303.167 120.53 302.745 120.53C302.339 120.53 302.006 120.212 301.983 119.811L301.982 119.766V8.22233C301.982 4.55739 299.048 1.58759 295.398 1.52856L295.287 1.52767H118.451C114.786 1.52767 111.816 4.46082 111.757 8.11149L111.756 8.22233V78.7327C111.756 79.1545 111.414 79.4963 110.993 79.4963C110.586 79.4963 110.254 79.1784 110.23 78.7776L110.229 78.7327V8.22233C110.229 3.72232 113.832 0.0739832 118.315 0.00146635L118.451 0.000366211H295.287Z" fill="#164E63"/>
<path fill-rule="evenodd" clip-rule="evenodd" d="M126.749 0.891357C127.171 0.891357 127.513 1.23326 127.513 1.65501C127.513 2.07676 127.171 2.41866 126.749 2.41866C123.521 2.41866 120.897 5.11975 120.844 8.50154L120.844 8.60422V121.497C120.844 121.919 120.502 122.261 120.08 122.261C119.673 122.261 119.341 121.943 119.318 121.542L119.316 121.497V8.60422C119.316 4.3449 122.63 0.891357 126.749 0.891357Z" fill="#164E63"/>
<path fill-rule="evenodd" clip-rule="evenodd" d="M184.71 149.014C185.117 149.014 185.449 149.332 185.473 149.733L185.474 149.778V170.345C185.474 170.767 185.132 171.109 184.71 171.109C184.303 171.109 183.971 170.791 183.948 170.39L183.947 170.345V149.778C183.947 149.356 184.288 149.014 184.71 149.014Z" fill="#164E63"/>
<path fill-rule="evenodd" clip-rule="evenodd" d="M184.71 0.382202C185.117 0.382202 185.449 0.700115 185.473 1.10098L185.474 1.14585V117.119C185.474 117.541 185.132 117.883 184.71 117.883C184.303 117.883 183.971 117.565 183.948 117.164L183.947 117.119V1.14585C183.947 0.7241 184.288 0.382202 184.71 0.382202Z" fill="#164E63"/>
<path fill-rule="evenodd" clip-rule="evenodd" d="M224.165 18.328H222.791C222.078 18.328 221.518 17.7679 221.518 17.0552V14.357C221.518 13.6442 222.078 13.0842 222.791 13.0842H224.165C224.878 13.0842 225.438 13.6442 225.438 14.357V17.0552C225.438 17.7425 224.853 18.328 224.165 18.328Z" fill="#164E63"/>
<path fill-rule="evenodd" clip-rule="evenodd" d="M218.743 18.328H194.357C193.645 18.328 193.085 17.7679 193.085 17.0552V14.357C193.085 13.6442 193.645 13.0842 194.357 13.0842H218.743C219.456 13.0842 220.016 13.6442 220.016 14.357V17.0552C220.016 17.7425 219.431 18.328 218.743 18.328Z" fill="#164E63"/>
<path fill-rule="evenodd" clip-rule="evenodd" d="M221.187 42.6883H194.357C193.645 42.6883 193.085 42.1283 193.085 41.4156V38.7173C193.085 38.0046 193.645 37.4446 194.357 37.4446H221.187C221.9 37.4446 222.46 38.0046 222.46 38.7173V41.4156C222.46 42.1283 221.874 42.6883 221.187 42.6883Z" fill="#164E63"/>
<path fill-rule="evenodd" clip-rule="evenodd" d="M244.784 34.5682H201.765C201.052 34.5682 200.492 34.0082 200.492 33.2954V30.5972C200.492 29.8845 201.052 29.3245 201.765 29.3245H244.784C245.497 29.3245 246.057 29.8845 246.057 30.5972V33.2954C246.057 34.0082 245.497 34.5682 244.784 34.5682Z" fill="#164E63"/>
<path fill-rule="evenodd" clip-rule="evenodd" d="M279.403 72.3944H278.028C277.315 72.3944 276.755 71.8344 276.755 71.1216V68.4234C276.755 67.7106 277.315 67.1506 278.028 67.1506H279.403C280.115 67.1506 280.675 67.7106 280.675 68.4234V71.1216C280.675 71.8344 280.09 72.3944 279.403 72.3944Z" fill="#164E63"/>
<path fill-rule="evenodd" clip-rule="evenodd" d="M238.904 26.4481H194.357C193.645 26.4481 193.085 25.8881 193.085 25.1753V22.4771C193.085 21.7644 193.645 21.2043 194.357 21.2043H238.929C239.642 21.2043 240.202 21.7644 240.202 22.4771V25.1753C240.176 25.8881 239.616 26.4481 238.904 26.4481Z" fill="#164E63"/>
<path fill-rule="evenodd" clip-rule="evenodd" d="M252.828 18.328H228.442C227.729 18.328 227.169 17.7679 227.169 17.0552V14.357C227.169 13.6442 227.729 13.0842 228.442 13.0842H252.828C253.54 13.0842 254.1 13.6442 254.1 14.357V17.0552C254.1 17.7425 253.515 18.328 252.828 18.328Z" fill="#164E63"/>
<path fill-rule="evenodd" clip-rule="evenodd" d="M272.25 26.4735H243.562C242.849 26.4735 242.289 25.9135 242.289 25.2008V22.4771C242.289 21.7644 242.849 21.2043 243.562 21.2043H272.25C272.963 21.2043 273.523 21.7644 273.523 22.4771V25.2008C273.523 25.8881 272.963 26.4735 272.25 26.4735Z" fill="#164E63"/>
<path fill-rule="evenodd" clip-rule="evenodd" d="M218.743 64.096H194.357C193.645 64.096 193.085 63.536 193.085 62.8233V60.125C193.085 59.4123 193.645 58.8523 194.357 58.8523H218.743C219.456 58.8523 220.016 59.4123 220.016 60.125V62.8233C220.016 63.536 219.431 64.096 218.743 64.096Z" fill="#164E63"/>
<path fill-rule="evenodd" clip-rule="evenodd" d="M271.944 80.3618H249.875C249.162 80.3618 248.602 79.8018 248.602 79.089V76.3908C248.602 75.6781 249.162 75.118 249.875 75.118H271.944C272.657 75.118 273.217 75.6781 273.217 76.3908V79.089C273.217 79.7763 272.657 80.3618 271.944 80.3618Z" fill="#164E63"/>
<path fill-rule="evenodd" clip-rule="evenodd" d="M238.904 72.2163H194.357C193.645 72.2163 193.085 71.6563 193.085 70.9435V68.2453C193.085 67.5325 193.645 66.9725 194.357 66.9725H238.929C239.642 66.9725 240.202 67.5325 240.202 68.2453V70.9435C240.176 71.6563 239.616 72.2163 238.904 72.2163Z" fill="#164E63"/>
<path fill-rule="evenodd" clip-rule="evenodd" d="M252.828 64.096H222.791C222.078 64.096 221.518 63.536 221.518 62.8233V60.125C221.518 59.4123 222.078 58.8523 222.791 58.8523H252.828C253.54 58.8523 254.1 59.4123 254.1 60.125V62.8233C254.1 63.536 253.515 64.096 252.828 64.096Z" fill="#164E63"/>
<path fill-rule="evenodd" clip-rule="evenodd" d="M281.846 64.096H257.46C256.748 64.096 256.188 63.536 256.188 62.8233V60.125C256.188 59.4123 256.748 58.8523 257.46 58.8523H281.846C282.559 58.8523 283.119 59.4123 283.119 60.125V62.8233C283.119 63.536 282.534 64.096 281.846 64.096Z" fill="#164E63"/>
<path fill-rule="evenodd" clip-rule="evenodd" d="M224.165 56.2304H222.791C222.078 56.2304 221.518 55.6704 221.518 54.9577V52.2594C221.518 51.5467 222.078 50.9867 222.791 50.9867H224.165C224.878 50.9867 225.438 51.5467 225.438 52.2594V54.9577C225.438 55.6704 224.853 56.2304 224.165 56.2304Z" fill="#164E63"/>
<path fill-rule="evenodd" clip-rule="evenodd" d="M218.743 56.2304H194.357C193.645 56.2304 193.085 55.6704 193.085 54.9577V52.2594C193.085 51.5467 193.645 50.9867 194.357 50.9867H218.743C219.456 50.9867 220.016 51.5467 220.016 52.2594V54.9577C220.016 55.6704 219.431 56.2304 218.743 56.2304Z" fill="#164E63"/>
<path fill-rule="evenodd" clip-rule="evenodd" d="M252.828 56.2304H228.442C227.729 56.2304 227.169 55.6704 227.169 54.9577V52.2594C227.169 51.5467 227.729 50.9867 228.442 50.9867H252.828C253.54 50.9867 254.1 51.5467 254.1 52.2594V54.9577C254.1 55.6704 253.515 56.2304 252.828 56.2304Z" fill="#164E63"/>
<path fill-rule="evenodd" clip-rule="evenodd" d="M274.261 72.2417H243.587C242.875 72.2417 242.315 71.6817 242.315 70.969V68.2453C242.315 67.5325 242.875 66.9725 243.587 66.9725H274.261C274.973 66.9725 275.533 67.5325 275.533 68.2453V70.969C275.533 71.6817 274.948 72.2417 274.261 72.2417Z" fill="#164E63"/>
<path fill-rule="evenodd" clip-rule="evenodd" d="M140.622 59.3869H135.556C134.844 59.3869 134.284 58.8269 134.284 58.1142V55.4159C134.284 54.7032 134.844 54.1432 135.556 54.1432H140.622C141.335 54.1432 141.895 54.7032 141.895 55.4159V58.1142C141.895 58.8269 141.335 59.3869 140.622 59.3869Z" fill="#164E63"/>
<path fill-rule="evenodd" clip-rule="evenodd" d="M150.549 50.4267H135.556C134.844 50.4267 134.284 49.8667 134.284 49.154V46.4557C134.284 45.743 134.844 45.183 135.556 45.183H150.549C151.262 45.183 151.822 45.743 151.822 46.4557V49.154C151.822 49.8667 151.237 50.4267 150.549 50.4267Z" fill="#164E63"/>
<path fill-rule="evenodd" clip-rule="evenodd" d="M156.15 42.5866H135.556C134.844 42.5866 134.284 42.0266 134.284 41.3139V38.6156C134.284 37.9029 134.844 37.3429 135.556 37.3429H156.15C156.862 37.3429 157.422 37.9029 157.422 38.6156V41.3139C157.422 42.0266 156.862 42.5866 156.15 42.5866Z" fill="#164E63"/>
<path fill-rule="evenodd" clip-rule="evenodd" d="M150.549 34.6191H135.556C134.844 34.6191 134.284 34.0591 134.284 33.3463V30.6481C134.284 29.9354 134.844 29.3754 135.556 29.3754H150.549C151.262 29.3754 151.822 29.9354 151.822 30.6481V33.3463C151.822 34.0591 151.237 34.6191 150.549 34.6191Z" fill="#164E63"/>
<path fill-rule="evenodd" clip-rule="evenodd" d="M144.517 26.1934H135.556C134.844 26.1934 134.284 25.6334 134.284 24.9207V22.2225C134.284 21.5097 134.844 20.9497 135.556 20.9497H144.517C145.229 20.9497 145.789 21.5097 145.789 22.2225V24.9207C145.789 25.6334 145.204 26.1934 144.517 26.1934Z" fill="#164E63"/>
<path fill-rule="evenodd" clip-rule="evenodd" d="M150.906 26.1934H148.742C148.284 26.1934 147.902 25.8116 147.902 25.3534V21.7897C147.902 21.3315 148.284 20.9497 148.742 20.9497H150.906C151.364 20.9497 151.746 21.3315 151.746 21.7897V25.3534C151.746 25.8116 151.364 26.1934 150.906 26.1934Z" fill="#164E63"/>
<path fill-rule="evenodd" clip-rule="evenodd" d="M156.735 34.5174H154.571C154.113 34.5174 153.731 34.1356 153.731 33.6774V30.1137C153.731 29.6555 154.113 29.2737 154.571 29.2737H156.735C157.193 29.2737 157.575 29.6555 157.575 30.1137V33.6774C157.575 34.161 157.193 34.5174 156.735 34.5174Z" fill="#164E63"/>
<path fill-rule="evenodd" clip-rule="evenodd" d="M162.946 42.612H160.782C160.324 42.612 159.942 42.2302 159.942 41.772V38.2083C159.942 37.7501 160.324 37.3683 160.782 37.3683H162.946C163.404 37.3683 163.786 37.7501 163.786 38.2083V41.772C163.786 42.2302 163.404 42.612 162.946 42.612Z" fill="#164E63"/>
<path fill-rule="evenodd" clip-rule="evenodd" d="M156.939 50.503H154.775C154.317 50.503 153.935 50.1212 153.935 49.663V46.0993C153.935 45.6411 154.317 45.2593 154.775 45.2593H156.939C157.397 45.2593 157.779 45.6411 157.779 46.0993V49.663C157.779 50.1212 157.397 50.503 156.939 50.503Z" fill="#164E63"/>
<path fill-rule="evenodd" clip-rule="evenodd" d="M146.757 59.3869H144.593C144.135 59.3869 143.753 59.0051 143.753 58.5469V54.9832C143.753 54.525 144.135 54.1432 144.593 54.1432H146.757C147.215 54.1432 147.597 54.525 147.597 54.9832V58.5469C147.597 59.0305 147.215 59.3869 146.757 59.3869Z" fill="#164E63"/>
<path fill-rule="evenodd" clip-rule="evenodd" d="M169.666 67.0234H167.503C167.044 67.0234 166.663 66.6416 166.663 66.1834V62.6197C166.663 62.1615 167.044 61.7797 167.503 61.7797H169.666C170.124 61.7797 170.506 62.1615 170.506 62.6197V66.1834C170.506 66.6416 170.124 67.0234 169.666 67.0234Z" fill="#164E63"/>
<path fill-rule="evenodd" clip-rule="evenodd" d="M153.884 17.768H135.226C134.513 17.768 133.953 17.208 133.953 16.4953V13.797C133.953 13.0843 134.513 12.5243 135.226 12.5243H153.884C154.597 12.5243 155.157 13.0843 155.157 13.797V16.4953C155.157 17.1826 154.597 17.768 153.884 17.768Z" fill="#164E63"/>
<path fill-rule="evenodd" clip-rule="evenodd" d="M164.015 61.7797H151.568C151.288 62.2633 150.83 62.9251 150.295 63.6633C150.982 63.2051 153.273 61.6269 153.324 62.7979C153.35 63.4597 151.364 65.4706 149.786 66.9979H164.015C164.728 66.9979 165.288 66.4379 165.288 65.7252V63.027C165.288 62.3651 164.728 61.7797 164.015 61.7797Z" fill="#164E63"/>
<path fill-rule="evenodd" clip-rule="evenodd" d="M135.557 67.0234H136.015C137.338 65.3434 141.106 63.9179 141.106 63.9179C141.717 63.5106 142.913 62.4669 143.702 61.7797H135.531C134.818 61.7797 134.258 62.3397 134.258 63.0524V65.7506C134.284 66.4634 134.844 67.0234 135.557 67.0234Z" fill="#164E63"/>
<path fill-rule="evenodd" clip-rule="evenodd" d="M258.937 32.8119C257.333 33.4737 254.177 34.1355 253.795 33.1173C253.642 32.6846 257.41 30.8009 258.148 30.6991C258.912 30.5718 263.773 29.63 263.773 29.63C263.773 29.63 266.192 29.6045 268.253 29.5791C268.432 29.5791 268.61 29.5791 268.788 29.6045C268.584 29.4518 268.304 29.35 268.024 29.35H249.9C249.188 29.35 248.628 29.91 248.628 30.6227V33.321C248.628 34.0337 249.188 34.5937 249.9 34.5937H264.639C264.461 33.7537 260.541 32.15 258.937 32.8119Z" fill="#164E63"/>
<path fill-rule="evenodd" clip-rule="evenodd" d="M82.1268 187.756L82.1013 133.41C82.1013 133.41 62.3228 133.512 62.2719 133.41C62.2464 133.385 62.2464 133.385 62.221 133.359H40.7878V198.855H99.0798V187.756H82.1268Z" fill="#164E63"/>
<path fill-rule="evenodd" clip-rule="evenodd" d="M115.574 198.575L115.32 198.677H109.593C109.033 198.728 106.08 198.6 108.6 197.022C109.109 196.793 113.334 194.095 115.014 193.789C116.695 193.484 123.135 193.484 123.262 193.484C123.338 193.484 124.026 191.6 124.662 189.818C123.516 189.564 122.142 188.622 120.971 187.553C121.073 187.757 85.6394 187.018 85.6394 187.018L85.9449 199.339H91.1886L91.4941 188.367C91.4941 188.367 93.6323 199.084 100.938 199.568C103.254 199.72 112.113 199.186 119.138 198.651C117.484 198.651 116.135 198.6 115.574 198.575Z" fill="#06D0B6"/>
<path fill-rule="evenodd" clip-rule="evenodd" d="M152.182 63.4307L152.087 63.4801C151.968 63.5428 151.843 63.6129 151.712 63.69L151.545 63.7902C151.217 63.992 150.588 64.4044 150.555 64.4234C150.192 64.6372 149.724 64.5159 149.51 64.1523C149.304 63.8023 149.409 63.3553 149.742 63.1317L150.404 62.7034C150.56 62.6042 150.714 62.5073 150.825 62.4401C151.016 62.3255 151.198 62.2218 151.374 62.129C151.902 61.8507 152.349 61.6795 152.748 61.6415C153.459 61.5737 154.034 61.9723 154.107 62.7066L154.112 62.7669C154.182 63.7149 153.178 64.8302 150.234 67.6805C149.426 68.4435 148.42 69.1359 147.26 69.7642C146.202 70.3373 145.073 70.8271 143.946 71.2358C143.601 71.3609 143.277 71.4706 142.98 71.5648L142.641 71.6695C142.548 71.6972 142.476 71.7178 142.427 71.7311C142.02 71.8421 141.6 71.6022 141.49 71.1953C141.379 70.7884 141.618 70.3686 142.025 70.2576L142.118 70.2312C142.183 70.2124 142.256 70.1904 142.338 70.1653L142.401 70.1459C142.709 70.05 143.054 69.9346 143.425 69.7999C144.487 69.4153 145.547 68.9548 146.532 68.4213C147.584 67.8516 148.484 67.2321 149.179 66.5766L149.799 65.9729C150.535 65.2517 151.065 64.7104 151.523 64.2046L151.583 64.1389C151.785 63.9143 151.96 63.7095 152.107 63.5261L152.182 63.4307Z" fill="#164E63"/>
<path fill-rule="evenodd" clip-rule="evenodd" d="M150.123 59.7366C151.378 59.2393 152.572 59.7372 152.662 61.0833C152.687 61.6353 151.865 62.8832 150.327 64.9276L150.157 65.1526C148.882 66.8318 147.629 68.3211 146.933 68.9441C145.658 70.0738 143.917 71.1534 141.705 72.1121L141.59 72.1613L141.277 72.9161C141.121 73.2918 140.7 73.4771 140.321 73.345L140.279 73.329C139.904 73.1732 139.718 72.7522 139.85 72.3731L139.866 72.3311L140.299 71.2875C140.376 71.1008 140.525 70.9524 140.711 70.8748C142.968 69.9364 144.7 68.8824 145.917 67.8035L145.999 67.7284C146.623 67.1407 147.78 65.7583 148.947 64.22L149.106 64.0093C149.703 63.2157 150.239 62.4648 150.621 61.8851L150.722 61.7304C150.867 61.5062 150.981 61.3173 151.06 61.1716L151.099 61.098L151.111 61.0752L151.104 61.0737C151.032 61.062 150.903 61.0768 150.732 61.1386L150.685 61.1566C149.992 61.4308 149.233 62.2118 148.724 63.32C148.548 63.7033 148.095 63.8716 147.712 63.6957C147.328 63.5199 147.16 63.0666 147.336 62.6832C148 61.235 149.042 60.1646 150.123 59.7366Z" fill="#164E63"/>
<path fill-rule="evenodd" clip-rule="evenodd" d="M146.937 59.843L146.939 59.8412C147.811 59.2671 148.908 59.0353 149.432 59.5065C149.899 59.9272 149.84 60.4091 149.522 61.2895L149.494 61.3659C149.3 61.8917 148.997 62.5659 148.539 63.5126C148.412 63.7751 148.251 64.0469 148.061 64.3281C147.776 64.748 147.427 65.1842 147.027 65.6309C146.649 66.0541 146.245 66.4643 145.842 66.8473L145.677 67.002C145.624 67.0514 145.573 67.0986 145.524 67.1436L145.311 67.3341L145.297 67.3463C144.978 67.6223 144.496 67.5874 144.22 67.2685C143.954 66.9618 143.976 66.5041 144.262 66.2241L144.429 66.0748L144.565 65.9504C144.636 65.8849 144.712 65.8145 144.79 65.7397C145.165 65.3835 145.541 65.0021 145.889 64.6128C146.246 64.2132 146.554 63.8284 146.797 63.4707C146.948 63.2471 147.072 63.0379 147.164 62.8468L147.329 62.5042C147.591 61.9555 147.79 61.5162 147.936 61.1594L148.006 60.9821L147.957 61.0073C147.674 61.156 147.437 61.3514 147.292 61.5621L147.285 61.5724L147.276 61.5959C147.136 61.9254 146.935 62.2703 146.68 62.6326L146.602 62.7419C146.318 63.1319 145.977 63.5371 145.589 63.9524C145.265 64.3 144.923 64.6396 144.578 64.9627L144.484 65.0493L144.477 65.0572C144.121 65.4133 143.815 65.6756 143.625 65.7631L143.595 65.7761C142.803 66.0806 142.19 65.0667 142.798 64.5062L142.966 64.3612L143.107 64.2373C143.156 64.1938 143.207 64.1482 143.26 64.1006L143.34 64.0278L143.499 63.8797L143.562 63.8136C143.656 63.7135 143.755 63.6048 143.858 63.4898L143.936 63.4023C144.489 62.7764 145.046 62.0795 145.381 61.5885C145.45 61.4848 145.511 61.3732 145.561 61.2618L145.574 61.2303L145.551 61.2455C145.405 61.3431 145.238 61.4676 145.052 61.62L144.988 61.6729L144.553 62.0581L144.47 62.1308C144.15 62.4118 143.827 62.6929 143.511 62.9623L143.119 63.2955L142.85 63.5201C142.301 63.9764 141.863 64.3195 141.559 64.5252C141.51 64.5585 141.457 64.5859 141.401 64.6069L141.179 64.6947L140.989 64.7727C140.857 64.8274 140.717 64.8872 140.57 64.952C139.94 65.2293 139.311 65.5382 138.727 65.8687C137.599 66.5071 136.791 67.1472 136.477 67.6778L136.301 67.9813C135.983 68.5176 135.364 69.5278 134.399 71.0902C134.178 71.449 133.707 71.5602 133.348 71.3386C132.989 71.117 132.878 70.6464 133.1 70.2876L134.565 67.9023C134.862 67.4144 135.056 67.0886 135.154 66.9146C135.649 66.0779 136.631 65.3001 137.974 64.5396C138.607 64.1813 139.281 63.8507 139.955 63.5542C140.151 63.4678 140.336 63.3894 140.506 63.3195L140.772 63.2125L140.785 63.2033C141.056 63.012 141.462 62.6897 141.964 62.271L142.289 61.9968C142.594 61.7392 142.91 61.4664 143.226 61.1906L144.002 60.5062C144.624 59.9865 145.146 59.6635 145.593 59.5301C146.098 59.3796 146.58 59.4634 146.897 59.7989L146.937 59.843Z" fill="#164E63"/>
<path fill-rule="evenodd" clip-rule="evenodd" d="M130.891 70.1429L124.706 81.394C124.6 81.5865 124.582 81.8154 124.657 82.0219L130.41 97.9059C130.647 98.5625 131.569 98.5818 131.834 97.9357L142.016 73.117C142.194 72.6831 141.942 72.1927 141.486 72.0842L131.737 69.7678C131.403 69.6884 131.057 69.8419 130.891 70.1429ZM131.949 71.3879L140.264 73.3635L131.172 95.5256L126.21 81.8268L131.949 71.3879Z" fill="#164E63"/>
<path fill-rule="evenodd" clip-rule="evenodd" d="M79.7049 68.1686C80.1266 68.1666 80.4701 68.5069 80.4721 68.9287C80.4739 69.3354 80.1576 69.6693 79.7568 69.6944L79.712 69.6959L74.2101 69.7213C71.5652 69.7213 68.1021 72.6626 67.7383 75.4447L67.6904 75.8057C67.2675 78.9107 66.5057 82.4646 65.1319 88.0858L63.4065 95.0988C63.2367 95.8024 63.1123 96.3335 62.9393 97.0798C62.9343 97.1015 62.9283 97.1229 62.9214 97.144C60.6077 104.239 59.0654 110.972 58.6521 116.851C58.1523 123.958 59.3503 129.329 62.4994 132.539L62.6001 132.64L62.9185 132.647L63.9431 132.657L66.2876 132.665C67.2917 132.666 68.4602 132.666 69.7705 132.664L74.3072 132.653L82.0973 132.621C82.5053 132.619 82.84 132.937 82.8635 133.339L82.8648 133.384L82.8898 186.967H120.892L121.326 183.822C121.466 182.792 121.615 181.693 121.771 180.535C122.499 175.12 123.228 169.51 123.907 164.001L124.083 162.571C124.257 161.149 124.425 159.752 124.587 158.384L124.783 156.712C126.654 140.663 127.47 129.999 126.788 128.421C126.202 127.082 122.851 124.399 117.622 120.969C116.718 120.376 115.766 119.766 114.771 119.14C112.241 117.549 109.541 115.926 106.829 114.347L105.783 113.741C105.248 113.432 104.734 113.138 104.247 112.86L103.222 112.279L102.375 111.804C102.055 111.627 101.908 111.249 102.018 110.905L102.046 110.828L102.16 110.528L102.295 110.165C102.488 109.645 102.7 109.055 102.929 108.403L102.992 108.224C103.713 106.155 104.435 103.919 105.108 101.597C105.995 98.5388 106.729 95.5659 107.26 92.7686C108.631 85.5366 108.513 80.1323 106.586 77.4309C104.287 74.3304 101.285 72.7704 97.325 71.9718C96.9116 71.8884 96.6441 71.4856 96.7274 71.0722C96.8108 70.6588 97.2136 70.3912 97.627 70.4746C101.924 71.3413 105.255 73.0723 107.822 76.5325C110.081 79.7005 110.206 85.4283 108.76 93.0531C108.22 95.9021 107.474 98.9207 106.575 102.022C105.936 104.225 105.255 106.351 104.571 108.332L104.434 108.727C104.199 109.398 103.98 110.009 103.781 110.549L103.692 110.791L104.59 111.298C105.268 111.683 106.001 112.103 106.779 112.552L107.013 112.688C109.935 114.381 112.856 116.131 115.584 117.847C116.462 118.399 117.307 118.939 118.115 119.467L118.459 119.692C124.017 123.338 127.424 126.066 128.189 127.812C129.052 129.811 128.245 140.289 126.245 157.361L126.184 157.88C125.944 159.922 125.69 162.028 125.423 164.188C124.795 169.279 124.126 174.455 123.453 179.485L122.996 182.877C122.902 183.565 122.812 184.226 122.725 184.858L122.313 187.837C122.262 188.199 121.962 188.472 121.602 188.493L121.556 188.494H82.1266C81.7201 188.494 81.3877 188.177 81.3643 187.776L81.363 187.731L81.3378 134.152L74.7482 134.179L68.7666 134.193C67.5312 134.194 66.4434 134.193 65.5259 134.191L63.6351 134.182L63.1265 134.177C62.9293 134.175 62.764 134.172 62.6308 134.169L62.4772 134.164C62.3938 134.162 62.3286 134.159 62.2782 134.155L61.9807 134.134C61.6098 134.105 61.7172 134.088 61.6442 133.86L61.6346 133.832L61.5248 133.724C57.9551 130.187 56.6226 124.445 57.1128 116.975L57.1285 116.744C57.545 110.821 59.0683 104.102 61.3525 97.0304L61.459 96.7014L61.8392 95.0841C62.0108 94.3675 62.2173 93.5242 62.5797 92.0556L63.4854 88.3878C65.0046 82.2071 65.8055 78.4858 66.2237 75.2479C66.6839 71.7289 70.7266 68.264 74.1045 68.1951L74.2066 68.194L79.7049 68.1686ZM62.6076 132.647L62.6947 132.733L62.7951 132.828C62.8606 132.89 62.9146 132.963 62.9548 133.043C62.7932 132.72 62.9917 132.683 62.7313 132.657L62.6076 132.647Z" fill="#164E63"/>
<path fill-rule="evenodd" clip-rule="evenodd" d="M80.3447 60.6834C80.5284 60.3038 80.9851 60.1449 81.3648 60.3286C81.7444 60.5123 81.9033 60.969 81.7196 61.3486C81.3967 62.0159 81.28 62.9611 81.4304 63.9284C81.7003 65.6724 82.6989 66.8787 83.5233 66.8286L83.5665 66.8248C83.9855 66.7765 84.3643 67.0769 84.4126 67.4959C84.461 67.9149 84.1605 68.2937 83.7415 68.342C81.916 68.5527 80.3057 66.647 79.9212 64.1625C79.725 62.9013 79.8803 61.6431 80.3447 60.6834Z" fill="#06D0B6"/>
<path fill-rule="evenodd" clip-rule="evenodd" d="M101.305 61.9413C101.722 61.8768 102.112 62.1624 102.176 62.5792C102.446 64.3232 103.445 65.5295 104.269 65.4794L104.312 65.4756C104.731 65.4273 105.11 65.7278 105.159 66.1467C105.207 66.5657 104.906 66.9445 104.487 66.9929C102.662 67.2035 101.052 65.2979 100.667 62.8128C100.603 62.396 100.888 62.0058 101.305 61.9413Z" fill="#06D0B6"/>
<path fill-rule="evenodd" clip-rule="evenodd" d="M82.4576 44.2666C85.5631 41.9756 87.625 29.9354 79.1994 21.8662C70.6465 13.6951 63.5445 22.0443 61.9663 24.2335C60.3881 26.4226 59.1917 32.4809 66.5737 38.2083C73.9811 43.9102 78.9194 46.8884 82.4576 44.2666Z" fill="#164E63"/>
<path fill-rule="evenodd" clip-rule="evenodd" d="M86.9886 49.5867L86.7849 49.714C85.6394 50.4522 84.0358 50.1467 83.2212 49.0012L80.9557 45.8194C80.1412 44.6739 80.4212 43.1466 81.5666 42.4084L81.7703 42.2811C82.9158 41.5429 84.5194 41.8484 85.334 42.9939L87.5995 46.1757C88.414 47.3212 88.134 48.8485 86.9886 49.5867Z" fill="#06D0B6"/>
<path fill-rule="evenodd" clip-rule="evenodd" d="M79.5795 56.8434C80.2555 55.4269 81.7758 54.6808 83.347 54.9427C83.763 55.012 84.044 55.4054 83.9747 55.8215C83.9053 56.2375 83.5119 56.5185 83.0959 56.4492C82.1821 56.2969 81.334 56.7131 80.9616 57.4931C80.5041 58.4814 80.9685 59.6911 82.0356 60.2057C82.6668 60.5213 83.4003 60.4992 83.9804 60.1733L84.0442 60.1358C84.4038 59.9154 84.874 60.0283 85.0944 60.3879C85.3147 60.7475 85.2019 61.2176 84.8423 61.438C83.8052 62.0737 82.4808 62.1359 81.3625 61.5766C79.5673 60.7111 78.7611 58.611 79.5795 56.8434Z" fill="#164E63"/>
<path fill-rule="evenodd" clip-rule="evenodd" d="M101.401 54.1261C102.273 53.8575 103.257 53.9174 104.095 54.3208C105.89 55.1864 106.696 57.2865 105.878 59.0546C105.166 60.5438 103.46 61.3102 101.829 60.9186C101.419 60.8202 101.166 60.4079 101.264 59.9978C101.363 59.5877 101.775 59.3351 102.185 59.4335C103.129 59.6601 104.105 59.2217 104.496 58.4043C104.953 57.4161 104.489 56.2063 103.432 55.6967C102.974 55.4762 102.423 55.4326 101.931 55.5626L101.85 55.5858C101.447 55.7099 101.019 55.4836 100.895 55.0805C100.771 54.6774 100.998 54.2501 101.401 54.1261Z" fill="#164E63"/>
<path fill-rule="evenodd" clip-rule="evenodd" d="M85.1333 62.2634C85.54 62.265 85.8712 62.5843 85.8928 62.9852L85.8939 63.0301L85.8685 69.4702C85.8667 69.9106 85.495 70.2548 85.0615 70.2296L85.0165 70.2257L80.972 69.7543L80.9927 69.8138C81.8267 72.179 82.6683 73.9902 83.7273 75.525L83.8136 75.6489C85.4142 77.9208 87.3554 79.2728 89.7895 79.6052C93.3123 80.0838 95.4364 78.7869 96.5671 76.2199C96.9867 75.2673 97.2379 74.1901 97.3385 73.1138C97.3726 72.7485 97.387 72.4016 97.3841 72.1016L97.3823 72.001L94.5091 71.3579C94.184 71.2851 93.9454 71.0107 93.9155 70.6824L93.9127 70.6373L93.8618 69.0591C93.8482 68.6375 94.1789 68.2848 94.6004 68.2712C95.0069 68.2581 95.3494 68.5651 95.3855 68.965L95.3883 69.0098L95.42 69.9967L98.2537 70.6311C98.491 70.6842 98.6877 70.8468 98.7852 71.0672L98.8046 71.1153C99.1151 71.9693 98.8477 74.8313 97.9648 76.8356C96.5685 80.0055 93.8059 81.6921 89.5834 81.1186C86.6902 80.7235 84.3934 79.1237 82.5651 76.5285C81.1847 74.5692 80.1742 72.2613 79.1355 69.0942C78.9663 68.5785 79.3733 68.0612 79.906 68.0939L79.9495 68.0977L84.3445 68.6099L84.3667 63.0241C84.3683 62.6174 84.6875 62.2862 85.0884 62.2645L85.1333 62.2634Z" fill="#164E63"/>
<path fill-rule="evenodd" clip-rule="evenodd" d="M90.5799 45.1507C85.1819 46.1425 81.9049 52.4472 83.1406 59.1729C84.3763 65.8986 89.6804 70.6267 95.0784 69.6349C100.476 68.6431 103.753 62.3384 102.518 55.6127C101.282 48.887 95.9779 44.1589 90.5799 45.1507ZM90.856 46.6528C95.3301 45.8308 99.9194 49.9218 101.016 55.8888C102.112 61.8557 99.2766 67.3108 94.8025 68.1329C90.3284 68.9549 85.7391 64.864 84.6428 58.897C83.5465 52.93 86.3819 47.4749 90.856 46.6528Z" fill="#164E63"/>
<path fill-rule="evenodd" clip-rule="evenodd" d="M94.2004 54.2959C94.5935 54.1918 94.9963 54.414 95.1213 54.7955L95.1341 54.8386L96.3775 59.5335C96.5606 60.1746 96.1068 60.8313 95.4588 60.8619L95.4111 60.863L93.6802 60.9139C93.2586 60.9263 92.9068 60.5946 92.8944 60.173C92.8824 59.7665 93.1904 59.4249 93.5904 59.3899L93.6352 59.3872L94.75 59.3546L93.6577 55.2296C93.5536 54.8365 93.7758 54.4337 94.1573 54.3086L94.2004 54.2959Z" fill="#164E63"/>
<path fill-rule="evenodd" clip-rule="evenodd" d="M88.9882 51.7109C89.7536 51.2772 90.5761 51.1137 91.3913 51.4281C91.674 51.5372 91.9395 51.7016 92.1832 51.921C92.4967 52.2031 92.5221 52.686 92.24 52.9995C91.9687 53.3009 91.5118 53.336 91.1984 53.0874L91.1615 53.0562C91.0546 52.96 90.9486 52.8944 90.8417 52.8531C90.5309 52.7332 90.1475 52.8094 89.7412 53.0396C89.6393 53.0974 89.5459 53.1595 89.4643 53.2209L89.4249 53.2512C89.4026 53.2687 89.3884 53.2806 89.3832 53.2853C89.0697 53.5675 88.5868 53.542 88.3047 53.2286C88.0225 52.9151 88.048 52.4322 88.3614 52.1501C88.4947 52.0302 88.708 51.8696 88.9882 51.7109Z" fill="#164E63"/>
<path fill-rule="evenodd" clip-rule="evenodd" d="M95.9859 51.4508C96.49 51.3324 97.0152 51.2964 97.5314 51.3986C98.2755 51.5459 98.8917 51.9695 99.272 52.6934C99.4682 53.0668 99.3246 53.5284 98.9512 53.7246C98.5917 53.9135 98.1502 53.7873 97.9429 53.4443L97.92 53.4038C97.7653 53.1094 97.5456 52.9584 97.2348 52.8968C96.9632 52.8431 96.645 52.8649 96.335 52.9377L96.2586 52.9566C96.212 52.9689 96.1745 52.98 96.1478 52.9886L96.116 52.9996C95.7213 53.1482 95.2809 52.9488 95.1322 52.5541C94.9836 52.1594 95.183 51.719 95.5777 51.5703L95.654 51.5434C95.7393 51.5149 95.8514 51.4824 95.9859 51.4508Z" fill="#164E63"/>
<path fill-rule="evenodd" clip-rule="evenodd" d="M92.1368 56.5865C92.1556 56.0104 91.8632 55.5334 91.4839 55.5211C91.1045 55.5087 90.7817 55.9657 90.763 56.5418C90.7442 57.1179 91.0366 57.595 91.4159 57.6073C91.7953 57.6197 92.1181 57.1627 92.1368 56.5865Z" fill="#164E63"/>
<path fill-rule="evenodd" clip-rule="evenodd" d="M97.9855 57.8512C98.364 57.8238 98.6372 57.3355 98.5956 56.7606C98.5539 56.1857 98.2133 55.7419 97.8347 55.7693C97.4561 55.7967 97.1829 56.285 97.2246 56.8599C97.2662 57.4348 97.6069 57.8786 97.9855 57.8512Z" fill="#164E63"/>
<path fill-rule="evenodd" clip-rule="evenodd" d="M103.548 57.5117C105.385 57.2344 106.809 59.2313 107.217 61.8678C107.604 64.3979 106.604 66.7339 104.743 67.0148C104.718 67.0186 104.693 67.0211 104.667 67.0224L104.629 67.0233H104.578C104.156 67.0233 103.814 66.6814 103.814 66.2597C103.814 65.853 104.132 65.5205 104.533 65.4973L104.559 65.4965L104.598 65.4875C105.377 65.2833 105.953 63.8895 105.72 62.1898L105.707 62.1C105.416 60.2217 104.532 58.9559 103.813 59.0175L103.776 59.0219C103.359 59.0848 102.97 58.7978 102.907 58.3808C102.844 57.9637 103.131 57.5747 103.548 57.5117Z" fill="#06D0B6"/>
<path fill-rule="evenodd" clip-rule="evenodd" d="M82.3693 59.0391C84.2244 58.7591 85.879 60.6831 86.2673 63.1915C86.6542 65.7217 85.6545 68.0576 83.7936 68.3385C83.7684 68.3423 83.7431 68.3448 83.7177 68.3461L83.6796 68.3471H83.6287C83.207 68.3471 82.8651 68.0052 82.8651 67.5834C82.8651 67.1767 83.183 66.8443 83.5838 66.8211L83.6099 66.8203L83.6484 66.8112C84.4278 66.607 85.0037 65.2132 84.7707 63.5135L84.7577 63.4238C84.4868 61.6731 83.4684 60.4646 82.6399 60.544L82.5972 60.5493C82.1802 60.6122 81.7911 60.3252 81.7281 59.9081C81.6652 59.4911 81.9522 59.102 82.3693 59.0391Z" fill="#06D0B6"/>
<path fill-rule="evenodd" clip-rule="evenodd" d="M89.0765 60.7143C89.177 63.3383 90.1923 64.7262 91.8423 64.8732C92.4617 64.9284 93.0893 64.7971 93.7018 64.5497C94.0063 64.4267 94.2434 64.302 94.3909 64.2107C94.8584 63.9211 94.8758 63.2472 94.4239 62.9339L90.2747 60.0575C89.7573 59.6988 89.0524 60.0851 89.0765 60.7143ZM90.8563 62.3193L92.3362 63.3451L92.2844 63.3508C92.1781 63.36 92.0755 63.3607 91.9779 63.352C91.4936 63.3088 91.1133 63.0279 90.8749 62.3718L90.8563 62.3193Z" fill="#164E63"/>
<path fill-rule="evenodd" clip-rule="evenodd" d="M89.5594 43.1721L89.534 43.1975C86.5812 43.6303 83.2721 44.9794 81.4393 46.9649C78.1811 50.4777 79.6829 57.9869 82.9921 58.496C83.2721 58.5469 83.5521 58.5723 83.8321 58.5723C83.8066 58.3942 83.7812 58.1905 83.7557 58.0123C83.6793 57.3251 83.6539 56.6378 83.6539 55.9505C88.1849 54.2705 88.1594 47.474 88.1594 46.914C89.1267 47.6776 90.374 48.9758 90.0431 50.4267L100.047 51.0631C101.014 52.7177 101.676 54.6523 101.905 56.7396C101.905 56.765 101.905 56.7905 101.905 56.816C102.847 55.4668 102.872 53.3795 102.109 51.1904L105.494 51.394C105.52 51.394 108.6 39.9647 89.5594 43.1721Z" fill="#164E63"/>
<path fill-rule="evenodd" clip-rule="evenodd" d="M78.9256 85.1251C78.98 84.7069 79.3632 84.412 79.7814 84.4664C80.1847 84.5189 80.4733 84.8771 80.4446 85.2776L80.4401 85.3223L79.3555 93.6513L99.7686 93.7002C100.175 93.7012 100.507 94.0199 100.529 94.4208L100.53 94.4657C100.529 94.8724 100.211 95.2041 99.8099 95.2263L99.765 95.2275L78.4846 95.1766C78.0398 95.1755 77.6935 94.7972 77.7246 94.3598L77.7292 94.3144L78.9256 85.1251Z" fill="#164E63"/>
<path fill-rule="evenodd" clip-rule="evenodd" d="M61.2005 97.6872C61.3041 97.2784 61.7195 97.0309 62.1284 97.1345C62.5372 97.2382 62.7846 97.6536 62.681 98.0624C61.8518 101.335 64.5952 105.24 67.8241 105.381L67.9221 105.384L98.799 105.359C99.2208 105.358 99.5629 105.7 99.5633 106.122C99.5636 106.528 99.246 106.861 98.8451 106.885L98.8003 106.886L67.9075 106.911C63.6119 106.826 60.1273 101.922 61.2005 97.6872Z" fill="#164E63"/>
<path fill-rule="evenodd" clip-rule="evenodd" d="M74.3376 94.2122C75.692 93.3217 77.1314 93.2105 78.4401 93.553C78.6931 93.6193 78.8841 93.6884 79.0024 93.7414C79.3873 93.9139 79.5596 94.3657 79.3871 94.7506C79.2209 95.1217 78.7948 95.2951 78.4195 95.1524L78.3429 95.1208C78.2856 95.0986 78.1869 95.0655 78.0534 95.0306C77.1283 94.7884 76.1231 94.8661 75.1766 95.4884C74.6918 95.8071 74.2387 96.2627 73.8252 96.8761C73.5894 97.2259 73.1148 97.3183 72.7651 97.0825C72.4154 96.8468 72.323 96.3722 72.5587 96.0225C73.0829 95.2448 73.6799 94.6446 74.3376 94.2122Z" fill="#164E63"/>
<path fill-rule="evenodd" clip-rule="evenodd" d="M71.4827 93.1631C73.8383 91.2109 76.1734 91.1044 78.1662 92.1264C78.4312 92.2624 78.6669 92.4086 78.8718 92.5564L78.9617 92.6228C79.0451 92.6859 79.1087 92.7387 79.1517 92.7777C79.4643 93.0607 79.4884 93.5436 79.2053 93.8563C78.9332 94.1569 78.4762 94.1907 78.1635 93.9413L78.1018 93.8893C78.0682 93.8619 78.027 93.8302 77.9783 93.7951C77.8336 93.6907 77.6629 93.5848 77.4691 93.4854C75.9898 92.7266 74.3104 92.8033 72.4573 94.3391C72.1325 94.6082 71.6511 94.5631 71.382 94.2384C71.1129 93.9137 71.158 93.4323 71.4827 93.1631Z" fill="#164E63"/>
<path fill-rule="evenodd" clip-rule="evenodd" d="M74.1593 102.609L89.7632 102.762L94.9051 78.58C95.0069 78.0454 95.4651 77.6636 95.9488 77.6636L133.979 78.249C134.666 78.249 135.175 78.9872 135.022 79.7254L130.186 105.511C129.855 107.115 127.844 108.337 126.393 108.311C117.051 108.159 79.4285 107.624 78.3084 107.599C73.2938 107.573 74.1593 102.609 74.1593 102.609Z" fill="#06D0B6"/>
<path fill-rule="evenodd" clip-rule="evenodd" d="M139.782 106.988C140.189 106.988 140.522 107.306 140.545 107.707L140.546 107.751V198.091C140.546 198.513 140.204 198.855 139.782 198.855C139.376 198.855 139.043 198.537 139.02 198.136L139.019 198.091L139.019 108.515H54.0751L54.0754 198.091C54.0754 198.498 53.7575 198.83 53.3566 198.854L53.3117 198.855C52.9051 198.855 52.5726 198.537 52.5494 198.136L52.5481 198.091V107.751C52.5481 107.345 52.866 107.012 53.2669 106.989L53.3117 106.988H139.782Z" fill="#164E63"/>
<path fill-rule="evenodd" clip-rule="evenodd" d="M133.732 187.914L126.241 187.579L126.133 187.911C125.931 188.526 125.645 189.36 125.322 190.274L125.014 191.141C124.822 191.677 124.643 192.165 124.491 192.569L124.346 192.95C124.252 193.192 124.173 193.389 124.109 193.537L124.057 193.654C124.033 193.707 124.01 193.754 123.989 193.794L123.9 193.959C123.746 194.233 123.669 194.27 123.31 194.273L122.549 194.275C122.337 194.276 122.112 194.278 121.877 194.28C121.006 194.288 120.136 194.301 119.311 194.32L118.58 194.34C116.919 194.39 115.701 194.466 115.151 194.566C114.642 194.659 113.705 195.069 112.484 195.721C112.319 195.808 112.15 195.9 111.977 195.995L111.623 196.193C111.027 196.53 109.928 197.17 109.326 197.515L108.996 197.7L108.935 197.739C108.889 197.769 108.846 197.797 108.805 197.825L108.698 197.9L108.737 197.906C108.988 197.941 109.266 197.956 109.462 197.946L109.558 197.939L109.592 197.938H114.678L114.692 197.903C114.792 197.645 114.931 197.39 115.116 197.147L115.187 197.057C115.757 196.363 116.62 195.904 117.783 195.779L118.142 195.741C118.903 195.662 119.563 195.606 120.126 195.569L120.379 195.553C120.804 195.529 121.083 195.52 121.225 195.52C121.647 195.52 121.989 195.862 121.989 196.284C121.989 196.691 121.671 197.023 121.27 197.046L121.053 197.051L120.829 197.06C120.721 197.064 120.601 197.07 120.468 197.078L120.097 197.102C119.496 197.143 118.781 197.207 117.947 197.298C117.332 197.364 116.891 197.546 116.578 197.812L116.536 197.849L117.321 197.869C118.914 197.906 120.519 197.928 122.035 197.926L122.488 197.925C125.931 197.908 128.379 197.757 129.101 197.479C129.368 197.378 129.82 196.86 130.332 195.995C130.849 195.123 131.404 193.954 131.987 192.542L132.06 192.365C132.4 191.536 132.925 190.127 133.357 188.947L133.732 187.914ZM135.503 187.478L135.514 187.451C135.534 187.432 134.153 191.283 133.474 192.943C132.838 194.497 132.229 195.789 131.646 196.774C130.966 197.921 130.334 198.645 129.646 198.906C128.67 199.282 126.197 199.435 122.495 199.452C120.983 199.459 119.373 199.441 117.767 199.407L117.285 199.396C116.885 199.386 116.508 199.376 116.159 199.366L115.719 199.353L115.693 199.369C115.595 199.424 115.484 199.458 115.365 199.465L115.32 199.466H109.618L109.569 199.47C109.028 199.503 108.239 199.426 107.716 199.219L107.627 199.182C107.048 198.92 106.688 198.417 106.881 197.763C107.022 197.282 107.454 196.864 108.194 196.4L108.24 196.374L108.302 196.343C108.5 196.236 110.319 195.169 111.06 194.757C111.242 194.656 111.42 194.559 111.593 194.465L111.765 194.373C113.127 193.647 114.16 193.194 114.878 193.063L114.985 193.045C115.715 192.928 117.073 192.852 118.92 192.803C119.857 192.778 120.859 192.762 121.864 192.753L122.784 192.747L122.85 192.581C122.882 192.501 122.916 192.413 122.953 192.318L123.097 191.938C123.241 191.551 123.409 191.093 123.589 190.591L123.967 189.522C124.46 188.117 124.912 186.763 124.924 186.681C124.978 186.307 125.296 186.031 125.669 186.026L125.714 186.026L134.827 186.434C135.351 186.457 135.696 186.99 135.503 187.478Z" fill="#06D0B6"/>
<path fill-rule="evenodd" clip-rule="evenodd" d="M156.128 121.028C156.317 120.651 156.776 120.498 157.153 120.687C157.516 120.868 157.671 121.301 157.514 121.669L157.494 121.711L154.156 128.387L160.162 133.168C163.242 135.606 167.68 132.987 167.077 129.159L167.057 129.042C167.041 128.958 167.04 128.873 167.053 128.789L167.066 128.726L168.389 123.228C168.488 122.818 168.9 122.565 169.31 122.664C169.706 122.759 169.955 123.146 169.883 123.541L169.874 123.585L168.587 128.931L168.609 129.082C169.277 134.137 163.465 137.565 159.339 134.462L159.212 134.364L152.721 129.197C152.452 128.982 152.361 128.616 152.493 128.302L152.514 128.258L156.128 121.028Z" fill="#164E63"/>
<path fill-rule="evenodd" clip-rule="evenodd" d="M173.52 108.524L173.519 108.52L173.582 108.678L173.7 108.984C173.727 109.055 173.755 109.129 173.784 109.206C173.994 109.774 174.2 110.388 174.394 111.044C174.823 112.497 175.123 113.934 175.238 115.298C175.274 115.718 174.962 116.088 174.542 116.123C174.121 116.159 173.752 115.847 173.716 115.427C173.611 114.178 173.331 112.837 172.929 111.476C172.746 110.855 172.55 110.274 172.351 109.736L172.273 109.527C172.248 109.461 172.223 109.396 172.198 109.333L172.089 109.057C172.087 109.059 172.086 109.06 172.084 109.054L172.078 109.029L171.977 108.782C170.657 105.58 168.929 102.351 167.029 99.7265L166.866 99.503C165.53 97.7163 163.753 97.214 161.612 97.6675C160.798 97.84 159.977 98.145 159.179 98.5413C158.639 98.8098 158.205 99.0687 157.822 99.3238C155.866 100.636 154.573 102.139 153.852 103.798C152.783 106.256 153.001 108.917 154.026 111.48C154.217 111.958 154.421 112.391 154.624 112.77C154.681 112.875 154.733 112.969 154.782 113.051L154.85 113.165L154.873 113.193L154.909 113.245L155.381 113.947C155.496 114.118 155.619 114.298 155.747 114.486L156.229 115.19C156.632 115.775 157.035 116.354 157.43 116.911L157.778 117.4L158.156 117.925C159.188 119.347 159.996 120.374 160.464 120.838L160.499 120.872C162.083 122.403 162.819 122.748 165.576 123.055C167.069 123.221 168.926 122.842 170.48 122.019C170.853 121.821 171.315 121.964 171.512 122.336C171.71 122.709 171.567 123.171 171.195 123.368C169.375 124.332 167.213 124.773 165.407 124.573L165.128 124.54C162.295 124.203 161.242 123.698 159.521 122.051L159.437 121.97C158.891 121.442 158.038 120.362 156.933 118.84L156.761 118.602C156.65 118.448 156.537 118.291 156.422 118.13C155.869 117.354 155.295 116.531 154.728 115.702L154.485 115.346C154.291 115.062 154.11 114.795 153.945 114.55L153.669 114.137L153.664 114.133C153.653 114.119 153.641 114.105 153.631 114.091L153.6 114.048L153.541 113.953C153.474 113.843 153.384 113.689 153.279 113.493C153.049 113.066 152.821 112.581 152.607 112.047C151.445 109.139 151.195 106.079 152.451 103.189C153.293 101.255 154.779 99.5256 156.973 98.0541C157.407 97.7649 157.895 97.4743 158.5 97.1736C159.405 96.7239 160.343 96.3751 161.296 96.1733C163.977 95.6053 166.363 96.2797 168.092 98.5926C170.14 101.369 171.987 104.798 173.389 108.2L173.505 108.483L173.52 108.524Z" fill="#164E63"/>
<path fill-rule="evenodd" clip-rule="evenodd" d="M167.405 107.494C167.731 107.253 168.186 107.31 168.443 107.616L168.473 107.654L171.426 111.65C171.681 111.996 171.6 112.481 171.254 112.727L171.215 112.753L169.535 113.797C169.176 114.019 168.706 113.909 168.483 113.551C168.269 113.206 168.363 112.757 168.69 112.525L168.729 112.499L169.706 111.892L167.245 108.562C167.004 108.235 167.061 107.781 167.367 107.524L167.405 107.494Z" fill="#164E63"/>
<path fill-rule="evenodd" clip-rule="evenodd" d="M169.918 107.008C170.176 106.864 170.202 106.419 169.977 106.014C169.751 105.609 169.359 105.396 169.101 105.54C168.843 105.684 168.817 106.129 169.043 106.534C169.268 106.939 169.66 107.152 169.918 107.008Z" fill="#164E63"/>
<path fill-rule="evenodd" clip-rule="evenodd" d="M166.179 110.245C166.459 110.152 166.568 109.719 166.422 109.279C166.276 108.839 165.931 108.557 165.651 108.65C165.37 108.743 165.261 109.175 165.407 109.615C165.553 110.056 165.898 110.337 166.179 110.245Z" fill="#164E63"/>
<path fill-rule="evenodd" clip-rule="evenodd" d="M163 105.597C163.403 105.472 163.83 105.697 163.955 106.1C164.076 106.488 163.871 106.9 163.495 107.041L163.452 107.055C163.075 107.172 162.797 107.372 162.591 107.638C162.473 107.789 162.386 107.952 162.326 108.115L162.304 108.177C162.288 108.224 162.279 108.258 162.276 108.276L162.274 108.284C162.205 108.7 161.811 108.981 161.395 108.912C160.979 108.843 160.698 108.449 160.767 108.033C160.785 107.926 160.824 107.772 160.894 107.584C161.005 107.283 161.166 106.982 161.385 106.7C161.778 106.196 162.314 105.809 163 105.597Z" fill="#164E63"/>
<path fill-rule="evenodd" clip-rule="evenodd" d="M167.123 102.275C167.822 101.771 168.563 101.509 169.331 101.673C169.531 101.716 169.724 101.788 169.909 101.89C170.278 102.095 170.411 102.559 170.207 102.928C170.011 103.284 169.572 103.421 169.211 103.248L169.169 103.227C169.116 103.198 169.064 103.178 169.011 103.167C168.755 103.112 168.399 103.237 168.016 103.514C167.892 103.603 167.776 103.7 167.674 103.797L167.593 103.875L167.561 103.909C167.28 104.223 166.797 104.249 166.483 103.967C166.169 103.685 166.143 103.202 166.425 102.888C166.572 102.725 166.811 102.5 167.123 102.275Z" fill="#164E63"/>
<path fill-rule="evenodd" clip-rule="evenodd" d="M157.321 103.322C157.321 103.322 167.579 115.49 158.924 121.115C158.924 121.115 155.131 123.406 153.044 122.057C153.044 122.057 155.59 119.894 154.088 117.883C154.088 117.883 151.415 124.501 146.044 122.77C146.044 122.77 151.288 118.723 149.124 114.726C146.96 110.704 154.393 100.624 157.321 103.322Z" fill="#164E63"/>
<path fill-rule="evenodd" clip-rule="evenodd" d="M168.317 98.5621C168.317 98.5621 160.732 88.5837 151.11 97.2639C145.56 102.253 146.171 107.65 147.673 111.341L143.091 116.177C142.099 117.221 142.149 118.875 143.193 119.868C143.702 120.352 144.339 120.581 145 120.581C145.688 120.581 146.375 120.301 146.91 119.766L168.317 98.5621Z" fill="#06D0B6"/>
<path fill-rule="evenodd" clip-rule="evenodd" d="M168.165 115.821L170.405 115.21Z" fill="#F1F5F9"/>
<path fill-rule="evenodd" clip-rule="evenodd" d="M170.204 114.473C170.61 114.362 171.03 114.602 171.141 115.009C171.248 115.401 171.029 115.805 170.648 115.933L170.605 115.946L168.365 116.557C167.959 116.668 167.539 116.428 167.428 116.021C167.321 115.629 167.54 115.225 167.921 115.097L167.964 115.084L170.204 114.473Z" fill="#164E63"/>
<path fill-rule="evenodd" clip-rule="evenodd" d="M177.065 122.669C177.276 122.681 177.495 122.699 177.731 122.725L178.024 122.759C178.136 122.772 178.244 122.786 178.367 122.803L179.199 122.919C180.551 123.1 181.112 123.107 181.44 122.934L181.485 122.909C181.834 122.694 182.287 122.794 182.515 123.128L182.715 123.448L182.802 123.585C183.026 123.933 183.293 124.334 183.604 124.781C184.494 126.064 185.552 127.461 186.773 128.924C187.043 129.248 187 129.73 186.676 130C186.352 130.27 185.871 130.227 185.6 129.903C184.349 128.404 183.264 126.971 182.349 125.652L182.161 125.38C181.979 125.114 181.813 124.865 181.662 124.634L181.583 124.512L181.566 124.517C180.99 124.657 180.26 124.606 178.948 124.426L178.108 124.309C178.032 124.299 177.962 124.29 177.891 124.281L177.839 124.275C177.516 124.235 177.238 124.209 176.981 124.194C176.559 124.171 176.237 123.811 176.26 123.389C176.283 122.983 176.619 122.669 177.02 122.668L177.065 122.669Z" fill="#164E63"/>
<path fill-rule="evenodd" clip-rule="evenodd" d="M178.034 114.298C180.554 114.021 183.056 114.794 184.968 116.429L185.125 116.56C185.684 117.03 186.335 117.617 187.135 118.368L187.732 118.933L187.761 118.962C188.885 120.155 190.796 121.611 193.345 123.247C193.7 123.475 193.803 123.948 193.575 124.302C193.347 124.657 192.874 124.76 192.52 124.532L192.171 124.307C189.756 122.737 187.91 121.323 186.732 120.097L186.665 120.027L186.321 119.7C185.433 118.861 184.73 118.223 184.137 117.724L183.985 117.597C182.384 116.228 180.301 115.585 178.205 115.816L177.627 115.884C175.708 116.12 174.378 116.355 173.688 116.613L172.717 116.997L172.128 117.233L171.658 117.423C171.119 117.643 170.617 117.854 170.136 118.064C169.601 118.296 169.112 118.52 168.671 118.732L168.422 118.854C167.978 119.075 167.596 119.28 167.287 119.466L167.171 119.537L167.188 119.537C167.328 119.534 167.481 119.527 167.643 119.516L167.874 119.498C168.795 119.421 169.959 119.235 171.014 119.018C171.427 118.933 171.831 119.199 171.916 119.612C172.001 120.025 171.735 120.429 171.322 120.514C170.212 120.743 168.992 120.937 168.003 121.02L167.808 121.036C166.251 121.154 165.406 121.034 165.093 120.266C164.801 119.571 165.198 119.053 165.981 118.495C166.462 118.153 167.142 117.775 168.007 117.357C168.409 117.163 168.848 116.961 169.321 116.753L169.526 116.663C170.088 116.418 170.678 116.172 171.316 115.913L171.909 115.675L173.077 115.212C173.992 114.851 175.596 114.581 178.034 114.298Z" fill="#164E63"/>
<path fill-rule="evenodd" clip-rule="evenodd" d="M173.107 117.107C173.465 116.884 173.936 116.994 174.159 117.352C174.381 117.71 174.271 118.181 173.913 118.404L173.799 118.477L173.678 118.558C173.614 118.601 173.547 118.648 173.477 118.697C173.142 118.934 172.807 119.193 172.498 119.464C171.951 119.943 171.548 120.404 171.357 120.791C171.256 120.996 171.228 121.148 171.251 121.253C171.332 121.611 171.439 121.751 171.554 121.798C171.613 121.823 171.694 121.827 171.776 121.814L171.838 121.802L171.834 121.803C172.227 121.651 172.669 121.846 172.822 122.239C172.974 122.632 172.779 123.075 172.386 123.227C172.331 123.248 172.256 123.272 172.162 123.294C171.783 123.382 171.375 123.378 170.968 123.209C170.369 122.96 169.946 122.408 169.761 121.589C169.652 121.105 169.743 120.609 169.987 120.115C170.285 119.511 170.807 118.914 171.492 118.314C171.845 118.005 172.221 117.715 172.596 117.45L172.714 117.367C172.885 117.249 173.02 117.161 173.107 117.107Z" fill="#164E63"/>
<path fill-rule="evenodd" clip-rule="evenodd" d="M174.677 118.318C175.013 118.063 175.492 118.128 175.747 118.464C176.002 118.8 175.937 119.279 175.601 119.534L175.489 119.623L175.369 119.719C175.307 119.77 175.241 119.825 175.172 119.883C174.844 120.161 174.515 120.463 174.211 120.775C173.8 121.195 173.469 121.599 173.246 121.963C172.998 122.368 172.918 122.668 172.966 122.823C173.069 123.151 173.182 123.291 173.29 123.34C173.357 123.37 173.454 123.368 173.554 123.339L173.585 123.33L173.582 123.331C173.961 123.146 174.418 123.303 174.603 123.682C174.789 124.06 174.632 124.518 174.253 124.703C174.189 124.734 174.099 124.77 173.987 124.804C173.568 124.927 173.114 124.934 172.666 124.734C172.131 124.494 171.734 124 171.508 123.277C171.302 122.613 171.488 121.909 171.943 121.166C172.234 120.691 172.635 120.203 173.118 119.708C173.459 119.359 173.822 119.025 174.185 118.718L174.339 118.588C174.485 118.468 174.601 118.376 174.677 118.318Z" fill="#164E63"/>
<path fill-rule="evenodd" clip-rule="evenodd" d="M175.915 120.311C176.247 120.051 176.727 120.108 176.987 120.44C177.237 120.759 177.194 121.215 176.895 121.481L176.771 121.583C176.696 121.644 176.612 121.715 176.522 121.794C176.264 122.019 176.006 122.262 175.767 122.512C175.47 122.821 175.227 123.118 175.056 123.385L174.994 123.483C174.706 123.944 174.736 124.017 175.092 124.13C176.18 124.478 176.935 124.553 177.412 124.476L177.452 124.469C177.428 124.448 177.396 124.426 177.351 124.401L177.314 124.381C177.106 124.275 176.782 124.189 176.329 124.14C175.91 124.094 175.607 123.717 175.653 123.298C175.698 122.879 176.075 122.576 176.495 122.622C177.743 122.758 178.535 123.163 178.867 123.851C179.083 124.298 179.058 124.751 178.9 125.162C178.855 125.281 178.806 125.375 178.764 125.442C178.716 125.518 178.655 125.584 178.585 125.639C178.48 125.72 178.324 125.804 178.113 125.873C177.332 126.131 176.19 126.084 174.629 125.585C173.096 125.1 172.946 123.847 173.77 122.561C174.001 122.2 174.304 121.831 174.663 121.456C174.937 121.17 175.228 120.896 175.518 120.642L175.666 120.516C175.772 120.426 175.857 120.356 175.915 120.311Z" fill="#164E63"/>
<path fill-rule="evenodd" clip-rule="evenodd" d="M219.219 135.691C223.578 135.681 227.753 137.275 230.391 140.007C230.684 140.31 230.676 140.794 230.372 141.087C230.069 141.38 229.586 141.371 229.293 141.068C226.958 138.651 223.184 137.21 219.223 137.219C215.015 137.228 211.092 138.846 208.37 141.909L208.071 142.245C204.694 146.033 196.262 155.069 184.197 167.89C183.908 168.198 183.425 168.212 183.118 167.923C182.811 167.634 182.796 167.151 183.085 166.844L189.41 160.114C198.419 150.516 204.65 143.808 207.227 140.896C210.252 137.492 214.593 135.702 219.219 135.691Z" fill="#164E63"/>
<path fill-rule="evenodd" clip-rule="evenodd" d="M216.84 172.335L216.803 172.339L172.155 178.677C171.934 178.709 171.737 178.836 171.617 179.025L159.093 198.803C158.771 199.312 159.137 199.976 159.739 199.976L265.25 199.899C265.67 199.899 266.011 199.559 266.013 199.139L266.115 178.419C266.117 178.032 265.829 177.705 265.445 177.657L222.783 172.363L222.759 172.36C220.705 172.171 218.734 172.158 216.84 172.335ZM222.607 173.88L264.585 179.089L264.49 198.372L161.126 198.447L172.719 180.14L216.997 173.854L216.982 173.855C218.684 173.696 220.458 173.699 222.31 173.854L222.607 173.88Z" fill="#164E63"/>
<path fill-rule="evenodd" clip-rule="evenodd" d="M218.336 137.865C217.42 137.686 216.504 138.272 216.326 139.188L210.216 170.473L179.136 174.673L179.238 175.36C179.416 176.684 180.638 177.625 181.961 177.447L211.565 173.451C212.889 173.273 213.831 172.051 213.653 170.727V170.727L219.66 139.901C219.838 138.959 219.253 138.068 218.336 137.865Z" fill="#06D0B6"/>
<path fill-rule="evenodd" clip-rule="evenodd" d="M198.787 151.56C202.656 147.232 205.812 143.618 207.798 141.403C208.358 140.767 208.994 140.181 209.631 139.672C209.249 138.883 208.791 138.043 208.18 137.228C205.278 133.461 193.314 119.181 193.314 119.181L183.336 127.734L185.067 130.101C178.296 128.472 171.55 127.53 168.114 127.708L167.834 128.905V128.905C168.674 133.487 163.379 136.668 159.713 133.767L153.222 128.599L153.757 127.53C147.953 127.275 142.811 128.421 141.182 132.697C138.128 138.348 124.458 188.826 124.458 188.826L142.073 189.284L143.855 182.284C144.313 186.84 144.822 190.964 145.433 194.171C146.273 198.575 155.284 199.593 159.764 199.542L171.372 199.39L188.681 178.669L179.874 149.701C185.143 150.745 192.932 151.916 198.787 151.56Z" fill="#164E63"/>
<path fill-rule="evenodd" clip-rule="evenodd" d="M179.721 102.661C179.721 102.661 174.121 104.366 172.314 100.751C171.55 99.2241 169.157 98.3841 166.663 98.1804C166.943 98.435 167.223 98.7404 167.477 99.0713C169.768 102.177 171.601 105.842 172.797 108.795C172.797 108.795 173.052 109.406 173.357 110.322C174.375 109.661 175.521 108.617 175.572 107.37C175.572 107.37 172.721 108.108 172.008 105.97C172.059 105.97 178.219 107.446 179.721 102.661Z" fill="#164E63"/>
<path fill-rule="evenodd" clip-rule="evenodd" d="M355.972 187.426C355.972 187.426 368.445 193.611 367.325 200L341.004 199.898L341.462 187.476L355.972 187.426Z" fill="#06D0B6"/>
<path fill-rule="evenodd" clip-rule="evenodd" d="M347.699 37.0882C346.528 33.6518 342.378 31.9718 338.458 33.3463C336.422 34.0591 334.844 35.4336 333.953 37.0882L336.753 43.8083L341.742 44.7247C341.386 45.2338 340.978 45.7429 340.52 46.252C341.233 46.2011 341.971 46.0484 342.684 45.7938C346.629 44.4193 348.87 40.5246 347.699 37.0882Z" fill="#164E63"/>
<path fill-rule="evenodd" clip-rule="evenodd" d="M350.239 51.3466C353.277 50.1996 354.931 47.1268 353.933 44.4833C352.935 41.8398 349.663 40.6267 346.625 41.7737C343.587 42.9207 341.933 45.9936 342.931 48.637C343.929 51.2805 347.201 52.4936 350.239 51.3466Z" fill="#164E63"/>
<path fill-rule="evenodd" clip-rule="evenodd" d="M356.695 56.623C359.418 55.5952 360.9 52.8429 360.006 50.4756C359.112 48.1083 356.181 47.0225 353.459 48.0503C350.736 49.0781 349.254 51.8304 350.148 54.1977C351.041 56.565 353.973 57.6509 356.695 56.623Z" fill="#164E63"/>
<path fill-rule="evenodd" clip-rule="evenodd" d="M363.608 58.0886C364.27 60.0741 362.997 62.3142 360.732 63.1033C358.466 63.8924 356.073 62.9251 355.412 60.9651C354.75 58.9796 355.921 56.6377 358.186 55.8486C360.452 55.034 362.946 56.1032 363.608 58.0886Z" fill="#164E63"/>
<path fill-rule="evenodd" clip-rule="evenodd" d="M367.783 63.4342C367.834 65.5725 368.903 66.4379 369.921 66.7688C370.405 66.9216 370.43 67.6089 369.972 67.787C367.274 68.8561 362.412 70.1544 360.91 66.3616C360.197 64.5797 361.063 62.416 363.048 61.4742C365.059 60.5324 367.732 61.4997 367.783 63.4342Z" fill="#164E63"/>
<path fill-rule="evenodd" clip-rule="evenodd" d="M346.051 41.0638C346.442 40.6597 347.086 40.6493 347.49 41.0405C347.881 41.4186 347.904 42.0335 347.551 42.439L347.514 42.4802L343.645 46.4767C343.253 46.8807 342.609 46.8911 342.205 46.5C341.814 46.1218 341.791 45.5069 342.144 45.1014L342.181 45.0602L346.051 41.0638Z" fill="#06D0B6"/>
<path fill-rule="evenodd" clip-rule="evenodd" d="M353.176 47.2026C353.592 46.8253 354.236 46.8574 354.614 47.2743C354.978 47.6773 354.961 48.2924 354.582 48.6738L354.542 48.7124L351.055 51.8689C350.638 52.2462 349.994 52.2141 349.617 51.7972C349.252 51.3942 349.27 50.7791 349.648 50.3977L349.688 50.3591L353.176 47.2026Z" fill="#06D0B6"/>
<path fill-rule="evenodd" clip-rule="evenodd" d="M357.55 55.1172C358.01 54.7941 358.645 54.9052 358.968 55.3654C359.281 55.8108 359.187 56.4199 358.764 56.7516L358.72 56.7838L357.524 57.6239C357.064 57.947 356.429 57.8359 356.105 57.3756C355.793 56.9303 355.887 56.3212 356.31 55.9895L356.354 55.9572L357.55 55.1172Z" fill="#06D0B6"/>
<path fill-rule="evenodd" clip-rule="evenodd" d="M361.965 60.7723C362.409 60.427 363.048 60.507 363.393 60.9509C363.727 61.38 363.664 61.992 363.258 62.3442L363.215 62.3797L362.069 63.2706C361.626 63.6159 360.986 63.5359 360.641 63.092C360.307 62.6629 360.37 62.0509 360.776 61.6987L360.819 61.6632L361.965 60.7723Z" fill="#06D0B6"/>
<path fill-rule="evenodd" clip-rule="evenodd" d="M373.103 79.7254C372.288 78.2745 370.786 74.7108 369.768 73.0817C363.073 62.1869 352.637 48.1612 347.52 46.4557C347.393 46.4048 347.266 46.3539 347.113 46.3285L341.335 45.2339C338.102 49.4594 331.535 53.8631 325.858 52.5649C316.847 50.5031 320.564 42.4848 320.894 41.9247L323.771 42.5611L323.44 41.8229L321.251 41.3902C319.036 40.8556 316.16 41.0084 312.571 42.2048C307.123 44.0375 297.323 47.3721 290.425 49.7394C290.476 49.7903 290.527 49.8413 290.578 49.8922C293.021 52.5395 298.316 59.8451 294.319 62.9251C293.225 63.7651 292.181 64.3252 291.163 64.5543L291.57 65.1397C291.57 65.1397 294.523 63.6633 304.043 60.5324C305.927 59.9214 308.014 59.3105 310.102 58.6996C310.458 63.0015 312.698 68.0161 318.222 73.6162C321.022 77.1036 332.146 78.58 332.146 78.58C335.429 79.5218 342.175 74.2781 343.957 71.2998C344.542 70.3325 345.153 69.238 345.764 68.0416C348.819 72.0635 352.713 77.0272 355.946 81.1C361.546 75.9581 366.332 75.3981 373.103 79.7254Z" fill="#164E63"/>
<path fill-rule="evenodd" clip-rule="evenodd" d="M331.989 75.8918C336.211 76.583 339.087 77.6998 341.154 79.3856C342.825 80.7491 343.882 82.3171 345.139 85.0054L345.351 85.4664C345.626 86.0725 346.285 87.5537 346.435 87.8835L346.624 88.2957C347.026 89.1693 347.393 89.9209 347.789 90.6713C349.196 93.3401 351.37 105.339 354.189 124.792L354.362 125.993C354.869 129.51 355.39 133.228 355.924 137.122L356.165 138.886C357.478 148.526 358.808 158.792 360.099 169.115L360.59 173.06C360.799 174.747 361.001 176.38 361.193 177.952L362.112 185.532L362.33 187.361C362.382 187.796 362.059 188.181 361.628 188.213L361.583 188.215L330.681 188.673C330.278 188.679 329.942 188.371 329.909 187.975L329.906 187.93L328.304 129.693L321.642 161.643C321.559 162.041 321.18 162.301 320.783 162.242L320.739 162.234C320.341 162.151 320.08 161.772 320.139 161.375L320.147 161.331L328.14 122.996C328.322 122.125 329.579 122.221 329.648 123.082L329.651 123.131L331.412 187.134L360.713 186.7L360.315 183.378L359.725 178.529C359.534 176.968 359.334 175.345 359.127 173.668L358.712 170.336C357.468 160.36 356.184 150.419 354.914 141.027L354.491 137.914C354.01 134.397 353.539 131.021 353.079 127.805L352.851 126.21C350.001 106.421 347.745 93.8622 346.438 91.3836C345.997 90.5475 345.592 89.7137 345.142 88.7284L343.939 86.0504C343.923 86.0154 343.909 85.9842 343.897 85.9575L343.755 85.6527C342.588 83.1564 341.645 81.7576 340.188 80.5691C338.445 79.1468 335.979 78.1528 332.323 77.4984L332.045 77.4497L331.82 77.6014C331.715 77.6714 331.604 77.7443 331.488 77.8198L331.247 77.9741C330.424 78.4986 329.529 79.0228 328.592 79.5127C327.173 80.2551 325.785 80.852 324.469 81.2505C324.369 81.2808 324.269 81.31 324.17 81.3379L324.022 81.3789C319.99 82.4714 317.312 84.8902 314.892 90.0514L314.825 90.2005C313.631 92.8791 308.208 107.444 299.517 131.178C299.372 131.574 298.933 131.778 298.537 131.633C298.141 131.488 297.938 131.049 298.083 130.653L301.142 122.311C308.243 102.972 312.566 91.4315 313.509 89.4051C316.085 83.9078 319.076 81.1753 323.488 79.9417L323.622 79.9047C323.755 79.8687 323.89 79.83 324.026 79.7887C325.24 79.4211 326.544 78.8607 327.884 78.1594C328.78 77.6909 329.638 77.1883 330.427 76.6858L330.656 76.5385C330.804 76.4426 330.943 76.3512 331.071 76.2653L331.316 76.0981L331.422 76.024C331.586 75.9067 331.79 75.8591 331.989 75.8918Z" fill="#164E63"/>
<path fill-rule="evenodd" clip-rule="evenodd" d="M336.105 24.0133C336.184 23.5991 336.584 23.3277 336.999 23.4071C338.396 23.6752 339.647 24.1568 340.584 24.9574C341.92 26.0989 342.391 27.7343 341.759 29.7797C341.102 31.8976 339.83 33.0665 338.158 33.3629C337.158 33.5403 336.122 33.3924 335.117 33.0439C334.694 32.8975 334.369 32.749 334.174 32.6426C333.803 32.441 333.666 31.9773 333.868 31.6068C334.062 31.2501 334.499 31.1099 334.862 31.28L334.98 31.3399C335.008 31.3532 335.041 31.369 335.08 31.3868C335.239 31.4593 335.419 31.5324 335.617 31.6008C336.397 31.8713 337.187 31.984 337.892 31.8591C338.988 31.6646 339.809 30.9102 340.3 29.328C340.752 27.8649 340.464 26.8636 339.592 26.1187C338.896 25.5242 337.872 25.1297 336.711 24.9071C336.297 24.8276 336.025 24.4275 336.105 24.0133Z" fill="#164E63"/>
<path fill-rule="evenodd" clip-rule="evenodd" d="M332.464 33.532C332.84 33.3762 333.268 33.5424 333.444 33.9038L333.462 33.9447L337.274 43.1324L341.855 43.9737C342.387 44.0716 342.647 44.6738 342.367 45.1258L342.341 45.1642C340.665 47.5464 338.058 49.8768 335.231 51.4475C331.99 53.2478 328.677 53.961 325.713 53.2838C321.435 52.3022 319.371 49.9201 319.156 46.7072C319.08 45.5771 319.242 44.4215 319.57 43.2948C319.785 42.5553 320.063 41.875 320.25 41.5336C320.405 41.2494 320.721 41.0953 321.038 41.1447L321.085 41.1537L322.474 41.4607L321.344 38.955C321.177 38.5843 321.33 38.1505 321.686 37.9646L321.726 37.9449C322.097 37.7778 322.531 37.9309 322.717 38.2868L322.736 38.3271L324.493 42.2218C324.745 42.782 324.267 43.3895 323.672 43.2893L323.631 43.2813L321.361 42.779L321.331 42.8536C321.244 43.0764 321.16 43.3164 321.082 43.5687L321.036 43.7215C320.755 44.6888 320.617 45.6717 320.68 46.6053C320.849 49.1407 322.429 50.9632 326.054 51.795C330.637 52.8421 336.687 49.7327 340.316 45.3062L340.36 45.2517L336.59 44.5595C336.352 44.5159 336.15 44.3626 336.044 44.148L336.022 44.1011L332.051 34.53C331.89 34.1405 332.074 33.6936 332.464 33.532Z" fill="#164E63"/>
<path fill-rule="evenodd" clip-rule="evenodd" d="M323.346 9.74444C319.803 10.5851 316.991 14.2133 314.856 21.3326L314.791 21.5494C314.202 23.5547 313.804 26.868 314.07 29.7634C314.467 34.0991 316.225 37.2945 319.703 38.6406C326.72 41.3569 334.057 36.5252 336.986 28.5965C339.595 21.533 338.003 14.4697 333.194 12.364L332.906 12.2416C332.689 12.148 332.449 12.038 332.158 11.8991L330.711 11.1973L330.406 11.0529C327.539 9.71155 325.52 9.22852 323.346 9.74444ZM316.224 22.0931L316.256 21.9806C318.261 15.1893 320.762 11.927 323.698 11.2304C325.478 10.8082 327.25 11.2485 329.906 12.5055L330.343 12.7153C330.704 12.8907 331.213 13.1393 331.292 13.1773L331.605 13.3272C331.934 13.483 332.204 13.605 332.463 13.7127C336.491 15.3699 337.936 21.6153 335.553 28.0672C332.889 35.278 326.358 39.5791 320.254 37.2162C317.412 36.1163 315.94 33.4408 315.59 29.624C315.349 26.988 315.704 23.9371 316.224 22.0931Z" fill="#164E63"/>
<path fill-rule="evenodd" clip-rule="evenodd" d="M322.778 30.75C321.327 31.0046 320.233 30.5973 319.622 30.2918C319.342 30.1646 319.036 30.3173 318.985 30.6228C318.833 31.4882 318.884 33.0155 320.793 33.4737C322.804 33.9574 323.211 32.201 323.313 31.2082C323.338 30.9537 323.084 30.6991 322.778 30.75Z" fill="#164E63"/>
<path fill-rule="evenodd" clip-rule="evenodd" d="M322.385 18.1985C322.555 17.8125 323.005 17.6373 323.391 17.8072C323.764 17.971 323.94 18.3959 323.8 18.7722L323.783 18.8138L320.401 26.498L321.752 26.8553C322.145 26.9592 322.385 27.3516 322.305 27.7451L322.295 27.7888C322.191 28.182 321.798 28.4221 321.405 28.3421L321.361 28.3319L319.147 27.7464C318.708 27.6305 318.47 27.1626 318.625 26.7436L318.643 26.7005L322.385 18.1985Z" fill="#164E63"/>
<path fill-rule="evenodd" clip-rule="evenodd" d="M324.834 19.1583C326.021 18.6265 327.099 19.0131 327.949 19.9069C328.137 20.1042 328.3 20.3131 328.439 20.5223L328.499 20.614C328.554 20.7008 328.595 20.7725 328.622 20.8243C328.818 21.1978 328.674 21.6594 328.3 21.8553C327.941 22.0439 327.499 21.9173 327.292 21.5741L327.253 21.5047C327.236 21.4741 327.207 21.4275 327.168 21.3694C327.075 21.2291 326.965 21.0883 326.842 20.9593C326.409 20.5034 325.986 20.3412 325.511 20.5299L325.458 20.5523C325.073 20.7246 324.621 20.5523 324.449 20.1674C324.276 19.7824 324.449 19.3307 324.834 19.1583Z" fill="#164E63"/>
<path fill-rule="evenodd" clip-rule="evenodd" d="M318.706 14.7797C319.847 14.0622 320.998 14.3352 321.979 15.1552C322.305 15.4272 322.543 15.6983 322.685 15.8963C322.932 16.2385 322.854 16.7158 322.512 16.9622C322.183 17.1991 321.729 17.1364 321.475 16.827L321.416 16.7502C321.397 16.7269 321.371 16.6958 321.339 16.6587C321.239 16.5456 321.125 16.4319 321 16.3272C320.49 15.9012 320.028 15.7812 319.569 16.043L319.519 16.0725C319.162 16.297 318.691 16.1897 318.466 15.8327C318.242 15.4757 318.349 15.0042 318.706 14.7797Z" fill="#164E63"/>
<path fill-rule="evenodd" clip-rule="evenodd" d="M325.286 25.0514C325.419 24.4042 325.192 23.8107 324.779 23.7256C324.366 23.6406 323.923 24.0963 323.79 24.7435C323.656 25.3907 323.883 25.9843 324.296 26.0694C324.709 26.1544 325.152 25.6986 325.286 25.0514Z" fill="#164E63"/>
<path fill-rule="evenodd" clip-rule="evenodd" d="M318.014 23.665C318.147 23.0178 317.921 22.4242 317.507 22.3392C317.094 22.2541 316.651 22.7099 316.518 23.3571C316.385 24.0043 316.612 24.5979 317.025 24.6829C317.438 24.7679 317.881 24.3122 318.014 23.665Z" fill="#164E63"/>
<path fill-rule="evenodd" clip-rule="evenodd" d="M321.833 22.8728C321.187 26.6747 322.977 30.2062 325.938 30.7089C328.898 31.2116 331.753 28.4686 332.398 24.6668C333.044 20.8649 331.255 17.3334 328.294 16.8307C325.333 16.328 322.479 19.071 321.833 22.8728ZM322.962 23.0645C323.512 19.8254 325.852 17.5779 328.102 17.96C330.353 18.3422 331.819 21.2359 331.269 24.475C330.719 27.7141 328.38 29.9617 326.129 29.5795C323.879 29.1974 322.412 26.3037 322.962 23.0645Z" fill="#06D0B6"/>
<path fill-rule="evenodd" clip-rule="evenodd" d="M309.423 20.4793C308.778 24.2811 310.567 27.8126 313.528 28.3153C316.489 28.818 319.343 26.0751 319.989 22.2732C320.634 18.4714 318.845 14.9399 315.884 14.4372C312.924 13.9345 310.069 16.6774 309.423 20.4793ZM310.553 20.671C311.103 17.4319 313.442 15.1843 315.693 15.5665C317.943 15.9486 319.41 18.8423 318.86 22.0814C318.31 25.3206 315.97 27.5681 313.72 27.186C311.469 26.8038 310.003 23.9101 310.553 20.671Z" fill="#06D0B6"/>
<path fill-rule="evenodd" clip-rule="evenodd" d="M319.136 20.5114C319.193 20.2142 319.47 20.0149 319.766 20.0502L319.806 20.0564L322.733 20.6165C323.044 20.6759 323.248 20.9759 323.188 21.2866C323.131 21.5838 322.854 21.7831 322.558 21.7478L322.518 21.7415L319.591 21.1815C319.28 21.1221 319.076 20.8221 319.136 20.5114Z" fill="#06D0B6"/>
<path fill-rule="evenodd" clip-rule="evenodd" d="M331.476 22.1668C331.572 21.8801 331.874 21.7202 332.162 21.7953L332.201 21.807L338.845 24.0471C339.145 24.1481 339.306 24.473 339.205 24.7728C339.108 25.0595 338.807 25.2193 338.518 25.1442L338.479 25.1325L331.835 22.8925C331.536 22.7914 331.375 22.4665 331.476 22.1668Z" fill="#06D0B6"/>
<path fill-rule="evenodd" clip-rule="evenodd" d="M344.975 20.5935C344.441 17.0553 339.197 11.2006 334.386 11.2515C328.175 4.93867 318.884 -1.39963 313.462 9.72421C312.902 10.8951 313.538 12.3206 314.786 12.6006L332.451 17.1825C332.935 19.8553 334.31 24.0808 338.026 25.7609C339.095 26.2445 339.833 26.1936 340.291 25.7609C341.132 26.6009 341.59 27.7973 341.03 29.5282C339.553 34.2883 335.022 32.201 334.462 31.8955C333.546 33.321 333.393 33.7792 332.146 34.8483C335.99 36.9611 339.197 38.7938 341.717 35.4338C345.026 31.1319 345.688 25.5318 344.975 20.5935Z" fill="#164E63"/>
<path fill-rule="evenodd" clip-rule="evenodd" d="M268.243 28.8154L263.766 28.8663C263.72 28.8668 263.674 28.8714 263.628 28.8802L260.049 29.5684C259.214 29.7273 258.591 29.8444 258.243 29.9072L258.023 29.9457C257.54 30.0261 256.383 30.5337 255.261 31.1283L255.025 31.255C254.563 31.5067 254.16 31.748 253.858 31.958C253.645 32.1057 253.476 32.2406 253.35 32.3717L253.316 32.4079C253.059 32.6861 252.923 32.9778 253.074 33.3714L253.08 33.3854C253.433 34.3264 254.496 34.5329 255.994 34.3628C257.06 34.2419 258.325 33.9051 259.238 33.5137C259.632 33.3513 260.307 33.2742 261.157 33.2897C261.75 33.3006 262.392 33.3546 263.039 33.438L263.191 33.4581C263.29 33.4717 263.387 33.4856 263.481 33.4996L263.564 33.5123L263.606 33.6579C263.636 33.7669 263.667 33.8778 263.696 33.9893C263.744 34.172 263.787 34.3482 263.823 34.5148L263.841 34.6005C263.877 34.7694 263.904 34.9229 263.922 35.0565L263.926 35.0864L263.959 35.0875C263.217 35.0642 262.629 35.0635 262.024 35.1007L261.814 35.1152C260.329 35.2283 259.348 35.5513 258.941 36.3649C258.091 38.0653 258.816 39.5149 260.802 39.2983C261.03 39.2734 261.308 39.2854 261.622 39.3328C262.004 39.3903 262.421 39.4966 262.85 39.6378C263.092 39.7174 263.322 39.8029 263.531 39.8881L263.688 39.9536C263.731 39.9719 263.763 39.9863 263.785 39.9962C263.907 40.0527 264.042 40.0756 264.175 40.0632L264.257 40.0514L265.01 39.9173C265.097 39.9015 265.186 39.8851 265.277 39.8682C266.059 39.7229 266.841 39.5676 267.573 39.4085L267.897 39.337C268.48 39.2064 268.999 39.0791 269.441 38.9564L269.551 38.9255C269.912 38.823 270.215 38.7244 270.462 38.627L270.494 38.6137L270.525 38.6459C270.621 38.7467 270.737 38.888 270.87 39.0673L270.92 39.1363C271.339 39.7169 271.875 40.6063 272.565 41.8529L272.805 42.2926C273.803 44.1415 276.819 49.9252 277.528 51.2443L277.927 51.9844C278.803 53.5986 279.601 55.0141 280.367 56.2989L280.482 56.4907C280.734 56.9114 280.981 57.316 281.225 57.7048C286.199 65.6486 289.982 67.1912 294.761 63.5042C296.911 61.8468 296.975 59.1493 295.536 55.9108C294.553 53.6986 292.866 51.2793 291.245 49.4922L290.671 48.8715C289.679 47.8103 287.736 45.7731 284.716 42.6226L273.667 31.1127C272.255 29.6161 270.295 28.7869 268.243 28.8154ZM268.264 30.3426C269.852 30.3206 271.367 30.9461 272.483 32.0847L286.438 46.6304C288.294 48.5734 289.457 49.801 289.989 50.3824C291.547 52.0708 293.206 54.4288 294.14 56.531C295.327 59.202 295.28 61.1754 293.828 62.2948C289.905 65.3217 287.074 64.1672 282.519 56.8943C282.329 56.5901 282.136 56.2758 281.939 55.951L281.791 55.7055C280.928 54.265 280.021 52.6532 279.006 50.769L278.675 50.1499C277.684 48.2832 274.849 42.8512 274.037 41.3607L273.823 40.9739C273.169 39.7953 272.645 38.9271 272.208 38.3123L272.158 38.2424C271.875 37.8499 271.623 37.5588 271.384 37.3602C271.003 37.0435 270.587 36.8986 270.148 37.0955L270.096 37.1208C269.906 37.2178 269.536 37.3449 269.032 37.4849C268.541 37.6211 267.938 37.7661 267.248 37.9162C266.533 38.0716 265.766 38.224 264.998 38.3667L264.488 38.46L264.198 38.5112L264.107 38.4736C263.866 38.3758 263.604 38.2783 263.327 38.1871C262.823 38.0211 262.326 37.8944 261.85 37.8227C261.414 37.757 261.009 37.7394 260.636 37.7801C260.25 37.8222 260.13 37.7783 260.12 37.7586C260.111 37.7423 260.105 37.6887 260.119 37.5925C260.139 37.4457 260.202 37.2592 260.307 37.048C260.384 36.8951 261.074 36.6894 262.118 36.6253C262.581 36.5968 263.044 36.5929 263.599 36.6056L264.426 36.6296C264.449 36.63 264.468 36.6301 264.486 36.6301C264.894 36.6301 265.21 36.3886 265.362 36.0421C265.447 35.8478 265.477 35.637 265.477 35.3932C265.477 35.0661 265.419 34.664 265.315 34.1889C265.274 34.0005 265.226 33.804 265.173 33.6021C265.125 33.4199 265.075 33.2402 265.024 33.0668L264.956 32.8379L264.881 32.5995C264.794 32.3353 264.571 32.139 264.298 32.0871L264.096 32.0512L263.997 32.0348C263.765 31.9968 263.509 31.9588 263.234 31.9234C262.536 31.8333 261.84 31.7747 261.185 31.7627C260.143 31.7437 259.287 31.8415 258.646 32.106C257.859 32.443 256.739 32.7413 255.822 32.8454L255.728 32.8554C255.573 32.871 255.427 32.8805 255.292 32.8841L255.246 32.8847L255.313 32.8454C255.514 32.7284 255.737 32.6045 255.976 32.478L256.134 32.3951C257.033 31.9281 257.972 31.5175 258.251 31.4568L258.553 31.4032C258.793 31.3596 259.141 31.2949 259.581 31.2118L261.105 30.9216L263.85 30.3929L268.264 30.3426Z" fill="#164E63"/>
<path fill-rule="evenodd" clip-rule="evenodd" d="M353.316 82.1705C359.896 76.6271 365.793 75.0561 369.971 76.8945C373.523 78.4577 374.889 82.4165 372.579 84.5615C371.437 85.6208 369.872 86.7355 367.918 87.9047C365.017 89.641 361.305 91.4704 356.969 93.3533C353.144 95.0144 349.048 96.6254 344.953 98.1245L344.106 98.4331C343.086 98.8025 342.125 99.1434 341.235 99.4528L340.221 99.8026L339.488 100.05C339.314 100.108 339.125 100.101 338.956 100.032L338.906 100.009L338.804 99.9578C338.427 99.7692 338.274 99.3105 338.463 98.9333C338.61 98.6399 338.92 98.4822 339.228 98.5154L339.252 98.5185L340.225 98.1866L340.976 97.9257C342.035 97.5558 343.193 97.1423 344.428 96.6903C348.497 95.2007 352.566 93.6003 356.36 91.9524L356.927 91.7049C360.87 89.9748 364.263 88.2958 366.944 86.7074L367.134 86.5941C369.004 85.4751 370.487 84.4187 371.54 83.4422C372.934 82.1477 372.006 79.4587 369.356 78.2925C365.786 76.7215 360.475 78.1362 354.304 83.335C352.796 84.6243 351.218 85.7917 349.54 86.8821C349.187 87.112 348.714 87.0116 348.484 86.658C348.254 86.3044 348.354 85.8314 348.708 85.6016C350.332 84.5463 351.856 83.4183 353.316 82.1705Z" fill="#164E63"/>
<path fill-rule="evenodd" clip-rule="evenodd" d="M358.822 90.7474L352.815 90.9002L347.673 66.7179C347.571 66.1833 347.113 65.8015 346.629 65.8015L308.6 66.387C307.912 66.387 307.403 67.1252 307.556 67.8634L312.392 93.6493C312.723 95.253 314.734 96.4748 316.185 96.4493C318.731 96.3984 322.651 96.3475 327.029 96.2457C326.545 95.6602 326.138 94.9984 325.756 94.3111C323.847 90.7474 321.607 85.9619 323.109 85.2237C323.796 85.071 324.535 86.1146 325.171 87.3619C324.585 85.6819 324.229 83.9509 325.044 83.7982C325.833 83.6455 326.596 84.6382 327.411 86.4455C327.029 85.3255 326.724 84.3073 326.724 83.9764C326.8 81.9654 328.175 81.4309 329.829 85.7837L329.269 83.9C328.913 81.8891 330.771 82.1691 331.789 84.0018C332.426 85.1728 333.724 87.9728 334.793 90.4929C335.327 89.5256 336.575 87.7437 337.72 88.4819C338.891 89.2456 337.135 92.5802 336.269 94.082C336.371 94.3366 336.447 94.5657 336.498 94.7693L338.357 96.0421C346.706 95.8893 354.062 95.7366 354.622 95.7366C359.688 95.7111 358.822 90.7474 358.822 90.7474Z" fill="#06D0B6"/>
<path fill-rule="evenodd" clip-rule="evenodd" d="M326.594 82.0845C327.188 81.5247 327.985 81.6329 328.648 82.2445L328.694 82.2878L328.761 82.3548L328.767 82.3462C329.033 81.9743 329.452 81.7653 329.994 81.7955L330.055 81.7999C330.927 81.876 331.837 82.6131 332.431 83.6821L332.5 83.8064C333.132 84.9752 334.276 87.4581 335.393 90.0649C335.559 90.4526 335.38 90.9015 334.992 91.0677C334.604 91.2338 334.155 91.0542 333.989 90.6666L333.749 90.1094C332.689 87.6607 331.639 85.4002 331.096 84.4238C330.753 83.8062 330.291 83.4073 329.989 83.3328L329.975 83.3297L329.972 83.3493L329.968 83.3813C329.958 83.4781 329.962 83.6025 329.985 83.7522L329.989 83.7793L330.506 85.5247L330.518 85.5557C330.966 86.7461 331.405 88.2155 331.828 89.9619L331.87 90.1375C332.097 91.0862 330.722 91.4698 330.41 90.5766L330.395 90.5316L329.052 85.9939L329.027 85.929C328.539 84.6569 328.066 83.8075 327.646 83.3989L327.598 83.354L327.57 83.3295L327.563 83.3512C327.517 83.4856 327.477 83.6944 327.464 83.957L327.462 84.0238C327.46 84.0969 327.54 84.447 327.686 84.938L327.706 85.0058C327.789 85.281 327.89 85.5954 328.007 85.9438L328.06 86.1008L328.065 86.1124C328.505 87.0946 328.964 88.3398 329.473 89.9004L329.589 90.2595C329.891 91.1994 328.51 91.6905 328.151 90.7711L327.854 90.0006L327.81 89.8848C327.606 89.3481 327.402 88.8018 327.206 88.2662L327.01 87.7239L326.809 87.1563C326.776 87.0627 326.744 86.971 326.713 86.8813L326.636 86.6577L326.593 86.5634C326.488 86.335 326.385 86.1247 326.283 85.932L326.239 85.8504C325.953 85.319 325.686 84.9448 325.453 84.7337C325.414 84.6984 325.378 84.6694 325.345 84.6459L325.32 84.6292L325.319 84.6474C325.316 84.7176 325.317 84.8017 325.324 84.8979L325.329 84.9571C325.374 85.4586 325.544 86.1547 325.818 86.9858L325.869 87.1386L325.926 87.2527C325.986 87.3754 326.047 87.5018 326.107 87.6317L326.168 87.7629C326.459 88.3997 326.733 89.0783 326.981 89.7565L327.065 89.9878C327.092 90.0629 327.118 90.136 327.142 90.2067L327.262 90.5559L327.298 90.6672C327.584 91.5602 326.33 92.0719 325.901 91.2677L325.881 91.2271C325.864 91.1911 325.833 91.125 325.79 91.0319L325.702 90.8379C325.656 90.7361 325.608 90.6275 325.557 90.5126C325.316 89.9659 325.075 89.3887 324.85 88.8062C324.722 88.4732 324.602 88.1479 324.492 87.8326L324.461 87.7419L324.435 87.6915C324.063 86.9714 323.707 86.4389 323.407 86.1686L323.37 86.1362L323.368 86.1448C323.358 86.2171 323.354 86.3045 323.356 86.4063L323.358 86.469C323.381 86.9608 323.548 87.6528 323.848 88.5052C324.372 89.9905 325.255 91.856 326.404 94.0008C329.172 99.1537 334.173 100.785 341.497 97.7056C341.886 97.5421 342.334 97.7248 342.497 98.1136C342.661 98.5024 342.478 98.9501 342.089 99.1135C334.054 102.492 328.207 100.585 325.058 94.7228C323.875 92.514 322.963 90.5878 322.408 89.0127L322.335 88.8022C321.593 86.6156 321.562 85.1717 322.747 84.5894C322.804 84.5613 322.865 84.5404 322.927 84.5274C323.22 84.466 323.505 84.4996 323.777 84.61L323.791 84.616C323.814 83.8378 324.103 83.2701 324.809 83.0892L324.868 83.075C325.264 82.9959 325.63 83.0527 325.975 83.2325L326.014 83.2534L326.028 83.1863C326.124 82.7537 326.293 82.3928 326.546 82.1322L326.594 82.0845Z" fill="#164E63"/>
<path fill-rule="evenodd" clip-rule="evenodd" d="M336.126 87.8382C336.779 87.4755 337.493 87.4674 338.141 87.8959C339.201 88.5965 339.041 89.9814 338.23 91.93C338.06 92.3394 337.861 92.7668 337.638 93.2064C337.38 93.7171 337.104 94.2183 336.828 94.6898L336.716 94.8805C336.679 94.9416 336.644 95 336.61 95.0557L336.481 95.2661C336.471 95.2822 336.463 95.2956 336.456 95.3061C336.23 95.6621 335.758 95.7675 335.402 95.5414C335.059 95.3236 334.949 94.878 335.143 94.5273L335.258 94.3392C335.334 94.2156 335.419 94.0745 335.51 93.9185C335.771 93.4723 336.032 92.9979 336.275 92.5173C336.482 92.1093 336.665 91.7152 336.82 91.3429C337.1 90.6709 337.275 90.0964 337.325 89.666C337.347 89.4682 337.342 89.3163 337.315 89.2194L337.306 89.1873C337.301 89.1727 337.3 89.1703 337.299 89.17C337.028 88.9904 336.637 89.2072 336.126 89.9127C335.968 90.1305 335.822 90.3677 335.694 90.6053L335.63 90.7249C335.621 90.744 335.611 90.7625 335.602 90.7806L335.54 90.9082C335.367 91.2928 334.915 91.4643 334.531 91.2912C334.146 91.1181 333.974 90.6661 334.148 90.2815L334.196 90.1775C334.235 90.0972 334.287 89.9957 334.351 89.878C334.509 89.5858 334.689 89.2933 334.889 89.0167C335.265 88.4979 335.67 88.0911 336.126 87.8382Z" fill="#164E63"/>
<path fill-rule="evenodd" clip-rule="evenodd" d="M278.825 111.633C278.987 111.244 279.434 111.059 279.823 111.221C283.628 112.803 285.743 115.55 286.561 119.127L286.593 119.272L286.67 119.311C287.997 119.997 289.383 120.986 290.947 122.32L291.541 122.833C292.215 123.422 292.755 123.92 293.812 124.934L296.582 127.608C297.586 128.575 298.322 129.266 299.07 129.938L299.157 130.016L299.187 130.045L299.354 130.212L299.587 130.425C307.668 137.925 310.68 149.476 307.342 160.053L307.238 160.376L304.845 167.656C304.78 167.856 304.635 168.019 304.446 168.109L304.28 168.175L301.865 169.111C300.654 169.578 299.332 170.086 297.918 170.625C293.341 172.372 288.686 174.119 284.192 175.765L283.232 176.116C282.552 176.363 281.882 176.607 281.219 176.847L279.98 177.294C267.906 181.637 259.935 184.142 257.486 184.142C253.988 184.142 243.921 177.173 236.714 169.454C232.476 164.915 229.317 160.306 227.653 155.944C225.704 150.838 225.841 146.181 228.386 142.236C231.769 137.003 235.543 132.571 239.548 128.878C242.339 126.304 245.058 124.254 247.582 122.678L247.716 122.594L247.711 122.572C246.631 117.854 250.241 114.008 259.106 111.401L259.388 111.319C259.793 111.203 260.216 111.437 260.333 111.842C260.449 112.248 260.215 112.671 259.81 112.787C251.079 115.298 248.088 118.68 249.332 122.724C249.436 123.059 249.297 123.422 248.996 123.603C246.385 125.173 243.528 127.285 240.583 130.001C236.671 133.608 232.981 137.942 229.669 143.064C225.39 149.697 228.869 158.814 237.83 168.411C241.387 172.221 245.606 175.838 249.605 178.606L249.861 178.782C253.346 181.168 256.28 182.615 257.486 182.615C259.687 182.615 267.861 180.037 279.841 175.72L280.206 175.589C281.026 175.293 281.861 174.99 282.708 174.681C287.17 173.053 291.812 171.316 296.393 169.572L299.137 168.524C299.992 168.196 300.806 167.883 301.573 167.587L303.507 166.837L305.787 159.9C309.104 149.801 306.273 138.715 298.548 131.545L298.312 131.329L298.285 131.303L298.122 131.139L297.786 130.836C297.052 130.17 296.303 129.462 295.286 128.481L292.587 125.875C291.462 124.799 290.955 124.342 290.118 123.621C288.411 122.15 286.952 121.124 285.593 120.482C285.372 120.378 285.215 120.174 285.169 119.934C284.533 116.58 282.719 114.078 279.237 112.631C278.848 112.469 278.663 112.022 278.825 111.633Z" fill="#164E63"/>
<path fill-rule="evenodd" clip-rule="evenodd" d="M285.028 119.435C285.487 121.726 285.308 123.89 285.232 125.214C285.003 130.737 282.916 133.716 282.305 135.777C286.327 133.385 290.043 127.861 291.876 124.246C290.73 123.126 287.039 120.403 285.028 119.435Z" fill="#164E63"/>
<path fill-rule="evenodd" clip-rule="evenodd" d="M263.01 136.185C261.024 135.268 250.893 128.726 249.188 122.363C247.151 123.457 243.944 125.392 241.958 127.759C244.249 129.159 257.181 136.846 262.908 136.414C262.984 136.414 263.061 136.388 263.137 136.388C263.086 136.312 263.061 136.236 263.01 136.185Z" fill="#164E63"/>
<path fill-rule="evenodd" clip-rule="evenodd" d="M278.588 136.236C280.778 129.897 279.123 122.821 277.596 120.759C275.967 127.123 272.276 131.017 272.276 131.017C266.09 123.966 259.624 119.97 259.624 119.97L259.803 119.766C259.523 119.766 259.37 119.792 259.37 119.792L257.053 122.184C257.053 122.184 268.075 130.559 271.665 150.77C274.007 163.905 275.203 176.225 275.203 176.225L282.025 175.869C282.025 175.818 276.221 143.159 278.588 136.236Z" fill="#06D0B6"/>
<path fill-rule="evenodd" clip-rule="evenodd" d="M256.289 105.067C256.675 104.897 257.125 105.073 257.295 105.459C257.464 105.845 257.289 106.296 256.902 106.465C255.41 107.12 254.734 108.107 255.48 109.694C256.13 111.086 257.304 111.126 258.905 110.261C259.277 110.061 259.74 110.199 259.94 110.57C260.141 110.942 260.002 111.405 259.631 111.605C258.721 112.097 257.807 112.386 256.925 112.355C255.705 112.313 254.707 111.648 254.097 110.342C253.442 108.947 253.524 107.695 254.222 106.677C254.716 105.956 255.451 105.434 256.289 105.067Z" fill="#164E63"/>
<path fill-rule="evenodd" clip-rule="evenodd" d="M275.942 93.9822C276.334 93.8279 276.778 94.0211 276.932 94.4136C278.9 99.4212 280.031 105.95 280.141 110.584C280.151 111.006 279.817 111.356 279.396 111.366C278.974 111.376 278.624 111.042 278.614 110.62C278.508 106.154 277.407 99.7982 275.51 94.9723C275.356 94.5797 275.549 94.1365 275.942 93.9822Z" fill="#164E63"/>
<path fill-rule="evenodd" clip-rule="evenodd" d="M261.893 115.082L261.938 115.084C262.344 115.11 262.656 115.448 262.654 115.85L262.652 115.894L262.55 117.498C262.541 117.647 262.488 117.789 262.399 117.907L262.365 117.951L260.749 119.81L261.052 120.016C261.876 120.581 262.793 121.25 263.78 122.017C266.5 124.132 269.219 126.581 271.77 129.343L272.043 129.64L272.238 129.856L272.245 129.847C272.328 129.744 272.413 129.636 272.502 129.521L272.591 129.404C273.28 128.493 273.971 127.433 274.616 126.234C275.999 123.665 276.977 120.833 277.373 117.784C277.427 117.366 277.81 117.071 278.228 117.125C278.647 117.179 278.942 117.562 278.887 117.981C278.466 121.226 277.428 124.233 275.961 126.958C275.277 128.229 274.543 129.355 273.808 130.326C273.582 130.625 273.369 130.891 273.174 131.123L273.008 131.317C272.916 131.421 272.848 131.497 272.804 131.543C272.494 131.869 271.972 131.858 271.676 131.521C271.425 131.235 271.171 130.951 270.915 130.67C268.347 127.854 265.595 125.362 262.843 123.223C261.945 122.524 261.107 121.911 260.349 121.386L260.188 121.275C260.013 121.155 259.852 121.046 259.703 120.947L259.338 120.708C259.272 120.666 259.225 120.636 259.197 120.619C258.811 120.38 258.72 119.862 258.992 119.506L259.022 119.469L261.042 117.144L261.128 115.798C261.153 115.407 261.467 115.103 261.849 115.083L261.893 115.082Z" fill="#164E63"/>
<path fill-rule="evenodd" clip-rule="evenodd" d="M259.235 105.065L256.97 105.803C256.544 105.942 256.331 106.414 256.501 106.822L256.601 107.031L257.201 108.257L257.844 109.562C258.033 109.945 258.221 110.325 258.408 110.699L259.278 112.439C260.184 114.236 260.873 115.558 261.278 116.258L261.307 116.308C262.673 118.645 263.617 119.447 266.747 120.704C268.562 121.432 271.049 121.6 273.295 121.117C275.886 120.561 277.942 119.216 278.967 117.153C279.512 116.048 279.852 114.738 280.019 113.264C280.223 111.456 280.16 109.538 279.931 107.69C279.886 107.321 279.837 106.984 279.787 106.686L279.737 106.395C279.73 106.358 279.724 106.328 279.719 106.304C279.651 105.962 279.359 105.709 279.011 105.691C278.463 105.662 277.692 105.73 276.732 105.873C276.402 105.922 276.057 105.979 275.701 106.042C275.355 106.104 275.013 106.169 274.685 106.235L274.278 106.318L273.917 106.395L273.886 106.403C272.334 106.816 270.838 107.307 269.404 107.859C267.787 108.481 266.331 109.148 265.06 109.817L264.913 109.894L264.631 110.046C264.54 110.096 264.452 110.144 264.366 110.192L264.151 110.313L264.1 110.231C262.94 108.386 260.726 105.675 259.877 105.144C259.685 105.024 259.45 104.995 259.235 105.065ZM259.322 106.643L259.348 106.667C260.308 107.556 262.498 110.36 263.197 111.716C263.403 112.116 263.91 112.252 264.289 112.008L264.376 111.954L264.535 111.858C264.573 111.835 264.615 111.81 264.658 111.784L264.877 111.658C265.142 111.506 265.44 111.343 265.771 111.169C266.991 110.527 268.393 109.884 269.952 109.284L270.3 109.152C271.462 108.716 272.665 108.322 273.906 107.98L274.265 107.882L274.517 107.828C274.589 107.813 274.666 107.797 274.748 107.78C275.137 107.7 275.55 107.621 275.969 107.546C276.243 107.497 276.509 107.453 276.766 107.413L277.068 107.367C277.501 107.305 277.887 107.26 278.213 107.235L278.326 107.227L278.339 107.313C278.365 107.49 278.391 107.679 278.416 107.878C278.631 109.616 278.69 111.42 278.501 113.092C278.353 114.404 278.056 115.548 277.598 116.475C276.805 118.073 275.146 119.158 272.975 119.624C271.017 120.044 268.839 119.898 267.317 119.287L267.07 119.187C264.536 118.151 263.826 117.555 262.731 115.716L262.626 115.537C262.299 114.978 261.739 113.915 261.006 112.471L260.324 111.118L259.96 110.39C259.714 109.898 259.464 109.394 259.213 108.885L258.36 107.151L258.278 106.983L259.322 106.643Z" fill="#164E63"/>
<path fill-rule="evenodd" clip-rule="evenodd" d="M258.046 107.573C258.046 107.573 255.45 105.13 253.973 102.279C252.599 99.6058 253.184 96.2966 255.501 94.3621C257.435 92.7584 259.268 93.1911 259.268 93.1911C259.268 93.1911 255.959 89.7802 258.581 85.4019C259.523 83.8491 261.05 82.7546 262.806 82.3728C267.108 81.4309 269.348 84.7401 269.348 84.7401C269.348 84.7401 271.843 75.1944 282.483 77.8418C283.552 78.1218 284.978 79.2418 285.716 80.0563C290.221 85.0201 281.668 94.3112 276.476 96.1694C270.774 98.2058 267.108 98.0785 264.868 97.1112C266.497 97.6203 267.083 106.784 258.046 107.573Z" fill="#164E63"/>
<path fill-rule="evenodd" clip-rule="evenodd" d="M273.691 103.879C274.072 103.738 274.494 103.921 274.655 104.289L274.672 104.33L276.658 109.701C276.838 110.19 276.488 110.707 275.976 110.729L275.932 110.73L273.87 110.704C273.448 110.699 273.111 110.353 273.116 109.931C273.121 109.525 273.443 109.196 273.844 109.178L273.889 109.177L274.84 109.189L273.239 104.86C273.098 104.478 273.281 104.056 273.649 103.896L273.691 103.879Z" fill="#164E63"/>
<path fill-rule="evenodd" clip-rule="evenodd" d="M276.644 104.917C276.958 104.84 277.117 104.389 276.999 103.912C276.881 103.434 276.531 103.11 276.217 103.187C275.903 103.265 275.744 103.715 275.862 104.193C275.98 104.67 276.33 104.995 276.644 104.917Z" fill="#164E63"/>
<path fill-rule="evenodd" clip-rule="evenodd" d="M271.55 106.136C271.873 106.118 272.113 105.706 272.086 105.214C272.06 104.723 271.776 104.339 271.453 104.357C271.131 104.374 270.89 104.786 270.917 105.278C270.944 105.769 271.227 106.153 271.55 106.136Z" fill="#164E63"/>
<path fill-rule="evenodd" clip-rule="evenodd" d="M269.874 100.905C270.295 100.886 270.652 101.212 270.671 101.633C270.69 102.039 270.387 102.386 269.988 102.427L269.943 102.43C269.418 102.454 269.011 102.643 268.688 102.947C268.566 103.062 268.466 103.186 268.387 103.307L268.354 103.359C268.336 103.389 268.324 103.411 268.318 103.422L268.315 103.429C268.144 103.814 267.693 103.988 267.307 103.816C266.922 103.645 266.748 103.194 266.92 102.808C266.955 102.728 267.016 102.613 267.106 102.475C267.248 102.256 267.425 102.039 267.64 101.836C268.218 101.291 268.965 100.946 269.874 100.905Z" fill="#164E63"/>
<path fill-rule="evenodd" clip-rule="evenodd" d="M276.33 97.728C276.935 97.7389 277.486 97.9433 277.926 98.3721C278.227 98.6667 278.233 99.1502 277.939 99.452C277.656 99.7417 277.199 99.7586 276.896 99.4989L276.859 99.465C276.715 99.3249 276.538 99.2593 276.303 99.2551C276.024 99.2501 275.692 99.3343 275.351 99.4819C275.259 99.5215 275.173 99.5632 275.093 99.6053L275.016 99.6473C274.978 99.6686 274.948 99.6857 274.929 99.6974L274.908 99.7107C274.555 99.9413 274.081 99.8418 273.851 99.4887C273.62 99.1355 273.72 98.6623 274.073 98.4318C274.217 98.3374 274.449 98.2083 274.744 98.0805C275.267 97.8536 275.801 97.7185 276.33 97.728Z" fill="#164E63"/>
<path fill-rule="evenodd" clip-rule="evenodd" d="M273.879 113.708C272.072 113.53 271.461 112.639 271.461 112.639L274.592 112.435C274.566 112.435 275.076 113.682 273.879 113.708Z" fill="#164E63"/>
<path fill-rule="evenodd" clip-rule="evenodd" d="M263.954 133.982C264.328 133.82 264.759 133.98 264.939 134.339L264.971 134.409L265.119 134.761L265.215 134.996C265.315 135.239 265.422 135.506 265.535 135.793C265.964 136.885 266.394 138.056 266.795 139.26C267.224 140.546 267.595 141.794 267.891 142.979C268.237 144.363 268.473 145.629 268.581 146.752C268.622 147.171 268.314 147.544 267.894 147.585C267.474 147.625 267.101 147.318 267.061 146.898C266.961 145.859 266.738 144.665 266.409 143.349C266.123 142.205 265.763 140.994 265.346 139.743C264.993 138.684 264.618 137.65 264.239 136.675L264.113 136.352C263.966 135.978 263.83 135.64 263.708 135.346L263.556 134.986C263.389 134.599 263.567 134.149 263.954 133.982Z" fill="#164E63"/>
<path fill-rule="evenodd" clip-rule="evenodd" d="M280.687 134.227C281.092 134.192 281.45 134.481 281.508 134.878L281.755 137.648L281.849 138.67C281.989 140.201 282.133 141.719 282.277 143.166L282.412 144.509C282.469 145.074 282.526 145.616 282.581 146.133C282.625 146.552 282.322 146.928 281.902 146.973C281.483 147.018 281.107 146.714 281.062 146.295L280.978 145.497C280.921 144.954 280.864 144.386 280.805 143.798L280.661 142.339C280.533 141.024 280.405 139.664 280.281 138.299L280.075 136.007L279.991 135.054C279.955 134.633 280.267 134.264 280.687 134.227Z" fill="#164E63"/>
<path fill-rule="evenodd" clip-rule="evenodd" d="M256.012 144.777C256.327 144.497 256.81 144.526 257.09 144.842C257.359 145.145 257.343 145.603 257.061 145.886L257.026 145.92L252.266 150.145C252.013 150.369 251.644 150.401 251.357 150.223C248.669 148.56 246.442 148.614 244.639 149.672C244.366 149.832 244.129 150.003 243.931 150.172L243.862 150.232C243.809 150.279 243.77 150.316 243.745 150.342L243.72 150.367C243.437 150.68 242.954 150.703 242.642 150.419C242.329 150.136 242.306 149.653 242.59 149.341C242.658 149.265 242.775 149.15 242.94 149.01C243.204 148.785 243.513 148.562 243.866 148.355C246 147.103 248.625 146.964 251.574 148.582L251.667 148.634L256.012 144.777Z" fill="#164E63"/>
<path fill-rule="evenodd" clip-rule="evenodd" d="M250.637 148.941C250.839 148.588 251.279 148.457 251.638 148.634L251.818 148.735L255.349 150.748L262.148 154.608C263.18 155.19 263.84 155.558 264.035 155.66L264.078 155.682C264.458 155.864 264.619 156.319 264.437 156.7C264.255 157.08 263.799 157.241 263.419 157.059L263.249 156.971C262.842 156.752 261.819 156.178 260.262 155.296L256.71 153.28L250.922 149.983C250.556 149.774 250.428 149.307 250.637 148.941Z" fill="#164E63"/>
<path fill-rule="evenodd" clip-rule="evenodd" d="M290.499 143.122C290.871 142.958 291.303 143.115 291.486 143.473L291.506 143.513L293.873 148.884C294.043 149.27 293.868 149.721 293.482 149.891C293.11 150.055 292.678 149.898 292.495 149.541L292.475 149.5L290.108 144.129C289.938 143.743 290.113 143.292 290.499 143.122Z" fill="#164E63"/>
<path fill-rule="evenodd" clip-rule="evenodd" d="M263.163 177.32C263.163 177.32 251.352 172.407 236.715 162.276C222.104 152.145 212.787 167.825 216.733 174.24C220.195 179.891 239.668 199.339 239.668 199.339L305.902 198.804C305.902 198.804 321.455 179.229 323.898 176.149C332.171 165.763 325.324 160.291 316.262 159.502C307.709 158.763 284.647 175.564 281.821 177.727L263.163 177.32Z" fill="#164E63"/>
<path fill-rule="evenodd" clip-rule="evenodd" d="M303.687 148.632H261.126C260.566 148.632 260.082 149.014 259.955 149.549L254.177 173.96H243.486C243.486 173.96 242.518 178.975 248.169 178.975C249.62 178.975 251.759 178.975 254.177 178.975C254.279 179 254.406 179.025 254.508 179.025H297.069C297.629 179.025 298.112 178.644 298.239 178.109L304.858 150.134C305.036 149.345 304.451 148.632 303.687 148.632Z" fill="#06D0B6"/>
<path fill-rule="evenodd" clip-rule="evenodd" d="M406.373 198.473C406.794 198.473 407.136 198.815 407.136 199.237C407.136 199.643 406.818 199.976 406.417 199.999L406.373 200H6.62718C6.20542 200 5.86353 199.658 5.86353 199.237C5.86353 198.83 6.18144 198.498 6.58231 198.474L6.62718 198.473H406.373Z" fill="#164E63"/>
</svg>
