<svg width="434" height="202" viewBox="0 0 434 202" fill="none" xmlns="http://www.w3.org/2000/svg">
<path fill-rule="evenodd" clip-rule="evenodd" d="M213.665 196.684L136.784 197.035L130.786 191.004H71.448V30.5791H215.011" fill="#F1F5F9"/>
<path fill-rule="evenodd" clip-rule="evenodd" d="M215.011 29.8623C215.407 29.8623 215.728 30.1832 215.728 30.5792C215.728 30.9609 215.429 31.273 215.053 31.2948L215.011 31.296H72.1649V190.288H130.786C130.961 190.288 131.129 190.352 131.26 190.466L131.294 190.499L137.081 196.317L213.662 195.967C214.044 195.966 214.357 196.263 214.381 196.639L214.382 196.681C214.384 197.063 214.087 197.376 213.711 197.4L213.669 197.401L136.787 197.752C136.611 197.753 136.442 197.689 136.31 197.574L136.275 197.541L130.488 191.721H71.448C71.0663 191.721 70.7542 191.423 70.7324 191.047L70.7312 191.004V30.5792C70.7312 30.1974 71.0296 29.8853 71.4059 29.8635L71.448 29.8623H215.011Z" fill="#164E63"/>
<rect x="77.718" y="58.0869" width="52.7192" height="44.0358" fill="#008473"/>
<rect x="77.718" y="116.916" width="52.7192" height="44.7718" fill="#008473"/>
<path fill-rule="evenodd" clip-rule="evenodd" d="M128.965 47.4585H96.5758V40.6556H128.965" fill="#008473"/>
<path fill-rule="evenodd" clip-rule="evenodd" d="M119.099 177.745H97.2043C96.8505 177.745 96.5496 178.003 96.4958 178.353L93.1242 200.248C93.0574 200.682 93.3933 201.074 93.8327 201.074H116.361C116.722 201.074 117.027 200.805 117.072 200.446L119.81 178.551C119.864 178.123 119.53 177.745 119.099 177.745ZM118.287 179.179L115.728 199.64H94.6683L97.8191 179.179H118.287Z" fill="#0E7490"/>
<path fill-rule="evenodd" clip-rule="evenodd" d="M121.685 157.052H100.392C100.038 157.052 99.7372 157.31 99.6834 157.66L96.4958 178.353C96.4289 178.787 96.7649 179.179 97.2043 179.179H119.099C119.461 179.179 119.766 178.91 119.81 178.551L122.396 157.858C122.449 157.43 122.116 157.052 121.685 157.052ZM120.873 158.486L118.466 177.745H98.0399L101.007 158.486H120.873Z" fill="#0E7490"/>
<path fill-rule="evenodd" clip-rule="evenodd" d="M124.134 137.461H103.407C103.054 137.461 102.753 137.719 102.699 138.069L99.6833 157.66C99.6165 158.094 99.9524 158.486 100.392 158.486H121.685C122.046 158.486 122.351 158.217 122.396 157.858L124.845 138.267C124.899 137.839 124.565 137.461 124.134 137.461ZM123.322 138.894L121.052 157.052H101.227L104.022 138.894H123.322Z" fill="#0E7490"/>
<path fill-rule="evenodd" clip-rule="evenodd" d="M126.456 118.887H106.268C105.914 118.887 105.613 119.146 105.559 119.495L102.699 138.069C102.632 138.503 102.968 138.895 103.407 138.895H124.134C124.495 138.895 124.8 138.625 124.845 138.267L127.168 119.693C127.221 119.265 126.888 118.887 126.456 118.887ZM125.644 120.321L123.501 137.461H104.243L106.882 120.321H125.644Z" fill="#0E7490"/>
<path fill-rule="evenodd" clip-rule="evenodd" d="M128.66 101.253H108.982C108.628 101.253 108.327 101.511 108.274 101.861L105.559 119.495C105.492 119.93 105.828 120.321 106.268 120.321H126.456C126.818 120.321 127.123 120.052 127.168 119.693L129.371 102.059C129.424 101.631 129.091 101.253 128.66 101.253ZM127.848 102.687L125.823 118.887H107.103L109.597 102.687H127.848Z" fill="#0E7490"/>
<path fill-rule="evenodd" clip-rule="evenodd" d="M130.755 84.4908H111.563C111.209 84.4908 110.908 84.7489 110.854 85.0986L108.274 101.861C108.207 102.295 108.543 102.687 108.982 102.687H128.659C129.021 102.687 129.326 102.418 129.371 102.059L131.466 85.2966C131.52 84.8688 131.186 84.4908 130.755 84.4908ZM129.943 85.9245L128.027 101.253H109.818L112.177 85.9245H129.943Z" fill="#0E7490"/>
<rect x="105.493" y="82.9329" width="23.4719" height="2.27479" fill="#0E7490"/>
<path fill-rule="evenodd" clip-rule="evenodd" d="M184.208 176.548H174.401C174.006 176.548 173.685 176.869 173.685 177.265V187.071C173.685 187.467 174.006 187.788 174.401 187.788H184.208C184.604 187.788 184.925 187.467 184.925 187.071V177.265C184.925 176.869 184.604 176.548 184.208 176.548ZM183.491 177.982V186.355H175.118V177.982H183.491Z" fill="#0E7490"/>
<path fill-rule="evenodd" clip-rule="evenodd" d="M197.821 176.548H188.014C187.618 176.548 187.297 176.869 187.297 177.265V187.071C187.297 187.467 187.618 187.788 188.014 187.788H197.821C198.217 187.788 198.538 187.467 198.538 187.071V177.265C198.538 176.869 198.217 176.548 197.821 176.548ZM197.104 177.982V186.355H188.731V177.982H197.104Z" fill="#0E7490"/>
<rect x="139.849" y="176.309" width="26.8435" height="11.7133" fill="#0E7490"/>
<path fill-rule="evenodd" clip-rule="evenodd" d="M194.26 190.787C194.656 190.787 194.977 191.108 194.977 191.504C194.977 191.886 194.679 192.198 194.303 192.22L194.26 192.221H148.088C147.693 192.221 147.372 191.9 147.372 191.504C147.372 191.122 147.67 190.81 148.046 190.788L148.088 190.787H194.26Z" fill="#06D0B6"/>
<path fill-rule="evenodd" clip-rule="evenodd" d="M208.652 171.399C209.048 171.399 209.369 171.72 209.369 172.116C209.369 172.497 209.071 172.809 208.694 172.831L208.652 172.832H134.253C133.857 172.832 133.536 172.512 133.536 172.116C133.536 171.734 133.835 171.422 134.211 171.4L134.253 171.399H208.652Z" fill="#06D0B6"/>
<path fill-rule="evenodd" clip-rule="evenodd" d="M158.643 163.528C159.039 163.528 159.36 163.849 159.36 164.245C159.36 164.626 159.061 164.939 158.685 164.96L158.643 164.962H139.849C139.454 164.962 139.133 164.641 139.133 164.245C139.133 163.863 139.431 163.551 139.807 163.529L139.849 163.528H158.643Z" fill="#0E7490"/>
<circle cx="164.889" cy="164.245" r="2.39904" fill="#0E7490"/>
<circle cx="172.177" cy="164.245" r="2.39904" fill="#0E7490"/>
<ellipse cx="179.467" cy="164.245" rx="2.39905" ry="2.39904" fill="#0E7490"/>
<path fill-rule="evenodd" clip-rule="evenodd" d="M206.366 157.052C206.761 157.052 207.082 157.373 207.082 157.769C207.082 158.151 206.784 158.463 206.408 158.485L206.366 158.486H139.849C139.454 158.486 139.133 158.165 139.133 157.769C139.133 157.387 139.431 157.075 139.807 157.053L139.849 157.052H206.366Z" fill="#0E7490"/>
<path fill-rule="evenodd" clip-rule="evenodd" d="M206.366 152.431C206.761 152.431 207.082 152.752 207.082 153.148C207.082 153.53 206.784 153.842 206.408 153.863L206.366 153.865H139.849C139.454 153.865 139.133 153.544 139.133 153.148C139.133 152.766 139.431 152.454 139.807 152.432L139.849 152.431H206.366Z" fill="#0E7490"/>
<rect x="139.849" y="139.779" width="53.6846" height="8.09079" fill="#0E7490"/>
<path fill-rule="evenodd" clip-rule="evenodd" d="M206.366 39.3152H140.277C139.881 39.3152 139.56 39.6361 139.56 40.032V135.055C139.56 135.451 139.881 135.772 140.277 135.772H206.366C206.761 135.772 207.082 135.451 207.082 135.055V40.032C207.082 39.6361 206.761 39.3152 206.366 39.3152ZM205.649 40.7489V134.338H140.994V40.7489H205.649Z" fill="#0E7490"/>
<path fill-rule="evenodd" clip-rule="evenodd" d="M206.368 40.032H140.28V56.4525H140.339V58.2494V59.0642V64.8994V68.2805H168.726V64.8994H178.989V58.2494H190.648V56.4525H206.368V40.032Z" fill="#0E7490"/>
<path fill-rule="evenodd" clip-rule="evenodd" d="M208.652 190.565C208.652 194.149 205.694 197.036 202.045 197.036H143.391C139.74 197.036 136.784 194.14 136.784 190.565V38.4311C136.784 34.8468 139.74 31.9603 143.391 31.9603H151.061L152.38 33.6832C153.438 35.0693 155.081 35.8837 156.824 35.8863H194.394C195.553 35.8841 196.648 35.3568 197.372 34.4526L199.41 31.9484H202.038C205.687 31.9484 208.645 34.8445 208.645 38.4191L208.652 190.565ZM210.354 26.0846H141.503C139.066 26.0972 136.733 27.0776 135.019 28.81C133.304 30.5425 132.348 32.885 132.361 35.3223V193.358C132.361 198.46 136.454 199.712 141.503 199.712H210.354C215.403 199.712 219.493 198.46 219.493 193.358V35.3223C219.507 32.8852 218.551 30.5427 216.837 28.8102C215.123 27.0777 212.791 26.0972 210.354 26.0846Z" fill="#164E63"/>
<path fill-rule="evenodd" clip-rule="evenodd" d="M220.504 23.277H138.105C135.668 23.2896 133.337 24.2697 131.622 26.0017C129.908 27.7337 128.953 30.0756 128.965 32.5123V190.551C128.953 192.987 129.908 195.329 131.622 197.061C133.337 198.793 135.668 199.773 138.105 199.786H220.504C222.941 199.773 225.273 198.793 226.987 197.061C228.701 195.329 229.657 192.987 229.644 190.551V32.5123C229.657 30.0756 228.701 27.7337 226.987 26.0017C225.273 24.2697 222.941 23.2896 220.504 23.277ZM205.254 187.755C205.254 191.339 202.296 194.228 198.648 194.228H139.993C136.344 194.228 133.386 191.33 133.386 187.755V35.6211C133.386 32.0488 136.344 29.1503 139.993 29.1503H147.665L148.984 30.8732C150.041 32.2608 151.685 33.0763 153.429 33.0787H190.999C192.156 33.073 193.25 32.5465 193.976 31.645L196.017 29.1503H198.645C202.294 29.1503 205.252 32.0488 205.252 35.6211L205.254 187.755Z" fill="#06D0B6"/>
<path fill-rule="evenodd" clip-rule="evenodd" d="M199.914 23.4012C206.001 23.4012 210.961 28.157 211.059 34.0561L211.061 34.2352L211.061 191.162C211.031 195.446 208.478 199.309 204.548 201.015C204.185 201.172 203.763 201.006 203.605 200.642C203.448 200.279 203.614 199.857 203.977 199.699C207.351 198.235 209.556 194.938 209.626 191.272L209.627 191.158V34.2352C209.627 29.055 205.28 24.8349 199.914 24.8349C199.518 24.8349 199.197 24.514 199.197 24.1181C199.197 23.7222 199.518 23.4012 199.914 23.4012Z" fill="#164E63"/>
<path fill-rule="evenodd" clip-rule="evenodd" d="M294.726 30.5481V30.5792H220.812V191.004H294.726V190.973H368.638V30.5481H294.726Z" fill="#F1F5F9"/>
<path fill-rule="evenodd" clip-rule="evenodd" d="M294.726 29.8312L294.684 29.8324C294.647 29.8345 294.611 29.8395 294.575 29.8471L294.517 29.8622H220.812C220.416 29.8622 220.095 30.1832 220.095 30.5791V191.004C220.095 191.4 220.416 191.721 220.812 191.721H294.726L294.768 191.72C294.806 191.718 294.842 191.713 294.877 191.705L294.935 191.69H368.638C369.034 191.69 369.355 191.369 369.355 190.973V30.548C369.355 30.1521 369.034 29.8312 368.638 29.8312H294.726ZM367.921 31.2649V190.257H294.726L294.684 190.258C294.647 190.26 294.611 190.265 294.575 190.272L294.517 190.288H221.529V31.2959H294.726L294.768 31.2947C294.806 31.2926 294.842 31.2876 294.877 31.28L294.935 31.2649H367.921Z" fill="#164E63"/>
<path fill-rule="evenodd" clip-rule="evenodd" d="M294.724 29.8312C295.106 29.8312 295.418 30.1296 295.44 30.5059L295.441 30.548V190.973C295.441 191.369 295.12 191.69 294.724 191.69C294.342 191.69 294.03 191.392 294.008 191.015L294.007 190.973V30.548C294.007 30.1521 294.328 29.8312 294.724 29.8312Z" fill="#164E63"/>
<path fill-rule="evenodd" clip-rule="evenodd" d="M220.76 25.3677C221.142 25.3677 221.454 25.6661 221.475 26.0424L221.477 26.0845V196.78C221.477 197.176 221.156 197.497 220.76 197.497C220.378 197.497 220.066 197.198 220.044 196.822L220.043 196.78V26.0845C220.043 25.6886 220.364 25.3677 220.76 25.3677Z" fill="#164E63"/>
<path fill-rule="evenodd" clip-rule="evenodd" d="M271.936 60.0295L256.325 75.9077L252.311 72.02L247.341 77.1502L256.55 86.0678L277.028 65.0355L271.936 60.0295Z" fill="#164E63"/>
<rect x="239.711" y="147.64" width="37.049" height="9.6129" fill="#06D0B6"/>
<path fill-rule="evenodd" clip-rule="evenodd" d="M269.295 151.728C269.691 151.728 270.012 152.049 270.012 152.445C270.012 152.827 269.714 153.139 269.337 153.161L269.295 153.162H247.176C246.78 153.162 246.459 152.841 246.459 152.445C246.459 152.063 246.757 151.751 247.134 151.73L247.176 151.728H269.295Z" fill="#F1F5F9"/>
<path fill-rule="evenodd" clip-rule="evenodd" d="M278.301 94.8801C278.697 94.8801 279.018 95.2011 279.018 95.597C279.018 95.9787 278.719 96.2908 278.343 96.3126L278.301 96.3138H238.918C238.522 96.3138 238.201 95.9929 238.201 95.597C238.201 95.2152 238.499 94.9031 238.875 94.8813L238.918 94.8801H278.301Z" fill="#06D0B6"/>
<path fill-rule="evenodd" clip-rule="evenodd" d="M271.861 102.749C272.257 102.749 272.578 103.07 272.578 103.466C272.578 103.847 272.28 104.159 271.904 104.181L271.861 104.182H243.023C242.627 104.182 242.306 103.862 242.306 103.466C242.306 103.084 242.604 102.772 242.981 102.75L243.023 102.749H271.861Z" fill="#06D0B6"/>
<path fill-rule="evenodd" clip-rule="evenodd" d="M286.98 113.855C287.376 113.855 287.697 114.176 287.697 114.572C287.697 114.954 287.398 115.266 287.022 115.287L286.98 115.289H230.425C230.029 115.289 229.708 114.968 229.708 114.572C229.708 114.19 230.007 113.878 230.383 113.856L230.425 113.855H286.98Z" fill="#06D0B6"/>
<path fill-rule="evenodd" clip-rule="evenodd" d="M286.98 121.04C287.376 121.04 287.697 121.361 287.697 121.757C287.697 122.139 287.398 122.451 287.022 122.473L286.98 122.474H230.425C230.029 122.474 229.708 122.153 229.708 121.757C229.708 121.375 230.007 121.063 230.383 121.042L230.425 121.04H286.98Z" fill="#06D0B6"/>
<path fill-rule="evenodd" clip-rule="evenodd" d="M286.98 128.228C287.376 128.228 287.697 128.549 287.697 128.945C287.697 129.326 287.398 129.638 287.022 129.66L286.98 129.661H230.425C230.029 129.661 229.708 129.341 229.708 128.945C229.708 128.563 230.007 128.251 230.383 128.229L230.425 128.228H286.98Z" fill="#06D0B6"/>
<path fill-rule="evenodd" clip-rule="evenodd" d="M266.729 134.338C267.125 134.338 267.446 134.659 267.446 135.055C267.446 135.436 267.147 135.748 266.771 135.77L266.729 135.771H247.317C246.921 135.771 246.6 135.451 246.6 135.055C246.6 134.673 246.898 134.361 247.275 134.339L247.317 134.338H266.729Z" fill="#06D0B6"/>
<path fill-rule="evenodd" clip-rule="evenodd" d="M263.434 61.1813L258.342 56.1753L258.316 56.2016L255.305 53.2434L239.699 69.1168L238.717 68.1658L238.712 68.1705L235.68 65.2339L230.712 70.3641L239.921 79.2816L239.924 79.2769L242.956 82.2135L263.434 61.1813Z" fill="#06D0B6"/>
<path fill-rule="evenodd" clip-rule="evenodd" d="M259.678 57.962C259.954 57.6784 260.408 57.6723 260.691 57.9485C260.964 58.2136 260.98 58.6425 260.737 58.9273L260.705 58.9621L240.435 79.7817C240.159 80.0654 239.705 80.0715 239.421 79.7953C239.149 79.5302 239.132 79.1013 239.376 78.8164L239.408 78.7816L259.678 57.962Z" fill="#F1F5F9"/>
<rect x="304.112" y="134.39" width="52.6189" height="26.9558" fill="#0E7490"/>
<path fill-rule="evenodd" clip-rule="evenodd" d="M349.149 136.885C349.545 136.885 349.866 137.206 349.866 137.602C349.866 137.984 349.568 138.296 349.191 138.317L349.149 138.319H335.881C335.485 138.319 335.164 137.998 335.164 137.602C335.164 137.22 335.462 136.908 335.838 136.886L335.881 136.885H349.149Z" fill="#F1F5F9"/>
<path fill-rule="evenodd" clip-rule="evenodd" d="M342.514 140.806C342.91 140.806 343.231 141.127 343.231 141.523C343.231 141.905 342.932 142.217 342.556 142.239L342.514 142.24H335.881C335.485 142.24 335.164 141.919 335.164 141.523C335.164 141.141 335.462 140.829 335.838 140.807L335.881 140.806H342.514Z" fill="#F1F5F9"/>
<circle cx="350.929" cy="156.02" r="2.75269" fill="#F1F5F9"/>
<path fill-rule="evenodd" clip-rule="evenodd" d="M331.018 133.688C331.4 133.688 331.712 133.986 331.733 134.363L331.735 134.405V161.361C331.735 161.756 331.414 162.077 331.018 162.077C330.636 162.077 330.324 161.779 330.302 161.403L330.301 161.361V134.405C330.301 134.009 330.622 133.688 331.018 133.688Z" fill="#F1F5F9"/>
<path fill-rule="evenodd" clip-rule="evenodd" d="M349.097 98.8132C349.493 98.8132 349.814 99.1342 349.814 99.5301C349.814 99.9118 349.515 100.224 349.139 100.246L349.097 100.247H335.828C335.432 100.247 335.111 99.926 335.111 99.5301C335.111 99.1483 335.41 98.8363 335.786 98.8144L335.828 98.8132H349.097Z" fill="#0E7490"/>
<path fill-rule="evenodd" clip-rule="evenodd" d="M342.461 102.737C342.857 102.737 343.178 103.058 343.178 103.454C343.178 103.835 342.88 104.147 342.503 104.169L342.461 104.171H335.828C335.432 104.171 335.111 103.85 335.111 103.454C335.111 103.072 335.41 102.76 335.786 102.738L335.828 102.737H342.461Z" fill="#0E7490"/>
<ellipse cx="350.877" cy="117.951" rx="2.75269" ry="2.75269" fill="#0E7490"/>
<path fill-rule="evenodd" clip-rule="evenodd" d="M356.681 95.6042H304.062C303.666 95.6042 303.345 95.9252 303.345 96.3211V123.277C303.345 123.673 303.666 123.994 304.062 123.994H356.681C357.077 123.994 357.398 123.673 357.398 123.277V96.3211C357.398 95.9252 357.077 95.6042 356.681 95.6042ZM355.964 97.0379V122.56H304.779V97.0379H355.964Z" fill="#0E7490"/>
<rect x="301.861" y="93.6113" width="26.9558" height="26.9558" fill="#0E7490"/>
<path fill-rule="evenodd" clip-rule="evenodd" d="M328.31 93.1045C328.59 92.8245 329.044 92.8245 329.324 93.1045C329.593 93.3732 329.604 93.8023 329.356 94.0839L329.324 94.1183L302.368 121.074C302.088 121.354 301.634 121.354 301.354 121.074C301.086 120.805 301.075 120.376 301.322 120.095L301.354 120.06L328.31 93.1045Z" fill="#F1F5F9"/>
<path fill-rule="evenodd" clip-rule="evenodd" d="M301.354 93.1045C301.623 92.8357 302.052 92.825 302.334 93.0722L302.368 93.1045L329.324 120.06C329.604 120.34 329.604 120.794 329.324 121.074C329.055 121.343 328.626 121.354 328.345 121.106L328.31 121.074L301.354 94.1183C301.075 93.8383 301.075 93.3844 301.354 93.1045Z" fill="#F1F5F9"/>
<path fill-rule="evenodd" clip-rule="evenodd" d="M349.149 62.02C349.545 62.02 349.866 62.341 349.866 62.7369C349.866 63.1186 349.568 63.4307 349.191 63.4525L349.149 63.4537H335.88C335.485 63.4537 335.164 63.1328 335.164 62.7369C335.164 62.3551 335.462 62.043 335.838 62.0212L335.88 62.02H349.149Z" fill="#0E7490"/>
<path fill-rule="evenodd" clip-rule="evenodd" d="M342.514 65.9412C342.91 65.9412 343.231 66.2621 343.231 66.658C343.231 67.0398 342.932 67.3518 342.556 67.3736L342.514 67.3749H335.881C335.485 67.3749 335.164 67.0539 335.164 66.658C335.164 66.2762 335.462 65.9642 335.838 65.9424L335.881 65.9412H342.514Z" fill="#0E7490"/>
<path fill-rule="evenodd" clip-rule="evenodd" d="M342.514 71.0116C342.91 71.0116 343.231 71.3325 343.231 71.7284C343.231 72.1102 342.932 72.4223 342.556 72.4441L342.514 72.4453H335.881C335.485 72.4453 335.164 72.1243 335.164 71.7284C335.164 71.3467 335.462 71.0346 335.838 71.0128L335.881 71.0116H342.514Z" fill="#0E7490"/>
<ellipse cx="350.929" cy="78.3832" rx="2.75269" ry="2.75269" fill="#0E7490"/>
<rect x="304.01" y="58.2494" width="52.6189" height="26.9558" fill="#0E7490"/>
<rect x="301.861" y="54.8037" width="26.9558" height="26.9558" fill="#0E7490"/>
<path fill-rule="evenodd" clip-rule="evenodd" d="M328.31 54.2969C328.59 54.0169 329.044 54.0169 329.324 54.2969C329.593 54.5656 329.604 54.9947 329.356 55.2762L329.324 55.3106L302.368 82.2664C302.088 82.5464 301.634 82.5464 301.354 82.2664C301.086 81.9977 301.075 81.5686 301.322 81.2871L301.354 81.2527L328.31 54.2969Z" fill="#F1F5F9"/>
<path fill-rule="evenodd" clip-rule="evenodd" d="M301.354 54.2969C301.623 54.0281 302.052 54.0174 302.334 54.2646L302.368 54.2969L329.324 81.2527C329.604 81.5326 329.604 81.9865 329.324 82.2664C329.055 82.5352 328.626 82.5459 328.345 82.2987L328.31 82.2664L301.354 55.3106C301.075 55.0307 301.075 54.5768 301.354 54.2969Z" fill="#F1F5F9"/>
<rect x="332.593" y="172.708" width="24.141" height="8.25807" fill="#008473"/>
<rect x="314.602" y="40.032" width="32.3202" height="7.92115" fill="#008473"/>
<path fill-rule="evenodd" clip-rule="evenodd" d="M158.68 65.109C159.045 64.9989 159.43 65.1947 159.56 65.5488L159.573 65.5887L160.495 68.6521C160.605 69.0177 160.409 69.4026 160.055 69.5319L160.015 69.5452L156.455 70.6157C156.222 70.6856 155.971 70.6328 155.787 70.478L155.751 70.4456L152.201 67.0279L112.794 78.8833C112.429 78.9933 112.044 78.7974 111.915 78.4433L111.901 78.4034C111.791 78.0378 111.987 77.653 112.341 77.5237L112.381 77.5104L152.19 65.5343C152.423 65.4643 152.674 65.5171 152.858 65.672L152.894 65.7043L156.444 69.122L158.916 68.3787L158.2 66.0021C158.09 65.6365 158.286 65.2517 158.64 65.1223L158.68 65.109Z" fill="#164E63"/>
<rect x="158.18" y="59.1146" width="8.63621" height="2.53766" rx="1.26883" transform="rotate(73.1913 158.18 59.1146)" fill="#F1F5F9"/>
<path fill-rule="evenodd" clip-rule="evenodd" d="M117 84.4382L117.042 84.4401L120.256 84.6791C120.594 84.7042 120.866 84.9619 120.913 85.2937L120.918 85.3356L121.517 92.6713C121.52 92.7028 121.52 92.7345 121.519 92.766L121.515 92.8133L120.674 99.9696L122.772 99.9698C123.154 99.9698 123.466 100.268 123.487 100.645L123.489 100.687C123.489 101.068 123.19 101.381 122.814 101.402L122.772 101.404H119.869C119.454 101.404 119.129 101.054 119.153 100.646L119.157 100.603L120.082 92.7175L119.538 86.0633L117.658 85.9235L117.258 92.1615C117.257 92.1735 117.256 92.1855 117.255 92.1975L117.222 92.3945L117.116 93.0094L117.012 93.5946C116.829 94.6143 116.635 95.6343 116.439 96.5876L116.362 96.9536L116.249 97.4797L116.175 97.8144L116.102 98.1358C116.09 98.1882 116.077 98.2401 116.065 98.2913L115.994 98.5919L115.927 98.863L115.862 99.1192C115.829 99.2436 115.797 99.3624 115.766 99.4758L115.704 99.6953C115.694 99.7307 115.684 99.7655 115.673 99.7997L115.624 99.96L117.563 99.9603C117.944 99.9603 118.257 100.259 118.278 100.635L118.28 100.677C118.28 101.059 117.981 101.371 117.605 101.393L117.563 101.394H114.547C113.964 101.394 113.63 100.738 113.958 100.269L113.982 100.236C113.991 100.225 114.001 100.209 114.012 100.189L114.035 100.143L114.06 100.087L114.088 100.02L114.117 99.9436L114.148 99.8572L114.181 99.7613L114.233 99.6004L114.289 99.4197L114.347 99.2202L114.408 99.0029L114.47 98.7687L114.535 98.5185L114.6 98.2534L114.67 97.9617L114.741 97.6556L114.813 97.3357L114.886 97.0025L114.96 96.6565L115.034 96.298C115.204 95.4756 115.372 94.6008 115.533 93.7192L115.628 93.1913L115.751 92.494L115.829 92.032L116.274 85.1091C116.298 84.7396 116.597 84.454 116.958 84.4388L117 84.4382Z" fill="#164E63"/>
<ellipse cx="1.81601" cy="2.04779" rx="1.81601" ry="2.04779" transform="matrix(0.922874 -0.385101 0.3851 0.922875 115.336 68.358)" fill="#164E63"/>
<path fill-rule="evenodd" clip-rule="evenodd" d="M116.736 66.9971C115.426 67.5437 114.882 69.1314 115.463 70.5239C116.044 71.9165 117.556 72.6465 118.866 72.1C120.175 71.5534 120.719 69.9657 120.138 68.5731C119.557 67.1805 118.046 66.4506 116.736 66.9971ZM117.288 68.3203C117.83 68.0944 118.525 68.4304 118.815 69.1253C119.105 69.8201 118.855 70.5509 118.313 70.7768C117.772 71.0027 117.076 70.6667 116.786 69.9718C116.497 69.2769 116.747 68.5462 117.288 68.3203Z" fill="#164E63"/>
<path fill-rule="evenodd" clip-rule="evenodd" d="M127.37 73.4195C127.695 73.6455 127.775 74.0922 127.549 74.4173L127.37 74.6723L127.193 74.921L127.016 75.1634L126.841 75.3995C126.783 75.4771 126.725 75.5537 126.668 75.6293L126.495 75.8528L126.324 76.0701C125.955 76.5342 125.594 76.9545 125.242 77.3319L125.08 77.503C124.999 77.5871 124.919 77.6689 124.839 77.7484L124.68 77.9044C124.389 78.1848 124.104 78.435 123.825 78.6553L123.673 78.7725C122.765 79.4581 121.916 79.8256 121.115 79.8943C119.535 80.0298 118.382 79.0531 117.6 77.4478C117.361 76.9558 117.171 76.4346 117.026 75.9141L116.987 75.7743L116.954 75.6445L116.925 75.5255L116.9 75.4179L116.88 75.3223L116.857 75.2031C116.788 74.8132 117.048 74.4414 117.438 74.3726C117.814 74.3063 118.173 74.5459 118.26 74.9127L118.291 75.0656L118.299 75.1006C118.327 75.2285 118.363 75.3722 118.406 75.5275C118.53 75.9705 118.691 76.4128 118.889 76.8199C119.441 77.9516 120.134 78.5395 120.992 78.4658C121.506 78.4218 122.097 78.1639 122.761 77.6702L122.891 77.5717C123 77.4871 123.11 77.3964 123.223 77.2994L123.359 77.18C123.473 77.078 123.589 76.9697 123.707 76.8549L123.849 76.7142C123.897 76.6663 123.945 76.6173 123.994 76.5673L124.14 76.4142L124.287 76.2548C124.312 76.2278 124.337 76.2004 124.362 76.1728L124.513 76.004L124.665 75.8289C124.69 75.7992 124.716 75.7692 124.742 75.7389L124.897 75.5543C124.949 75.4916 125.001 75.4279 125.054 75.3631L125.212 75.1656L125.373 74.9615L125.535 74.7509L125.699 74.5338L125.864 74.31L126.032 74.0796L126.201 73.8426L126.372 73.5988C126.598 73.2738 127.045 73.1935 127.37 73.4195Z" fill="#164E63"/>
<path fill-rule="evenodd" clip-rule="evenodd" d="M121.833 71.8524C124.155 70.6089 127.385 70.306 131.601 71.475C131.983 71.5808 132.206 71.9758 132.101 72.3573C131.995 72.7388 131.6 72.9623 131.218 72.8566C127.349 71.7838 124.499 72.0512 122.51 73.1162C122.141 73.3139 121.837 73.5231 121.596 73.7289L121.528 73.7882L121.471 73.8402L121.425 73.8844L121.376 73.9349L121.356 73.9572C121.104 74.2628 120.653 74.3065 120.347 74.0548C120.041 73.8031 119.998 73.3514 120.249 73.0458L120.272 73.0187L120.327 72.958L120.393 72.8891C120.405 72.8769 120.418 72.8644 120.431 72.8517L120.516 72.7714C120.531 72.7574 120.546 72.7432 120.562 72.7287L120.666 72.6384C120.983 72.3673 121.371 72.0997 121.833 71.8524Z" fill="#164E63"/>
<path fill-rule="evenodd" clip-rule="evenodd" d="M116.989 85.1645V74.3521L120.803 73.5229L120.203 85.3939L116.989 85.1645Z" fill="#164E63"/>
<path fill-rule="evenodd" clip-rule="evenodd" d="M120.651 72.8225L116.837 73.6516C116.507 73.7233 116.272 74.0149 116.272 74.3521V85.1645C116.272 85.5406 116.563 85.8528 116.938 85.8796L120.152 86.109C120.553 86.1376 120.899 85.8313 120.919 85.4301L121.519 73.5591C121.543 73.0876 121.112 72.7222 120.651 72.8225ZM120.039 74.4224L119.524 84.6267L117.706 84.4969V74.9296L120.039 74.4224Z" fill="#164E63"/>
<ellipse cx="213.616" cy="3.60523" rx="2.04779" ry="1.81601" transform="rotate(-73.27 213.616 3.60523)" fill="#164E63"/>
<path fill-rule="evenodd" clip-rule="evenodd" d="M211.19 2.87619C210.756 4.32129 211.461 5.84435 212.82 6.25292C214.179 6.66148 215.607 5.77951 216.042 4.33441C216.476 2.88932 215.771 1.36625 214.412 0.957688C213.053 0.549122 211.625 1.43109 211.19 2.87619ZM212.563 3.2889C212.78 2.56781 213.437 2.16184 213.999 2.33069C214.561 2.49955 214.885 3.20063 214.669 3.92171C214.452 4.6428 213.795 5.04877 213.233 4.87991C212.671 4.71105 212.347 4.00998 212.563 3.2889Z" fill="#164E63"/>
<path fill-rule="evenodd" clip-rule="evenodd" d="M215.091 8.62076C215.469 8.50389 215.87 8.71579 215.987 9.09405L216 9.1333L216.055 9.29401L216.086 9.38205C216.173 9.62346 216.28 9.89376 216.406 10.1855C216.765 11.0198 217.207 11.8539 217.73 12.6283C219.071 14.6109 220.695 15.842 222.603 16.0159C222.997 16.0519 223.287 16.4006 223.251 16.7949C223.216 17.1891 222.867 17.4796 222.473 17.4437C220.064 17.2241 218.101 15.7361 216.543 13.4314C215.965 12.5764 215.482 11.6648 215.089 10.7534C214.971 10.4798 214.868 10.2224 214.78 9.98589L214.701 9.76683L214.645 9.60269L214.617 9.51727C214.5 9.13901 214.712 8.73763 215.091 8.62076Z" fill="#164E63"/>
<path fill-rule="evenodd" clip-rule="evenodd" d="M206.275 23.0833C206.275 23.0833 210.155 15.7954 211.087 8.98535C212.127 8.9973 215.011 9.12394 215.011 9.12394C215.011 9.12394 214.416 23.0833 211.192 23.0833H206.275Z" fill="#164E63"/>
<path fill-rule="evenodd" clip-rule="evenodd" d="M211.096 8.2686C210.734 8.26445 210.426 8.53007 210.377 8.88821C210.322 9.28939 210.256 9.69865 210.178 10.1155C209.764 12.3506 209.046 14.7442 208.111 17.193C207.57 18.6108 206.989 19.9587 206.409 21.1914L206.276 21.4718L206.148 21.7384L205.965 22.1114L205.816 22.4098L205.642 22.7465C205.388 23.2239 205.734 23.8002 206.275 23.8002H211.192C212.279 23.8002 213.075 22.9355 213.707 21.4337L213.781 21.2541C213.793 21.2237 213.805 21.193 213.817 21.1621C214.164 20.2704 214.464 19.165 214.722 17.8802L214.791 17.5254C214.825 17.3458 214.859 17.1629 214.892 16.9768L214.956 16.6004C214.977 16.4735 214.998 16.3452 215.018 16.2156C215.263 14.6689 215.448 13.0157 215.582 11.3631L215.612 10.984L215.639 10.618L215.674 10.0955L215.706 9.57229L215.727 9.15452C215.743 8.77345 215.459 8.44913 215.084 8.4109L214.903 8.40182L213.738 8.35354L212.337 8.3014L211.514 8.27668L211.147 8.26926C211.129 8.26901 211.112 8.26879 211.096 8.2686ZM211.68 9.85399L211.703 9.71563L212.231 9.73235L212.891 9.7557L213.681 9.78611L214.255 9.80954L214.233 10.1712L214.209 10.5163L214.182 10.8753L214.153 11.2472C214.022 12.8663 213.841 14.4849 213.602 15.9918L213.562 16.244L213.52 16.4933L213.455 16.8594L213.389 17.2156L213.344 17.4475L213.275 17.7869L213.228 18.0073L213.18 18.2232L213.107 18.538L213.057 18.7419L213.007 18.9409L212.956 19.1349L212.905 19.324L212.853 19.5079L212.801 19.6868L212.748 19.8604L212.695 20.0288L212.642 20.1919L212.587 20.3496L212.533 20.5018C212.524 20.5267 212.515 20.5514 212.506 20.5759L212.451 20.7199L212.396 20.8583L212.34 20.9911L212.285 21.1181C212.275 21.1388 212.266 21.1593 212.257 21.1795L212.201 21.2978L212.145 21.4103L212.088 21.5169C212.032 21.6205 211.976 21.7151 211.919 21.8005L211.863 21.8828C211.636 22.1994 211.41 22.3665 211.192 22.3665H207.437L207.57 22.0902L207.707 21.8018C208.301 20.5383 208.895 19.1579 209.45 17.7044C210.414 15.1805 211.156 12.7068 211.588 10.377C211.621 10.2015 211.651 10.0272 211.68 9.85399Z" fill="#164E63"/>
<path fill-rule="evenodd" clip-rule="evenodd" d="M215.302 22.3569C215.762 22.3569 216.099 22.7816 216.003 23.2237L215.993 23.2652L213.306 32.9622L215.064 35.5208C215.28 35.835 215.211 36.2605 214.914 36.4918L214.879 36.5176C214.565 36.7335 214.139 36.6648 213.908 36.3681L213.882 36.3328L211.935 33.4989C211.824 33.3377 211.784 33.139 211.824 32.9488L211.835 32.9015L214.359 23.7906H206.275C205.893 23.7906 205.581 23.4922 205.559 23.1159L205.558 23.0738C205.558 22.692 205.856 22.38 206.233 22.3582L206.275 22.3569H215.302Z" fill="#164E63"/>
<path fill-rule="evenodd" clip-rule="evenodd" d="M219.525 22.3569C219.984 22.3569 220.321 22.7816 220.226 23.2237L220.215 23.2652L217.528 32.9622L219.286 35.5208C219.502 35.835 219.433 36.2605 219.137 36.4918L219.101 36.5176C218.787 36.7335 218.362 36.6648 218.13 36.3681L218.105 36.3328L216.157 33.4989C216.046 33.3377 216.007 33.139 216.046 32.9488L216.057 32.9015L218.582 23.7906H210.497C210.115 23.7906 209.803 23.4922 209.781 23.1159L209.78 23.0738C209.78 22.692 210.079 22.38 210.455 22.3582L210.497 22.3569H219.525Z" fill="#164E63"/>
<path fill-rule="evenodd" clip-rule="evenodd" d="M247.098 46.0774C247.344 45.5848 248.025 45.5456 248.33 45.9904L248.355 46.0297L260.059 65.5996C260.262 65.9394 260.151 66.3796 259.811 66.5828C259.484 66.7784 259.064 66.683 258.852 66.3723L258.828 66.3355L247.796 47.8887L234.355 74.8063C234.184 75.1474 233.779 75.2933 233.433 75.1457L233.393 75.1274C233.052 74.9571 232.906 74.5515 233.054 74.2055L233.072 74.1658L247.098 46.0774Z" fill="#0E7490"/>
<path fill-rule="evenodd" clip-rule="evenodd" d="M242.648 6.09279C243.936 5.56478 245.402 5.71231 246.559 6.48634C247.691 7.24353 248.382 8.50315 248.415 9.86057L248.416 9.9512L248.519 46.9142C248.52 47.3101 248.2 47.6319 247.804 47.633C247.422 47.6341 247.109 47.3365 247.086 46.9603L247.085 46.9182L246.982 9.955C246.98 9.04024 246.523 8.1866 245.762 7.67796C245.026 7.18521 244.098 7.07882 243.272 7.38812L243.192 7.41936L217.022 18.1458C216.656 18.2959 216.237 18.1207 216.087 17.7543C215.942 17.4011 216.1 16.9992 216.44 16.8363L216.478 16.8192L242.648 6.09279Z" fill="#0E7490"/>
<ellipse cx="221.864" cy="18.5792" rx="2.26524" ry="2.26523" fill="#0E7490"/>
<path fill-rule="evenodd" clip-rule="evenodd" d="M221.864 15.5972C220.217 15.5972 218.882 16.9323 218.882 18.5792C218.882 20.2262 220.217 21.5613 221.864 21.5613C223.511 21.5613 224.846 20.2262 224.846 18.5792C224.846 16.9323 223.511 15.5972 221.864 15.5972ZM221.864 17.0309C222.719 17.0309 223.412 17.7241 223.412 18.5792C223.412 19.4344 222.719 20.1276 221.864 20.1276C221.009 20.1276 220.316 19.4344 220.316 18.5792C220.316 17.7241 221.009 17.0309 221.864 17.0309Z" fill="#0E7490"/>
<path fill-rule="evenodd" clip-rule="evenodd" d="M211.255 8.30058C211.634 8.18369 212.035 8.39556 212.152 8.77381L212.165 8.81305L212.219 8.97374L212.251 9.06178C212.338 9.30318 212.445 9.57345 212.571 9.86521C212.93 10.6995 213.372 11.5335 213.896 12.3078C215.032 13.9875 216.384 15.1376 217.941 15.5492C219.892 16.0649 222.156 15.4191 224.794 13.3054C225.103 13.0578 225.554 13.1076 225.802 13.4166C226.05 13.7255 226 14.1767 225.691 14.4242C222.722 16.8028 220.006 17.5778 217.575 16.9353C215.631 16.4215 214.021 15.0522 212.708 13.1111C212.13 12.2562 211.647 11.3446 211.254 10.4332C211.136 10.1596 211.033 9.90229 210.945 9.66574L210.884 9.4963L210.822 9.31833L210.782 9.19713C210.665 8.81888 210.877 8.41748 211.255 8.30058Z" fill="#164E63"/>
<path fill-rule="evenodd" clip-rule="evenodd" d="M239.347 67.9191C239.71 67.7616 240.132 67.9283 240.29 68.2916C240.442 68.6418 240.292 69.0468 239.955 69.2166L239.917 69.2344L232.027 72.6562C231.664 72.8137 231.242 72.6469 231.084 72.2837C230.932 71.9335 231.082 71.5284 231.419 71.3587L231.457 71.3409L239.347 67.9191Z" fill="#0E7490"/>
<path fill-rule="evenodd" clip-rule="evenodd" d="M249.186 57.4868C249.334 57.1348 249.73 56.9627 250.085 57.0883L250.125 57.1035L262.462 62.2863C262.827 62.4396 262.998 62.8598 262.845 63.2248C262.697 63.5768 262.301 63.7489 261.946 63.6233L261.906 63.6081L249.57 58.4253C249.205 58.272 249.033 57.8518 249.186 57.4868Z" fill="#0E7490"/>
<path fill-rule="evenodd" clip-rule="evenodd" d="M313.527 182.914C313.835 182.914 314.107 183.11 314.205 183.398L314.218 183.44L316.084 190.209C316.097 190.256 316.105 190.304 316.108 190.352L316.11 190.4L316.11 198.206L318.167 198.206C318.549 198.206 318.861 198.505 318.883 198.881L318.884 198.923C318.884 199.305 318.586 199.617 318.209 199.639L318.167 199.64H315.393C315.011 199.64 314.699 199.342 314.678 198.965L314.676 198.923L314.676 190.497L312.981 184.347H310.721L310.722 198.923C310.722 199.305 310.423 199.617 310.047 199.639L310.005 199.64H307.732C307.337 199.64 307.016 199.319 307.016 198.923C307.016 198.541 307.314 198.229 307.69 198.208L307.732 198.206L309.288 198.206L309.288 183.631C309.288 183.249 309.586 182.937 309.963 182.915L310.005 182.914H313.527Z" fill="#164E63"/>
<path fill-rule="evenodd" clip-rule="evenodd" d="M310.005 183.63L308.449 171.748H314.086L313.527 183.63H310.005Z" fill="#164E63"/>
<path fill-rule="evenodd" clip-rule="evenodd" d="M314.086 171.031H308.449C308.016 171.031 307.682 171.411 307.738 171.841L309.294 183.724C309.341 184.08 309.645 184.347 310.005 184.347H313.527C313.91 184.347 314.225 184.047 314.243 183.664L314.802 171.781C314.821 171.373 314.495 171.031 314.086 171.031ZM313.335 172.464L312.843 182.913H310.634L309.266 172.464H313.335Z" fill="#164E63"/>
<ellipse cx="311.247" cy="165.837" rx="2.04779" ry="1.81601" transform="rotate(-80.15 311.247 165.837)" fill="#164E63"/>
<path fill-rule="evenodd" clip-rule="evenodd" d="M308.752 165.404C308.494 166.891 309.376 168.318 310.774 168.561C312.173 168.804 313.485 167.757 313.743 166.271C314.001 164.784 313.119 163.356 311.72 163.113C310.322 162.871 309.01 163.917 308.752 165.404ZM310.164 165.649C310.293 164.907 310.897 164.426 311.475 164.526C312.053 164.626 312.459 165.284 312.33 166.025C312.202 166.767 311.598 167.249 311.02 167.149C310.442 167.048 310.036 166.391 310.164 165.649Z" fill="#164E63"/>
<path fill-rule="evenodd" clip-rule="evenodd" d="M308.636 171.056C309.004 171.155 309.228 171.524 309.151 171.893L309.138 171.947L309.039 172.301L308.965 172.556L308.885 172.826L308.799 173.109C308.785 173.157 308.77 173.206 308.754 173.255C308.45 174.242 308.114 175.23 307.757 176.154L307.651 176.424C307.634 176.468 307.616 176.512 307.599 176.556L307.493 176.815C307.476 176.858 307.458 176.9 307.441 176.942L307.336 177.19C307.318 177.23 307.3 177.271 307.283 177.311L307.178 177.547C307.108 177.702 307.038 177.852 306.968 177.997L306.863 178.21C306.39 179.152 305.915 179.852 305.427 180.274C304.723 180.883 303.897 180.952 303.22 180.311C302.121 179.25 300.938 178.281 299.681 177.413C299.355 177.188 299.274 176.741 299.499 176.416C299.724 176.09 300.17 176.008 300.496 176.233C301.734 177.089 302.905 178.038 303.994 179.068L304.225 179.288L304.25 179.309C304.287 179.338 304.314 179.334 304.383 179.28L304.43 179.241L304.49 179.19C304.712 178.998 304.955 178.677 305.21 178.246L305.296 178.099C305.31 178.073 305.325 178.048 305.339 178.022L305.426 177.863L305.514 177.696L305.602 177.521L305.691 177.339L305.781 177.15C305.811 177.086 305.841 177.02 305.871 176.954L305.962 176.751C305.977 176.716 305.992 176.681 306.007 176.647L306.098 176.433C306.114 176.397 306.129 176.361 306.144 176.324L306.236 176.102C306.251 176.064 306.267 176.026 306.282 175.988L306.374 175.756C306.389 175.716 306.404 175.677 306.42 175.637C306.764 174.747 307.089 173.79 307.385 172.833L307.47 172.551L307.551 172.283L307.625 172.028L307.757 171.561C307.86 171.179 308.254 170.952 308.636 171.056Z" fill="#164E63"/>
<path fill-rule="evenodd" clip-rule="evenodd" d="M323.262 153.079C323.326 152.689 323.695 152.424 324.085 152.488C324.462 152.55 324.721 152.895 324.682 153.27L324.676 153.312L321.677 171.56C321.613 171.951 321.245 172.216 320.854 172.152C320.477 172.09 320.218 171.745 320.257 171.37L320.263 171.328L323.262 153.079Z" fill="#06D0B6"/>
<circle cx="324.026" cy="152.909" r="1.65831" fill="#06D0B6"/>
<path fill-rule="evenodd" clip-rule="evenodd" d="M321.352 165.09C321.532 164.737 321.963 164.597 322.316 164.777C322.669 164.957 322.809 165.388 322.629 165.741C322.021 166.934 321.359 167.964 320.65 168.84C319.337 170.463 317.912 171.506 316.462 172.068C315.505 172.439 314.688 172.552 314.091 172.521L314.036 172.518C314.028 172.517 314.021 172.517 314.015 172.516C313.621 172.477 313.334 172.126 313.373 171.732C313.41 171.352 313.738 171.071 314.115 171.086L314.165 171.09C314.191 171.091 314.219 171.092 314.249 171.092L314.348 171.09C314.454 171.086 314.581 171.076 314.727 171.055C315.1 171.004 315.508 170.9 315.943 170.732C317.16 170.26 318.379 169.368 319.536 167.938C320.18 167.142 320.788 166.196 321.352 165.09Z" fill="#164E63"/>
<path fill-rule="evenodd" clip-rule="evenodd" d="M342.231 181.631C342.655 181.591 343.017 181.927 343.016 182.347L343.014 182.389L342.559 189.835L342.552 190.28C342.538 191.586 342.545 193.031 342.589 194.391L342.601 194.718L342.613 195.035L342.628 195.341L342.652 195.781L342.669 196.06C342.672 196.106 342.675 196.151 342.679 196.196L342.699 196.458L342.72 196.708C342.724 196.749 342.727 196.789 342.731 196.829L342.755 197.061C342.759 197.099 342.763 197.136 342.767 197.172L342.794 197.393L342.813 197.531L342.832 197.661L342.852 197.784L342.881 197.952L342.901 198.053L342.93 198.186L342.948 198.262C342.951 198.274 342.954 198.286 342.957 198.297L342.974 198.358L342.99 198.408L343.005 198.446C343.009 198.457 343.014 198.466 343.018 198.473L343.024 198.482C343.383 198.942 343.071 199.609 342.499 199.639L342.459 199.64H339.247C338.851 199.64 338.53 199.319 338.53 198.923C338.53 198.542 338.829 198.23 339.205 198.208L339.247 198.207L341.468 198.206L341.467 198.199C341.445 198.088 341.425 197.97 341.406 197.846L341.378 197.655L341.352 197.454C341.348 197.42 341.343 197.385 341.339 197.35L341.316 197.134L341.294 196.908L341.273 196.671L341.254 196.425L341.237 196.169L341.22 195.902L341.205 195.625L341.191 195.338L341.178 195.041L341.161 194.575L341.156 194.438C341.115 193.18 341.106 191.855 341.115 190.628L341.126 189.794L341.127 189.764L341.532 183.137L339.472 183.332L338.033 189.915L337.509 198.965C337.488 199.33 337.196 199.618 336.835 199.639L336.793 199.64H333.704C333.308 199.64 332.987 199.319 332.987 198.923C332.987 198.542 333.285 198.23 333.662 198.208L333.704 198.207L336.117 198.206L336.606 189.776C336.607 189.75 336.61 189.726 336.614 189.701L336.621 189.664L338.184 182.515C338.247 182.224 338.482 182.005 338.773 181.96L338.817 181.954L342.231 181.631Z" fill="#164E63"/>
<ellipse cx="2.04779" cy="1.81601" rx="2.04779" ry="1.81601" transform="matrix(0.385101 -0.922874 0.922875 0.3851 339.091 167.196)" fill="#164E63"/>
<path fill-rule="evenodd" clip-rule="evenodd" d="M339.218 165.03C338.637 166.423 339.181 168.011 340.491 168.557C341.801 169.104 343.312 168.374 343.893 166.981C344.474 165.589 343.93 164.001 342.621 163.454C341.311 162.908 339.799 163.638 339.218 165.03ZM340.541 165.582C340.831 164.888 341.527 164.552 342.068 164.777C342.61 165.003 342.86 165.734 342.57 166.429C342.28 167.124 341.585 167.46 341.043 167.234C340.502 167.008 340.252 166.277 340.541 165.582Z" fill="#164E63"/>
<path fill-rule="evenodd" clip-rule="evenodd" d="M343.073 171.444L342.299 182.345L338.884 182.668L339.923 172.068L343.073 171.444Z" fill="#164E63"/>
<path fill-rule="evenodd" clip-rule="evenodd" d="M342.934 170.741L339.784 171.365C339.474 171.426 339.241 171.683 339.21 171.998L338.171 182.598C338.127 183.046 338.503 183.424 338.952 183.381L342.366 183.059C342.715 183.026 342.989 182.745 343.014 182.396L343.788 171.495C343.821 171.023 343.397 170.649 342.934 170.741ZM342.291 172.329L341.627 181.688L339.682 181.872L340.585 172.667L342.291 172.329Z" fill="#164E63"/>
<path fill-rule="evenodd" clip-rule="evenodd" d="M342.419 171.151C342.581 170.79 343.005 170.628 343.366 170.79L343.445 170.826L343.536 170.87L343.639 170.921L343.753 170.98L343.878 171.046L344.013 171.119L344.157 171.199C344.182 171.213 344.207 171.228 344.233 171.242C344.869 171.606 345.504 172.034 346.1 172.524C347.899 174.002 348.983 175.736 348.933 177.725C348.878 179.862 347.49 182.024 344.616 184.206L344.386 184.378C344.114 184.579 343.83 184.78 343.532 184.982L343.274 185.154C343.187 185.212 343.099 185.269 343.01 185.327C342.678 185.542 342.234 185.447 342.019 185.114C341.804 184.781 341.9 184.338 342.232 184.123L342.357 184.042L342.602 183.88L342.841 183.718C342.92 183.664 342.997 183.611 343.074 183.557L343.3 183.397C343.337 183.37 343.374 183.343 343.41 183.317L343.627 183.157L343.837 182.998C344.286 182.655 344.691 182.315 345.053 181.98L345.217 181.825C346.748 180.36 347.467 178.977 347.5 177.688C347.537 176.225 346.681 174.857 345.19 173.631C344.661 173.196 344.091 172.813 343.52 172.487C343.354 172.391 343.199 172.307 343.056 172.234L342.906 172.159L342.78 172.098C342.418 171.936 342.257 171.512 342.419 171.151Z" fill="#164E63"/>
<path fill-rule="evenodd" clip-rule="evenodd" d="M340.143 171.675C340.483 171.877 340.594 172.318 340.391 172.658L340.308 172.796L340.142 173.068C340.032 173.246 339.922 173.421 339.813 173.591L339.649 173.842L339.486 174.087C339.459 174.127 339.432 174.167 339.405 174.207L339.243 174.441C339.189 174.519 339.135 174.595 339.081 174.67L338.92 174.891C338.813 175.036 338.706 175.177 338.6 175.314L338.441 175.516C336.984 177.335 335.6 178.332 334.265 178.588C332.671 178.893 331.355 178.147 330.337 176.786C330.05 176.403 329.807 175.996 329.606 175.589L329.543 175.46L329.488 175.342L329.441 175.235L329.401 175.141L329.369 175.061C329.365 175.048 329.36 175.037 329.356 175.026C329.219 174.654 329.409 174.242 329.78 174.105C330.139 173.973 330.535 174.145 330.685 174.49L330.744 174.634L330.796 174.754C330.825 174.816 330.856 174.883 330.891 174.953C331.056 175.286 331.255 175.62 331.485 175.927C332.208 176.894 333.036 177.363 333.995 177.18C334.988 176.99 336.135 176.137 337.417 174.502L337.563 174.314L337.71 174.119C337.783 174.02 337.857 173.918 337.932 173.813L338.082 173.601C338.157 173.494 338.232 173.383 338.308 173.27L338.46 173.041L338.614 172.805L338.769 172.562L338.924 172.311C338.95 172.269 338.976 172.226 339.003 172.184L339.16 171.923C339.363 171.583 339.803 171.472 340.143 171.675Z" fill="#164E63"/>
<path fill-rule="evenodd" clip-rule="evenodd" d="M90.2015 184.401C90.4165 184.368 90.6336 184.435 90.7926 184.581L90.8258 184.614L96.6298 190.671C96.7126 190.757 96.7722 190.863 96.8037 190.978L96.8154 191.028L98.1782 197.899L100.633 196.518C100.965 196.331 101.383 196.438 101.587 196.754L101.609 196.792C101.796 197.124 101.69 197.541 101.373 197.745L101.336 197.768L98.0193 199.634C97.6071 199.866 97.0919 199.642 96.9745 199.192L96.9647 199.149L95.4499 191.512L90.0473 185.874L87.1111 186.315L91.3115 192.326C91.482 192.57 91.4832 192.892 91.3191 193.137L91.0768 193.451L87.3216 198.292H90.7335C91.1153 198.292 91.4273 198.591 91.4491 198.967L91.4504 199.009C91.4504 199.391 91.1519 199.703 90.7756 199.725L90.7335 199.726H85.8614C85.2666 199.726 84.9305 199.044 85.2932 198.572L89.8336 192.715L85.2738 186.189C84.9773 185.765 85.2151 185.182 85.7126 185.077L85.7547 185.07L90.2015 184.401Z" fill="#164E63"/>
<path fill-rule="evenodd" clip-rule="evenodd" d="M84.8506 174.161C84.8506 174.161 82.571 181.772 85.8518 185.779C87.4792 185.786 89.1031 185.626 90.6977 185.301C90.6977 185.301 87.0609 177.122 90.5854 174.159L84.8506 174.161Z" fill="#164E63"/>
<path fill-rule="evenodd" clip-rule="evenodd" d="M90.5851 173.442L84.8504 173.444C84.5338 173.444 84.2548 173.652 84.164 173.955L84.1165 174.122L84.0648 174.317L84.035 174.434C83.9414 174.806 83.8481 175.225 83.761 175.681C83.4063 177.543 83.2585 179.448 83.4382 181.243C83.6369 183.229 84.2276 184.926 85.2972 186.233C85.4326 186.398 85.6347 186.495 85.8485 186.496C87.5252 186.503 89.1982 186.338 90.8411 186.003C91.2759 185.914 91.5231 185.458 91.3689 185.049L91.3475 184.998L91.2882 184.858L91.2205 184.694C91.2087 184.664 91.1967 184.634 91.1844 184.604L91.1085 184.41C90.921 183.926 90.7332 183.39 90.5579 182.819C90.1683 181.55 89.8988 180.299 89.8026 179.143C89.6356 177.135 90.0074 175.628 90.9883 174.758L91.0467 174.707C91.5589 174.277 91.2542 173.441 90.5851 173.442ZM89.082 174.876L89.0387 174.955C88.4274 176.1 88.2325 177.563 88.3738 179.261C88.4796 180.533 88.7699 181.88 89.1874 183.24L89.2498 183.44C89.3964 183.904 89.5501 184.344 89.7054 184.755L89.4585 184.795C88.4502 184.95 87.4325 185.038 86.412 185.058L86.2038 185.06L86.185 185.035C85.4514 184.007 85.0223 182.675 84.8648 181.1C84.7007 179.461 84.8384 177.687 85.1694 175.95L85.2002 175.791C85.2521 175.529 85.3059 175.282 85.3601 175.052L85.4021 174.877L89.082 174.876Z" fill="#164E63"/>
<ellipse cx="1.81601" cy="2.04779" rx="1.81601" ry="2.04779" transform="matrix(0.922874 -0.385101 0.3851 0.922875 84.538 168.617)" fill="#164E63"/>
<path fill-rule="evenodd" clip-rule="evenodd" d="M85.9378 167.256C84.628 167.803 84.0839 169.39 84.665 170.783C85.2461 172.175 86.7573 172.905 88.0672 172.359C89.377 171.812 89.9211 170.225 89.34 168.832C88.7589 167.439 87.2477 166.709 85.9378 167.256ZM86.49 168.579C87.0313 168.353 87.7269 168.689 88.0169 169.384C88.3069 170.079 88.0564 170.81 87.5151 171.036C86.9737 171.262 86.2781 170.926 85.9881 170.231C85.6982 169.536 85.9486 168.805 86.49 168.579Z" fill="#164E63"/>
<path fill-rule="evenodd" clip-rule="evenodd" d="M95.2523 163.607L95.2944 163.609C95.6891 163.64 95.9836 163.985 95.9523 164.38L95.9234 164.734L95.8933 165.081L95.862 165.421L95.8294 165.756L95.7957 166.084L95.7608 166.405L95.7248 166.72L95.6875 167.029L95.649 167.332L95.6094 167.629L95.5686 167.919L95.5267 168.203L95.4836 168.481L95.4393 168.753L95.3939 169.019L95.3473 169.279C95.3394 169.321 95.3315 169.364 95.3236 169.406L95.2753 169.657L95.2259 169.902C95.2175 169.942 95.2091 169.982 95.2007 170.022L95.1496 170.258L95.0973 170.488L95.0439 170.713L94.9894 170.931C94.9803 170.967 94.971 171.003 94.9618 171.038L94.9056 171.248L94.8483 171.452L94.7899 171.65L94.7304 171.843C94.7104 171.906 94.6902 171.969 94.6698 172.03L94.6081 172.211C94.577 172.301 94.5454 172.388 94.5135 172.473L94.4491 172.64C94.3625 172.86 94.273 173.065 94.1806 173.255L94.1108 173.396C94.0288 173.556 93.9446 173.706 93.8583 173.844L93.7838 173.961C93.7587 173.999 93.7336 174.036 93.7082 174.072C92.7762 175.401 91.6047 175.566 90.6119 174.955C90.417 174.836 90.2724 174.713 90.1793 174.616C89.9059 174.329 89.9162 173.875 90.2025 173.602C90.4773 173.339 90.9065 173.339 91.1824 173.592L91.2218 173.63L91.2377 173.644C91.2732 173.674 91.3156 173.705 91.3628 173.734C91.7414 173.967 92.0625 173.922 92.5343 173.249L92.597 173.156C92.6074 173.14 92.6178 173.124 92.6282 173.108L92.69 173.007C92.7208 172.955 92.7513 172.902 92.7816 172.846L92.8419 172.732C92.8519 172.712 92.8618 172.692 92.8717 172.672L92.931 172.55C92.9408 172.529 92.9506 172.508 92.9604 172.486L93.0186 172.356L93.0762 172.219C93.0857 172.196 93.0952 172.172 93.1047 172.149L93.1612 172.004L93.2169 171.854L93.272 171.697L93.3263 171.536L93.3798 171.368L93.4325 171.195L93.4845 171.016L93.5357 170.832L93.5861 170.641C93.5944 170.609 93.6027 170.576 93.611 170.544L93.6601 170.344C93.6682 170.311 93.6763 170.277 93.6844 170.243L93.7323 170.035L93.7793 169.821L93.8255 169.601C93.8331 169.564 93.8407 169.526 93.8482 169.489L93.8931 169.26C93.9005 169.221 93.9079 169.183 93.9152 169.143L93.9587 168.906L94.0013 168.662L94.043 168.412L94.0837 168.156L94.1235 167.894L94.1624 167.626L94.2003 167.352L94.2371 167.072C94.2432 167.025 94.2492 166.977 94.2552 166.929L94.2906 166.64L94.325 166.344L94.3584 166.042L94.3907 165.733L94.422 165.418L94.4669 164.934L94.4956 164.604L94.5231 164.267C94.5533 163.886 94.8755 163.599 95.2523 163.607Z" fill="#164E63"/>
<rect x="86.9973" y="176.222" width="53.6846" height="8.0908" transform="rotate(-18.55 86.9973 176.222)" fill="#0E7490"/>
<path fill-rule="evenodd" clip-rule="evenodd" d="M84.6338 173.516C85.0054 173.428 85.3776 173.647 85.485 174.009L85.5402 174.22L85.5848 174.379C85.664 174.655 85.7627 174.963 85.8816 175.296C86.2216 176.247 86.6542 177.198 87.185 178.08C88.2906 179.918 89.6641 181.202 91.315 181.718C93.3808 182.363 95.8647 181.802 98.845 179.728C99.17 179.502 99.6167 179.582 99.8429 179.907C100.069 180.232 99.9889 180.679 99.6639 180.905C96.3453 183.214 93.4157 183.876 90.8876 183.086C88.852 182.45 87.227 180.932 85.9564 178.819C85.3724 177.849 84.9014 176.813 84.5316 175.779C84.4183 175.462 84.3216 175.164 84.2407 174.891L84.1899 174.716L84.1347 174.515L84.1003 174.378C84.0096 173.992 84.2485 173.607 84.6338 173.516Z" fill="#164E63"/>
<path fill-rule="evenodd" clip-rule="evenodd" d="M416.074 199.64C416.47 199.64 416.791 199.961 416.791 200.357C416.791 200.739 416.493 201.051 416.116 201.073L416.074 201.074H18.7168C18.3209 201.074 18 200.753 18 200.357C18 199.975 18.2984 199.663 18.6747 199.641L18.7168 199.64H416.074Z" fill="#164E63"/>
</svg>
