<svg width="434" height="201" viewBox="0 0 434 201" fill="none" xmlns="http://www.w3.org/2000/svg">
<path fill-rule="evenodd" clip-rule="evenodd" d="M129.351 79.5674C129.752 79.5674 130.077 79.8926 130.077 80.2938C130.077 80.6806 129.775 80.9968 129.394 81.0189L129.351 81.0202H102.983C84.9705 81.0202 70.3246 95.486 70.0335 113.429L70.029 113.974V199.979C70.029 200.38 69.7038 200.705 69.3027 200.705C68.9158 200.705 68.5996 200.403 68.5775 200.022L68.5763 199.979V113.974C68.5763 95.1673 83.6796 79.8759 102.414 79.572L102.983 79.5674H129.351Z" fill="#164E63"/>
<path fill-rule="evenodd" clip-rule="evenodd" d="M167.034 124.048C167.542 123.879 168.09 124.152 168.26 124.66L168.406 125.104L168.636 125.819C168.685 125.972 168.736 126.131 168.787 126.295C169.182 127.547 169.576 128.856 169.944 130.16C170.111 130.749 170.268 131.325 170.416 131.883L170.503 132.217C171.081 134.448 171.464 136.297 171.598 137.656C171.651 138.188 171.262 138.663 170.73 138.715C170.197 138.768 169.723 138.379 169.671 137.847C169.552 136.644 169.203 134.942 168.673 132.88L168.628 132.703C168.46 132.055 168.276 131.381 168.08 130.687C167.763 129.563 167.425 128.434 167.086 127.343L166.94 126.877C166.855 126.607 166.773 126.352 166.697 126.114L166.423 125.274C166.253 124.767 166.527 124.218 167.034 124.048Z" fill="#164E63"/>
<path fill-rule="evenodd" clip-rule="evenodd" d="M202.774 120.877C203.292 120.907 203.69 121.339 203.685 121.852L203.662 122.326C203.647 122.639 203.632 122.996 203.618 123.395L203.613 123.546C203.462 128.014 203.523 133.059 203.948 138.007C203.994 138.54 203.599 139.01 203.066 139.055C202.533 139.101 202.064 138.706 202.018 138.173C201.598 133.29 201.527 128.329 201.664 123.895L201.688 123.176C201.697 122.929 201.706 122.697 201.715 122.483L201.75 121.786C201.78 121.269 202.212 120.87 202.725 120.875L202.774 120.877Z" fill="#164E63"/>
<path fill-rule="evenodd" clip-rule="evenodd" d="M229.279 93.9871C229.566 93.7068 230.026 93.7122 230.307 93.9992C230.469 94.1651 230.576 94.3772 230.679 94.669L230.715 94.7763C230.788 94.999 230.86 95.2727 230.945 95.6338L231.048 96.0946C231.143 96.5282 231.334 97.4238 231.379 97.6259C231.743 99.2926 232.076 100.571 232.509 101.833C234.1 106.469 236.495 109.022 240.211 108.962C240.612 108.956 240.943 109.276 240.949 109.677C240.955 110.078 240.636 110.408 240.234 110.415C235.74 110.487 232.906 107.467 231.135 102.304C230.7 101.035 230.364 99.7634 230.006 98.1489L229.593 96.2386L229.533 95.9782C229.445 95.5986 229.374 95.3354 229.309 95.1514C229.289 95.0951 229.271 95.0496 229.255 95.0157L229.244 94.9925C229.24 94.9843 229.244 94.9906 229.267 95.0143C228.987 94.7274 228.992 94.2675 229.279 93.9871Z" fill="#164E63"/>
<path fill-rule="evenodd" clip-rule="evenodd" d="M131.918 98.9136C127.947 100.657 122.232 104.071 117.632 111.117C124.121 108.454 146.421 128.405 162.232 123.877C154.896 123.102 139.133 111.529 131.918 98.9136Z" fill="#164E63"/>
<path fill-rule="evenodd" clip-rule="evenodd" d="M144.487 66.4173C144.849 66.2451 145.283 66.3992 145.455 66.7615C145.627 67.1238 145.473 67.5571 145.111 67.7294C136.199 71.966 131.085 77.1632 129.39 83.0844C127.905 88.2683 129.066 93.9753 132.497 99.855C132.755 100.297 132.487 100.86 131.981 100.939C129.955 101.255 127.004 102.988 123.031 106.654L122.712 106.95C117.489 111.838 111.029 119.572 103.213 130.617C90.3597 148.756 84.8282 165.625 87.9696 177.944C91.3572 191.229 104.625 198.83 127.693 199.228C128.094 199.235 128.414 199.566 128.407 199.967C128.4 200.368 128.069 200.688 127.668 200.681C104.012 200.273 90.137 192.324 86.5618 178.303C83.2936 165.486 88.9524 148.23 102.027 129.777L102.507 129.101C110.241 118.229 116.658 110.592 121.884 105.735L122.046 105.586C125.6 102.307 128.441 100.464 130.664 99.7643L130.759 99.7346L130.717 99.6587C127.544 93.8454 126.489 88.1345 127.946 82.853L127.993 82.6846C129.815 76.319 135.228 70.8194 144.487 66.4173Z" fill="#164E63"/>
<path fill-rule="evenodd" clip-rule="evenodd" d="M248.204 40.9501C248.553 40.6545 249.081 40.7525 249.304 41.1435L249.329 41.1917L249.472 41.4777C249.587 41.7042 249.726 41.9757 249.891 42.2935L250.208 42.9006C250.705 43.8486 251.307 44.9752 252.02 46.2848C252.13 46.4822 252.235 46.5393 252.696 46.6277L252.756 46.639C253.719 46.8179 254.157 46.9586 254.801 47.4249C255.651 48.041 256.412 49.0683 257.131 50.6464L257.149 50.6913L257.165 50.7374L272.347 100.979L272.358 101.021L272.496 101.602C274.223 108.915 275.12 114.421 275.23 119.472L275.234 119.671C275.349 126.126 274.089 131.42 271.151 135.679C264.395 145.473 248.929 149.45 222.273 147.025L221.909 146.991L221.885 147.005C221.792 147.057 221.686 147.09 221.573 147.096L221.53 147.098C221.143 147.098 220.827 146.795 220.805 146.414L220.804 146.371V146.226C220.804 145.798 221.173 145.462 221.599 145.503C248.284 148.038 263.506 144.204 269.955 134.854C272.701 130.873 273.892 125.872 273.782 119.697C273.694 114.781 272.832 109.392 271.148 102.217L270.95 101.379L255.789 51.2063L255.752 51.1258C255.168 49.8728 254.591 49.0899 254.005 48.6434L253.948 48.6013C253.561 48.3207 253.298 48.2241 252.658 48.0992L252.49 48.0673C251.591 47.9003 251.131 47.6753 250.747 46.9848L250.184 45.9455C249.645 44.9476 249.181 44.0733 248.787 43.3185L248.494 42.7545L248.426 42.6225L248.381 42.6555C246.236 44.2118 243.503 45.2133 240.317 45.7447L240.121 45.7766C236.605 46.3388 232.867 46.302 229.333 45.9036C229.017 45.868 228.719 45.831 228.439 45.7934L228.037 45.7371L228.016 46.1253C227.997 46.4913 227.979 46.9068 227.961 47.3745L227.923 48.4263L227.892 49.4978C227.886 49.7224 227.88 49.9532 227.874 50.1904C227.834 51.8237 227.303 52.7369 225.977 54.0098L225.615 54.3501C224.137 55.7359 223.666 56.6424 223.842 58.6639L223.848 58.7402L230.501 94.3735C230.594 94.8692 230.166 95.3014 229.676 95.2248L229.635 95.2172L211.137 91.2705C210.849 91.2091 210.627 90.9804 210.574 90.6912C209.874 86.8792 208.754 83.0493 207.169 79.507C205.196 75.0999 202.613 71.387 199.362 68.5928C199.058 68.3313 199.023 67.8727 199.284 67.5684C199.546 67.2642 200.005 67.2295 200.309 67.491C203.736 70.4368 206.44 74.3235 208.495 78.9134C210.035 82.3549 211.146 86.0471 211.871 89.7372L211.912 89.9506L228.873 93.569L222.411 58.9584L222.405 58.9106C222.267 57.4726 222.456 56.3215 222.95 55.346C223.314 54.6262 223.735 54.1291 224.528 53.3782L224.814 53.1107C225.98 52.0175 226.374 51.4044 226.419 50.2355L226.446 49.2342C226.452 49.0123 226.458 48.7966 226.465 48.587L226.497 47.636C226.526 46.8342 226.557 46.17 226.588 45.6319L226.618 45.1523L226.642 44.8272C226.68 44.4158 227.052 44.122 227.457 44.1735L227.771 44.2267C227.848 44.2391 227.931 44.2522 228.021 44.266C228.453 44.332 228.947 44.3981 229.496 44.4599C232.911 44.8449 236.524 44.8805 239.892 44.3421C243.314 43.795 246.148 42.6915 248.204 40.9501Z" fill="#164E63"/>
<path fill-rule="evenodd" clip-rule="evenodd" d="M223.916 178.381C224.303 178.375 224.624 178.673 224.652 179.054L224.654 179.096L224.968 199.798C224.975 200.2 224.654 200.53 224.253 200.536C223.866 200.542 223.546 200.244 223.518 199.863L223.516 199.82L223.201 179.118C223.195 178.717 223.515 178.387 223.916 178.381Z" fill="#164E63"/>
<path fill-rule="evenodd" clip-rule="evenodd" d="M219.908 92.4003C216.978 91.1897 213.104 90.7296 210.538 90.318C211.094 93.3204 211.24 95.9354 211.167 97.703C210.61 110.463 205.622 115.427 204.436 120.124C219.787 114.483 220.973 99.519 219.908 92.4003Z" fill="#164E63"/>
<path fill-rule="evenodd" clip-rule="evenodd" d="M196.93 166.952C196.615 169.64 195.985 170.778 189.69 174.023C188.068 174.846 184.678 176.638 180.15 178.914C181.094 190.56 181.627 199.132 181.627 199.132L200.538 199.398C200.538 199.398 200.005 179.931 199.617 160.149C198.504 162.304 197.123 165.33 196.93 166.952Z" fill="#06D0B6"/>
<path fill-rule="evenodd" clip-rule="evenodd" d="M199.133 121.94C199.375 111.504 195.38 101.262 191.506 94.4342C190.876 103.95 188.867 114.991 186.688 118.599C176.518 111.553 168.891 107.509 162.789 104.289C158.939 98.0904 155.695 92.5456 154.291 88.5262C154.315 87.9209 154.339 87.2914 154.339 86.686C154.097 86.7102 153.879 86.7345 153.685 86.7587C155.38 92.3519 159.036 100.294 166.615 110.948C168.068 112.642 169.496 114.555 170.852 116.662C172.668 119.495 174.315 127.509 175.743 137.485C184.169 136.323 190.683 136.081 191.869 137.872L199.182 139.277C198.915 125.33 199.012 127.655 199.133 121.94Z" fill="#06D0B6"/>
<path fill-rule="evenodd" clip-rule="evenodd" d="M208.721 156.555C209.114 156.475 209.498 156.728 209.578 157.121C209.656 157.5 209.423 157.871 209.054 157.969L209.013 157.979L197.778 160.279C197.385 160.359 197.001 160.106 196.92 159.713C196.843 159.334 197.076 158.964 197.445 158.865L197.486 158.856L208.721 156.555Z" fill="#164E63"/>
<path fill-rule="evenodd" clip-rule="evenodd" d="M200.2 138.276C207.193 135.958 213.156 137.392 217.996 141.636C221.416 144.635 224.012 148.87 225.291 152.498L225.371 152.731C226.561 156.226 228.093 163.003 228.278 165.438L228.434 167.536C228.476 168.102 228.513 168.617 228.548 169.139L228.592 169.804C228.692 171.338 228.768 172.76 228.818 174.115L228.834 174.551C228.919 177.14 228.898 179.283 228.745 180.905L228.723 181.126C228.489 183.375 228.018 184.601 226.878 184.675C225.654 184.75 224.725 183.244 223.618 180.341C222.886 178.422 222.153 175.997 221.529 173.6C221.428 173.212 221.661 172.815 222.05 172.714C222.438 172.613 222.835 172.846 222.935 173.234C223.546 175.584 224.266 177.963 224.975 179.823L225.083 180.102C225.477 181.107 225.854 181.911 226.201 182.474C226.375 182.757 226.536 182.969 226.675 183.103L226.722 183.147L226.758 183.177L226.776 183.149C226.816 183.082 226.859 182.992 226.902 182.879L226.923 182.821C227.086 182.364 227.213 181.669 227.298 180.768C227.453 179.133 227.467 176.896 227.366 174.169L227.344 173.59C227.295 172.423 227.227 171.202 227.143 169.897L227.099 169.238C227.072 168.848 227.045 168.462 227.016 168.056L226.823 165.463C226.615 163.036 225.067 156.245 223.92 152.981C222.719 149.571 220.251 145.546 217.038 142.728C212.526 138.772 207.03 137.479 200.457 139.722L200.426 139.732L200.395 139.74L189.378 142.428C188.988 142.523 188.595 142.284 188.5 141.894C188.408 141.519 188.627 141.14 188.992 141.028L189.034 141.017L200.02 138.336L200.2 138.276Z" fill="#164E63"/>
<path fill-rule="evenodd" clip-rule="evenodd" d="M208.749 154.339C208.788 153.94 209.144 153.648 209.543 153.687C209.942 153.726 210.234 154.082 210.195 154.481L210.181 154.618C210.16 154.806 210.133 155.012 210.098 155.253L210.011 155.821C209.956 156.168 209.854 156.806 209.825 156.989L209.771 157.341C209.555 158.778 209.446 159.858 209.437 160.937C209.424 162.651 209.692 164.063 210.303 165.174C210.496 165.526 210.367 165.967 210.016 166.16C209.664 166.354 209.222 166.225 209.029 165.873C208.282 164.513 207.969 162.867 207.985 160.925C207.994 159.719 208.117 158.536 208.361 156.949L208.604 155.418L208.66 155.051C208.701 154.768 208.729 154.54 208.749 154.339Z" fill="#164E63"/>
<path fill-rule="evenodd" clip-rule="evenodd" d="M224.327 164.584C224.711 164.629 224.99 164.967 224.967 165.348L224.962 165.407L224.947 165.521C224.934 165.624 224.918 165.744 224.899 165.878L224.856 166.172C224.811 166.473 224.759 166.797 224.699 167.14C224.473 168.446 224.186 169.753 223.835 170.977L223.758 171.244C222.804 174.454 221.577 176.51 219.828 176.91C217.894 177.352 216.547 176.802 215.828 175.6C215.643 175.29 215.517 174.964 215.437 174.638C215.388 174.439 215.365 174.277 215.358 174.168C215.33 173.768 215.633 173.422 216.033 173.395C216.419 173.368 216.755 173.649 216.803 174.028L216.807 174.07C216.809 174.1 216.821 174.181 216.848 174.293C216.895 174.486 216.97 174.679 217.075 174.854C217.466 175.508 218.174 175.797 219.504 175.494C220.571 175.25 221.62 173.433 222.439 170.577C222.774 169.408 223.049 168.15 223.268 166.891L223.323 166.567C223.367 166.301 223.406 166.05 223.441 165.814L223.481 165.528L223.521 165.221C223.567 164.823 223.928 164.538 224.327 164.584Z" fill="#164E63"/>
<path fill-rule="evenodd" clip-rule="evenodd" d="M220.319 164.231C220.712 164.311 220.966 164.695 220.886 165.088L220.862 165.203C220.842 165.293 220.819 165.397 220.792 165.513C220.715 165.845 220.624 166.213 220.517 166.61C220.213 167.745 219.851 168.88 219.429 169.944L219.326 170.201C218.167 173.032 216.793 174.831 215.031 175.104C213.123 175.399 211.831 174.8 211.174 173.607C210.99 173.271 210.873 172.918 210.808 172.566C210.769 172.351 210.755 172.177 210.755 172.061C210.755 171.66 211.081 171.335 211.482 171.335C211.869 171.335 212.185 171.637 212.207 172.019L212.209 172.091C212.212 172.135 212.22 172.209 212.237 172.304C212.276 172.512 212.344 172.719 212.447 172.906C212.803 173.552 213.492 173.872 214.809 173.668C215.923 173.495 217.08 171.927 218.078 169.409C218.477 168.402 218.824 167.318 219.114 166.234L219.188 165.954C219.247 165.726 219.301 165.509 219.349 165.306L219.405 165.06L219.463 164.798C219.543 164.404 219.926 164.151 220.319 164.231Z" fill="#164E63"/>
<path fill-rule="evenodd" clip-rule="evenodd" d="M205.516 163.91C207.035 162.628 209.009 163.165 210.959 166.276C211.172 166.616 211.07 167.064 210.73 167.277C210.39 167.49 209.941 167.387 209.728 167.048C208.854 165.653 208.079 164.952 207.442 164.779C207.063 164.675 206.746 164.773 206.453 165.02C206.398 165.066 206.351 165.112 206.311 165.154L206.291 165.176L206.293 165.204C206.296 165.248 206.301 165.299 206.309 165.355L206.318 165.414C206.365 165.707 206.465 166.054 206.633 166.457C207.11 167.603 208.033 168.968 209.517 170.547C210.283 171.362 210.829 171.412 211.451 170.905C212.086 170.389 212.723 169.331 213.302 167.91C213.627 167.112 213.913 166.252 214.158 165.391L214.228 165.138C214.273 164.973 214.315 164.816 214.352 164.668L214.41 164.436L214.453 164.252C214.54 163.861 214.928 163.614 215.32 163.701C215.697 163.785 215.941 164.148 215.879 164.526L215.869 164.58L215.822 164.777C215.812 164.819 215.801 164.863 215.79 164.91L215.73 165.144C215.678 165.345 215.62 165.561 215.555 165.788C215.297 166.696 214.994 167.605 214.647 168.458C213.984 170.087 213.24 171.323 212.369 172.032C211.142 173.03 209.736 172.901 208.459 171.542C206.861 169.842 205.84 168.333 205.291 167.016C204.926 166.139 204.807 165.447 204.841 164.952L204.845 164.896C204.849 164.851 204.854 164.815 204.86 164.785C204.876 164.696 204.91 164.609 204.959 164.532C205.067 164.36 205.251 164.134 205.516 163.91Z" fill="#164E63"/>
<path fill-rule="evenodd" clip-rule="evenodd" d="M197.075 165.257C188.504 158.308 185.622 140.826 189.23 137.001C189.375 135.79 192.16 137.824 193.83 138.018C197.874 138.478 199.617 138.599 199.617 138.599C197.971 143.635 199.811 149.737 201.676 154.071C202.765 156.662 203.903 158.696 204.46 159.64C204.145 159.809 202.838 160.439 199.738 161.795C197.971 162.594 197.608 163.926 197.075 165.257Z" fill="#164E63"/>
<path fill-rule="evenodd" clip-rule="evenodd" d="M129.121 138.297C131.718 137.431 135.167 136.923 138.197 137.197C142.398 137.578 145.56 139.38 147.087 142.885C147.247 143.253 147.079 143.681 146.711 143.841C146.344 144.001 145.916 143.833 145.755 143.465C144.467 140.51 141.784 138.981 138.066 138.644C135.252 138.389 132 138.869 129.581 139.675C129.2 139.802 128.789 139.597 128.662 139.216C128.535 138.835 128.741 138.424 129.121 138.297Z" fill="#164E63"/>
<path fill-rule="evenodd" clip-rule="evenodd" d="M160.566 139.356C179.317 135.651 190.58 134.599 192.476 137.472C192.49 137.494 192.503 137.517 192.515 137.541L192.532 137.576L201.443 157.528C201.529 157.721 201.527 157.942 201.438 158.132L201.41 158.185L201.252 158.476L201.135 158.694C201.035 158.881 200.928 159.084 200.815 159.3C200.362 160.166 199.91 161.07 199.489 161.965C199.276 162.418 199.076 162.858 198.891 163.281C198.191 164.886 197.746 166.178 197.635 166.994L197.627 167.061C197.253 170.251 196.079 171.532 190.354 174.509L189.783 174.805C188.5 175.483 182.978 178.454 180.627 179.69C175.121 182.587 169.836 185.234 164.447 187.741C158.24 190.629 152.289 193.142 146.644 195.209C139.317 197.891 132.685 199.755 126.873 200.672C126.477 200.735 126.105 200.464 126.043 200.068C125.98 199.672 126.251 199.3 126.647 199.237C132.354 198.337 138.899 196.497 146.144 193.845C151.748 191.793 157.662 189.296 163.834 186.424C168.966 184.036 174.006 181.52 179.236 178.78L180.53 178.099C183.308 176.628 188.716 173.718 189.333 173.401L189.829 173.144C194.925 170.489 195.844 169.521 196.165 167.051L196.184 166.893C196.3 165.897 196.785 164.475 197.559 162.7C197.75 162.264 197.955 161.811 198.174 161.347C198.605 160.431 199.066 159.51 199.527 158.628L199.728 158.246L199.97 157.792L191.234 138.233L191.221 138.215C190.498 137.318 187.035 137.039 181.508 137.532L181.165 137.563C175.923 138.053 169.014 139.168 160.847 140.781C158.049 141.334 155.139 141.939 152.142 142.587C147.088 143.681 142.015 144.848 137.143 146.019L135.637 146.383C134.166 146.74 132.807 147.075 131.58 147.381L130.756 147.588L129.532 147.898C129.143 147.998 128.747 147.764 128.648 147.375C128.551 147.001 128.765 146.619 129.129 146.503L129.185 146.487L130.984 146.033L132.501 145.655C133.466 145.417 134.498 145.164 135.591 144.899L135.891 144.827C141.05 143.579 146.452 142.332 151.835 141.167C154.84 140.517 157.759 139.911 160.566 139.356Z" fill="#164E63"/>
<path fill-rule="evenodd" clip-rule="evenodd" d="M154.731 74.3134L154.774 74.3135C155.175 74.3263 155.489 74.6618 155.477 75.0628L155.062 87.8729L155.045 88.4129L155.075 88.497C156.296 91.8874 158.764 96.371 163.158 103.466L163.327 103.738L164.483 104.351C172.814 108.776 178.368 112.022 185.679 117.009L186.455 117.54L186.511 117.423C188.335 113.509 190.12 104.014 190.766 94.9583L190.805 94.3862C190.832 93.9859 191.178 93.6829 191.578 93.7094C191.978 93.7359 192.282 94.0818 192.255 94.4821C191.584 104.626 189.495 115.396 187.334 118.974C187.117 119.333 186.643 119.434 186.299 119.196L185.724 118.8C177.641 113.241 171.852 109.88 162.474 104.931C162.36 104.871 162.264 104.782 162.196 104.672L161.505 103.555C157.225 96.6125 154.831 92.2048 153.629 88.7658C153.6 88.6815 153.586 88.5925 153.589 88.5033L154.025 75.0162C154.037 74.6296 154.349 74.3232 154.731 74.3134Z" fill="#164E63"/>
<path fill-rule="evenodd" clip-rule="evenodd" d="M151.584 56.5681C151.983 56.5309 152.337 56.8244 152.375 57.2239C152.412 57.6233 152.118 57.9774 151.719 58.0146C150.156 58.1605 148.532 58.6047 147.239 59.4865C145.39 60.7482 144.583 62.6947 145.173 65.6247C145.638 67.9735 146.837 69.2466 148.659 69.721C150.119 70.1009 151.909 69.9496 153.806 69.4243C154.193 69.3172 154.593 69.5438 154.7 69.9305C154.807 70.3171 154.58 70.7173 154.194 70.8244C152.073 71.4117 150.046 71.5831 148.293 71.1269C145.931 70.5121 144.322 68.8022 143.748 65.9093C143.042 62.4056 144.092 59.875 146.421 58.2864C147.957 57.2383 149.798 56.7349 151.584 56.5681Z" fill="#164E63"/>
<path fill-rule="evenodd" clip-rule="evenodd" d="M199.596 43.0601C199.994 43.0083 200.359 43.2888 200.41 43.6866C201.559 52.51 201.325 62.6892 200.096 72.2028C200.044 72.6007 199.68 72.8815 199.282 72.8301C198.884 72.7787 198.603 72.4145 198.655 72.0166C199.869 62.6183 200.101 52.5604 198.97 43.8742C198.918 43.4764 199.198 43.1119 199.596 43.0601Z" fill="#164E63"/>
<path fill-rule="evenodd" clip-rule="evenodd" d="M198.655 71.991C198.707 71.5932 199.072 71.3131 199.47 71.3654C199.868 71.4177 200.148 71.7825 200.095 72.1802L199.994 72.938C199.595 75.8586 199.149 78.464 198.705 80.4972C198.619 80.8892 198.232 81.1375 197.84 81.0519C197.448 80.9663 197.2 80.5792 197.285 80.1873L197.36 79.84C197.808 77.7228 198.258 75.0126 198.655 71.991Z" fill="#164E63"/>
<path fill-rule="evenodd" clip-rule="evenodd" d="M156.95 58.3103L151.623 58.6977C151.197 58.7286 150.893 59.1163 150.957 59.532L150.98 59.6438L151.576 62.4083L151.788 63.3835C152.327 65.8595 152.874 68.3356 153.405 70.6881L153.721 72.0825L154.108 73.7743C155.05 77.8664 155.798 80.9077 156.29 82.584L156.355 82.8041C158.066 88.4979 159.552 90.5711 165.513 94.8546C168.924 97.3057 174.092 98.9559 179.08 99.1101C184.784 99.2863 189.724 97.554 192.86 93.8374C194.844 91.4794 196.406 88.3622 197.605 84.6695C198.572 81.6933 199.25 78.5121 199.692 75.3321C199.847 74.2198 199.961 73.1865 200.041 72.2582L200.061 72.0207C200.07 71.9054 200.079 71.7952 200.086 71.6904L200.111 71.3282L200.125 71.0779C200.14 70.7445 199.927 70.4435 199.607 70.3482C198.175 69.9221 195.817 69.6229 192.858 69.4185C191.968 69.357 191.074 69.308 190.204 69.2699L189.771 69.2518C189.462 69.2394 189.173 69.2291 188.908 69.2207L188.326 69.2044L188.299 69.2043C182.073 69.2977 176.189 69.9822 170.809 71.0655C168.866 71.4568 167.118 71.875 165.587 72.2949L165.22 72.3967C164.924 72.4799 164.649 72.5597 164.395 72.6357L164.14 72.7125L164.125 72.6574C162.825 68.2092 159.08 60.11 157.52 58.5252C157.371 58.3734 157.162 58.2948 156.95 58.3103ZM156.694 59.7854L156.72 59.8177C158.321 61.88 162.007 70.0452 162.931 73.8085C163.03 74.2089 163.439 74.4444 163.831 74.3352L164.19 74.2186L164.348 74.169C164.747 74.0442 165.219 73.9049 165.759 73.7545L166.188 73.6371C167.635 73.2456 169.277 72.8559 171.096 72.4897L171.458 72.4176C176.535 71.4167 182.064 70.7771 187.903 70.6641L188.303 70.6571L188.734 70.6688C189.029 70.6777 189.357 70.6892 189.713 70.7034C190.704 70.7431 191.735 70.7972 192.758 70.8678L193.289 70.9061C195.453 71.0686 197.256 71.2873 198.501 71.564L198.637 71.5948L198.613 71.9041C198.607 71.9784 198.6 72.055 198.593 72.1339L198.555 72.5583C198.481 73.3498 198.381 74.213 198.253 75.1321C197.822 78.2337 197.161 81.3341 196.224 84.2208C195.078 87.7497 193.596 90.7061 191.749 92.9013C188.932 96.2393 184.42 97.8216 179.125 97.658C174.418 97.5125 169.529 95.9517 166.361 93.6749L166.024 93.4318C160.718 89.5842 159.387 87.7401 157.843 82.704L157.704 82.2436C157.195 80.5249 156.382 77.1993 155.35 72.6946L155.065 71.443L154.822 70.3683C154.415 68.5617 153.997 66.6817 153.581 64.7847L152.945 61.8649L152.561 60.0861L156.694 59.7854Z" fill="#164E63"/>
<path fill-rule="evenodd" clip-rule="evenodd" d="M184.315 82.6425C184.315 82.6425 188.261 81.8435 189.884 83.4415L184.315 82.6425Z" fill="#F1F5F9"/>
<path fill-rule="evenodd" clip-rule="evenodd" d="M184.866 81.8219C185.744 81.711 186.653 81.6768 187.517 81.7673C188.722 81.8935 189.71 82.2503 190.393 82.924C190.679 83.2055 190.683 83.6654 190.401 83.9512C190.12 84.237 189.66 84.2405 189.374 83.959C188.967 83.5577 188.273 83.3072 187.365 83.2121C186.628 83.1349 185.824 83.1651 185.048 83.2632C184.918 83.2797 184.797 83.297 184.688 83.3144L184.491 83.3481C184.477 83.3507 184.467 83.3528 184.459 83.3544C184.066 83.434 183.682 83.1798 183.603 82.7866C183.523 82.3934 183.777 82.0101 184.171 81.9305L184.327 81.9013C184.465 81.8773 184.647 81.8495 184.866 81.8219Z" fill="#164E63"/>
<path fill-rule="evenodd" clip-rule="evenodd" d="M189.269 63.5429C189.654 63.4994 190.002 63.7643 190.067 64.1407L190.073 64.183L191.526 77.0159C191.581 77.5078 191.141 77.9055 190.663 77.8103L190.622 77.8009L186.119 76.6387C185.73 76.5385 185.497 76.1423 185.597 75.7539C185.694 75.3793 186.065 75.1487 186.44 75.2225L186.482 75.232L189.963 76.1305L188.629 64.3464C188.586 63.962 188.851 63.6138 189.227 63.5489L189.269 63.5429Z" fill="#164E63"/>
<path fill-rule="evenodd" clip-rule="evenodd" d="M194.073 67.7514C194.795 67.7514 195.38 66.8408 195.38 65.7175C195.38 64.5942 194.795 63.6836 194.073 63.6836C193.35 63.6836 192.765 64.5942 192.765 65.7175C192.765 66.8408 193.35 67.7514 194.073 67.7514Z" fill="#164E63"/>
<path fill-rule="evenodd" clip-rule="evenodd" d="M181.433 67.5093C182.156 67.5093 182.741 66.5987 182.741 65.4754C182.741 64.3521 182.156 63.4415 181.433 63.4415C180.711 63.4415 180.126 64.3521 180.126 65.4754C180.126 66.5987 180.711 67.5093 181.433 67.5093Z" fill="#164E63"/>
<path fill-rule="evenodd" clip-rule="evenodd" d="M176.513 53.1216C177.895 52.1098 179.582 51.6074 181.541 51.8998C181.937 51.9591 182.211 52.3288 182.152 52.7256C182.093 53.1223 181.723 53.396 181.326 53.3367C179.773 53.1048 178.462 53.4953 177.372 54.2936C177.065 54.5187 176.8 54.7596 176.58 54.9988L176.509 55.0773C176.444 55.1511 176.395 55.2104 176.364 55.2513L176.339 55.286C176.109 55.6149 175.656 55.6953 175.327 55.4657C174.999 55.236 174.918 54.7831 175.148 54.4542C175.216 54.3559 175.337 54.2035 175.511 54.0148C175.792 53.7092 176.126 53.4052 176.513 53.1216Z" fill="#164E63"/>
<path fill-rule="evenodd" clip-rule="evenodd" d="M193.743 51.6358C194.489 51.5189 195.282 51.5151 196.047 51.7041C197.337 52.0229 198.307 52.8488 198.738 54.244C198.856 54.6273 198.641 55.034 198.258 55.1524C197.875 55.2709 197.468 55.0561 197.35 54.6728C197.078 53.7939 196.518 53.3171 195.698 53.1144C195.149 52.9786 194.539 52.9816 193.968 53.0711L193.877 53.086C193.808 53.0981 193.752 53.1094 193.713 53.1182L193.674 53.1275C193.286 53.2285 192.889 52.9956 192.788 52.6073C192.688 52.219 192.92 51.8225 193.309 51.7215C193.399 51.698 193.548 51.6663 193.743 51.6358Z" fill="#164E63"/>
<path fill-rule="evenodd" clip-rule="evenodd" d="M208.044 41.6981C207.729 40.7538 208.092 39.6158 208.746 38.4778L208.576 38.2841L207.753 40.5843C207.753 40.5843 205.186 41.6981 204.339 38.4052C204.073 37.3882 204.678 36.1776 205.622 34.9669L205.598 34.9427C202.039 35.7659 195.041 37.1219 194.412 35.7175C193.516 33.732 206.107 28.4536 209.956 26.7829C211.918 25.9112 218.722 24.0468 222.402 23.5141C223.903 23.2962 226.615 23.1025 229.714 23.4173C229.981 21.2381 229.617 19.0347 228.455 16.9039C227.269 14.7006 224.775 11.456 222.571 10.2696C200.707 -1.3285 190.053 18.2599 190.053 18.2599C190.053 18.2599 186.978 9.83373 177.002 9.54317C172.935 9.42211 168.964 11.0202 166.082 13.9015C157.922 22.0855 163.37 31.3349 163.37 31.3349C163.37 31.3349 159.569 29.3979 154.436 31.8676C148.31 34.8216 145.235 41.7708 146.833 48.3809C148.528 55.4027 151.651 62.0855 151.651 62.0855C171.554 65.1606 176.639 45.6207 173.709 43.1025C178.116 46.3713 186.058 48.5504 199.496 47.1945C202.571 46.8797 206.349 45.6691 210.199 43.8289C209.424 43.7562 208.576 43.272 208.044 41.6981Z" fill="#164E63"/>
<path fill-rule="evenodd" clip-rule="evenodd" d="M226.512 39.1289C226.887 39.0354 227.267 39.2524 227.381 39.6171L227.392 39.6582L230.381 51.6575L247.619 46.5465C247.99 46.4365 248.379 46.6366 248.509 46.9959L248.522 47.0365C248.632 47.4073 248.432 47.7965 248.073 47.9261L248.032 47.9394L230.066 53.2662C229.683 53.3798 229.283 53.1628 229.166 52.7863L229.155 52.7454L225.983 40.0093C225.886 39.62 226.123 39.2258 226.512 39.1289Z" fill="#164E63"/>
<path fill-rule="evenodd" clip-rule="evenodd" d="M222.296 22.7955C226.167 22.2257 231.358 22.4539 235.809 23.9325C242.215 26.0606 246.495 30.4768 247.662 37.57L247.689 37.7453L250.246 47.2972C250.344 47.6635 250.144 48.0408 249.792 48.168L249.751 48.1816L232.657 53.2421C232.272 53.356 231.868 53.1365 231.754 52.7518C231.644 52.3808 231.844 51.9918 232.204 51.8624L232.244 51.8491L248.66 46.9892L246.276 38.0845C246.273 38.0718 246.27 38.0591 246.267 38.0462L246.26 38.0076C245.234 31.3647 241.334 27.2988 235.351 25.3112C231.208 23.935 226.333 23.7011 222.687 24.2071L222.506 24.233C219.13 24.7217 212.435 26.5025 210.314 27.4193L207.892 28.4673C207.634 28.5796 207.385 28.6888 207.133 28.7994L206.545 29.0583C205.288 29.6147 204.127 30.1426 203.021 30.6648C202.024 31.1355 201.102 31.5878 200.259 32.0214L199.943 32.1853C198.33 33.0261 197.063 33.7753 196.204 34.4115C195.729 34.7629 195.393 35.0704 195.21 35.314C195.193 35.3373 195.177 35.3592 195.164 35.3795L195.136 35.4228L195.179 35.44C195.358 35.506 195.628 35.5551 195.977 35.5801C196.678 35.6306 197.645 35.5819 198.822 35.444C200.753 35.2177 203.143 34.765 205.434 34.235C205.825 34.1446 206.215 34.3881 206.306 34.779C206.396 35.1699 206.153 35.56 205.762 35.6504C203.509 36.1714 201.165 36.619 199.214 36.86L198.991 36.8869C195.97 37.2409 194.243 37.1168 193.749 36.0163C193.091 34.5563 195.093 33.0548 199.462 30.7981L199.595 30.7295C200.453 30.2879 201.39 29.8285 202.401 29.3511L202.921 29.1071C203.968 28.6182 205.067 28.1219 206.251 27.6002L207.469 27.0673L209.809 26.055C212.129 25.0758 218.838 23.296 222.296 22.7955Z" fill="#164E63"/>
<path fill-rule="evenodd" clip-rule="evenodd" d="M231.132 36.7805C231.468 36.5607 231.918 36.6547 232.138 36.9903C232.358 37.3259 232.264 37.7762 231.928 37.9959C230.734 38.7781 228.19 40.0371 225.741 41.0194C222.612 42.2748 219.905 43.004 218.049 42.957C217.648 42.9468 217.331 42.6135 217.342 42.2124C217.352 41.8114 217.685 41.4945 218.086 41.5047C219.689 41.5453 222.243 40.8576 225.2 39.6711L225.603 39.5074C227.841 38.5854 230.091 37.4626 231.132 36.7805Z" fill="#164E63"/>
<path fill-rule="evenodd" clip-rule="evenodd" d="M212.3 29.1341C212.526 29.4656 212.44 29.9175 212.109 30.1434L211.902 30.288L211.803 30.3583C211.554 30.5355 211.277 30.7388 210.978 30.9648C210.124 31.6104 209.271 32.3069 208.476 33.0263C207.487 33.9225 206.662 34.7893 206.06 35.5949C205.226 36.7091 204.882 37.6255 205.042 38.247C205.294 39.2188 205.696 39.731 206.194 39.9415C206.538 40.0866 206.929 40.0863 207.3 39.9918C207.336 39.9825 207.369 39.973 207.399 39.9636L207.469 39.9399C207.838 39.7831 208.265 39.9554 208.422 40.3246C208.578 40.6939 208.406 41.1204 208.037 41.2771C207.953 41.3126 207.825 41.3572 207.659 41.3996C207.007 41.5656 206.308 41.5662 205.63 41.2799C204.689 40.8827 203.996 39.9993 203.635 38.6104C203.338 37.4537 203.824 36.1579 204.896 34.7247C205.562 33.8343 206.448 32.9033 207.501 31.9495C208.33 31.1986 209.216 30.4757 210.102 29.806L210.33 29.6346C210.479 29.5233 210.623 29.418 210.759 29.3191L211.063 29.1014L211.291 28.9428C211.622 28.7169 212.074 28.8026 212.3 29.1341Z" fill="#164E63"/>
<path fill-rule="evenodd" clip-rule="evenodd" d="M214.393 32.4251C214.637 32.7238 214.604 33.1584 214.325 33.417L214.283 33.4529L214.146 33.5678L214.049 33.65C213.853 33.8182 213.633 34.0115 213.396 34.2266C212.72 34.8413 212.044 35.5055 211.414 36.193C210.599 37.0837 209.925 37.9456 209.444 38.7454C208.755 39.8896 208.513 40.8228 208.731 41.4638C209.026 42.3281 209.419 42.8059 209.872 43.0135C210.24 43.1819 210.657 43.1721 211.06 43.0453L211.135 43.0205C211.191 43.0006 211.233 42.9833 211.256 42.9723L211.268 42.9664C211.624 42.7815 212.062 42.9201 212.247 43.2761C212.432 43.6321 212.294 44.0706 211.938 44.2556C211.841 44.3058 211.691 44.3699 211.496 44.4312C210.78 44.6564 210.01 44.6743 209.268 44.3345C208.427 43.9496 207.773 43.1544 207.356 41.9326C206.968 40.7932 207.311 39.4714 208.199 37.9962C208.737 37.1029 209.467 36.1683 210.343 35.2119C211.005 34.4888 211.712 33.7941 212.419 33.1514L212.627 32.9641C212.763 32.8429 212.892 32.7294 213.014 32.624L213.158 32.501L213.371 32.3221C213.682 32.0683 214.139 32.1144 214.393 32.4251Z" fill="#164E63"/>
<path fill-rule="evenodd" clip-rule="evenodd" d="M216.098 36.3969C216.405 36.1384 216.863 36.1775 217.122 36.4843C217.381 36.791 217.341 37.2493 217.035 37.5078L216.909 37.6158L216.846 37.6717C216.691 37.8083 216.518 37.9651 216.331 38.1394C215.797 38.6375 215.264 39.1743 214.767 39.7275C214.17 40.3936 213.669 41.0369 213.298 41.6341L213.21 41.7777C212.264 43.3591 212.399 44.184 213.831 44.5818C216.655 45.3662 218.548 45.4015 219.68 45.0237C219.755 44.9988 219.82 44.9738 219.876 44.9493L219.903 44.9369L219.912 44.9144C220.012 44.6375 220.032 44.361 219.941 44.1196L219.92 44.0684C219.653 43.4796 218.698 43.0084 216.729 42.8583C216.329 42.8278 216.03 42.4788 216.06 42.0787C216.091 41.6787 216.44 41.3792 216.84 41.4097C219.283 41.5959 220.714 42.3029 221.243 43.4684C221.537 44.1183 221.502 44.7869 221.278 45.4078C221.213 45.5891 221.144 45.7293 221.09 45.821C221.046 45.8963 220.988 45.9628 220.92 46.0175C220.771 46.1367 220.516 46.2764 220.14 46.4018C218.709 46.8792 216.527 46.8384 213.442 45.9816C210.813 45.2513 210.583 43.2509 212.064 40.8674C212.485 40.1895 213.036 39.4818 213.686 38.7573C214.213 38.1694 214.777 37.6029 215.34 37.0773L215.532 36.8994C215.595 36.8422 215.655 36.787 215.714 36.7341L215.986 36.4936C216.035 36.4507 216.073 36.4183 216.098 36.3969Z" fill="#164E63"/>
<path fill-rule="evenodd" clip-rule="evenodd" d="M224.944 53.95C228.383 58.502 251.651 55.0638 255.477 49.18C253.637 46.6618 252.184 48.0904 251.361 46.6134C249.424 43.0541 248.649 41.4802 248.649 41.4802C244.605 44.9185 238.261 45.5238 233.54 45.427C230.731 45.4027 228.407 45.1122 227.317 44.9669C227.293 45.3301 227.196 46.7829 227.099 50.1485C227.075 52.1098 225.985 52.9814 224.944 53.95Z" fill="#164E63"/>
<path fill-rule="evenodd" clip-rule="evenodd" d="M351.99 132.352H257.85C256.615 132.352 255.55 133.199 255.259 134.41L242.16 189.809H208.044C208.044 189.809 206.155 199.567 217.172 199.567H337.366C338.6 199.567 339.666 198.72 339.956 197.509L354.581 135.621C354.969 133.95 353.709 132.352 351.99 132.352Z" fill="#164E63"/>
<path fill-rule="evenodd" clip-rule="evenodd" d="M344.218 155.887C338.262 155.887 333.588 150.802 334.073 144.87C334.436 140.488 334.484 137.776 334.944 135.742C335.574 132.933 340.973 129.083 347.293 124.434C350.61 122.013 352.91 119.737 354.194 117.63C355.477 115.524 356.131 112.933 356.131 109.834C356.131 106.008 354.92 102.981 352.475 100.778C350.053 98.5747 347.099 97.4851 343.637 97.4851C336.76 97.4851 332.16 101.117 329.787 108.405C328.213 113.248 323.346 116.202 318.31 115.5C311.603 114.555 307.608 107.582 310.102 101.287C312.354 95.5965 315.574 90.9476 319.763 87.3156C326.712 81.3108 335.235 78.3083 345.259 78.3083C355.501 78.3083 364.097 81.2623 371.022 87.1461C377.947 93.0541 381.433 100.536 381.433 109.592C381.433 120.827 375.671 130.221 364.121 137.776C359.109 141.093 356.058 143.684 354.993 145.548C354.63 146.178 354.339 146.977 354.097 147.969C353.032 152.594 348.964 155.887 344.218 155.887ZM345.598 186.226H344.678C338.213 186.226 332.959 180.972 332.959 174.507C332.959 168.042 338.213 162.788 344.678 162.788H345.598C352.063 162.788 357.317 168.042 357.317 174.507C357.317 180.996 352.087 186.226 345.598 186.226Z" fill="#06D0B6"/>
<path fill-rule="evenodd" clip-rule="evenodd" d="M105.09 56.7344C103.758 57.3155 102.232 56.6376 101.772 55.2574C101.433 54.2405 101.191 53.6351 101.094 53.1509C100.973 52.4729 101.797 51.0928 102.741 49.4463C103.249 48.5988 103.54 47.8724 103.613 47.2671C103.709 46.686 103.588 46.0322 103.298 45.3543C102.935 44.5068 102.378 43.9499 101.627 43.7078C100.877 43.4414 100.126 43.4899 99.3511 43.8288C97.8257 44.4826 97.1477 45.7417 97.3172 47.5819C97.4383 48.8167 96.6392 49.9305 95.4528 50.2695C93.8789 50.7053 92.3051 49.5431 92.2567 47.8966C92.2082 46.4196 92.4746 45.0637 93.0557 43.853C94.0242 41.8434 95.6223 40.3664 97.8499 39.3978C100.126 38.4051 102.305 38.2356 104.436 38.8894C106.542 39.5431 108.044 40.8506 108.915 42.8603C110.005 45.3543 109.617 47.9935 107.777 50.778C106.978 51.9886 106.567 52.8603 106.494 53.3688C106.47 53.5383 106.494 53.7562 106.518 53.9983C106.736 55.1606 106.155 56.2744 105.09 56.7344ZM108.31 63.3446L108.092 63.4414C106.663 64.071 104.993 63.393 104.363 61.9644C103.734 60.5359 104.412 58.8652 105.84 58.2356L106.058 58.1388C107.487 57.5092 109.157 58.1872 109.787 59.6158C110.416 61.0443 109.763 62.715 108.31 63.3446Z" fill="#06D0B6"/>
<path fill-rule="evenodd" clip-rule="evenodd" d="M117.971 25.7417C116.01 25.6449 114.557 23.8773 114.823 21.9403C115.017 20.5117 115.09 19.6158 115.283 18.9378C115.55 18.0177 117.39 16.8555 119.569 15.4269C120.707 14.6763 121.506 13.9741 121.966 13.3204C122.426 12.6424 122.693 11.8192 122.741 10.778C122.814 9.51894 122.475 8.502 121.7 7.72718C120.949 6.95236 119.981 6.54074 118.843 6.4681C116.567 6.34703 114.993 7.46083 114.073 9.8095C113.467 11.3834 111.797 12.255 110.15 11.9403C107.971 11.5044 106.76 9.13153 107.705 7.09764C108.552 5.25744 109.69 3.78045 111.143 2.66664C113.54 0.826451 116.397 -0.0210071 119.714 0.172698C123.08 0.366402 125.864 1.4802 128.044 3.56253C130.223 5.64485 131.24 8.16301 131.07 11.1412C130.877 14.8458 128.794 17.824 124.847 20.1243C123.128 21.117 122.087 21.916 121.7 22.5214C121.579 22.7151 121.458 22.9814 121.361 23.2962C120.949 24.8216 119.545 25.8143 117.971 25.7417ZM117.874 35.7659L117.559 35.7417C115.429 35.6206 113.782 33.8047 113.903 31.6739C114.024 29.5432 115.84 27.8967 117.971 28.0177L118.286 28.0419C120.416 28.163 122.063 29.979 121.942 32.1097C121.845 34.2405 120.005 35.887 117.874 35.7659Z" fill="#06D0B6"/>
<path fill-rule="evenodd" clip-rule="evenodd" d="M400.634 199.204C401.036 199.204 401.361 199.529 401.361 199.93C401.361 200.317 401.058 200.634 400.677 200.656L400.634 200.657H34.1695C33.7683 200.657 33.4431 200.332 33.4431 199.93C33.4431 199.544 33.7455 199.227 34.1268 199.205L34.1695 199.204H400.634Z" fill="#164E63"/>
</svg>
