<svg width="438" height="201" viewBox="0 0 438 201" fill="none" xmlns="http://www.w3.org/2000/svg">
<path fill-rule="evenodd" clip-rule="evenodd" d="M117.916 159.578L107.145 199.077H171.845L161.386 159.24L117.916 159.578Z" fill="#06D0B6"/>
<path fill-rule="evenodd" clip-rule="evenodd" d="M138.626 186.257C142.94 186.257 146.437 182.759 146.437 178.445C146.437 174.131 142.94 170.633 138.626 170.633C134.311 170.633 130.814 174.131 130.814 178.445C130.814 182.759 134.311 186.257 138.626 186.257Z" fill="#F1F5F9"/>
<path fill-rule="evenodd" clip-rule="evenodd" d="M155.732 160.403C156.136 160.308 156.54 160.546 156.656 160.939L156.668 160.983L165.31 197.835C165.408 198.254 165.148 198.673 164.73 198.771C164.326 198.866 163.922 198.628 163.806 198.235L163.794 198.191L155.152 161.339C155.054 160.92 155.313 160.501 155.732 160.403Z" fill="#164E63"/>
<path fill-rule="evenodd" clip-rule="evenodd" d="M227.201 161.031H46.261C44.7557 161.031 43.5359 159.811 43.5359 158.306V49.9809C43.5359 48.4756 44.7557 47.2559 46.261 47.2559H227.201C228.706 47.2559 229.926 48.4756 229.926 49.9809V158.306C229.926 159.811 228.706 161.031 227.201 161.031Z" fill="#06D0B6"/>
<path fill-rule="evenodd" clip-rule="evenodd" d="M222.114 47.3596C222.529 47.3596 222.868 47.6837 222.892 48.0924L222.893 48.1382V160.045C222.893 160.475 222.544 160.823 222.114 160.823C221.7 160.823 221.361 160.499 221.337 160.091L221.336 160.045V48.1382C221.336 47.7082 221.684 47.3596 222.114 47.3596Z" fill="#164E63"/>
<path fill-rule="evenodd" clip-rule="evenodd" d="M211.214 151.377H55.1626C53.6574 151.377 52.4376 150.157 52.4376 148.652V57.1178C52.4376 55.6126 53.6574 54.3928 55.1626 54.3928H211.214C212.72 54.3928 213.939 55.6126 213.939 57.1178V148.652C213.965 150.157 212.72 151.377 211.214 151.377Z" fill="#F1F5F9"/>
<path fill-rule="evenodd" clip-rule="evenodd" d="M67.3602 60.2581C67.7749 60.2581 68.1138 60.5822 68.1375 60.9909L68.1388 61.0366V151.377C68.1388 151.807 67.7902 152.155 67.3602 152.155C66.9456 152.155 66.6067 151.831 66.583 151.423L66.5817 151.377V61.0366C66.5817 60.6066 66.9302 60.2581 67.3602 60.2581Z" fill="#164E63"/>
<path fill-rule="evenodd" clip-rule="evenodd" d="M213.965 60.2581C214.395 60.2581 214.744 60.6066 214.744 61.0366C214.744 61.4513 214.42 61.7902 214.011 61.8139L213.965 61.8152H52.4376C52.0076 61.8152 51.6591 61.4666 51.6591 61.0366C51.6591 60.622 51.9832 60.2831 52.3919 60.2594L52.4376 60.2581H213.965Z" fill="#164E63"/>
<rect x="54.1505" y="66.5905" width="4.41191" height="4.41191" fill="#164E63"/>
<rect x="60.5867" y="66.5905" width="4.41191" height="4.41191" fill="#164E63"/>
<rect x="54.1505" y="73.364" width="4.41191" height="4.41191" fill="#164E63"/>
<rect x="60.5867" y="73.364" width="4.41191" height="4.41191" fill="#164E63"/>
<rect x="54.1505" y="80.1117" width="4.41191" height="4.41191" fill="#164E63"/>
<rect x="60.5867" y="80.1117" width="4.41191" height="4.41191" fill="#164E63"/>
<rect x="54.1505" y="86.8593" width="4.41191" height="4.4119" fill="#164E63"/>
<rect x="60.5867" y="86.8593" width="4.41191" height="4.4119" fill="#164E63"/>
<rect x="54.1505" y="93.6328" width="4.41191" height="4.41191" fill="#164E63"/>
<rect x="60.5867" y="93.6328" width="4.41191" height="4.41191" fill="#164E63"/>
<rect x="54.1505" y="100.38" width="4.41191" height="4.4119" fill="#164E63"/>
<rect x="60.5867" y="100.38" width="4.41191" height="4.4119" fill="#164E63"/>
<rect x="54.1505" y="107.154" width="4.41191" height="4.41191" fill="#164E63"/>
<rect x="60.5867" y="107.154" width="4.41191" height="4.41191" fill="#164E63"/>
<rect x="54.1505" y="113.902" width="4.41191" height="4.4119" fill="#164E63"/>
<rect x="60.5867" y="113.902" width="4.41191" height="4.4119" fill="#164E63"/>
<path fill-rule="evenodd" clip-rule="evenodd" d="M84.8262 127.008C83.0196 127.008 81.5562 128.461 81.5562 130.252V131.575C81.5562 133.382 83.0096 134.845 84.8003 134.845L99.6157 134.923C101.398 134.923 102.857 133.474 102.889 131.691L102.889 130.355C102.889 128.575 101.478 127.129 99.7238 127.086L84.8262 127.008ZM84.8262 128.305L99.6416 128.383C100.717 128.383 101.591 129.263 101.591 130.355V131.679C101.572 132.747 100.687 133.625 99.6191 133.625L84.8037 133.548C83.7282 133.548 82.8538 132.667 82.8538 131.575V130.252C82.8538 129.18 83.7342 128.305 84.8262 128.305Z" fill="#164E63"/>
<path fill-rule="evenodd" clip-rule="evenodd" d="M98.6589 135.935C101.454 135.935 103.72 133.669 103.72 130.874C103.72 128.079 101.454 125.814 98.6589 125.814C95.8639 125.814 93.5981 128.079 93.5981 130.874C93.5981 133.669 95.8639 135.935 98.6589 135.935Z" fill="#008473"/>
<path fill-rule="evenodd" clip-rule="evenodd" d="M122.846 78.3728H92.9493C92.5193 78.3728 92.1707 78.7214 92.1707 79.1514V118.106C92.1707 118.536 92.5193 118.884 92.9493 118.884H122.846C123.276 118.884 123.625 118.536 123.625 118.106V79.1514C123.625 78.7214 123.276 78.3728 122.846 78.3728ZM122.068 79.9299V117.327H93.7279V79.9299H122.068Z" fill="#164E63"/>
<path fill-rule="evenodd" clip-rule="evenodd" d="M107.898 94.7488C103.025 94.7488 99.0741 98.6993 99.0741 103.573C99.0741 108.446 103.025 112.396 107.898 112.396C112.771 112.396 116.722 108.446 116.722 103.573C116.722 98.6993 112.771 94.7488 107.898 94.7488ZM107.898 96.3059C111.911 96.3059 115.165 99.5593 115.165 103.573C115.165 107.586 111.911 110.839 107.898 110.839C103.885 110.839 100.631 107.586 100.631 103.573C100.631 99.5593 103.885 96.3059 107.898 96.3059Z" fill="#164E63"/>
<path fill-rule="evenodd" clip-rule="evenodd" d="M115.969 91.2711C116.399 91.2711 116.748 91.6197 116.748 92.0497C116.748 92.4643 116.424 92.8033 116.015 92.8269L115.969 92.8283H99.8527C99.4227 92.8283 99.0741 92.4797 99.0741 92.0497C99.0741 91.6351 99.3982 91.2961 99.8069 91.2724L99.8527 91.2711H115.969Z" fill="#164E63"/>
<path fill-rule="evenodd" clip-rule="evenodd" d="M115.969 88.9873C116.399 88.9873 116.748 89.3359 116.748 89.7659C116.748 90.1805 116.424 90.5194 116.015 90.5431L115.969 90.5444H99.8527C99.4227 90.5444 99.0741 90.1959 99.0741 89.7659C99.0741 89.3512 99.3982 89.0123 99.8069 88.9886L99.8527 88.9873H115.969Z" fill="#164E63"/>
<path fill-rule="evenodd" clip-rule="evenodd" d="M115.969 86.6256C116.399 86.6256 116.748 86.9742 116.748 87.4042C116.748 87.8188 116.424 88.1577 116.015 88.1814L115.969 88.1828H99.8527C99.4227 88.1828 99.0741 87.8342 99.0741 87.4042C99.0741 86.9895 99.3982 86.6506 99.8069 86.6269L99.8527 86.6256H115.969Z" fill="#164E63"/>
<rect x="110.986" y="65.6561" width="59.8981" height="78.0388" fill="#06D0B6"/>
<path fill-rule="evenodd" clip-rule="evenodd" d="M147.164 72.2999H117.189C116.831 72.2999 116.54 72.5904 116.54 72.9487V96.773C116.54 97.1313 116.831 97.4218 117.189 97.4218H147.164C147.522 97.4218 147.813 97.1313 147.813 96.773V72.9487C147.813 72.5904 147.522 72.2999 147.164 72.2999ZM146.515 73.5973V96.124H117.838V73.5973H146.515Z" fill="#164E63"/>
<path fill-rule="evenodd" clip-rule="evenodd" d="M164.734 100.614H117.189C116.831 100.614 116.54 100.904 116.54 101.263V139.049C116.54 139.408 116.831 139.698 117.189 139.698H164.734C165.092 139.698 165.382 139.408 165.382 139.049V101.263C165.382 100.904 165.092 100.614 164.734 100.614ZM164.085 101.912V138.4H117.838V101.912H164.085Z" fill="#164E63"/>
<path fill-rule="evenodd" clip-rule="evenodd" d="M146.76 72.4408C147.041 72.2179 147.449 72.2645 147.672 72.5451C147.885 72.8134 147.852 73.1985 147.603 73.4266L147.568 73.4567L117.593 97.281C117.312 97.5039 116.904 97.4573 116.681 97.1767C116.468 96.9084 116.501 96.5233 116.75 96.2952L116.785 96.2651L146.76 72.4408Z" fill="#164E63"/>
<path fill-rule="evenodd" clip-rule="evenodd" d="M116.681 72.5451C116.894 72.2767 117.277 72.2224 117.555 72.4133L117.593 72.4408L147.568 96.2651C147.848 96.4881 147.895 96.8962 147.672 97.1767C147.458 97.4451 147.076 97.4994 146.797 97.3085L146.76 97.281L116.785 73.4567C116.505 73.2337 116.458 72.8256 116.681 72.5451Z" fill="#164E63"/>
<path fill-rule="evenodd" clip-rule="evenodd" d="M164.356 100.755C164.637 100.532 165.045 100.579 165.268 100.859C165.481 101.128 165.447 101.513 165.198 101.741L165.163 101.771L117.592 139.558C117.312 139.78 116.904 139.734 116.681 139.453C116.468 139.185 116.501 138.8 116.75 138.572L116.785 138.541L164.356 100.755Z" fill="#164E63"/>
<path fill-rule="evenodd" clip-rule="evenodd" d="M116.681 100.859C116.894 100.591 117.277 100.536 117.555 100.727L117.592 100.755L165.163 138.541C165.444 138.764 165.49 139.172 165.268 139.453C165.054 139.721 164.672 139.776 164.393 139.585L164.356 139.558L116.785 101.771C116.505 101.548 116.458 101.14 116.681 100.859Z" fill="#164E63"/>
<path fill-rule="evenodd" clip-rule="evenodd" d="M164.76 76.3745C165.118 76.3745 165.408 76.665 165.408 77.0233C165.408 77.3673 165.141 77.6488 164.802 77.6708L164.76 77.6721H151.368C151.01 77.6721 150.719 77.3816 150.719 77.0233C150.719 76.6793 150.987 76.3979 151.325 76.3759L151.368 76.3745H164.76Z" fill="#164E63"/>
<path fill-rule="evenodd" clip-rule="evenodd" d="M164.76 79.4369C165.118 79.4369 165.408 79.7274 165.408 80.0857C165.408 80.4297 165.141 80.7112 164.802 80.7331L164.76 80.7345H151.368C151.01 80.7345 150.719 80.444 150.719 80.0857C150.719 79.7417 150.987 79.4602 151.325 79.4383L151.368 79.4369H164.76Z" fill="#164E63"/>
<path fill-rule="evenodd" clip-rule="evenodd" d="M164.76 82.4993C165.118 82.4993 165.408 82.7897 165.408 83.1481C165.408 83.4921 165.141 83.7735 164.802 83.7955L164.76 83.7969H151.368C151.01 83.7969 150.719 83.5064 150.719 83.1481C150.719 82.8041 150.987 82.5226 151.325 82.5006L151.368 82.4993H164.76Z" fill="#164E63"/>
<path fill-rule="evenodd" clip-rule="evenodd" d="M164.76 85.847C165.118 85.847 165.408 86.1375 165.408 86.4959C165.408 86.8398 165.141 87.1213 164.802 87.1433L164.76 87.1447H151.368C151.01 87.1447 150.719 86.8542 150.719 86.4959C150.719 86.1519 150.987 85.8704 151.325 85.8484L151.368 85.847H164.76Z" fill="#164E63"/>
<path fill-rule="evenodd" clip-rule="evenodd" d="M164.734 88.7538H151.368C151.01 88.7538 150.719 89.0443 150.719 89.4026V92.439C150.719 92.7974 151.01 93.0878 151.368 93.0878H164.734C165.092 93.0878 165.382 92.7974 165.382 92.439V89.4026C165.382 89.0443 165.092 88.7538 164.734 88.7538ZM164.085 90.0514V91.7902H152.017V90.0514H164.085Z" fill="#164E63"/>
<path fill-rule="evenodd" clip-rule="evenodd" d="M209.294 60.2581C209.708 60.2581 210.047 60.5822 210.071 60.9909L210.072 61.0366V151.377C210.072 151.807 209.724 152.155 209.294 152.155C208.879 152.155 208.54 151.831 208.517 151.423L208.515 151.377V61.0366C208.515 60.6066 208.864 60.2581 209.294 60.2581Z" fill="#164E63"/>
<path fill-rule="evenodd" clip-rule="evenodd" d="M249.079 128.746H180.98C179.734 128.746 178.748 127.734 178.748 126.514V58.4154C178.748 57.1697 179.76 56.1835 180.98 56.1835H249.079C250.325 56.1835 251.311 57.1956 251.311 58.4154V126.514C251.311 127.734 250.325 128.746 249.079 128.746Z" fill="#164E63"/>
<path fill-rule="evenodd" clip-rule="evenodd" d="M251.311 70.587C251.741 70.587 252.089 70.9356 252.089 71.3656C252.089 71.7802 251.765 72.1192 251.356 72.1429L251.311 72.1442H178.748C178.318 72.1442 177.969 71.7956 177.969 71.3656C177.969 70.951 178.293 70.612 178.702 70.5884L178.748 70.587H251.311Z" fill="#F1F5F9"/>
<path fill-rule="evenodd" clip-rule="evenodd" d="M251.311 84.9906C251.741 84.9906 252.089 85.3392 252.089 85.7692C252.089 86.1838 251.765 86.5227 251.356 86.5464L251.311 86.5477H178.748C178.318 86.5477 177.969 86.1992 177.969 85.7692C177.969 85.3545 178.293 85.0156 178.702 84.9919L178.748 84.9906H251.311Z" fill="#F1F5F9"/>
<path fill-rule="evenodd" clip-rule="evenodd" d="M251.311 99.4202C251.741 99.4202 252.089 99.7687 252.089 100.199C252.089 100.613 251.765 100.952 251.356 100.976L251.311 100.977H178.748C178.318 100.977 177.969 100.629 177.969 100.199C177.969 99.7841 178.293 99.4452 178.702 99.4215L178.748 99.4202H251.311Z" fill="#F1F5F9"/>
<path fill-rule="evenodd" clip-rule="evenodd" d="M251.311 113.824C251.741 113.824 252.089 114.172 252.089 114.602C252.089 115.017 251.765 115.356 251.356 115.38L251.311 115.381H178.748C178.318 115.381 177.969 115.032 177.969 114.602C177.969 114.188 178.293 113.849 178.702 113.825L178.748 113.824H251.311Z" fill="#F1F5F9"/>
<path fill-rule="evenodd" clip-rule="evenodd" d="M201.56 70.587C201.975 70.587 202.314 70.9112 202.337 71.3199L202.339 71.3656V128.746C202.339 129.176 201.99 129.525 201.56 129.525C201.145 129.525 200.806 129.201 200.783 128.792L200.781 128.746V71.3656C200.781 70.9356 201.13 70.587 201.56 70.587Z" fill="#F1F5F9"/>
<path fill-rule="evenodd" clip-rule="evenodd" d="M213.005 70.587C213.42 70.587 213.759 70.9112 213.782 71.3199L213.784 71.3656V128.746C213.784 129.176 213.435 129.525 213.005 129.525C212.59 129.525 212.251 129.201 212.228 128.792L212.226 128.746V71.3656C212.226 70.9356 212.575 70.587 213.005 70.587Z" fill="#F1F5F9"/>
<path fill-rule="evenodd" clip-rule="evenodd" d="M190.245 75.1547C186.247 75.1547 182.926 76.5778 182.926 78.7361C182.926 80.8944 186.247 82.3175 190.245 82.3175C194.243 82.3175 197.563 80.8944 197.563 78.7361C197.563 76.5993 194.309 75.1832 190.365 75.1551L190.245 75.1547ZM190.245 76.7118C193.471 76.7118 196.006 77.7985 196.006 78.7361C196.006 79.6737 193.471 80.7604 190.245 80.7604C187.019 80.7604 184.483 79.6737 184.483 78.7361C184.483 77.8094 186.96 76.7371 190.133 76.7122L190.245 76.7118Z" fill="#F1F5F9"/>
<path fill-rule="evenodd" clip-rule="evenodd" d="M190.297 81.513C190.999 81.513 191.568 80.2698 191.568 78.7361C191.568 77.2025 190.999 75.9592 190.297 75.9592C189.594 75.9592 189.025 77.2025 189.025 78.7361C189.025 80.2698 189.594 81.513 190.297 81.513Z" fill="#F1F5F9"/>
<rect x="205.401" y="74.6356" width="3.89285" height="8.175" fill="#008473"/>
<path fill-rule="evenodd" clip-rule="evenodd" d="M234.027 77.9575C234.457 77.9575 234.805 78.3061 234.805 78.7361C234.805 79.1507 234.481 79.4897 234.072 79.5133L234.027 79.5147H220.012C219.582 79.5147 219.234 79.1661 219.234 78.7361C219.234 78.3215 219.558 77.9825 219.966 77.9588L220.012 77.9575H234.027Z" fill="#F1F5F9"/>
<path fill-rule="evenodd" clip-rule="evenodd" d="M243.006 75.5439C241.243 75.5439 239.814 76.9731 239.814 78.7361C239.814 80.4991 241.243 81.9282 243.006 81.9282C244.769 81.9282 246.198 80.4991 246.198 78.7361C246.198 76.9731 244.769 75.5439 243.006 75.5439ZM243.006 77.1011C243.909 77.1011 244.641 77.8331 244.641 78.7361C244.641 79.6391 243.909 80.3711 243.006 80.3711C242.103 80.3711 241.371 79.6391 241.371 78.7361C241.371 77.8331 242.103 77.1011 243.006 77.1011Z" fill="#F1F5F9"/>
<path fill-rule="evenodd" clip-rule="evenodd" d="M190.245 89.5322C186.247 89.5322 182.926 90.9553 182.926 93.1137C182.926 95.272 186.247 96.6951 190.245 96.6951C194.243 96.6951 197.563 95.272 197.563 93.1137C197.563 90.9769 194.309 89.5608 190.365 89.5327L190.245 89.5322ZM190.245 91.0894C193.471 91.0894 196.006 92.176 196.006 93.1137C196.006 94.0513 193.471 95.1379 190.245 95.1379C187.019 95.1379 184.483 94.0513 184.483 93.1137C184.483 92.1869 186.96 91.1146 190.133 91.0898L190.245 91.0894Z" fill="#F1F5F9"/>
<path fill-rule="evenodd" clip-rule="evenodd" d="M190.297 95.8906C190.999 95.8906 191.568 94.6473 191.568 93.1137C191.568 91.5801 190.999 90.3368 190.297 90.3368C189.594 90.3368 189.025 91.5801 189.025 93.1137C189.025 94.6473 189.594 95.8906 190.297 95.8906Z" fill="#F1F5F9"/>
<rect x="205.401" y="89.0392" width="3.89285" height="8.175" fill="#F1F5F9"/>
<path fill-rule="evenodd" clip-rule="evenodd" d="M234.027 92.3351C234.457 92.3351 234.805 92.6837 234.805 93.1137C234.805 93.5283 234.481 93.8672 234.072 93.8909L234.027 93.8922H220.012C219.582 93.8922 219.234 93.5436 219.234 93.1137C219.234 92.699 219.558 92.3601 219.966 92.3364L220.012 92.3351H234.027Z" fill="#F1F5F9"/>
<path fill-rule="evenodd" clip-rule="evenodd" d="M243.006 89.9215C241.243 89.9215 239.814 91.3507 239.814 93.1137C239.814 94.8766 241.243 96.3058 243.006 96.3058C244.769 96.3058 246.198 94.8766 246.198 93.1137C246.198 91.3507 244.769 89.9215 243.006 89.9215ZM243.006 91.4787C243.909 91.4787 244.641 92.2107 244.641 93.1137C244.641 94.0166 243.909 94.7487 243.006 94.7487C242.103 94.7487 241.371 94.0166 241.371 93.1137C241.371 92.2107 242.103 91.4787 243.006 91.4787Z" fill="#F1F5F9"/>
<path fill-rule="evenodd" clip-rule="evenodd" d="M190.245 103.261C186.247 103.261 182.926 104.684 182.926 106.843C182.926 109.001 186.247 110.424 190.245 110.424C194.243 110.424 197.563 109.001 197.563 106.843C197.563 104.706 194.309 103.29 190.365 103.262L190.245 103.261ZM190.245 104.818C193.471 104.818 196.006 105.905 196.006 106.843C196.006 107.78 193.471 108.867 190.245 108.867C187.019 108.867 184.483 107.78 184.483 106.843C184.483 105.916 186.96 104.844 190.133 104.819L190.245 104.818Z" fill="#F1F5F9"/>
<path fill-rule="evenodd" clip-rule="evenodd" d="M190.297 109.619C190.999 109.619 191.568 108.376 191.568 106.843C191.568 105.309 190.999 104.066 190.297 104.066C189.594 104.066 189.025 105.309 189.025 106.843C189.025 108.376 189.594 109.619 190.297 109.619Z" fill="#F1F5F9"/>
<rect x="205.401" y="102.742" width="3.89285" height="8.175" fill="#06D0B6"/>
<path fill-rule="evenodd" clip-rule="evenodd" d="M234.027 106.064C234.457 106.064 234.805 106.413 234.805 106.843C234.805 107.257 234.481 107.596 234.072 107.62L234.027 107.621H220.012C219.582 107.621 219.234 107.273 219.234 106.843C219.234 106.428 219.558 106.089 219.966 106.065L220.012 106.064H234.027Z" fill="#F1F5F9"/>
<path fill-rule="evenodd" clip-rule="evenodd" d="M243.006 103.65C241.243 103.65 239.814 105.08 239.814 106.843C239.814 108.606 241.243 110.035 243.006 110.035C244.769 110.035 246.198 108.606 246.198 106.843C246.198 105.08 244.769 103.65 243.006 103.65ZM243.006 105.208C243.909 105.208 244.641 105.94 244.641 106.843C244.641 107.746 243.909 108.478 243.006 108.478C242.103 108.478 241.371 107.746 241.371 106.843C241.371 105.94 242.103 105.208 243.006 105.208Z" fill="#F1F5F9"/>
<path fill-rule="evenodd" clip-rule="evenodd" d="M190.245 117.639C186.247 117.639 182.926 119.062 182.926 121.22C182.926 123.357 186.181 124.773 190.125 124.801L190.245 124.802C194.243 124.802 197.563 123.378 197.563 121.22C197.563 119.062 194.243 117.639 190.245 117.639ZM190.245 119.196C193.471 119.196 196.006 120.282 196.006 121.22C196.006 122.147 193.529 123.219 190.357 123.244L190.245 123.244C187.019 123.244 184.483 122.158 184.483 121.22C184.483 120.282 187.019 119.196 190.245 119.196Z" fill="#F1F5F9"/>
<path fill-rule="evenodd" clip-rule="evenodd" d="M190.297 123.997C190.999 123.997 191.568 122.754 191.568 121.22C191.568 119.687 190.999 118.443 190.297 118.443C189.594 118.443 189.025 119.687 189.025 121.22C189.025 122.754 189.594 123.997 190.297 123.997Z" fill="#F1F5F9"/>
<rect x="205.401" y="117.146" width="3.89285" height="8.175" fill="#F1F5F9"/>
<path fill-rule="evenodd" clip-rule="evenodd" d="M234.027 120.442C234.457 120.442 234.805 120.79 234.805 121.22C234.805 121.635 234.481 121.974 234.072 121.997L234.027 121.999H220.012C219.582 121.999 219.234 121.65 219.234 121.22C219.234 120.806 219.558 120.467 219.966 120.443L220.012 120.442H234.027Z" fill="#F1F5F9"/>
<path fill-rule="evenodd" clip-rule="evenodd" d="M243.006 118.028C241.243 118.028 239.814 119.457 239.814 121.22C239.814 122.983 241.243 124.412 243.006 124.412C244.769 124.412 246.198 122.983 246.198 121.22C246.198 119.457 244.769 118.028 243.006 118.028ZM243.006 119.585C243.909 119.585 244.641 120.317 244.641 121.22C244.641 122.123 243.909 122.855 243.006 122.855C242.103 122.855 241.371 122.123 241.371 121.22C241.371 120.317 242.103 119.585 243.006 119.585Z" fill="#F1F5F9"/>
<path fill-rule="evenodd" clip-rule="evenodd" d="M240.731 60.5754C241.032 60.2909 241.499 60.2921 241.797 60.5701L241.832 60.6048L246.088 65.0945C246.384 65.4066 246.371 65.8994 246.059 66.1952C245.759 66.4796 245.292 66.4784 244.993 66.2005L244.958 66.1658L240.702 61.676C240.406 61.364 240.419 60.8712 240.731 60.5754Z" fill="#F1F5F9"/>
<path fill-rule="evenodd" clip-rule="evenodd" d="M244.958 60.6048C245.254 60.2927 245.747 60.2795 246.059 60.5754C246.359 60.8598 246.383 61.3264 246.121 61.6392L246.088 61.676L241.832 66.1658C241.536 66.4779 241.044 66.491 240.731 66.1952C240.431 65.9107 240.408 65.4442 240.669 65.1313L240.702 65.0945L244.958 60.6048Z" fill="#F1F5F9"/>
<path fill-rule="evenodd" clip-rule="evenodd" d="M59.0814 155.893H27.9386C26.6929 155.893 25.7067 154.88 25.7067 153.661V122.518C25.7067 121.272 26.7188 120.286 27.9386 120.286H59.0814C60.3271 120.286 61.3133 121.298 61.3133 122.518V153.661C61.3393 154.88 60.3271 155.893 59.0814 155.893Z" fill="#0E7490"/>
<rect x="40.4217" y="135.702" width="13.4433" height="13.4433" fill="#F1F5F9"/>
<rect x="44.0031" y="139.283" width="6.22857" height="6.22858" fill="#0E7490"/>
<rect x="31.9093" y="127.008" width="13.3395" height="13.3395" fill="#008473"/>
<path fill-rule="evenodd" clip-rule="evenodd" d="M47.6434 127.479C48.3393 127.383 49.1045 127.426 49.839 127.713C51.3935 128.32 52.321 129.846 52.321 132.432C52.321 132.682 52.1176 132.886 51.8667 132.886C51.6158 132.886 51.4124 132.682 51.4124 132.432C51.4124 130.203 50.6952 129.023 49.5084 128.56C48.9731 128.351 48.395 128.307 47.8655 128.367L47.7668 128.379C47.7145 128.386 47.6717 128.393 47.6395 128.399L47.5854 128.41C47.3412 128.468 47.0964 128.317 47.0386 128.072C46.9808 127.828 47.1319 127.583 47.3761 127.526L47.466 127.507C47.5144 127.498 47.5739 127.488 47.6434 127.479Z" fill="#F1F5F9"/>
<path fill-rule="evenodd" clip-rule="evenodd" d="M52.8204 130.913C52.9996 130.738 53.2872 130.741 53.4628 130.92C53.6281 131.088 53.6353 131.353 53.4861 131.53L53.4563 131.562L52.1587 132.834C51.9912 132.998 51.7288 133.006 51.5517 132.86L51.5195 132.831L50.2478 131.559C50.0704 131.382 50.0704 131.094 50.2478 130.917C50.4148 130.75 50.6794 130.74 50.8579 130.887L50.8903 130.917L51.8436 131.87L52.8204 130.913Z" fill="#F1F5F9"/>
<path fill-rule="evenodd" clip-rule="evenodd" d="M48.2754 126.349C48.4529 126.171 48.7405 126.171 48.9179 126.349C49.0849 126.516 49.0947 126.78 48.9474 126.959L48.9179 126.991L47.9837 127.925L48.9275 128.928C49.0894 129.1 49.0912 129.365 48.9385 129.539L48.9081 129.57C48.7361 129.732 48.4713 129.734 48.2974 129.581L48.2659 129.551L47.0201 128.227C46.8618 128.059 46.8562 127.801 47.0009 127.626L47.0297 127.595L48.2754 126.349Z" fill="#F1F5F9"/>
<path fill-rule="evenodd" clip-rule="evenodd" d="M391.22 184.103H378.737C379.178 183.402 379.645 182.597 380.061 181.767C380.554 182.26 381.228 182.805 381.981 183.091C383.668 183.713 384.576 182.987 385.043 181.741C385.511 180.469 383.927 179.302 383.175 178.964C382.76 178.782 382.059 178.886 381.332 179.12C381.384 178.964 381.462 178.808 381.514 178.653C381.721 178.134 381.955 177.485 382.189 176.732C383.564 177.563 385.381 177.381 385.874 176.265C386.523 174.786 385.64 172.787 384.161 172.943C383.824 172.969 383.486 173.073 383.175 173.229C384.343 168.298 384.81 162.77 381.125 164.716C380.035 165.287 379.048 166.429 378.192 167.908C376.972 165.183 374.792 162.251 373.572 163.055C371.366 164.561 372.768 168.843 376.609 171.282C375.675 173.748 375 176.525 374.662 179.068C373.754 178.212 372.794 177.978 372.145 178.523C371.366 179.172 371.574 181.456 373.105 181.04C373.728 180.859 374.195 180.729 374.481 180.625C374.377 181.923 374.377 183.117 374.481 184.129H368.823C368.641 182.857 368.382 181.456 367.993 180.392C367.733 179.665 367.318 178.523 366.799 177.277C368.226 176.992 369.809 175.59 370.121 174.578C370.536 173.125 369.576 172.242 367.915 172.476C367.084 172.606 365.968 173.462 365.32 174.422C364.048 172.372 362.335 170.711 360.129 170.867C358.053 171.127 359.506 175.383 361.505 179.068C360.181 178.601 358.754 178.679 358.001 179.12C356.833 179.821 356.703 182.961 361.089 182.468C362.127 182.338 362.828 182.182 363.243 181.975C363.918 182.961 364.541 183.739 365.034 184.155H354.446C353.018 184.155 351.876 185.322 351.876 186.724V195.496C351.876 197.702 353.667 199.467 355.847 199.467H389.871C392.076 199.467 393.841 197.676 393.841 195.496V186.724C393.815 185.245 392.647 184.103 391.22 184.103Z" fill="#008473"/>
<path fill-rule="evenodd" clip-rule="evenodd" d="M150.122 200.012H58.8479C57.3426 200.012 56.1229 198.792 56.1229 197.287V195.262C56.1229 193.757 57.3426 192.537 58.8479 192.537H150.122C151.628 192.537 152.847 193.757 152.847 195.262V197.287C152.873 198.792 151.628 200.012 150.122 200.012Z" fill="#164E63"/>
<path fill-rule="evenodd" clip-rule="evenodd" d="M47.325 198.714H30.0147C29.0285 198.714 28.224 197.909 28.224 196.923V194.562C28.224 193.575 29.0285 192.771 30.0147 192.771H47.325C48.3111 192.771 49.1157 193.575 49.1157 194.562V196.923C49.1157 197.935 48.3111 198.714 47.325 198.714Z" fill="#164E63"/>
<path fill-rule="evenodd" clip-rule="evenodd" d="M350.111 168.531H347.854V107.284C347.854 106.661 347.335 106.142 346.712 106.142H346.115V97.7592C346.115 96.773 345.31 95.9685 344.324 95.9685H344.039C343.052 95.9685 342.248 96.773 342.248 97.7592V106.142H341.651C341.028 106.142 340.509 106.661 340.509 107.284V168.531H339.108L331.581 198.714H358.883L350.111 168.531Z" fill="#164E63"/>
<rect x="342.248" y="104.559" width="3.84094" height="1.55714" fill="#F1F5F9"/>
<path fill-rule="evenodd" clip-rule="evenodd" d="M346.193 175.539C349.93 175.539 350.215 171.153 350.241 168.999L350.111 168.531H348.684C348.684 172.346 347.931 173.981 346.193 173.981C344.999 173.981 343.649 173.359 343.649 168.531H342.092C342.092 170.27 342.092 175.539 346.193 175.539Z" fill="#F1F5F9"/>
<rect x="340.509" y="166.948" width="7.34454" height="1.55714" fill="#F1F5F9"/>
<path fill-rule="evenodd" clip-rule="evenodd" d="M341.885 192.382L324.73 142.371C324.003 140.269 322.031 138.868 319.799 138.868H192.554C188.973 138.868 186.482 142.397 187.624 145.771L194.812 166.741L179.838 200.012L191.542 200.038L199.899 181.559L204.778 195.781C205.505 197.884 207.477 199.285 209.709 199.285H336.928C340.509 199.285 343.026 195.755 341.885 192.382Z" fill="#0E7490"/>
<path fill-rule="evenodd" clip-rule="evenodd" d="M334.722 188.333L320.344 146.446C319.747 144.681 318.086 143.513 316.218 143.513H229.926C226.941 143.513 224.839 146.472 225.799 149.301L240.177 191.188C240.774 192.953 242.435 194.12 244.304 194.12H330.595C333.606 194.094 335.708 191.162 334.722 188.333Z" fill="#F1F5F9"/>
<path fill-rule="evenodd" clip-rule="evenodd" d="M314.847 143.534C315.039 143.469 315.246 143.562 315.327 143.743L315.341 143.778L332.106 193.451C332.175 193.655 332.065 193.876 331.862 193.944C331.67 194.009 331.463 193.916 331.382 193.735L331.368 193.7L314.603 144.027C314.534 143.823 314.644 143.602 314.847 143.534Z" fill="#164E63"/>
<path fill-rule="evenodd" clip-rule="evenodd" d="M316.218 147.198C316.433 147.198 316.607 147.373 316.607 147.588C316.607 147.79 316.452 147.956 316.255 147.975L316.218 147.977H225.67C225.455 147.977 225.28 147.803 225.28 147.588C225.28 147.385 225.435 147.219 225.632 147.2L225.67 147.198H316.218Z" fill="#164E63"/>
<path fill-rule="evenodd" clip-rule="evenodd" d="M232.234 147.222C232.424 147.153 232.633 147.242 232.717 147.422L232.732 147.456L241.218 171.073C241.306 171.316 241.137 171.572 240.885 171.592L240.852 171.594H233.222C233.007 171.594 232.833 171.42 232.833 171.205C232.833 171.002 232.987 170.836 233.184 170.817L233.222 170.815H240.298L231.999 147.72C231.931 147.529 232.02 147.32 232.199 147.236L232.234 147.222Z" fill="#164E63"/>
<path fill-rule="evenodd" clip-rule="evenodd" d="M238.283 164.509C238.498 164.509 238.672 164.683 238.672 164.898C238.672 165.1 238.517 165.267 238.32 165.286L238.283 165.287H231.12C230.905 165.287 230.73 165.113 230.73 164.898C230.73 164.696 230.885 164.529 231.082 164.511L231.12 164.509H238.283Z" fill="#164E63"/>
<path fill-rule="evenodd" clip-rule="evenodd" d="M236.362 158.851C236.577 158.851 236.751 159.025 236.751 159.24C236.751 159.443 236.597 159.609 236.4 159.628L236.362 159.63H229.277C229.062 159.63 228.888 159.455 228.888 159.24C228.888 159.038 229.042 158.872 229.24 158.853L229.277 158.851H236.362Z" fill="#164E63"/>
<path fill-rule="evenodd" clip-rule="evenodd" d="M234.416 153.194C234.631 153.194 234.805 153.368 234.805 153.583C234.805 153.785 234.651 153.952 234.453 153.97L234.416 153.972H227.331C227.116 153.972 226.941 153.798 226.941 153.583C226.941 153.381 227.096 153.214 227.293 153.195L227.331 153.194H234.416Z" fill="#164E63"/>
<path fill-rule="evenodd" clip-rule="evenodd" d="M271.138 157.657C271.353 157.657 271.528 157.832 271.528 158.047C271.528 158.249 271.373 158.415 271.176 158.434L271.138 158.436H257.877C257.662 158.436 257.487 158.262 257.487 158.047C257.487 157.844 257.642 157.678 257.839 157.659L257.877 157.657H271.138Z" fill="#164E63"/>
<path fill-rule="evenodd" clip-rule="evenodd" d="M271.631 159.059C271.846 159.059 272.021 159.233 272.021 159.448C272.021 159.65 271.866 159.817 271.669 159.836L271.631 159.837H258.37C258.155 159.837 257.98 159.663 257.98 159.448C257.98 159.246 258.135 159.079 258.332 159.061L258.37 159.059H271.631Z" fill="#164E63"/>
<path fill-rule="evenodd" clip-rule="evenodd" d="M272.124 160.486C272.339 160.486 272.514 160.66 272.514 160.875C272.514 161.078 272.359 161.244 272.162 161.263L272.124 161.265H258.863C258.648 161.265 258.474 161.09 258.474 160.875C258.474 160.673 258.628 160.507 258.825 160.488L258.863 160.486H272.124Z" fill="#164E63"/>
<path fill-rule="evenodd" clip-rule="evenodd" d="M272.618 161.914C272.833 161.914 273.007 162.088 273.007 162.303C273.007 162.505 272.852 162.672 272.655 162.69L272.618 162.692H259.356C259.141 162.692 258.967 162.518 258.967 162.303C258.967 162.101 259.121 161.934 259.318 161.915L259.356 161.914H272.618Z" fill="#164E63"/>
<path fill-rule="evenodd" clip-rule="evenodd" d="M263.887 165.98C262.362 168.161 263.365 171.442 266.063 173.329C268.762 175.216 272.188 175.032 273.713 172.851C275.238 170.67 274.235 167.389 271.537 165.502C268.838 163.615 265.412 163.799 263.887 165.98ZM264.525 166.426C265.777 164.637 268.715 164.479 271.091 166.14C273.466 167.802 274.326 170.616 273.075 172.405C271.824 174.194 268.885 174.352 266.51 172.691C264.134 171.029 263.274 168.215 264.525 166.426Z" fill="#164E63"/>
<path fill-rule="evenodd" clip-rule="evenodd" d="M274.824 154.751H253.88C253.614 154.751 253.426 155.012 253.511 155.265L261.453 178.752C261.506 178.91 261.654 179.016 261.821 179.016H282.739C283.005 179.016 283.193 178.755 283.108 178.503L275.192 155.016C275.139 154.857 274.991 154.751 274.824 154.751ZM274.544 155.529L282.197 178.237H262.1L254.422 155.529H274.544Z" fill="#164E63"/>
<path fill-rule="evenodd" clip-rule="evenodd" d="M316.555 191.577H280.118L265.584 149.846H302.022L316.555 191.577Z" fill="#06D0B6"/>
<path fill-rule="evenodd" clip-rule="evenodd" d="M290.655 152.908H270.256C269.988 152.908 269.8 153.172 269.888 153.425L274.482 166.635C274.536 166.791 274.684 166.896 274.85 166.896H295.248C295.516 166.896 295.704 166.632 295.616 166.379L291.022 153.169C290.968 153.013 290.82 152.908 290.655 152.908ZM290.378 153.687L294.7 166.117H275.126L270.803 153.687H290.378Z" fill="#164E63"/>
<path fill-rule="evenodd" clip-rule="evenodd" d="M290.405 152.999C290.57 152.861 290.815 152.883 290.953 153.048C291.082 153.202 291.071 153.428 290.933 153.569L290.904 153.596L275.099 166.806C274.934 166.944 274.689 166.922 274.551 166.757C274.422 166.602 274.433 166.377 274.571 166.235L274.6 166.208L290.405 152.999Z" fill="#164E63"/>
<path fill-rule="evenodd" clip-rule="evenodd" d="M269.912 153.115C270.006 152.937 270.221 152.862 270.404 152.937L270.438 152.953L295.43 166.163C295.62 166.263 295.693 166.499 295.592 166.689C295.498 166.868 295.283 166.943 295.1 166.867L295.066 166.851L270.074 153.641C269.884 153.541 269.811 153.305 269.912 153.115Z" fill="#164E63"/>
<path fill-rule="evenodd" clip-rule="evenodd" d="M305.162 168.973H275.836C275.568 168.973 275.38 169.237 275.468 169.49L282.06 188.461C282.114 188.617 282.262 188.722 282.428 188.722H311.754C312.022 188.722 312.209 188.458 312.121 188.205L305.53 169.234C305.475 169.078 305.328 168.973 305.162 168.973ZM304.885 169.751L311.206 187.944H282.704L276.383 169.751H304.885Z" fill="#164E63"/>
<path fill-rule="evenodd" clip-rule="evenodd" d="M304.912 169.063C305.077 168.925 305.323 168.947 305.461 169.113C305.59 169.267 305.578 169.493 305.44 169.634L305.411 169.661L282.677 188.632C282.512 188.77 282.266 188.748 282.129 188.583C281.999 188.428 282.011 188.202 282.149 188.061L282.178 188.034L304.912 169.063Z" fill="#164E63"/>
<path fill-rule="evenodd" clip-rule="evenodd" d="M275.491 169.18C275.586 169.001 275.8 168.926 275.983 169.002L276.017 169.018L311.936 187.989C312.126 188.089 312.198 188.325 312.098 188.515C312.003 188.694 311.789 188.769 311.606 188.693L311.572 188.677L275.654 169.706C275.464 169.606 275.391 169.37 275.491 169.18Z" fill="#164E63"/>
<path fill-rule="evenodd" clip-rule="evenodd" d="M300.231 154.829C300.446 154.829 300.62 155.003 300.62 155.218C300.62 155.42 300.466 155.587 300.268 155.605L300.231 155.607H292.99C292.775 155.607 292.601 155.433 292.601 155.218C292.601 155.016 292.755 154.849 292.953 154.83L292.99 154.829H300.231Z" fill="#164E63"/>
<path fill-rule="evenodd" clip-rule="evenodd" d="M300.802 156.438C301.017 156.438 301.191 156.612 301.191 156.827C301.191 157.029 301.037 157.196 300.839 157.214L300.802 157.216H293.561C293.346 157.216 293.172 157.042 293.172 156.827C293.172 156.625 293.326 156.458 293.524 156.439L293.561 156.438H300.802Z" fill="#164E63"/>
<path fill-rule="evenodd" clip-rule="evenodd" d="M301.347 158.047C301.562 158.047 301.736 158.221 301.736 158.436C301.736 158.638 301.582 158.805 301.384 158.823L301.347 158.825H294.106C293.891 158.825 293.717 158.651 293.717 158.436C293.717 158.234 293.871 158.067 294.069 158.048L294.106 158.047H301.347Z" fill="#164E63"/>
<path fill-rule="evenodd" clip-rule="evenodd" d="M301.918 159.656C302.133 159.656 302.307 159.83 302.307 160.045C302.307 160.247 302.153 160.414 301.955 160.433L301.918 160.434H294.677C294.462 160.434 294.288 160.26 294.288 160.045C294.288 159.843 294.442 159.676 294.64 159.658L294.677 159.656H301.918Z" fill="#164E63"/>
<path fill-rule="evenodd" clip-rule="evenodd" d="M302.411 161.083H295.17C294.903 161.083 294.716 161.345 294.802 161.598L295.217 162.818C295.271 162.975 295.419 163.081 295.585 163.081H302.826C303.093 163.081 303.281 162.819 303.195 162.567L302.779 161.347C302.726 161.189 302.577 161.083 302.411 161.083ZM302.132 161.862L302.282 162.303H295.864L295.714 161.862H302.132Z" fill="#164E63"/>
<path fill-rule="evenodd" clip-rule="evenodd" d="M324.678 180.677L320.37 166.974C320.11 166.092 319.306 165.521 318.398 165.521L290.084 165.599C288.604 165.599 288.059 166.974 288.5 168.376L292.809 182.078C293.068 182.961 293.873 183.532 294.781 183.532H322.524C324.003 183.532 325.119 182.078 324.678 180.677Z" fill="#F1F5F9"/>
<path fill-rule="evenodd" clip-rule="evenodd" d="M318.398 165.132L290.084 165.209C288.386 165.209 287.586 166.769 288.129 168.493L292.437 182.195C292.741 183.228 293.691 183.921 294.781 183.921H322.524C324.27 183.921 325.569 182.21 325.049 180.56L320.741 166.857C320.438 165.824 319.487 165.132 318.398 165.132ZM290.085 165.988L318.399 165.91C319.123 165.91 319.75 166.351 319.976 167.021L324.307 180.794C324.666 181.935 323.75 183.143 322.524 183.143H294.781C294.055 183.143 293.428 182.702 293.202 182.032L288.872 168.259C288.471 166.986 288.983 165.988 290.085 165.988Z" fill="#164E63"/>
<path fill-rule="evenodd" clip-rule="evenodd" d="M320.915 169.154C321.13 169.154 321.304 169.328 321.304 169.543C321.304 169.746 321.15 169.912 320.952 169.931L320.915 169.933H288.864C288.649 169.933 288.474 169.758 288.474 169.543C288.474 169.341 288.629 169.175 288.826 169.156L288.864 169.154H320.915Z" fill="#164E63"/>
<path fill-rule="evenodd" clip-rule="evenodd" d="M294.106 170.841L294.063 170.842C293.608 170.87 293.26 171.329 293.43 171.782L294.069 173.777L294.062 173.746C294.126 174.066 294.418 174.267 294.729 174.267H298.829L298.872 174.265C299.328 174.238 299.675 173.779 299.505 173.326L298.866 171.329L298.874 171.362C298.81 171.042 298.518 170.841 298.207 170.841H294.106ZM298.142 171.62L298.741 173.488H294.794L294.195 171.62H298.142Z" fill="#164E63"/>
<path fill-rule="evenodd" clip-rule="evenodd" d="M295.404 174.5L295.361 174.502C294.906 174.529 294.558 174.988 294.728 175.442L295.367 177.437L295.359 177.406C295.423 177.726 295.715 177.926 296.027 177.926H300.127L300.172 177.925C300.646 177.897 300.974 177.44 300.803 176.985L300.164 174.989L300.171 175.021C300.107 174.701 299.816 174.5 299.504 174.5H295.404ZM299.439 175.279L300.038 177.147H296.092L295.493 175.279H299.439Z" fill="#164E63"/>
<path fill-rule="evenodd" clip-rule="evenodd" d="M296.494 178.212L296.451 178.213C295.995 178.24 295.648 178.7 295.818 179.153L296.457 181.149L296.449 181.117C296.513 181.437 296.805 181.637 297.117 181.637H301.217L301.262 181.636C301.736 181.609 302.064 181.151 301.893 180.696L301.254 178.7L301.261 178.732C301.197 178.412 300.906 178.212 300.594 178.212H296.494ZM300.529 178.99L301.128 180.858H297.181L296.583 178.99H300.529Z" fill="#164E63"/>
<path fill-rule="evenodd" clip-rule="evenodd" d="M307.082 170.841L307.039 170.842C306.584 170.87 306.236 171.329 306.406 171.782L307.045 173.778L307.038 173.746C307.102 174.066 307.394 174.267 307.705 174.267H311.806L311.85 174.265C312.292 174.238 312.604 173.803 312.495 173.368L311.842 171.33L311.85 171.362C311.786 171.042 311.494 170.841 311.183 170.841H307.082ZM311.118 171.62L311.717 173.488H307.77L307.171 171.62H311.118Z" fill="#164E63"/>
<path fill-rule="evenodd" clip-rule="evenodd" d="M308.38 174.5L308.337 174.502C307.882 174.529 307.534 174.988 307.704 175.442L308.343 177.437L308.336 177.406C308.4 177.726 308.691 177.926 309.003 177.926H313.103L313.148 177.925C313.589 177.897 313.901 177.462 313.792 177.027L313.14 174.989L313.148 175.021C313.084 174.701 312.792 174.5 312.48 174.5H308.38ZM312.415 175.279L313.014 177.147H309.068L308.469 175.279H312.415Z" fill="#164E63"/>
<path fill-rule="evenodd" clip-rule="evenodd" d="M309.47 178.212L309.427 178.213C308.972 178.24 308.624 178.7 308.794 179.153L309.433 181.149L309.426 181.117C309.49 181.437 309.781 181.637 310.093 181.637H314.193L314.238 181.636C314.679 181.608 314.991 181.174 314.882 180.738L314.23 178.7L314.238 178.732C314.174 178.412 313.882 178.212 313.571 178.212H309.47ZM313.505 178.99L314.104 180.858H310.158L309.559 178.99H313.505Z" fill="#164E63"/>
<path fill-rule="evenodd" clip-rule="evenodd" d="M304.331 171.983C304.546 171.983 304.721 172.157 304.721 172.372C304.721 172.575 304.566 172.741 304.369 172.76L304.331 172.762H300.698C300.483 172.762 300.309 172.587 300.309 172.372C300.309 172.17 300.463 172.004 300.661 171.985L300.698 171.983H304.331Z" fill="#164E63"/>
<path fill-rule="evenodd" clip-rule="evenodd" d="M305.473 175.616C305.688 175.616 305.863 175.791 305.863 176.006C305.863 176.208 305.708 176.374 305.511 176.393L305.473 176.395H301.84C301.625 176.395 301.451 176.221 301.451 176.006C301.451 175.803 301.605 175.637 301.802 175.618L301.84 175.616H305.473Z" fill="#164E63"/>
<path fill-rule="evenodd" clip-rule="evenodd" d="M306.771 179.535C306.986 179.535 307.16 179.709 307.16 179.924C307.16 180.127 307.006 180.293 306.808 180.312L306.771 180.314H303.138C302.923 180.314 302.748 180.139 302.748 179.924C302.748 179.722 302.903 179.556 303.1 179.537L303.138 179.535H306.771Z" fill="#164E63"/>
<path fill-rule="evenodd" clip-rule="evenodd" d="M317.178 171.983C317.393 171.983 317.567 172.157 317.567 172.372C317.567 172.575 317.413 172.741 317.215 172.76L317.178 172.762H313.415C313.2 172.762 313.025 172.587 313.025 172.372C313.025 172.17 313.18 172.004 313.377 171.985L313.415 171.983H317.178Z" fill="#164E63"/>
<path fill-rule="evenodd" clip-rule="evenodd" d="M318.917 175.616C319.132 175.616 319.306 175.791 319.306 176.006C319.306 176.208 319.152 176.374 318.954 176.393L318.917 176.395H315.154C314.939 176.395 314.764 176.221 314.764 176.006C314.764 175.803 314.919 175.637 315.116 175.618L315.154 175.616H318.917Z" fill="#164E63"/>
<path fill-rule="evenodd" clip-rule="evenodd" d="M320.422 179.535C320.637 179.535 320.811 179.709 320.811 179.924C320.811 180.127 320.657 180.293 320.459 180.312L320.422 180.314H316.659C316.444 180.314 316.27 180.139 316.27 179.924C316.27 179.722 316.424 179.556 316.621 179.537L316.659 179.535H320.422Z" fill="#164E63"/>
<path fill-rule="evenodd" clip-rule="evenodd" d="M269.581 184.388L261.434 184.336C260.147 184.336 259.515 185.446 260.065 186.675L260.175 186.898C260.677 188.02 261.962 188.93 263.119 188.93L271.265 188.982C272.58 188.982 273.215 187.867 272.632 186.635L272.524 186.42C272.023 185.299 270.738 184.388 269.581 184.388ZM261.383 185.116L261.432 185.115L269.579 185.167C270.418 185.167 271.433 185.886 271.821 186.753L271.932 186.976C272.275 187.701 271.989 188.203 271.268 188.203L263.121 188.151C262.282 188.151 261.267 187.432 260.879 186.565L260.768 186.342C260.454 185.64 260.723 185.139 261.383 185.116Z" fill="#164E63"/>
<path fill-rule="evenodd" clip-rule="evenodd" d="M272.986 188.907C273.811 187.878 273.194 186.012 271.606 184.738C270.019 183.464 268.063 183.265 267.238 184.294C266.412 185.322 267.03 187.188 268.618 188.462C270.205 189.736 272.161 189.935 272.986 188.907Z" fill="#008473"/>
<path fill-rule="evenodd" clip-rule="evenodd" d="M212.351 166.357C210.356 168.823 211.486 172.968 214.79 175.64C218.093 178.312 222.382 178.551 224.377 176.085C226.372 173.619 225.242 169.474 221.938 166.802C218.635 164.13 214.346 163.892 212.351 166.357ZM212.956 166.847C214.639 164.766 218.445 164.978 221.449 167.408C224.453 169.837 225.455 173.514 223.772 175.595C222.089 177.676 218.283 177.465 215.279 175.035C212.275 172.605 211.273 168.928 212.956 166.847Z" fill="#F1F5F9"/>
<path fill-rule="evenodd" clip-rule="evenodd" d="M214.49 168.087C213.189 169.696 213.924 172.37 216.046 174.086C218.169 175.803 220.937 175.963 222.238 174.355C223.539 172.747 222.804 170.072 220.682 168.356C218.559 166.639 215.791 166.479 214.49 168.087ZM215.095 168.577C216.084 167.355 218.369 167.487 220.192 168.961C222.015 170.436 222.622 172.643 221.633 173.865C220.644 175.088 218.359 174.956 216.536 173.481C214.713 172.007 214.106 169.8 215.095 168.577Z" fill="#F1F5F9"/>
<path fill-rule="evenodd" clip-rule="evenodd" d="M215.98 158.851L212.658 158.929C211.274 158.961 210.526 160.136 211.003 161.473L211.035 161.554C211.541 162.778 212.86 163.707 214.104 163.678L217.426 163.6C218.783 163.568 219.529 162.398 219.084 161.064L219.047 160.97C218.543 159.752 217.224 158.822 215.98 158.851ZM218.328 161.268L218.353 161.331C218.63 162.164 218.223 162.803 217.408 162.822L214.086 162.9C213.176 162.921 212.142 162.193 211.757 161.262L211.732 161.199C211.433 160.361 211.837 159.727 212.677 159.707L215.999 159.63C216.909 159.608 217.943 160.337 218.328 161.268Z" fill="#F1F5F9"/>
<path fill-rule="evenodd" clip-rule="evenodd" d="M214.008 153.427L210.686 153.505C209.302 153.537 208.553 154.712 209.031 156.049L209.063 156.13C209.569 157.353 210.888 158.283 212.132 158.254L215.454 158.176C216.838 158.144 217.586 156.969 217.109 155.632L217.075 155.546C216.571 154.328 215.252 153.398 214.008 153.427ZM216.355 155.844L216.38 155.907C216.679 156.744 216.275 157.378 215.435 157.398L212.113 157.476C211.203 157.497 210.169 156.768 209.784 155.838L209.759 155.775C209.461 154.937 209.865 154.303 210.704 154.283L214.026 154.206C214.937 154.184 215.97 154.913 216.355 155.844Z" fill="#F1F5F9"/>
<path fill-rule="evenodd" clip-rule="evenodd" d="M225.038 184.181L221.716 184.259C220.332 184.291 219.583 185.465 220.061 186.803L220.093 186.884C220.599 188.107 221.918 189.037 223.161 189.008L226.483 188.93C227.868 188.898 228.616 187.723 228.139 186.385L228.105 186.3C227.601 185.081 226.282 184.152 225.038 184.181ZM227.385 186.597L227.41 186.66C227.709 187.498 227.305 188.132 226.465 188.151L223.143 188.229C222.233 188.25 221.199 187.522 220.814 186.591L220.789 186.528C220.49 185.691 220.894 185.056 221.734 185.037L225.056 184.959C225.966 184.938 227 185.666 227.385 186.597Z" fill="#F1F5F9"/>
<path fill-rule="evenodd" clip-rule="evenodd" d="M223.091 178.757L219.769 178.835C218.385 178.867 217.637 180.041 218.114 181.379L218.146 181.46C218.652 182.683 219.971 183.613 221.215 183.584L224.537 183.506C225.921 183.474 226.67 182.299 226.192 180.961L226.158 180.876C225.654 179.657 224.335 178.728 223.091 178.757ZM225.439 181.173L225.464 181.236C225.763 182.074 225.358 182.708 224.519 182.727L221.197 182.805C220.287 182.826 219.253 182.098 218.868 181.167L218.843 181.104C218.544 180.267 218.948 179.633 219.788 179.613L223.11 179.535C224.02 179.514 225.054 180.242 225.439 181.173Z" fill="#F1F5F9"/>
<path fill-rule="evenodd" clip-rule="evenodd" d="M318.709 140.866H222.893C219.883 140.866 217.809 144.379 218.755 147.745L234.749 193.988C235.331 196.072 236.981 197.494 238.879 197.494H335.059L335.15 197.493C338.132 197.424 340.161 193.953 339.223 190.615L322.843 144.382L322.847 144.394C322.257 142.289 320.607 140.866 318.709 140.866ZM222.893 141.645H318.709C320.237 141.645 321.597 142.817 322.097 144.604L322.105 144.629L338.481 190.851C339.292 193.738 337.526 196.716 335.059 196.716H238.88C237.352 196.716 235.992 195.543 235.491 193.756L219.498 147.512C218.687 144.627 220.448 141.645 222.893 141.645Z" fill="#F1F5F9"/>
<path fill-rule="evenodd" clip-rule="evenodd" d="M199.432 182.623L199.899 181.585L194.838 166.715L194.371 167.753L199.432 182.623Z" fill="#F1F5F9"/>
<path fill-rule="evenodd" clip-rule="evenodd" d="M216.327 199.285H217.131L196.395 138.842H195.591L216.327 199.285Z" fill="#F1F5F9"/>
<path fill-rule="evenodd" clip-rule="evenodd" d="M436.948 198.584C437.378 198.584 437.727 198.933 437.727 199.363C437.727 199.777 437.403 200.116 436.994 200.14L436.948 200.141H1.05189C0.621894 200.141 0.273315 199.793 0.273315 199.363C0.273315 198.948 0.59744 198.609 1.00614 198.586L1.05189 198.584H436.948Z" fill="#164E63"/>
</svg>
