<svg width="438" height="201" viewBox="0 0 438 201" fill="none" xmlns="http://www.w3.org/2000/svg">
<path fill-rule="evenodd" clip-rule="evenodd" d="M404.517 145.349L396.766 139.229V129.107C396.766 127.832 395.746 126.812 394.471 126.812C393.196 126.812 392.176 127.832 392.176 129.107V135.609L340.545 94.8901C340.111 94.5586 339.576 94.3801 339.066 94.4056C338.683 94.2782 338.275 94.2017 337.842 94.2017H284.298C282.258 94.2017 280.626 95.859 280.626 97.8732V98.6382C280.626 100.678 282.284 102.31 284.298 102.31H337.842C339.015 102.31 340.06 101.749 340.723 100.907L392.176 141.473V193.411H348.678V199.607H392.814C393.222 200.04 393.808 200.295 394.445 200.295C395.083 200.295 395.669 200.04 396.077 199.607H400.029V193.411H396.74V145.094L401.661 148.969C402.095 149.301 402.579 149.454 403.089 149.454C403.777 149.454 404.44 149.148 404.899 148.587C405.664 147.593 405.511 146.139 404.517 145.349Z" fill="#008473"/>
<rect x="280.371" y="139.943" width="87.302" height="59.0767" fill="#F1F5F9"/>
<path fill-rule="evenodd" clip-rule="evenodd" d="M367.673 139.178H280.371C279.949 139.178 279.607 139.521 279.607 139.943V199.02C279.607 199.443 279.949 199.785 280.371 199.785H367.673C368.096 199.785 368.438 199.443 368.438 199.02V139.943C368.438 139.521 368.096 139.178 367.673 139.178ZM366.909 140.708V198.255H281.136V140.708H366.909Z" fill="#164E63"/>
<path fill-rule="evenodd" clip-rule="evenodd" d="M330.116 139.382V199.351H328.586V139.382H330.116Z" fill="#164E63"/>
<path fill-rule="evenodd" clip-rule="evenodd" d="M357.118 145.731C357.54 145.731 357.883 146.074 357.883 146.496C357.883 146.903 357.564 147.236 357.163 147.26L357.118 147.261H317.597C317.175 147.261 316.832 146.919 316.832 146.496C316.832 146.089 317.151 145.756 317.552 145.732L317.597 145.731H357.118Z" fill="#164E63"/>
<path fill-rule="evenodd" clip-rule="evenodd" d="M366.883 166.945C367.305 166.945 367.648 167.287 367.648 167.71C367.648 168.117 367.33 168.45 366.928 168.473L366.883 168.475H341.513C341.091 168.475 340.749 168.132 340.749 167.71C340.749 167.302 341.067 166.969 341.469 166.946L341.513 166.945H366.883Z" fill="#164E63"/>
<path fill-rule="evenodd" clip-rule="evenodd" d="M363.135 184.181C363.557 184.181 363.9 184.523 363.9 184.946C363.9 185.353 363.581 185.686 363.18 185.709L363.135 185.711H313.645C313.223 185.711 312.88 185.368 312.88 184.946C312.88 184.538 313.199 184.205 313.6 184.182L313.645 184.181H363.135Z" fill="#164E63"/>
<path fill-rule="evenodd" clip-rule="evenodd" d="M320.58 161.641C321.003 161.641 321.345 161.984 321.345 162.406C321.345 162.814 321.027 163.147 320.625 163.17L320.58 163.171H295.007C294.584 163.171 294.242 162.829 294.242 162.406C294.242 161.999 294.56 161.666 294.962 161.643L295.007 161.641H320.58Z" fill="#164E63"/>
<path fill-rule="evenodd" clip-rule="evenodd" d="M310.688 176.073C311.11 176.073 311.452 176.415 311.452 176.838C311.452 177.245 311.134 177.578 310.732 177.601L310.688 177.603H280.371C279.949 177.603 279.607 177.26 279.607 176.838C279.607 176.43 279.925 176.097 280.327 176.074L280.371 176.073H310.688Z" fill="#164E63"/>
<path fill-rule="evenodd" clip-rule="evenodd" d="M367.929 167.608C374.456 170.081 367.725 174.186 367.725 174.186C367.725 174.186 366.042 169.52 357.449 167.633C358.571 167.633 367.929 167.608 367.929 167.608Z" fill="#F1F5F9"/>
<path fill-rule="evenodd" clip-rule="evenodd" d="M367.926 166.843L357.449 166.868C356.534 166.868 356.391 168.184 357.285 168.38C360.096 168.998 362.315 169.952 364.015 171.147C365.085 171.898 365.881 172.696 366.446 173.485C366.638 173.755 366.788 174.002 366.9 174.22L366.95 174.321C366.957 174.337 366.964 174.352 366.971 174.366L367.005 174.445C367.169 174.901 367.71 175.091 368.123 174.839L368.229 174.772C368.337 174.703 368.479 174.606 368.647 174.486C369.03 174.211 369.413 173.904 369.773 173.568C371.05 172.377 371.756 171.131 371.49 169.829C371.239 168.607 370.145 167.629 368.199 166.892C368.112 166.859 368.02 166.843 367.926 166.843ZM367.786 168.373L367.858 168.401C369.224 168.95 369.871 169.549 369.991 170.136C370.12 170.764 369.652 171.588 368.729 172.449L368.596 172.571C368.416 172.732 368.229 172.886 368.04 173.031L368 173.061L367.978 173.025C367.891 172.886 367.796 172.743 367.69 172.596C367.027 171.667 366.108 170.747 364.895 169.895L364.76 169.801C364.038 169.306 363.238 168.851 362.356 168.443L362.235 168.387L367.786 168.373Z" fill="#164E63"/>
<path fill-rule="evenodd" clip-rule="evenodd" d="M242.585 44.1255H62.7029C60.6122 44.1255 58.9294 45.8338 58.9294 47.8991V154.783C58.9294 156.874 60.6377 158.556 62.7029 158.556H133.355L122.978 198.128L188.582 200.219L177.924 158.582H242.61C244.701 158.582 246.384 156.874 246.384 154.808V47.9246C246.384 45.8338 244.676 44.1255 242.585 44.1255Z" fill="#06D0B6"/>
<path fill-rule="evenodd" clip-rule="evenodd" d="M154.569 183.926C158.906 183.926 162.422 180.41 162.422 176.073C162.422 171.736 158.906 168.22 154.569 168.22C150.232 168.22 146.716 171.736 146.716 176.073C146.716 180.41 150.232 183.926 154.569 183.926Z" fill="#F1F5F9"/>
<path fill-rule="evenodd" clip-rule="evenodd" d="M171.71 157.762C172.216 157.643 172.723 157.943 172.866 158.437L172.879 158.487L182.415 199.027C182.538 199.55 182.214 200.074 181.691 200.197C181.185 200.316 180.678 200.016 180.534 199.522L180.521 199.473L170.985 158.932C170.862 158.409 171.187 157.885 171.71 157.762Z" fill="#164E63"/>
<path fill-rule="evenodd" clip-rule="evenodd" d="M226.751 148.867H71.4739C69.5107 148.867 67.9044 147.261 67.9044 145.298V54.8853C67.9044 52.922 69.5107 51.3157 71.4739 51.3157H226.751C228.714 51.3157 230.321 52.922 230.321 54.8853V145.298C230.321 147.261 228.714 148.867 226.751 148.867Z" fill="#F1F5F9"/>
<path fill-rule="evenodd" clip-rule="evenodd" d="M238.505 44.2786C238.913 44.2786 239.246 44.597 239.269 44.9985L239.27 45.0435V157.562C239.27 157.985 238.928 158.327 238.505 158.327C238.098 158.327 237.765 158.009 237.742 157.607L237.74 157.562V45.0435C237.74 44.621 238.083 44.2786 238.505 44.2786Z" fill="#164E63"/>
<path fill-rule="evenodd" clip-rule="evenodd" d="M164.003 66.155C164.41 66.155 164.743 66.4735 164.766 66.875L164.768 66.9199V138.847C164.768 139.27 164.425 139.612 164.003 139.612C163.595 139.612 163.262 139.294 163.239 138.892L163.238 138.847V66.9199C163.238 66.4975 163.58 66.155 164.003 66.155Z" fill="#0E7490"/>
<path fill-rule="evenodd" clip-rule="evenodd" d="M174.429 76.1116C178.507 76.1013 183.62 76.121 189.897 76.1669L196.462 76.2205L221.803 76.4597C223.896 76.4766 224.543 76.4775 224.594 76.4701L224.597 76.4696C224.998 76.336 225.431 76.5526 225.565 76.9533C225.698 77.3541 225.482 77.7873 225.081 77.9209L225.045 77.9305C224.805 77.9845 223.98 77.9976 221.606 77.9846L214.154 77.9227L197.643 77.761L190.469 77.701C183.735 77.6506 178.316 77.6295 174.061 77.6424L172.306 77.6501C169.908 77.6641 168.01 77.6915 166.64 77.7331L166.023 77.7543C165.525 77.7735 165.122 77.7952 164.819 77.8191L164.625 77.836C164.547 77.8435 164.48 77.8512 164.425 77.8586L164.369 77.8666L164.339 77.8824C164.25 77.926 164.152 77.9528 164.048 77.9588L164.003 77.9601C163.58 77.9601 163.238 77.6177 163.238 77.1952C163.238 76.7583 163.461 76.5708 163.758 76.4498C163.843 76.4153 163.93 76.3923 164.033 76.3725C164.163 76.3476 164.33 76.3264 164.541 76.3073L164.622 76.3002C165.005 76.268 165.531 76.2404 166.202 76.2168L167.061 76.1909C168.396 76.1561 170.147 76.1329 172.295 76.1203L174.429 76.1116ZM164.766 77.2402C164.754 77.4633 164.645 77.6607 164.481 77.7921L164.475 77.797L164.489 77.788C164.642 77.6888 164.754 77.5329 164.767 77.2498L164.767 77.2121L164.766 77.2402Z" fill="#0E7490"/>
<path fill-rule="evenodd" clip-rule="evenodd" d="M174.429 101.889C178.507 101.879 183.62 101.899 189.897 101.944L196.462 101.998L221.803 102.237C223.896 102.254 224.543 102.255 224.594 102.248L224.597 102.247C224.998 102.114 225.431 102.33 225.565 102.731C225.698 103.132 225.482 103.565 225.081 103.698L225.045 103.708C224.805 103.762 223.98 103.775 221.606 103.762L214.154 103.7L197.643 103.539L190.469 103.479C183.735 103.428 178.316 103.407 174.061 103.42L172.306 103.428C169.908 103.442 168.01 103.469 166.64 103.511L166.023 103.532C165.525 103.551 165.122 103.573 164.819 103.597L164.625 103.614C164.547 103.621 164.48 103.629 164.425 103.636L164.369 103.644L164.339 103.66C164.25 103.704 164.152 103.73 164.048 103.736L164.003 103.738C163.58 103.738 163.238 103.395 163.238 102.973C163.238 102.536 163.461 102.348 163.758 102.227C163.843 102.193 163.93 102.17 164.033 102.15C164.163 102.125 164.33 102.104 164.541 102.085L164.622 102.078C165.005 102.046 165.531 102.018 166.202 101.994L167.061 101.968C168.396 101.934 170.147 101.91 172.295 101.898L174.429 101.889ZM164.766 103.018C164.754 103.241 164.645 103.438 164.481 103.57L164.475 103.575L164.489 103.566C164.642 103.466 164.754 103.31 164.767 103.027L164.767 102.99L164.766 103.018Z" fill="#0E7490"/>
<path fill-rule="evenodd" clip-rule="evenodd" d="M174.429 123.664C178.507 123.653 183.62 123.673 189.897 123.719L196.462 123.772L221.803 124.012C223.896 124.029 224.543 124.029 224.594 124.022L224.597 124.022C224.998 123.888 225.431 124.105 225.565 124.505C225.698 124.906 225.482 125.339 225.081 125.473L225.045 125.483C224.805 125.536 223.98 125.55 221.606 125.537L214.154 125.475L197.643 125.313L190.469 125.253C183.735 125.203 178.316 125.182 174.061 125.194L172.306 125.202C169.908 125.216 168.01 125.243 166.64 125.285L166.023 125.306C165.525 125.326 165.122 125.347 164.819 125.371L164.625 125.388C164.547 125.396 164.48 125.403 164.425 125.411L164.369 125.419L164.339 125.434C164.25 125.478 164.152 125.505 164.048 125.511L164.003 125.512C163.58 125.512 163.238 125.17 163.238 124.747C163.238 124.31 163.461 124.123 163.758 124.002C163.843 123.967 163.93 123.944 164.033 123.924C164.163 123.9 164.33 123.878 164.541 123.859L164.622 123.852C165.005 123.82 165.531 123.792 166.202 123.769L167.061 123.743C168.396 123.708 170.147 123.685 172.295 123.672L174.429 123.664ZM164.766 124.792C164.754 125.015 164.645 125.213 164.481 125.344L164.475 125.349L164.489 125.34C164.642 125.241 164.754 125.085 164.767 124.802L164.767 124.764L164.766 124.792Z" fill="#0E7490"/>
<path fill-rule="evenodd" clip-rule="evenodd" d="M194.676 82.7537C195.098 82.7537 195.441 83.0961 195.441 83.5186C195.441 83.9259 195.122 84.2589 194.721 84.2822L194.676 84.2835H169.408C168.986 84.2835 168.643 83.941 168.643 83.5186C168.643 83.1112 168.962 82.7782 169.363 82.755L169.408 82.7537H194.676Z" fill="#0E7490"/>
<path fill-rule="evenodd" clip-rule="evenodd" d="M209.617 88.0315C210.04 88.0315 210.382 88.374 210.382 88.7964C210.382 89.2038 210.064 89.5368 209.662 89.56L209.617 89.5613H169.408C168.986 89.5613 168.643 89.2189 168.643 88.7964C168.643 88.389 168.962 88.0561 169.363 88.0328L169.408 88.0315H209.617Z" fill="#0E7490"/>
<path fill-rule="evenodd" clip-rule="evenodd" d="M195.339 92.2639C195.761 92.2639 196.104 92.6064 196.104 93.0288C196.104 93.4362 195.785 93.7692 195.384 93.7924L195.339 93.7937H169.408C168.986 93.7937 168.643 93.4513 168.643 93.0288C168.643 92.6215 168.962 92.2885 169.363 92.2652L169.408 92.2639H195.339Z" fill="#0E7490"/>
<path fill-rule="evenodd" clip-rule="evenodd" d="M178.587 96.4709C179.01 96.4709 179.352 96.8134 179.352 97.2359C179.352 97.6432 179.034 97.9762 178.632 97.9995L178.587 98.0008H169.408C168.986 98.0008 168.643 97.6583 168.643 97.2359C168.643 96.8285 168.962 96.4955 169.363 96.4722L169.408 96.4709H178.587Z" fill="#0E7490"/>
<path fill-rule="evenodd" clip-rule="evenodd" d="M209.617 107.664C210.04 107.664 210.382 108.007 210.382 108.429C210.382 108.837 210.064 109.17 209.662 109.193L209.617 109.194H169.408C168.986 109.194 168.643 108.852 168.643 108.429C168.643 108.022 168.962 107.689 169.363 107.666L169.408 107.664H209.617Z" fill="#0E7490"/>
<path fill-rule="evenodd" clip-rule="evenodd" d="M195.339 111.871C195.761 111.871 196.104 112.214 196.104 112.636C196.104 113.044 195.785 113.377 195.384 113.4L195.339 113.401H169.408C168.986 113.401 168.643 113.059 168.643 112.636C168.643 112.229 168.962 111.896 169.363 111.873L169.408 111.871H195.339Z" fill="#0E7490"/>
<path fill-rule="evenodd" clip-rule="evenodd" d="M178.587 116.104C179.01 116.104 179.352 116.446 179.352 116.869C179.352 117.276 179.034 117.609 178.632 117.632L178.587 117.634H169.408C168.986 117.634 168.643 117.291 168.643 116.869C168.643 116.461 168.962 116.128 169.363 116.105L169.408 116.104H178.587Z" fill="#0E7490"/>
<path fill-rule="evenodd" clip-rule="evenodd" d="M209.617 128.189C210.04 128.189 210.382 128.532 210.382 128.954C210.382 129.362 210.064 129.695 209.662 129.718L209.617 129.719H169.408C168.986 129.719 168.643 129.377 168.643 128.954C168.643 128.547 168.962 128.214 169.363 128.191L169.408 128.189H209.617Z" fill="#0E7490"/>
<path fill-rule="evenodd" clip-rule="evenodd" d="M195.339 132.396C195.761 132.396 196.104 132.739 196.104 133.161C196.104 133.569 195.785 133.902 195.384 133.925L195.339 133.926H169.408C168.986 133.926 168.643 133.584 168.643 133.161C168.643 132.754 168.962 132.421 169.363 132.398L169.408 132.396H195.339Z" fill="#0E7490"/>
<path fill-rule="evenodd" clip-rule="evenodd" d="M138.429 76.4558C138.852 76.4558 139.194 76.7983 139.194 77.2207C139.194 77.6281 138.876 77.9611 138.474 77.9843L138.429 77.9856H79.4036C78.9811 77.9856 78.6387 77.6432 78.6387 77.2207C78.6387 76.8134 78.9571 76.4804 79.3586 76.4571L79.4036 76.4558H138.429Z" fill="#0E7490"/>
<path fill-rule="evenodd" clip-rule="evenodd" d="M138.429 81.1982C138.852 81.1982 139.194 81.5407 139.194 81.9632C139.194 82.3705 138.876 82.7035 138.474 82.7268L138.429 82.7281H79.4036C78.9811 82.7281 78.6387 82.3856 78.6387 81.9632C78.6387 81.5558 78.9571 81.2228 79.3586 81.1995L79.4036 81.1982H138.429Z" fill="#0E7490"/>
<path fill-rule="evenodd" clip-rule="evenodd" d="M138.429 131.708C138.852 131.708 139.194 132.05 139.194 132.473C139.194 132.88 138.876 133.213 138.474 133.237L138.429 133.238H79.4036C78.9811 133.238 78.6387 132.895 78.6387 132.473C78.6387 132.066 78.9571 131.733 79.3586 131.709L79.4036 131.708H138.429Z" fill="#0E7490"/>
<path fill-rule="evenodd" clip-rule="evenodd" d="M127.338 88.0315C127.761 88.0315 128.103 88.374 128.103 88.7964C128.103 89.2038 127.785 89.5368 127.383 89.56L127.338 89.5613H86.6447C86.2223 89.5613 85.8798 89.2189 85.8798 88.7964C85.8798 88.389 86.1983 88.0561 86.5998 88.0328L86.6447 88.0315H127.338Z" fill="#0E7490"/>
<path fill-rule="evenodd" clip-rule="evenodd" d="M121.397 92.927C121.82 92.927 122.162 93.2695 122.162 93.6919C122.162 94.0993 121.844 94.4323 121.442 94.4555L121.397 94.4568H86.6447C86.2223 94.4568 85.8798 94.1144 85.8798 93.6919C85.8798 93.2846 86.1983 92.9516 86.5998 92.9283L86.6447 92.927H121.397Z" fill="#0E7490"/>
<path fill-rule="evenodd" clip-rule="evenodd" d="M94.2748 99.4033L139.277 99.7858C139.7 99.7894 140.039 100.135 140.036 100.557C140.032 100.965 139.711 101.295 139.309 101.315L139.264 101.316L94.2618 100.933C93.8394 100.929 93.4999 100.584 93.5034 100.162C93.5069 99.7544 93.8282 99.4241 94.2299 99.4042L94.2748 99.4033Z" fill="#0E7490"/>
<path fill-rule="evenodd" clip-rule="evenodd" d="M94.2753 103.967L139.278 104.375C139.7 104.379 140.039 104.725 140.036 105.147C140.032 105.554 139.71 105.884 139.309 105.904L139.264 105.905L94.2614 105.497C93.839 105.493 93.4996 105.148 93.5035 104.725C93.5071 104.318 93.8286 103.988 94.2303 103.968L94.2753 103.967Z" fill="#0E7490"/>
<path fill-rule="evenodd" clip-rule="evenodd" d="M94.2748 118.271L139.277 118.653C139.7 118.657 140.039 119.002 140.036 119.425C140.032 119.832 139.711 120.162 139.309 120.182L139.264 120.183L94.2618 119.801C93.8394 119.797 93.4999 119.452 93.5034 119.029C93.5069 118.622 93.8282 118.292 94.2299 118.272L94.2748 118.271Z" fill="#0E7490"/>
<path fill-rule="evenodd" clip-rule="evenodd" d="M94.2748 122.249L139.277 122.631C139.7 122.635 140.039 122.98 140.036 123.402C140.032 123.81 139.711 124.14 139.309 124.16L139.264 124.161L94.2618 123.778C93.8394 123.775 93.4999 123.429 93.5034 123.007C93.5069 122.6 93.8282 122.269 94.2299 122.249L94.2748 122.249Z" fill="#0E7490"/>
<path fill-rule="evenodd" clip-rule="evenodd" d="M112.142 109.398C112.564 109.398 112.907 109.74 112.907 110.163C112.907 110.57 112.588 110.903 112.187 110.926L112.142 110.928H85.9563C85.5339 110.928 85.1914 110.585 85.1914 110.163C85.1914 109.755 85.5098 109.423 85.9114 109.399L85.9563 109.398H112.142Z" fill="#0E7490"/>
<path fill-rule="evenodd" clip-rule="evenodd" d="M112.142 113.834C112.564 113.834 112.907 114.177 112.907 114.599C112.907 115.007 112.588 115.34 112.187 115.363L112.142 115.364H85.9563C85.5339 115.364 85.1914 115.022 85.1914 114.599C85.1914 114.192 85.5098 113.859 85.9114 113.836L85.9563 113.834H112.142Z" fill="#0E7490"/>
<path fill-rule="evenodd" clip-rule="evenodd" d="M101.025 128.011C101.448 128.011 101.79 128.353 101.79 128.776C101.79 129.183 101.472 129.516 101.07 129.54L101.025 129.541H85.9563C85.5339 129.541 85.1914 129.198 85.1914 128.776C85.1914 128.369 85.5098 128.036 85.9114 128.012L85.9563 128.011H101.025Z" fill="#0E7490"/>
<path fill-rule="evenodd" clip-rule="evenodd" d="M224.839 66.155H72.7743C72.3519 66.155 72.0094 66.4975 72.0094 66.9199V138.847C72.0094 139.27 72.3519 139.612 72.7743 139.612H224.839C225.261 139.612 225.604 139.27 225.604 138.847V66.9199C225.604 66.4975 225.261 66.155 224.839 66.155ZM224.074 67.6849V138.082H73.5392V67.6849H224.074Z" fill="#0E7490"/>
<path fill-rule="evenodd" clip-rule="evenodd" d="M85.9563 61.1831C86.3788 61.1831 86.7212 61.5256 86.7212 61.948C86.7212 62.3554 86.4028 62.6884 86.0012 62.7116L85.9563 62.7129H78.1542C77.7317 62.7129 77.3893 62.3705 77.3893 61.948C77.3893 61.5407 77.7077 61.2077 78.1093 61.1844L78.1542 61.1831H85.9563Z" fill="#06D0B6"/>
<path fill-rule="evenodd" clip-rule="evenodd" d="M118.44 61.1831C118.862 61.1831 119.204 61.5256 119.204 61.948C119.204 62.3554 118.886 62.6884 118.485 62.7116L118.44 62.7129H112.142C111.719 62.7129 111.377 62.3705 111.377 61.948C111.377 61.5407 111.695 61.2077 112.097 61.1844L112.142 61.1831H118.44Z" fill="#06D0B6"/>
<path fill-rule="evenodd" clip-rule="evenodd" d="M130.525 61.1831C130.948 61.1831 131.29 61.5256 131.29 61.948C131.29 62.3554 130.972 62.6884 130.57 62.7116L130.525 62.7129H125.579C125.156 62.7129 124.814 62.3705 124.814 61.948C124.814 61.5407 125.132 61.2077 125.534 61.1844L125.579 61.1831H130.525Z" fill="#06D0B6"/>
<path fill-rule="evenodd" clip-rule="evenodd" d="M220.173 61.1831C220.595 61.1831 220.938 61.5256 220.938 61.948C220.938 62.3554 220.619 62.6884 220.218 62.7116L220.173 62.7129H215.252C214.83 62.7129 214.487 62.3705 214.487 61.948C214.487 61.5407 214.805 61.2077 215.207 61.1844L215.252 61.1831H220.173Z" fill="#0E7490"/>
<path fill-rule="evenodd" clip-rule="evenodd" d="M211.733 61.1831C212.156 61.1831 212.498 61.5256 212.498 61.948C212.498 62.3554 212.18 62.6884 211.778 62.7116L211.733 62.7129H206.812C206.39 62.7129 206.048 62.3705 206.048 61.948C206.048 61.5407 206.366 61.2077 206.768 61.1844L206.812 61.1831H211.733Z" fill="#0E7490"/>
<path fill-rule="evenodd" clip-rule="evenodd" d="M104.518 61.1831C104.941 61.1831 105.283 61.5256 105.283 61.948C105.283 62.3554 104.965 62.6884 104.563 62.7116L104.518 62.7129H93.2485C92.826 62.7129 92.4836 62.3705 92.4836 61.948C92.4836 61.5407 92.802 61.2077 93.2035 61.1844L93.2485 61.1831H104.518Z" fill="#06D0B6"/>
<path fill-rule="evenodd" clip-rule="evenodd" d="M224.839 56.5171H72.7743C72.3519 56.5171 72.0094 56.8596 72.0094 57.282V66.9199C72.0094 67.3423 72.3519 67.6848 72.7743 67.6848H224.839C225.261 67.6848 225.604 67.3423 225.604 66.9199V57.282C225.604 56.8596 225.261 56.5171 224.839 56.5171ZM224.074 58.0469V66.155H73.5392V58.0469H224.074Z" fill="#0E7490"/>
<path fill-rule="evenodd" clip-rule="evenodd" d="M70.658 158.531C65.8136 157.077 58.2409 153.176 50.7703 142.799C43.2997 132.422 48.7305 124.951 56.1247 130.713C63.5188 136.476 70.658 158.531 70.658 158.531Z" fill="#F1F5F9"/>
<path fill-rule="evenodd" clip-rule="evenodd" d="M47.2034 130.335C45.5393 133.352 46.5449 138.239 50.1495 143.246C56.5962 152.201 63.6088 157.215 70.4382 159.264C71.0154 159.437 71.5508 158.907 71.3976 158.335L71.3776 158.27L71.2052 157.751C71.1319 157.533 71.0497 157.292 70.9589 157.028L70.7296 156.368C70.4404 155.542 70.1189 154.65 69.7676 153.705C68.4895 150.267 67.0791 146.829 65.576 143.616L65.3759 143.191C62.4077 136.921 59.4623 132.345 56.5949 130.11C52.7557 127.118 48.8997 127.259 47.2034 130.335ZM55.6545 131.317C58.3384 133.409 61.2519 137.984 64.1904 144.265C65.674 147.435 67.0691 150.836 68.3336 154.238L68.4278 154.492C68.7702 155.418 69.0827 156.29 69.3629 157.094L69.4415 157.321L69.3125 157.274C63.2983 155.052 57.1412 150.34 51.3911 142.352C48.0966 137.776 47.2135 133.484 48.543 131.073C49.7176 128.944 52.4798 128.843 55.6545 131.317Z" fill="#164E63"/>
<path fill-rule="evenodd" clip-rule="evenodd" d="M70.862 158.097C68.0828 151.672 62.9324 139.841 62.1165 128.572C61.0201 113.095 72.4683 109.474 75.8849 120.336C81.0098 136.654 70.862 158.097 70.862 158.097Z" fill="#F1F5F9"/>
<path fill-rule="evenodd" clip-rule="evenodd" d="M66.9829 113.885C63.122 115.7 60.8296 121.231 61.3535 128.626C61.4302 129.685 61.5456 130.765 61.6983 131.866C62.4614 137.363 64.1027 143.158 66.4686 149.427L66.7668 150.211C67.7407 152.749 68.5602 154.703 70.1599 158.401C70.4211 159.005 71.272 159.019 71.5534 158.425L71.6301 158.259C71.6706 158.171 71.7152 158.072 71.7638 157.963L71.8397 157.792C72.0639 157.284 72.3133 156.695 72.5817 156.033C73.3471 154.143 74.112 152.037 74.826 149.766C76.9227 143.096 78.1577 136.412 78.0931 130.153C78.0569 126.647 77.6064 123.372 76.6961 120.371L76.6146 120.107C74.8732 114.571 70.8254 112.078 66.9829 113.885ZM75.1551 120.565C76.0721 123.485 76.5276 126.702 76.5634 130.169C76.6261 136.245 75.4189 142.778 73.3666 149.307C72.6655 151.537 71.9144 153.605 71.1637 155.459L71.0226 155.805L70.8673 156.178L70.3866 155.054C69.4368 152.823 68.7966 151.244 68.0356 149.245C65.6335 142.936 63.9732 137.127 63.2136 131.655C63.0654 130.587 62.9536 129.541 62.8794 128.517C62.3959 121.691 64.4341 116.774 67.6338 115.269C70.5065 113.919 73.6039 115.795 75.1101 120.425L75.1551 120.565Z" fill="#164E63"/>
<path fill-rule="evenodd" clip-rule="evenodd" d="M91.1067 143.233C98.5773 132.855 93.1464 125.385 85.7523 131.147C78.3581 136.935 74.9415 147.312 71.2189 158.531C71.2189 158.531 83.636 153.61 91.1067 143.233Z" fill="#F1F5F9"/>
<path fill-rule="evenodd" clip-rule="evenodd" d="M85.2821 130.544C82.018 133.099 79.3746 136.599 77.0316 141.223L76.9128 141.459C75.1286 145.025 73.6842 148.778 71.6014 154.964L70.493 158.29C70.2929 158.893 70.8708 159.456 71.4614 159.256L71.5008 159.242C71.5561 159.22 71.658 159.178 71.8033 159.117L71.9894 159.037C72.1502 158.967 72.3252 158.889 72.5138 158.804L72.6285 158.752C73.5114 158.348 74.4936 157.862 75.5506 157.292C78.5684 155.667 81.586 153.697 84.4055 151.376C87.2353 149.046 89.7099 146.482 91.7275 143.68C95.3321 138.672 96.3377 133.785 94.6736 130.768C92.9773 127.692 89.1213 127.552 85.2821 130.544ZM86.0657 131.874L86.2225 131.75C89.3972 129.276 92.1593 129.377 93.334 131.507C94.6635 133.918 93.7803 138.209 90.4859 142.786C88.5502 145.475 86.1663 147.944 83.433 150.195C80.6961 152.448 77.7604 154.364 74.825 155.946L74.6207 156.055C73.9497 156.413 73.3117 156.735 72.7138 157.022L72.4905 157.128L72.739 156.383C74.9717 149.699 76.45 145.803 78.2809 142.144C80.5209 137.667 83.0183 134.307 86.0657 131.874Z" fill="#164E63"/>
<path fill-rule="evenodd" clip-rule="evenodd" d="M71.2189 161.922C70.964 161.591 72.1623 156.313 62.193 150.015C52.2236 143.717 49.9544 145.757 48.6795 148.052C47.4047 150.346 53.1925 155.803 59.3883 158.939C65.6096 162.101 71.2189 161.922 71.2189 161.922Z" fill="#F1F5F9"/>
<path fill-rule="evenodd" clip-rule="evenodd" d="M52.1721 145.046C50.1565 145.056 48.9679 145.958 48.0109 147.68C46.4542 150.482 52.1649 156.14 59.0429 159.621C61.7164 160.98 64.47 161.845 67.1681 162.313C68.1457 162.483 69.0588 162.59 69.8909 162.646L70.1058 162.659C70.5233 162.683 70.866 162.691 71.1256 162.689L71.2433 162.687L71.2863 162.684C71.7967 162.641 72.1009 162.124 71.9435 161.673L71.9392 161.662L71.916 161.29C71.9072 161.159 71.8972 161.036 71.8842 160.909C71.8503 160.577 71.7987 160.245 71.7218 159.894C71.5228 158.987 71.1734 158.048 70.6296 157.065C69.2094 154.496 66.6305 151.913 62.6015 149.368L62.2737 149.162C57.7166 146.318 54.477 145.035 52.1721 145.046ZM52.1795 146.576C54.1779 146.566 57.2801 147.816 61.7845 150.662C65.6068 153.076 68.0031 155.476 69.2907 157.805L69.364 157.939C70.0079 159.131 70.2452 159.962 70.3558 161.038L70.3656 161.141L70.2851 161.137C70.1925 161.132 70.0952 161.126 69.9934 161.119C69.2132 161.067 68.353 160.966 67.4298 160.806C64.8744 160.362 62.2652 159.543 59.7348 158.257C56.7641 156.753 53.817 154.664 51.7708 152.636C49.8184 150.702 48.9781 149.089 49.3482 148.423C50.0612 147.14 50.7955 146.583 52.1795 146.576Z" fill="#164E63"/>
<path fill-rule="evenodd" clip-rule="evenodd" d="M71.2189 161.922C71.4739 161.591 70.2755 156.313 80.2449 150.015C90.2143 143.717 92.4835 145.757 93.7584 148.052C95.0332 150.346 89.2454 155.803 83.0496 158.939C76.8283 162.101 71.2189 161.922 71.2189 161.922Z" fill="#F1F5F9"/>
<path fill-rule="evenodd" clip-rule="evenodd" d="M90.2658 145.046C87.906 145.035 84.5665 146.38 79.8364 149.368C75.8074 151.913 73.2285 154.496 71.8083 157.065C71.2645 158.048 70.915 158.987 70.7161 159.894C70.6392 160.245 70.5876 160.577 70.5537 160.909C70.545 160.994 70.5376 161.076 70.5311 161.161L70.4984 161.662L70.4943 161.673C70.3376 162.122 70.6391 162.637 71.1464 162.684L71.209 162.687L71.2491 162.688C71.5562 162.693 71.9943 162.683 72.5469 162.646C73.3791 162.59 74.2922 162.483 75.2697 162.313C77.9679 161.845 80.7215 160.98 83.3961 159.621C90.273 156.14 95.9837 150.482 94.427 147.68C93.47 145.958 92.2814 145.056 90.2658 145.046ZM90.2584 146.576C91.6424 146.583 92.3767 147.14 93.0897 148.423C93.4597 149.089 92.6194 150.702 90.6671 152.637C88.6209 154.664 85.6738 156.753 82.7041 158.257C80.1727 159.543 77.5635 160.363 75.0081 160.806C74.0849 160.966 73.2247 161.067 72.4445 161.119L72.1528 161.137L72.0721 161.141L72.0821 161.038C72.1968 159.923 72.4477 159.07 73.1472 157.805C74.4348 155.476 76.831 153.076 80.6534 150.662L80.9691 150.464C85.3032 147.758 88.307 146.567 90.2584 146.576Z" fill="#164E63"/>
<path fill-rule="evenodd" clip-rule="evenodd" d="M62.0145 199.454L50.4388 186.348L60.6632 162.636H82.1062L91.9736 186.756L80.7804 199.454H62.0145Z" fill="#008473"/>
<path fill-rule="evenodd" clip-rule="evenodd" d="M154.263 199.046H69.5106C68.0318 199.046 66.8334 197.847 66.8334 196.368V194.762C66.8334 193.283 68.0318 192.085 69.5106 192.085H154.263C155.742 192.085 156.94 193.283 156.94 194.762V196.368C156.94 197.847 155.742 199.046 154.263 199.046Z" fill="#164E63"/>
<path fill-rule="evenodd" clip-rule="evenodd" d="M42.2798 199.046H24.4318C22.953 199.046 21.7546 197.847 21.7546 196.368V194.762C21.7546 193.283 22.953 192.085 24.4318 192.085H42.2798C43.7586 192.085 44.957 193.283 44.957 194.762V196.368C44.9825 197.847 43.7586 199.046 42.2798 199.046Z" fill="#164E63"/>
<path fill-rule="evenodd" clip-rule="evenodd" d="M182.565 128.291L281.697 129.107C282.998 129.107 284.119 130 284.425 131.249L298.143 189.331H333.915C333.915 189.331 335.904 199.581 324.328 199.581C318.464 199.581 198.322 199.581 198.322 199.581C197.021 199.581 195.9 198.689 195.594 197.439L179.836 131.733C179.429 129.974 180.78 128.291 182.565 128.291Z" fill="#0E7490"/>
<path fill-rule="evenodd" clip-rule="evenodd" d="M291.922 183.799L281.162 138.541C280.779 136.986 279.403 135.89 277.796 135.89L191.973 134.87C189.729 134.87 188.072 136.96 188.607 139.128L199.393 185.481C199.775 187.037 201.152 188.159 202.758 188.133L288.531 188.057C290.774 188.057 292.432 185.966 291.922 183.799Z" fill="#F1F5F9"/>
<path fill-rule="evenodd" clip-rule="evenodd" d="M200.534 142.284C200.762 141.928 201.236 141.825 201.591 142.054C201.933 142.273 202.041 142.72 201.845 143.071L201.821 143.111L199.984 145.971L202.953 147.951C203.292 148.176 203.392 148.625 203.19 148.972L203.165 149.011C202.94 149.35 202.491 149.45 202.144 149.248L202.105 149.223L198.51 146.827C198.176 146.604 198.073 146.164 198.266 145.818L198.29 145.777L200.534 142.284Z" fill="#06D0B6"/>
<path fill-rule="evenodd" clip-rule="evenodd" d="M208.275 142.886C208.495 142.525 208.965 142.411 209.326 142.63C209.674 142.842 209.793 143.286 209.605 143.641L209.582 143.681L206.65 148.5C206.43 148.861 205.96 148.976 205.599 148.756C205.251 148.545 205.132 148.1 205.32 147.745L205.343 147.705L208.275 142.886Z" fill="#06D0B6"/>
<path fill-rule="evenodd" clip-rule="evenodd" d="M211.639 142.56C211.887 142.239 212.341 142.17 212.672 142.395L212.712 142.424L216.103 145.05C216.414 145.291 216.489 145.725 216.286 146.056L216.259 146.096L214.168 149.054C213.924 149.399 213.447 149.481 213.102 149.237C212.77 149.003 212.682 148.552 212.892 148.211L212.919 148.171L214.587 145.811L211.775 143.633C211.454 143.385 211.385 142.931 211.61 142.599L211.639 142.56Z" fill="#06D0B6"/>
<path fill-rule="evenodd" clip-rule="evenodd" d="M224.89 179.49C225.312 179.49 225.655 179.832 225.655 180.254C225.655 180.662 225.336 180.995 224.935 181.018L224.89 181.019H217.037C216.614 181.019 216.272 180.677 216.272 180.254C216.272 179.847 216.59 179.514 216.992 179.491L217.037 179.49H224.89Z" fill="#06D0B6"/>
<path fill-rule="evenodd" clip-rule="evenodd" d="M246.384 179.515C246.806 179.515 247.149 179.858 247.149 180.28C247.149 180.687 246.83 181.02 246.429 181.044L246.384 181.045H230.346C229.924 181.045 229.581 180.702 229.581 180.28C229.581 179.873 229.9 179.54 230.301 179.516L230.346 179.515H246.384Z" fill="#06D0B6"/>
<path fill-rule="evenodd" clip-rule="evenodd" d="M251.688 179.515L282.182 179.541C282.605 179.541 282.947 179.884 282.947 180.306C282.946 180.714 282.628 181.046 282.226 181.069L282.181 181.07L251.687 181.045C251.264 181.045 250.922 180.702 250.922 180.279C250.923 179.872 251.241 179.539 251.643 179.516L251.688 179.515Z" fill="#06D0B6"/>
<path fill-rule="evenodd" clip-rule="evenodd" d="M205.746 174.798L210.539 174.824C210.961 174.826 211.302 175.17 211.3 175.593C211.298 176 210.978 176.331 210.576 176.352L210.531 176.353L205.737 176.328C205.315 176.326 204.974 175.981 204.977 175.559C204.979 175.152 205.299 174.82 205.701 174.799L205.746 174.798Z" fill="#06D0B6"/>
<path fill-rule="evenodd" clip-rule="evenodd" d="M223.819 174.823C224.241 174.823 224.584 175.166 224.584 175.588C224.584 175.996 224.265 176.329 223.864 176.352L223.819 176.353H215.966C215.543 176.353 215.201 176.011 215.201 175.588C215.201 175.181 215.519 174.848 215.921 174.825L215.966 174.823H223.819Z" fill="#06D0B6"/>
<path fill-rule="evenodd" clip-rule="evenodd" d="M229.225 174.823L282.769 174.849C283.191 174.849 283.533 175.192 283.533 175.614C283.533 176.022 283.214 176.354 282.813 176.378L282.768 176.379L229.224 176.353C228.802 176.353 228.459 176.01 228.459 175.588C228.46 175.181 228.778 174.848 229.18 174.825L229.225 174.823Z" fill="#06D0B6"/>
<path fill-rule="evenodd" clip-rule="evenodd" d="M215.532 170.132C215.955 170.132 216.297 170.475 216.297 170.897C216.297 171.304 215.979 171.637 215.577 171.661L215.532 171.662H204.645C204.223 171.662 203.88 171.319 203.88 170.897C203.88 170.49 204.199 170.157 204.6 170.133L204.645 170.132H215.532Z" fill="#06D0B6"/>
<path fill-rule="evenodd" clip-rule="evenodd" d="M220.71 170.132L235.167 170.158C235.589 170.158 235.931 170.501 235.93 170.924C235.929 171.331 235.61 171.664 235.209 171.686L235.164 171.687L220.707 171.662C220.285 171.661 219.943 171.318 219.943 170.896C219.944 170.488 220.263 170.156 220.665 170.133L220.71 170.132Z" fill="#06D0B6"/>
<path fill-rule="evenodd" clip-rule="evenodd" d="M267.801 170.158C268.224 170.158 268.566 170.5 268.566 170.923C268.566 171.33 268.248 171.663 267.846 171.686L267.801 171.688H249.826C249.403 171.688 249.061 171.345 249.061 170.923C249.061 170.515 249.379 170.182 249.781 170.159L249.826 170.158H267.801Z" fill="#06D0B6"/>
<path fill-rule="evenodd" clip-rule="evenodd" d="M245.415 170.158C245.837 170.158 246.18 170.5 246.18 170.923C246.18 171.33 245.861 171.663 245.46 171.686L245.415 171.688H240.316C239.893 171.688 239.551 171.345 239.551 170.923C239.551 170.515 239.869 170.182 240.271 170.159L240.316 170.158H245.415Z" fill="#06D0B6"/>
<path fill-rule="evenodd" clip-rule="evenodd" d="M203.576 165.44L218.542 165.466C218.965 165.467 219.307 165.81 219.306 166.232C219.305 166.64 218.986 166.972 218.585 166.995L218.54 166.996L203.573 166.97C203.151 166.97 202.809 166.626 202.809 166.204C202.81 165.797 203.129 165.464 203.531 165.442L203.576 165.44Z" fill="#06D0B6"/>
<path fill-rule="evenodd" clip-rule="evenodd" d="M223.106 165.466L261.198 165.491C261.621 165.492 261.963 165.834 261.963 166.257C261.962 166.664 261.644 166.997 261.242 167.02L261.197 167.021L223.105 166.996C222.682 166.995 222.34 166.653 222.34 166.23C222.34 165.823 222.659 165.49 223.061 165.467L223.106 165.466Z" fill="#06D0B6"/>
<path fill-rule="evenodd" clip-rule="evenodd" d="M280.601 165.491C281.023 165.491 281.366 165.834 281.366 166.256C281.366 166.664 281.047 166.997 280.646 167.02L280.601 167.021H265.736C265.314 167.021 264.971 166.679 264.971 166.256C264.971 165.849 265.29 165.516 265.691 165.493L265.736 165.491H280.601Z" fill="#06D0B6"/>
<path fill-rule="evenodd" clip-rule="evenodd" d="M217.113 160.775C217.536 160.775 217.878 161.117 217.878 161.54C217.878 161.947 217.56 162.28 217.158 162.303L217.113 162.304H211.376C210.954 162.304 210.612 161.962 210.612 161.54C210.612 161.132 210.93 160.799 211.331 160.776L211.376 160.775H217.113Z" fill="#06D0B6"/>
<path fill-rule="evenodd" clip-rule="evenodd" d="M220.862 160.775L256.277 160.8C256.7 160.8 257.042 161.143 257.042 161.566C257.041 161.973 256.723 162.306 256.321 162.329L256.276 162.33L220.861 162.304C220.438 162.304 220.096 161.961 220.096 161.539C220.097 161.132 220.415 160.799 220.817 160.776L220.862 160.775Z" fill="#06D0B6"/>
<path fill-rule="evenodd" clip-rule="evenodd" d="M207.628 160.775C208.051 160.775 208.393 161.117 208.393 161.54C208.393 161.947 208.075 162.28 207.673 162.303L207.628 162.304H202.478C202.055 162.304 201.713 161.962 201.713 161.54C201.713 161.132 202.031 160.799 202.433 160.776L202.478 160.775H207.628Z" fill="#06D0B6"/>
<path fill-rule="evenodd" clip-rule="evenodd" d="M228.893 157.103C229.315 157.103 229.658 157.445 229.658 157.868C229.658 158.275 229.339 158.608 228.938 158.632L228.893 158.633H201.637C201.214 158.633 200.872 158.29 200.872 157.868C200.872 157.461 201.19 157.128 201.592 157.104L201.637 157.103H228.893Z" fill="#06D0B6"/>
<path fill-rule="evenodd" clip-rule="evenodd" d="M233.075 157.103L279.352 157.129C279.774 157.129 280.117 157.471 280.117 157.894C280.116 158.301 279.798 158.634 279.396 158.657L279.351 158.658L233.074 158.633C232.652 158.633 232.309 158.29 232.31 157.868C232.31 157.46 232.628 157.127 233.03 157.104L233.075 157.103Z" fill="#06D0B6"/>
<path fill-rule="evenodd" clip-rule="evenodd" d="M200.618 152.667L215.585 152.692C216.007 152.693 216.349 153.036 216.348 153.458C216.348 153.866 216.029 154.198 215.627 154.221L215.582 154.222L200.615 154.196C200.193 154.196 199.851 153.853 199.852 153.43C199.852 153.023 200.171 152.69 200.573 152.668L200.618 152.667Z" fill="#06D0B6"/>
<path fill-rule="evenodd" clip-rule="evenodd" d="M231.749 152.692C232.171 152.692 232.514 153.034 232.514 153.457C232.514 153.864 232.195 154.197 231.794 154.22L231.749 154.222H220.657C220.235 154.222 219.892 153.879 219.892 153.457C219.892 153.049 220.211 152.716 220.612 152.693L220.657 152.692H231.749Z" fill="#06D0B6"/>
<path fill-rule="evenodd" clip-rule="evenodd" d="M242.814 152.692C243.237 152.692 243.579 153.034 243.579 153.457C243.579 153.864 243.261 154.197 242.859 154.22L242.814 154.222H236.466C236.043 154.222 235.701 153.879 235.701 153.457C235.701 153.049 236.019 152.716 236.421 152.693L236.466 152.692H242.814Z" fill="#06D0B6"/>
<path fill-rule="evenodd" clip-rule="evenodd" d="M247.507 152.692L261.174 152.717C261.596 152.718 261.938 153.061 261.937 153.484C261.936 153.891 261.617 154.223 261.216 154.246L261.171 154.247L247.504 154.222C247.082 154.221 246.74 153.878 246.741 153.455C246.742 153.048 247.061 152.716 247.462 152.693L247.507 152.692Z" fill="#06D0B6"/>
<path fill-rule="evenodd" clip-rule="evenodd" d="M269.561 152.718C269.983 152.718 270.326 153.06 270.326 153.482C270.326 153.89 270.007 154.223 269.606 154.246L269.561 154.247H265.889C265.467 154.247 265.124 153.905 265.124 153.482C265.124 153.075 265.443 152.742 265.844 152.719L265.889 152.718H269.561Z" fill="#06D0B6"/>
<path fill-rule="evenodd" clip-rule="evenodd" d="M251.381 132.651C251.381 132.651 255.843 152.539 259.897 155.675H291.998C291.998 155.675 287.001 154.477 285.471 149.02C283.941 143.564 280.907 132.702 280.907 132.702L251.381 132.651Z" fill="#008473"/>
<path fill-rule="evenodd" clip-rule="evenodd" d="M277.567 138.975C277.989 138.975 278.332 139.317 278.332 139.74C278.332 140.147 278.013 140.48 277.612 140.503L277.567 140.504H258.189C257.767 140.504 257.424 140.162 257.424 139.74C257.424 139.332 257.743 138.999 258.144 138.976L258.189 138.975H277.567Z" fill="#164E63"/>
<path fill-rule="evenodd" clip-rule="evenodd" d="M278.408 142.621C278.831 142.621 279.173 142.963 279.173 143.386C279.173 143.793 278.855 144.126 278.453 144.149L278.408 144.15H259.031C258.608 144.15 258.266 143.808 258.266 143.386C258.266 142.978 258.584 142.645 258.986 142.622L259.031 142.621H278.408Z" fill="#164E63"/>
<path fill-rule="evenodd" clip-rule="evenodd" d="M272.901 146.343C273.323 146.343 273.666 146.686 273.666 147.108C273.666 147.516 273.347 147.849 272.946 147.872L272.901 147.873H260.05C259.628 147.873 259.285 147.531 259.285 147.108C259.285 146.701 259.604 146.368 260.005 146.345L260.05 146.343H272.901Z" fill="#164E63"/>
<path fill-rule="evenodd" clip-rule="evenodd" d="M436.898 198.842C437.32 198.842 437.663 199.184 437.663 199.607C437.663 200.014 437.344 200.347 436.943 200.37L436.898 200.372H1.17849C0.756037 200.372 0.413574 200.029 0.413574 199.607C0.413574 199.199 0.732012 198.866 1.13354 198.843L1.17849 198.842H436.898Z" fill="#164E63"/>
</svg>
