<svg width="438" height="201" viewBox="0 0 438 201" fill="none" xmlns="http://www.w3.org/2000/svg">
<path fill-rule="evenodd" clip-rule="evenodd" d="M176.597 105.566H79.8791C73.7197 105.566 67.8123 108.012 63.4566 112.367C59.101 116.722 56.654 122.63 56.654 128.789V176.337C56.654 182.497 59.101 188.404 63.4566 192.759C67.8123 197.114 73.7197 199.56 79.8791 199.56H176.597V105.566Z" fill="#0E7490"/>
<path fill-rule="evenodd" clip-rule="evenodd" d="M174.63 112.163H98.8927C94.3594 112.163 90.6845 115.838 90.6845 120.371V185.141C90.6845 189.675 94.3594 193.35 98.8927 193.35H174.63C175.054 193.35 175.397 193.006 175.397 192.582V112.93C175.397 112.506 175.054 112.163 174.63 112.163ZM173.862 113.698V191.814H98.8927C95.2073 191.814 92.2197 188.827 92.2197 185.141V120.371L92.2206 120.26C92.2795 116.626 95.2442 113.698 98.8927 113.698L173.862 113.698Z" fill="#06D0B6"/>
<path fill-rule="evenodd" clip-rule="evenodd" d="M105.287 118.994C102.51 118.996 100.259 121.248 100.259 124.025V181.485C100.259 184.262 102.51 186.513 105.287 186.513H171.787V118.994H105.287Z" fill="#F1F5F9"/>
<ellipse cx="75.3426" cy="133.072" rx="8.35922" ry="8.35923" fill="#008473"/>
<path fill-rule="evenodd" clip-rule="evenodd" d="M75.3426 126.696C71.8211 126.696 68.9663 129.551 68.9663 133.072C68.9663 136.594 71.8211 139.449 75.3426 139.449C78.8641 139.449 81.7188 136.594 81.7188 133.072C81.7188 129.551 78.8641 126.696 75.3426 126.696ZM75.3426 128.231C78.0162 128.231 80.1836 130.399 80.1836 133.072C80.1836 135.746 78.0162 137.913 75.3426 137.913C72.669 137.913 70.5015 135.746 70.5015 133.072C70.5015 130.399 72.669 128.231 75.3426 128.231Z" fill="#06D0B6"/>
<path fill-rule="evenodd" clip-rule="evenodd" d="M85.5134 158.8H78.7917V152.081H72.1186V158.8H65.397V165.473H72.1186V172.195H78.7917V165.473H85.5134V158.8Z" fill="#06D0B6"/>
<rect x="78.6996" y="180.705" width="6.38136" height="6.38135" fill="#F1F5F9"/>
<rect x="78.6996" y="116.267" width="5.50373" height="2.32073" rx="1.16037" fill="#F1F5F9"/>
<path fill-rule="evenodd" clip-rule="evenodd" d="M268.894 154.931C272.08 154.051 281.642 154.601 281.642 154.601C281.642 154.601 282.852 162.185 290.618 164.969C308.784 171.087 314.833 158.777 314.833 158.777C316.005 162.871 332.526 201.31 350.99 199.112C369.453 196.914 367.255 146.505 350.258 111.776C333.261 77.0473 309.959 87.4509 301.607 89.2087C293.256 90.9665 282.704 91.9516 274.352 91.8467C270.968 91.8603 267.589 91.614 264.243 91.1098L268.894 154.931Z" fill="#0E7490"/>
<path fill-rule="evenodd" clip-rule="evenodd" d="M335.341 192.232C340.144 196.809 345.473 199.764 350.977 199.109C362.624 197.722 366.05 177.148 362.721 153.426C354.485 151.635 346.484 163.114 341.965 171.414C338.578 177.647 336.444 186.505 335.341 192.232Z" fill="#06D0B6"/>
<path fill-rule="evenodd" clip-rule="evenodd" d="M300.973 127.886C294.432 127.886 289.105 132.791 289.105 138.875C289.105 144.959 294.432 149.865 300.973 149.865C307.513 149.865 312.84 144.959 312.84 138.875C312.84 132.791 307.513 127.886 300.973 127.886ZM300.973 129.421C306.692 129.421 311.305 133.669 311.305 138.875C311.305 144.082 306.692 148.33 300.973 148.33C295.253 148.33 290.641 144.082 290.641 138.875C290.641 133.669 295.253 129.421 300.973 129.421Z" fill="#06D0B6"/>
<ellipse cx="300.973" cy="136.78" rx="11.0996" ry="10.2219" fill="#06D0B6"/>
<path fill-rule="evenodd" clip-rule="evenodd" d="M322.366 116.569C318.641 116.569 315.555 118.96 315.555 122.019C315.555 125.078 318.641 127.469 322.366 127.469C326.091 127.469 329.177 125.078 329.177 122.019C329.177 118.96 326.091 116.569 322.366 116.569ZM322.366 118.104C325.316 118.104 327.642 119.906 327.642 122.019C327.642 124.132 325.316 125.933 322.366 125.933C319.415 125.933 317.09 124.132 317.09 122.019C317.09 119.906 319.415 118.104 322.366 118.104Z" fill="#06D0B6"/>
<ellipse cx="308.395" cy="110.868" rx="6.04361" ry="4.6824" fill="#008473"/>
<ellipse cx="321.511" cy="99.364" rx="6.04361" ry="4.6824" fill="#06D0B6"/>
<ellipse cx="335.796" cy="110.868" rx="6.04361" ry="4.6824" fill="#F1F5F9"/>
<ellipse cx="275.255" cy="103.496" rx="7.58394" ry="6.70376" fill="#F1F5F9"/>
<path fill-rule="evenodd" clip-rule="evenodd" d="M275.255 93.6274C269.166 93.6274 264.194 98.0234 264.194 103.496C264.194 108.969 269.166 113.365 275.255 113.365C281.345 113.365 286.316 108.969 286.316 103.496C286.316 98.0234 281.345 93.6274 275.255 93.6274ZM275.255 95.1627C280.536 95.1627 284.781 98.9162 284.781 103.496C284.781 108.076 280.536 111.83 275.255 111.83C269.975 111.83 265.729 108.076 265.729 103.496C265.729 98.9162 269.975 95.1627 275.255 95.1627Z" fill="#F1F5F9"/>
<path fill-rule="evenodd" clip-rule="evenodd" d="M320.826 90.1677C312.545 90.2188 305.515 93.3408 300.74 98.487C296.561 102.991 294.632 108.619 295.749 112.832L295.839 113.158C297.611 119.616 296.143 122.962 291.11 125.926L290.975 126.004L291.005 125.99C287.107 127.875 284.383 130.325 282.698 133.207C280.691 136.642 280.324 140.269 280.91 143.547L280.956 143.791L280.991 143.968L281.027 144.132L281.061 144.284L281.095 144.422L281.127 144.548L281.173 144.712L281.21 144.834L281.243 144.95L281.288 145.097L281.346 145.275L281.392 145.41C281.55 145.872 281.751 146.385 281.997 146.936C282.7 148.505 283.634 150.074 284.83 151.541C287.979 155.4 292.35 157.859 298.102 158.225C305.422 158.571 310.97 156.583 314.824 152.924C317.528 150.356 319.209 147.004 319.425 144.768L319.434 144.666C319.565 142.976 320.129 141.043 321.166 139.288L321.243 139.161C322.585 136.951 324.583 135.189 327.329 134.046L327.432 134.004L327.366 134.019C332.239 132.95 336.34 131.441 339.785 129.186C344.128 126.342 347.111 122.467 348.462 117.375C349.924 111.863 347.565 105.019 342.454 99.525C337.06 93.7271 329.393 90.1876 321.078 90.1672L320.826 90.1677ZM320.835 91.7029C328.806 91.6542 336.166 95.0206 341.33 100.571C346.11 105.709 348.29 112.034 346.978 116.981C345.729 121.69 342.983 125.256 338.944 127.901C335.679 130.039 331.743 131.487 327.037 132.52C326.995 132.529 326.954 132.541 326.915 132.557C323.712 133.849 321.38 135.911 319.845 138.507C318.716 140.416 318.089 142.507 317.918 144.378L317.903 144.548C317.76 146.394 316.243 149.459 313.767 151.811C310.221 155.177 305.083 157.018 298.187 156.692C292.897 156.356 288.91 154.113 286.02 150.57C284.914 149.215 284.049 147.761 283.398 146.308C283.171 145.801 282.988 145.332 282.844 144.912L282.815 144.827L282.764 144.67L282.72 144.531L282.673 144.368L282.648 144.284L282.608 144.137C282.553 143.93 282.498 143.688 282.447 143.414C281.884 140.429 282.197 137.107 284.024 133.982C285.551 131.369 288.043 129.127 291.673 127.372L291.724 127.345C297.526 123.986 299.332 119.891 297.262 112.543C296.232 108.888 297.98 103.719 301.866 99.5312C306.354 94.6942 312.98 91.7514 320.835 91.7029Z" fill="#06D0B6"/>
<path fill-rule="evenodd" clip-rule="evenodd" d="M281.649 142.713C282.058 142.713 282.392 143.033 282.416 143.436L282.417 143.481V154.401C282.417 154.825 282.073 155.169 281.649 155.169C281.241 155.169 280.906 154.849 280.883 154.447L280.882 154.401L280.882 144.249H268.902C268.493 144.249 268.159 143.929 268.136 143.526L268.134 143.481C268.134 143.072 268.454 142.738 268.857 142.715L268.902 142.713H281.649Z" fill="#06D0B6"/>
<path fill-rule="evenodd" clip-rule="evenodd" d="M314.784 151.451C315.193 151.451 315.527 151.771 315.551 152.174L315.552 152.219V158.078C315.552 158.502 315.208 158.846 314.784 158.846C314.376 158.846 314.041 158.526 314.018 158.123L314.017 158.078V152.219C314.017 151.795 314.36 151.451 314.784 151.451Z" fill="#06D0B6"/>
<path fill-rule="evenodd" clip-rule="evenodd" d="M165.229 199.455H257.214C257.214 199.455 275.706 198.163 275.706 175.421V19.2056C275.706 15.2805 272.988 12.1001 269.662 12.1001H171.286C167.941 12.1001 165.229 15.2805 165.229 19.2056V199.455Z" fill="#06D0B6"/>
<path fill-rule="evenodd" clip-rule="evenodd" d="M275.706 22.3144H265.875V17.2866C265.892 15.4249 265.31 13.607 264.217 12.1001H262.157C263.48 13.2669 264.34 15.1705 264.34 17.2866V22.3144H252.716V12.1001H251.181V22.3144H178.422V12.1001H176.887V22.3144H165.229V23.8496H264.34V175.168C264.34 194.342 251.321 197.94 247.33 198.59C246.918 198.658 246.637 199.042 246.695 199.455H250.308C253.194 198.574 255.865 197.101 258.148 195.128C263.281 190.635 265.883 183.918 265.883 175.17V23.8496H275.713L275.706 22.3144Z" fill="#F1F5F9"/>
<path fill-rule="evenodd" clip-rule="evenodd" d="M176.597 102.289H236.811C236.811 102.289 251.861 102.473 251.861 82.3898V32.3138C251.861 30.3513 250.554 28.7598 248.942 28.7598H179.517C177.905 28.7598 176.597 30.3513 176.597 32.3138L176.597 102.289Z" fill="#164E63"/>
<rect x="189.34" y="38.2012" width="50.7567" height="54.784" rx="8.1" fill="#F1F5F9"/>
<path fill-rule="evenodd" clip-rule="evenodd" d="M238.024 37.4336H191.412C189.844 37.4336 188.572 38.7052 188.572 40.2737V90.9127C188.572 92.4812 189.844 93.7528 191.412 93.7528H238.024C239.592 93.7528 240.864 92.4812 240.864 90.9127V40.2737C240.864 38.7052 239.592 37.4336 238.024 37.4336ZM191.412 38.9688H238.024C238.745 38.9688 239.329 39.553 239.329 40.2737V90.9127C239.329 91.6334 238.745 92.2176 238.024 92.2176H191.412C190.692 92.2176 190.107 91.6334 190.107 90.9127V40.2737C190.107 39.553 190.692 38.9688 191.412 38.9688Z" fill="#164E63"/>
<ellipse cx="225.974" cy="134.977" rx="5.02782" ry="5.56002" transform="rotate(-9.53 225.974 134.977)" fill="#164E63"/>
<ellipse cx="238.404" cy="125.313" rx="5.05039" ry="5.58499" transform="rotate(-9.74364 238.404 125.313)" fill="#164E63"/>
<path fill-rule="evenodd" clip-rule="evenodd" d="M234.394 116.197L217.953 129.448C214.15 132.514 213.435 138.425 216.323 142.676L216.407 142.798C219.354 146.995 224.787 147.939 228.588 144.871L245.028 131.618C248.832 128.551 249.548 122.639 246.657 118.389L246.57 118.262C243.626 114.071 238.194 113.128 234.394 116.197ZM245.313 119.144L245.391 119.257C247.838 122.856 247.231 127.869 244.064 130.423L227.625 143.677C224.532 146.172 220.113 145.404 217.667 141.921L217.59 141.809C215.144 138.209 215.75 133.195 218.916 130.643L235.358 117.391C238.449 114.895 242.868 115.662 245.313 119.144Z" fill="#F1F5F9"/>
<path fill-rule="evenodd" clip-rule="evenodd" d="M208.371 161.436C209.888 160.532 211.851 161.028 212.756 162.545C213.647 164.039 213.179 165.965 211.716 166.888L211.647 166.93L203.057 172.053C201.54 172.957 199.577 172.461 198.672 170.944C197.781 169.45 198.249 167.524 199.712 166.601L199.781 166.559L208.371 161.436Z" fill="#164E63"/>
<path fill-rule="evenodd" clip-rule="evenodd" d="M191.848 161.407C193.381 160.53 195.335 161.062 196.212 162.595C197.076 164.105 196.574 166.022 195.095 166.918L195.025 166.959L186.072 172.082C184.539 172.959 182.584 172.427 181.707 170.894C180.844 169.385 181.346 167.467 182.825 166.571L182.895 166.53L191.848 161.407Z" fill="#164E63"/>
<path fill-rule="evenodd" clip-rule="evenodd" d="M204.582 126.35H195.056V116.85H186.029V126.35H176.5V135.352H186.029V144.852H195.056V135.352H204.582V126.35Z" fill="#164E63"/>
<path fill-rule="evenodd" clip-rule="evenodd" d="M190.542 127.87C188.892 127.87 187.554 129.204 187.554 130.851C187.554 132.498 188.892 133.832 190.542 133.832C192.192 133.832 193.531 132.498 193.531 130.851C193.531 129.204 192.192 127.87 190.542 127.87ZM190.542 129.406C191.346 129.406 191.996 130.053 191.996 130.851C191.996 131.649 191.346 132.297 190.542 132.297C189.739 132.297 189.089 131.649 189.089 130.851C189.089 130.053 189.739 129.406 190.542 129.406Z" fill="#06D0B6"/>
<path fill-rule="evenodd" clip-rule="evenodd" d="M195.163 37.4336C195.572 37.4336 195.906 37.7532 195.93 38.1561L195.931 38.2012V92.5989C195.931 93.0228 195.587 93.3665 195.163 93.3665C194.754 93.3665 194.42 93.0469 194.397 92.644L194.396 92.5989V38.2012C194.396 37.7773 194.739 37.4336 195.163 37.4336Z" fill="#164E63"/>
<path fill-rule="evenodd" clip-rule="evenodd" d="M184.918 66.1626C185.342 66.1626 185.686 66.5063 185.686 66.9302C185.686 67.339 185.366 67.6732 184.963 67.6965L184.918 67.6978H180.259C179.835 67.6978 179.491 67.3541 179.491 66.9302C179.491 66.5214 179.811 66.1872 180.214 66.1639L180.259 66.1626H184.918Z" fill="#F1F5F9"/>
<ellipse cx="182.587" cy="60.9991" rx="1.76038" ry="2.06742" fill="#06D0B6"/>
<path fill-rule="evenodd" clip-rule="evenodd" d="M243.614 160.917C243.989 160.755 244.423 160.917 244.603 161.278L244.622 161.319L250.96 176.091C251.127 176.48 250.947 176.932 250.557 177.099C250.181 177.26 249.748 177.098 249.568 176.737L249.549 176.696L243.211 161.925C243.044 161.535 243.224 161.084 243.614 160.917Z" fill="#F1F5F9"/>
<path fill-rule="evenodd" clip-rule="evenodd" d="M238.417 163.99C238.793 163.828 239.226 163.99 239.406 164.351L239.425 164.392L245.763 179.164C245.93 179.553 245.75 180.005 245.36 180.172C244.985 180.333 244.552 180.171 244.371 179.81L244.352 179.769L238.014 164.998C237.847 164.608 238.028 164.157 238.417 163.99Z" fill="#F1F5F9"/>
<path fill-rule="evenodd" clip-rule="evenodd" d="M233.218 167.063C233.594 166.901 234.027 167.063 234.207 167.424L234.226 167.465L240.564 182.237C240.731 182.626 240.551 183.078 240.161 183.245C239.785 183.406 239.352 183.244 239.172 182.883L239.153 182.842L232.815 168.071C232.648 167.681 232.828 167.23 233.218 167.063Z" fill="#F1F5F9"/>
<path fill-rule="evenodd" clip-rule="evenodd" d="M228.019 170.136C228.394 169.974 228.827 170.136 229.008 170.497L229.027 170.538L235.365 185.31C235.532 185.699 235.351 186.151 234.962 186.318C234.586 186.479 234.153 186.317 233.973 185.956L233.954 185.915L227.616 171.144C227.449 170.754 227.629 170.303 228.019 170.136Z" fill="#F1F5F9"/>
<path fill-rule="evenodd" clip-rule="evenodd" d="M222.819 173.206C223.195 173.045 223.628 173.207 223.809 173.568L223.827 173.609L230.165 188.383C230.332 188.772 230.152 189.223 229.763 189.391C229.387 189.552 228.954 189.39 228.773 189.029L228.754 188.988L222.417 174.214C222.249 173.824 222.43 173.373 222.819 173.206Z" fill="#F1F5F9"/>
<path fill-rule="evenodd" clip-rule="evenodd" d="M217.623 176.279C217.998 176.118 218.431 176.28 218.612 176.641L218.631 176.682L224.969 191.453C225.136 191.843 224.955 192.294 224.566 192.461C224.19 192.622 223.757 192.46 223.577 192.099L223.558 192.058L217.22 177.287C217.053 176.897 217.233 176.446 217.623 176.279Z" fill="#F1F5F9"/>
<path fill-rule="evenodd" clip-rule="evenodd" d="M436.985 198.777C437.409 198.777 437.752 199.12 437.752 199.544C437.752 199.953 437.433 200.287 437.03 200.311L436.985 200.312H0.999997C0.57606 200.312 0.232391 199.968 0.232391 199.544C0.232391 199.135 0.551951 198.801 0.954894 198.778L0.999997 198.777H436.985Z" fill="#164E63"/>
</svg>
