<svg width="438" height="201" viewBox="0 0 438 201" fill="none" xmlns="http://www.w3.org/2000/svg">
<path fill-rule="evenodd" clip-rule="evenodd" d="M277.485 143.579H68.4217C65.4086 143.579 62.962 141.287 62.962 138.428V33.3813H282.971V138.428C282.945 141.287 280.498 143.579 277.485 143.579Z" fill="#F1F5F9"/>
<path fill-rule="evenodd" clip-rule="evenodd" d="M282.971 32.6089H62.962C62.5354 32.6089 62.1895 32.9548 62.1895 33.3815V138.428C62.1895 141.719 64.9861 144.352 68.4217 144.352H277.485C280.915 144.352 283.714 141.726 283.743 138.435L283.743 33.3815C283.743 32.9548 283.397 32.6089 282.971 32.6089ZM63.7346 34.1538H282.198V138.428C282.176 140.845 280.086 142.806 277.485 142.806H68.4217L68.3342 142.806C65.7727 142.762 63.7346 140.817 63.7346 138.428V34.1538Z" fill="#164E63"/>
<path fill-rule="evenodd" clip-rule="evenodd" d="M62.2924 35.1583L62.0349 10.0491C62.0349 6.90719 64.5072 4.38339 67.5461 4.38339L278.258 4.12585C281.297 4.12585 283.769 6.67541 283.769 9.79154V35.1583H62.2924Z" fill="#06D0B6"/>
<path fill-rule="evenodd" clip-rule="evenodd" d="M156.6 8.24634C158.795 8.24634 160.854 9.28346 162.188 11.0518L162.206 11.0774L162.223 11.1038L168.923 21.6895H283.769C284.181 21.6895 284.517 22.0111 284.54 22.4167L284.542 22.4621C284.542 22.8735 284.22 23.2098 283.815 23.2333L283.769 23.2346H168.498C168.251 23.2346 168.02 23.1165 167.875 22.9188L167.845 22.8752L160.937 11.961L160.888 11.8965C159.866 10.594 158.339 9.82472 156.707 9.79257L156.6 9.79152H111.558C109.886 9.79152 108.315 10.5657 107.271 11.8965L107.221 11.961L100.313 22.8752C100.182 23.0831 99.9596 23.2149 99.7164 23.2326L99.6639 23.2346L62.1417 23.4149C61.715 23.417 61.3674 23.0727 61.3654 22.646C61.3634 22.2346 61.6834 21.8967 62.0888 21.8713L62.1342 21.8697L99.2335 21.6915L105.935 11.1038C105.941 11.0949 105.946 11.0861 105.952 11.0774L105.971 11.0518C107.281 9.31504 109.29 8.28361 111.441 8.24733L111.558 8.24634H156.6Z" fill="#F1F5F9"/>
<path fill-rule="evenodd" clip-rule="evenodd" d="M175.864 8.32361C177.698 8.32361 179.218 9.72672 179.262 11.4905L179.263 11.5685V21.4062C179.263 21.8329 178.917 22.1788 178.49 22.1788C178.079 22.1788 177.743 21.8571 177.719 21.4516L177.718 21.4062V11.5685C177.718 10.6634 176.926 9.90116 175.928 9.8698L175.864 9.86879H156.497C156.071 9.86879 155.725 9.52289 155.725 9.0962C155.725 8.68475 156.046 8.34842 156.452 8.32492L156.497 8.32361H175.864Z" fill="#F1F5F9"/>
<path fill-rule="evenodd" clip-rule="evenodd" d="M71.2288 16.7964C73.0778 16.7964 74.5767 15.2975 74.5767 13.4485C74.5767 11.5995 73.0778 10.1006 71.2288 10.1006C69.3798 10.1006 67.8809 11.5995 67.8809 13.4485C67.8809 15.2975 69.3798 16.7964 71.2288 16.7964Z" fill="#F1F5F9"/>
<path fill-rule="evenodd" clip-rule="evenodd" d="M82.2511 16.7964C84.1001 16.7964 85.599 15.2975 85.599 13.4485C85.599 11.5995 84.1001 10.1006 82.2511 10.1006C80.4021 10.1006 78.9032 11.5995 78.9032 13.4485C78.9032 15.2975 80.4021 16.7964 82.2511 16.7964Z" fill="#F1F5F9"/>
<path fill-rule="evenodd" clip-rule="evenodd" d="M93.2992 16.7964C95.1482 16.7964 96.6471 15.2975 96.6471 13.4485C96.6471 11.5995 95.1482 10.1006 93.2992 10.1006C91.4502 10.1006 89.9513 11.5995 89.9513 13.4485C89.9513 15.2975 91.4502 16.7964 93.2992 16.7964Z" fill="#F1F5F9"/>
<path fill-rule="evenodd" clip-rule="evenodd" d="M152.387 14.5883C152.657 14.2794 153.119 14.2371 153.44 14.484L153.478 14.515L156.542 17.1933C156.863 17.4741 156.896 17.9621 156.615 18.2834C156.346 18.5924 155.884 18.6346 155.563 18.3878L155.525 18.3568L152.461 15.6784C152.139 15.3977 152.107 14.9096 152.387 14.5883Z" fill="#F1F5F9"/>
<path fill-rule="evenodd" clip-rule="evenodd" d="M155.564 14.5293C155.892 14.2559 156.379 14.2998 156.653 14.6274C156.916 14.9424 156.885 15.4049 156.591 15.6831L156.555 15.7156L153.438 18.3166C153.111 18.5901 152.624 18.5462 152.35 18.2186C152.087 17.9036 152.118 17.4411 152.412 17.1629L152.448 17.1304L155.564 14.5293Z" fill="#F1F5F9"/>
<path fill-rule="evenodd" clip-rule="evenodd" d="M170.95 13.8347C171.362 13.8376 171.696 14.1616 171.716 14.5673L171.717 14.6128L171.692 18.2697C171.689 18.6964 171.34 19.0398 170.914 19.0368C170.502 19.0339 170.168 18.7099 170.147 18.3042L170.146 18.2588L170.172 14.6019C170.175 14.1752 170.524 13.8317 170.95 13.8347Z" fill="#F1F5F9"/>
<path fill-rule="evenodd" clip-rule="evenodd" d="M172.773 15.6632C173.2 15.6632 173.546 16.0091 173.546 16.4358C173.546 16.8473 173.224 17.1836 172.819 17.2071L172.773 17.2084H169.091C168.664 17.2084 168.318 16.8625 168.318 16.4358C168.318 16.0243 168.64 15.688 169.045 15.6645L169.091 15.6632H172.773Z" fill="#F1F5F9"/>
<path fill-rule="evenodd" clip-rule="evenodd" d="M274.859 25.8357C275.285 25.8357 275.631 26.1816 275.631 26.6083C275.631 27.0197 275.309 27.3561 274.904 27.3796L274.859 27.3809H270.661C270.234 27.3809 269.888 27.035 269.888 26.6083C269.888 26.1968 270.21 25.8605 270.615 25.837L270.661 25.8357H274.859Z" fill="#F1F5F9"/>
<path fill-rule="evenodd" clip-rule="evenodd" d="M274.859 28.1536C275.285 28.1536 275.631 28.4995 275.631 28.9262C275.631 29.3376 275.309 29.6739 274.904 29.6974L274.859 29.6987H270.661C270.234 29.6987 269.888 29.3528 269.888 28.9262C269.888 28.5147 270.21 28.1784 270.615 28.1549L270.661 28.1536H274.859Z" fill="#F1F5F9"/>
<path fill-rule="evenodd" clip-rule="evenodd" d="M274.859 30.4971C275.285 30.4971 275.631 30.843 275.631 31.2697C275.631 31.6811 275.309 32.0174 274.904 32.0409L274.859 32.0423H270.661C270.234 32.0423 269.888 31.6964 269.888 31.2697C269.888 30.8582 270.21 30.5219 270.615 30.4984L270.661 30.4971H274.859Z" fill="#F1F5F9"/>
<path fill-rule="evenodd" clip-rule="evenodd" d="M263.295 27.5869C263.192 27.2521 262.909 27.0203 262.549 27.0203H260.849L260.334 25.3979C260.231 25.0888 259.922 24.8571 259.587 24.8571C259.252 24.8571 258.943 25.0631 258.84 25.3979L258.325 27.0203H256.625C256.291 27.0203 255.982 27.2263 255.879 27.5611C255.776 27.8702 255.879 28.2307 256.162 28.4367L257.527 29.4411L257.012 31.0636C256.909 31.3726 257.012 31.7331 257.295 31.9392C257.424 32.0422 257.578 32.0937 257.758 32.0937C257.939 32.0937 258.068 32.0422 258.222 31.9392L259.638 30.909L261.029 31.7074C261.312 31.8619 261.647 31.8361 261.905 31.6301C262.162 31.4241 262.24 31.0893 262.162 30.7803L261.647 29.2351L262.935 28.4882C263.244 28.2822 263.373 27.9217 263.295 27.5869Z" fill="#F1F5F9"/>
<path fill-rule="evenodd" clip-rule="evenodd" d="M248.642 31.8618H100.793C100.072 31.8618 99.5057 31.2953 99.5057 30.5742V28.3079C99.5057 27.5868 100.072 27.0203 100.793 27.0203H248.642C249.363 27.0203 249.93 27.5868 249.93 28.3079V30.5742C249.93 31.2953 249.363 31.8618 248.642 31.8618Z" fill="#F1F5F9"/>
<path fill-rule="evenodd" clip-rule="evenodd" d="M74.8527 26.2451C75.1671 25.9566 75.6558 25.9776 75.9443 26.292C76.2217 26.5943 76.2129 27.0578 75.9323 27.3495L75.8973 27.3836L74.0222 29.1038L75.9723 30.8785C76.2757 31.1546 76.3087 31.617 76.0554 31.9327L76.0237 31.9699C75.7475 32.2733 75.2852 32.3063 74.9694 32.0531L74.9323 32.0213L72.357 29.6778C72.0335 29.3835 72.0206 28.8829 72.3188 28.5721L72.3546 28.5371L74.8527 26.2451Z" fill="#F1F5F9"/>
<path fill-rule="evenodd" clip-rule="evenodd" d="M79.1607 28.3853C79.5874 28.3853 79.9333 28.7312 79.9333 29.1578C79.9333 29.5693 79.6117 29.9056 79.2061 29.9291L79.1607 29.9304H72.877C72.4503 29.9304 72.1044 29.5845 72.1044 29.1578C72.1044 28.7464 72.426 28.4101 72.8316 28.3866L72.877 28.3853H79.1607Z" fill="#F1F5F9"/>
<path fill-rule="evenodd" clip-rule="evenodd" d="M87.1699 26.2891C87.4488 25.9882 87.9115 25.9595 88.2248 26.2157L88.2617 26.2478L90.734 28.5398C91.0536 28.8361 91.0632 29.3346 90.7646 29.6431L90.7287 29.6778L88.1534 32.0213C87.8378 32.3085 87.3492 32.2855 87.062 31.9699C86.7859 31.6664 86.7966 31.203 87.0783 30.9125L87.1135 30.8785L89.0663 29.101L87.2112 27.3809C86.9103 27.102 86.8816 26.6393 87.1378 26.3259L87.1699 26.2891Z" fill="#F1F5F9"/>
<path fill-rule="evenodd" clip-rule="evenodd" d="M90.2088 28.3853C90.6355 28.3853 90.9814 28.7312 90.9814 29.1578C90.9814 29.5693 90.6598 29.9056 90.2542 29.9291L90.2088 29.9304H83.9508C83.5241 29.9304 83.1782 29.5845 83.1782 29.1578C83.1782 28.7464 83.4999 28.4101 83.9054 28.3866L83.9508 28.3853H90.2088Z" fill="#F1F5F9"/>
<path fill-rule="evenodd" clip-rule="evenodd" d="M268.255 14.0457C268.337 13.6271 268.744 13.3548 269.162 13.4374C269.566 13.517 269.834 13.8977 269.778 14.3002L269.771 14.3449L269.547 15.4784L270.773 15.6166C271.182 15.6626 271.48 16.0198 271.458 16.4255L271.454 16.4707C271.408 16.8796 271.051 17.1779 270.645 17.1559L270.6 17.1521L268.54 16.9203C268.106 16.8716 267.802 16.4751 267.861 16.0488L267.868 16.003L268.255 14.0457Z" fill="#F1F5F9"/>
<path fill-rule="evenodd" clip-rule="evenodd" d="M271.185 13.3643C271.531 13.1135 272.014 13.19 272.265 13.5352C272.506 13.8672 272.444 14.3266 272.132 14.5844L272.094 14.6144L269.081 16.8034C268.735 17.0542 268.252 16.9776 268.001 16.6324C267.76 16.3005 267.822 15.841 268.134 15.5832L268.172 15.5533L271.185 13.3643Z" fill="#F1F5F9"/>
<path fill-rule="evenodd" clip-rule="evenodd" d="M273.911 10.0624C273.959 9.6537 274.317 9.35698 274.723 9.38072L274.768 9.38469L276.751 9.61647C277.184 9.66715 277.487 10.0652 277.426 10.4914L277.418 10.5372L277.006 12.5717C276.922 12.9899 276.514 13.2603 276.096 13.1756C275.692 13.0939 275.427 12.7119 275.484 12.3097L275.492 12.265L275.737 11.0534L274.588 10.9194C274.18 10.8717 273.883 10.5132 273.907 10.1076L273.911 10.0624Z" fill="#F1F5F9"/>
<path fill-rule="evenodd" clip-rule="evenodd" d="M276.229 9.78709C276.573 9.53438 277.057 9.60823 277.31 9.95203C277.553 10.2826 277.494 10.7424 277.183 11.002L277.145 11.0321L274.131 13.2469C273.788 13.4996 273.304 13.4258 273.051 13.0819C272.808 12.7514 272.867 12.2916 273.178 12.032L273.216 12.0019L276.229 9.78709Z" fill="#F1F5F9"/>
<path fill-rule="evenodd" clip-rule="evenodd" d="M132.882 105.876H92.8614C91.2905 105.876 90.0286 104.614 90.0286 103.044V80.9473C90.0286 79.3764 91.2905 78.1145 92.8614 78.1145H132.882C134.453 78.1145 135.715 79.3764 135.715 80.9473V103.044C135.715 104.614 134.453 105.876 132.882 105.876Z" fill="#008473"/>
<path fill-rule="evenodd" clip-rule="evenodd" d="M243.646 70.3114H91.9858C91.1874 70.3114 90.5693 69.6676 90.5693 68.895V58.1559C90.5693 57.3576 91.2132 56.7395 91.9858 56.7395H243.646C244.444 56.7395 245.062 57.3833 245.062 58.1559V68.895C245.062 69.6676 244.418 70.3114 243.646 70.3114Z" fill="#F1F5F9"/>
<path fill-rule="evenodd" clip-rule="evenodd" d="M243.646 55.9668H91.9858C90.7797 55.9668 89.7968 56.9374 89.7968 58.1558V68.8948C89.7968 70.1009 90.7674 71.0839 91.9858 71.0839H243.646C244.845 71.0839 245.835 70.0941 245.835 68.8948V58.1558C245.835 56.9497 244.864 55.9668 243.646 55.9668ZM91.9858 57.512H243.646C244.006 57.512 244.29 57.7988 244.29 58.1558V68.8949C244.29 69.2408 243.992 69.5387 243.646 69.5387H91.9858C91.6251 69.5387 91.3419 69.2519 91.3419 68.8949V58.1558C91.3419 57.7952 91.6287 57.512 91.9858 57.512Z" fill="#0E7490"/>
<rect x="205.634" y="56.5076" width="39.2735" height="13.7779" fill="#0E7490"/>
<path fill-rule="evenodd" clip-rule="evenodd" d="M230.151 69.6675C230.022 69.6675 229.919 69.616 229.842 69.5645L226.288 66.4742C225.85 66.7059 225.413 66.8862 224.923 66.9635C224.614 67.015 224.279 67.0665 223.97 67.0665C221.704 67.0665 219.747 65.4698 219.309 63.255C219.052 62.0189 219.309 60.7312 220.004 59.6753C220.7 58.6195 221.781 57.8984 223.043 57.6409C223.352 57.5893 223.687 57.5378 223.996 57.5378C226.262 57.5378 228.22 59.1345 228.658 61.3493C228.941 62.7657 228.58 64.2336 227.653 65.341L231.001 68.2511C231.13 68.3799 231.181 68.5602 231.13 68.7662C231.104 68.9207 231.001 69.101 230.872 69.2297L230.769 69.3585C230.615 69.5388 230.357 69.6675 230.151 69.6675ZM223.97 59.3663C223.764 59.3663 223.584 59.3921 223.378 59.4178C222.606 59.5723 221.962 60.0101 221.524 60.6797C221.086 61.3236 220.932 62.1219 221.086 62.8687C221.369 64.2337 222.554 65.2123 223.945 65.2123C224.151 65.2123 224.331 65.1865 224.537 65.1608C225.31 65.0062 225.953 64.5684 226.391 63.8989C226.829 63.255 226.984 62.4567 226.829 61.7098C226.571 60.3449 225.361 59.3663 223.97 59.3663Z" fill="#F1F5F9"/>
<path fill-rule="evenodd" clip-rule="evenodd" d="M139.114 66.4483H96.6213C96.0805 66.4483 95.6169 66.0105 95.6169 65.444V61.4265C95.6169 60.8857 96.0547 60.4221 96.6213 60.4221H139.114C139.655 60.4221 140.118 60.8599 140.118 61.4265V65.444C140.118 65.9848 139.655 66.4483 139.114 66.4483Z" fill="#06D0B6"/>
<path fill-rule="evenodd" clip-rule="evenodd" d="M134.144 113.731H90.9042C90.3633 113.731 89.8998 113.293 89.8998 112.727V111.439C89.8998 110.898 90.3376 110.435 90.9042 110.435H134.144C134.684 110.435 135.148 110.872 135.148 111.439V112.727C135.122 113.293 134.684 113.731 134.144 113.731Z" fill="#008473"/>
<path fill-rule="evenodd" clip-rule="evenodd" d="M188.096 105.876H148.076C146.505 105.876 145.243 104.614 145.243 103.044V80.9473C145.243 79.3764 146.505 78.1145 148.076 78.1145H188.096C189.667 78.1145 190.929 79.3764 190.929 80.9473V103.044C190.929 104.614 189.667 105.876 188.096 105.876Z" fill="#06D0B6"/>
<path fill-rule="evenodd" clip-rule="evenodd" d="M189.332 113.731H146.119C145.578 113.731 145.114 113.293 145.114 112.727V111.439C145.114 110.898 145.552 110.435 146.119 110.435H189.332C189.873 110.435 190.337 110.872 190.337 111.439V112.727C190.337 113.293 189.899 113.731 189.332 113.731Z" fill="#06D0B6"/>
<path fill-rule="evenodd" clip-rule="evenodd" d="M243.311 105.876H203.265C201.694 105.876 200.432 104.614 200.432 103.044V80.9473C200.432 79.3764 201.694 78.1145 203.265 78.1145H243.285C244.856 78.1145 246.118 79.3764 246.118 80.9473V103.044C246.144 104.614 244.856 105.876 243.311 105.876Z" fill="#008473"/>
<path fill-rule="evenodd" clip-rule="evenodd" d="M244.547 113.731H201.333C200.793 113.731 200.329 113.293 200.329 112.727V111.439C200.329 110.898 200.767 110.435 201.333 110.435H244.547C245.088 110.435 245.552 110.872 245.552 111.439V112.727C245.552 113.293 245.088 113.731 244.547 113.731Z" fill="#008473"/>
<path fill-rule="evenodd" clip-rule="evenodd" d="M135.715 126.865V142.832H90.0286V126.865C90.0286 125.294 91.2905 124.032 92.8614 124.032H132.882C134.453 124.032 135.715 125.294 135.715 126.865Z" fill="#008473"/>
<path fill-rule="evenodd" clip-rule="evenodd" d="M190.929 126.865V142.832H145.243V126.865C145.243 125.294 146.505 124.032 148.076 124.032H188.096C189.667 124.032 190.929 125.294 190.929 126.865Z" fill="#008473"/>
<path fill-rule="evenodd" clip-rule="evenodd" d="M246.144 126.865V142.832H200.432V126.865C200.432 125.294 201.694 124.032 203.265 124.032H243.285C244.856 124.032 246.144 125.294 246.144 126.865Z" fill="#008473"/>
<path fill-rule="evenodd" clip-rule="evenodd" d="M302.054 103.069C301.539 101.601 298.886 101.138 287.555 104.331C271.768 108.786 261.106 110.666 262.24 113.113C267.57 115.817 301.281 107.473 302.054 103.069Z" fill="#164E63"/>
<path fill-rule="evenodd" clip-rule="evenodd" d="M292.989 90.1155L267.596 100.288C267.596 100.288 268.729 106.752 269.888 113.396C277.769 112.546 289.383 109.662 296.285 106.855C294.714 98.9488 292.989 90.1155 292.989 90.1155Z" fill="#F1F5F9"/>
<path fill-rule="evenodd" clip-rule="evenodd" d="M292.701 89.3984L267.309 99.5708C266.984 99.7008 266.79 100.031 266.828 100.375L266.886 100.712L269.127 113.529C269.197 113.93 269.566 114.208 269.971 114.164C277.907 113.309 289.593 110.411 296.576 107.571C296.919 107.431 297.115 107.068 297.043 106.704L296.116 102.023C295.672 99.779 295.215 97.455 294.757 95.1243L293.747 89.9674C293.654 89.4918 293.151 89.2181 292.701 89.3984ZM268.465 100.772L292.41 91.1797L293.366 96.0576C293.823 98.387 294.28 100.703 294.72 102.932L295.402 106.376L295.317 106.409C288.716 108.986 278.335 111.571 270.844 112.507L270.524 112.546L268.465 100.772Z" fill="#164E63"/>
<path fill-rule="evenodd" clip-rule="evenodd" d="M367.801 185.119C366.617 168.045 347.688 143.347 340.709 133.896C332.417 122.668 319.411 115.148 303.831 113.808C302.955 107.782 302.054 102.838 302.054 102.838C302.414 107.164 267.648 115.843 262.214 113.113L262.806 117.311C259.947 118.032 256.806 118.985 253.149 120.272C235.276 126.582 200.612 170.98 200.612 170.98C200.612 170.98 193.453 150.996 165.099 161.606C145.887 170.105 159.768 199.772 159.768 199.772L354.513 199.36C362.239 199.36 368.342 192.819 367.801 185.119Z" fill="#0E7490"/>
<path fill-rule="evenodd" clip-rule="evenodd" d="M320.199 166.714C324.056 166.263 328.157 166.248 332.019 166.964C336.617 167.816 340.347 169.631 342.87 172.619C343.146 172.945 343.105 173.433 342.779 173.708C342.452 173.983 341.965 173.942 341.69 173.616C339.427 170.936 336.014 169.275 331.737 168.483C328.05 167.8 324.095 167.814 320.379 168.249L320.014 168.293C319.658 168.338 319.328 168.385 319.026 168.431L318.704 168.483L318.397 168.536C318.375 168.54 318.359 168.543 318.348 168.545C318.32 168.551 318.292 168.554 318.264 168.557C314.767 168.842 306.219 170.77 294.233 173.857L292.974 174.183C292.551 174.292 292.125 174.403 291.696 174.515L291.051 174.683C286.247 175.939 281.269 177.278 276.368 178.624L273.343 179.457C272.425 179.711 271.552 179.954 270.728 180.184L268.296 180.866C267.885 180.982 267.458 180.743 267.342 180.333C267.23 179.937 267.448 179.526 267.832 179.393L268.001 179.343L270.313 178.695C271.687 178.312 273.201 177.892 274.828 177.444C279.721 176.097 284.711 174.75 289.547 173.48L290.66 173.188C291.309 173.019 291.951 172.852 292.586 172.687L294.569 172.176C306.043 169.231 314.246 167.383 317.915 167.036L318.097 167.02L318.209 167C318.331 166.978 318.473 166.954 318.635 166.928C319.094 166.855 319.618 166.782 320.199 166.714Z" fill="#F1F5F9"/>
<path fill-rule="evenodd" clip-rule="evenodd" d="M307.818 150.896C308.173 150.688 308.625 150.795 308.85 151.132L308.875 151.172L318.198 167.087C318.414 167.455 318.29 167.929 317.922 168.144C317.567 168.352 317.115 168.245 316.89 167.908L316.865 167.868L307.542 151.953C307.326 151.585 307.45 151.111 307.818 150.896Z" fill="#F1F5F9"/>
<path fill-rule="evenodd" clip-rule="evenodd" d="M200.481 170.245C200.901 170.172 201.301 170.454 201.374 170.874L201.392 170.99C201.414 171.138 201.441 171.347 201.468 171.612L201.476 171.694C201.621 173.208 201.622 174.995 201.382 176.947C201.047 179.683 200.278 182.365 198.977 184.884C196.266 190.134 191.517 194.18 184.373 196.54C183.967 196.674 183.531 196.454 183.397 196.048C183.263 195.643 183.483 195.206 183.888 195.073C190.649 192.84 195.079 189.065 197.604 184.175C198.815 181.829 199.534 179.322 199.849 176.759C200.074 174.926 200.073 173.25 199.937 171.842L199.917 171.646C199.907 171.553 199.897 171.466 199.887 171.386L199.863 171.212C199.857 171.177 199.854 171.152 199.851 171.138C199.778 170.717 200.06 170.317 200.481 170.245Z" fill="#F1F5F9"/>
<path fill-rule="evenodd" clip-rule="evenodd" d="M201.717 170.272C201.866 169.872 202.311 169.669 202.711 169.819L202.91 169.896L203.074 169.961C203.16 169.996 203.252 170.034 203.349 170.074L203.449 170.116C204.024 170.358 204.664 170.646 205.353 170.978C207.321 171.928 209.289 173.05 211.129 174.341C217.265 178.645 220.598 183.768 219.502 189.664C219.424 190.083 219.021 190.36 218.601 190.282C218.182 190.204 217.905 189.801 217.983 189.381C218.942 184.221 215.936 179.6 210.242 175.606C208.475 174.367 206.579 173.286 204.681 172.37C204.084 172.081 203.525 171.828 203.017 171.611L202.665 171.463C202.606 171.439 202.55 171.416 202.496 171.394L202.17 171.266C201.771 171.117 201.568 170.672 201.717 170.272Z" fill="#F1F5F9"/>
<path fill-rule="evenodd" clip-rule="evenodd" d="M246.308 152.696C246.435 152.289 246.869 152.063 247.276 152.19C247.683 152.318 247.91 152.751 247.782 153.158L247.699 153.435C247.563 153.9 247.368 154.615 247.165 155.428C246.802 156.884 246.447 158.495 246.126 160.211C245.246 164.91 244.748 169.666 244.798 174.2C244.862 179.908 245.797 184.892 247.754 188.894C250.026 193.541 253.619 196.741 258.729 198.286C259.137 198.409 259.368 198.84 259.245 199.249C259.121 199.657 258.69 199.888 258.282 199.765C252.748 198.092 248.822 194.595 246.366 189.573C244.295 185.339 243.319 180.136 243.253 174.218C243.201 169.571 243.71 164.718 244.607 159.926L244.702 159.425C245.258 156.548 245.897 154.007 246.308 152.696Z" fill="#F1F5F9"/>
<path fill-rule="evenodd" clip-rule="evenodd" d="M304.292 116.411C304.661 116.196 305.134 116.322 305.349 116.691C305.414 116.804 305.495 116.982 305.571 117.22C305.907 118.28 305.841 119.557 305.125 120.94C304.165 122.793 302.142 124.585 298.851 126.266C298.471 126.46 298.006 126.309 297.812 125.929C297.618 125.549 297.768 125.083 298.149 124.889C301.174 123.345 302.957 121.764 303.753 120.229C304.272 119.228 304.316 118.373 304.098 117.687C304.08 117.63 304.061 117.58 304.043 117.536L304.013 117.467C303.798 117.098 303.923 116.625 304.292 116.411Z" fill="#F1F5F9"/>
<path fill-rule="evenodd" clip-rule="evenodd" d="M301.835 115.596C301.915 115.177 302.319 114.901 302.738 114.981C303.157 115.06 303.433 115.464 303.354 115.883C303.329 116.012 303.273 116.217 303.172 116.486C303.013 116.911 302.785 117.379 302.476 117.876C301.612 119.266 300.282 120.642 298.393 121.913C294.96 124.224 290.048 125.945 283.411 126.858C282.988 126.916 282.598 126.62 282.54 126.198C282.482 125.775 282.778 125.385 283.2 125.327C289.616 124.445 294.307 122.801 297.53 120.632C299.238 119.482 300.416 118.265 301.163 117.061C301.418 116.651 301.601 116.276 301.725 115.944L301.759 115.85C301.805 115.719 301.829 115.632 301.835 115.596Z" fill="#F1F5F9"/>
<path fill-rule="evenodd" clip-rule="evenodd" d="M260.875 188.312C260.875 188.312 255.467 189.857 251.938 192.072C248.41 194.287 243.62 197.455 243.852 198.227C244.058 199.025 247.895 199.927 250.213 198.768C255.441 193.849 262.42 192.767 262.42 192.767C261.673 192.613 255.827 195.085 253.252 196.63C248.41 199.566 248.41 199.644 255.776 199.669L278.747 199.36C279.314 186.767 268.111 180.123 268.111 180.123C268.111 180.123 257.449 179.814 250.161 184.166C245.835 186.767 239.551 191.3 239.216 192.896C238.933 194.261 240.221 194.39 241.817 194.081C241.817 194.081 238.263 197.48 244.084 197.249" fill="#F1F5F9"/>
<path fill-rule="evenodd" clip-rule="evenodd" d="M267.884 180.891L267.636 180.89C267.326 180.89 266.955 180.896 266.531 180.909C265.667 180.936 264.735 180.991 263.755 181.08C261.1 181.323 258.473 181.783 256.026 182.507C253.984 183.112 252.144 183.882 250.559 184.828L250.262 185.008C245.391 187.972 240.196 191.989 239.973 193.053L239.95 193.17C239.921 193.332 239.944 193.346 240.059 193.384C240.355 193.484 240.92 193.468 241.67 193.322C242.413 193.179 242.89 194.072 242.381 194.609L242.291 194.7C242.271 194.721 242.247 194.747 242.22 194.777C242.112 194.895 242.004 195.025 241.904 195.161C241.715 195.42 241.584 195.665 241.535 195.859C241.491 196.035 241.507 196.085 241.643 196.171C241.998 196.398 242.79 196.527 244.053 196.477C244.099 196.475 244.143 196.477 244.187 196.483L244.193 196.484L244.231 196.45C244.639 196.099 245.159 195.701 245.797 195.235L246.032 195.065C247.468 194.025 249.354 192.782 251.528 191.418C252.412 190.863 253.446 190.324 254.601 189.803C255.929 189.204 257.347 188.658 258.764 188.174L259.129 188.051C259.428 187.952 259.711 187.86 259.977 187.777L260.22 187.702L260.662 187.569C261.073 187.452 261.5 187.69 261.617 188.1C261.731 188.496 261.514 188.907 261.13 189.041L260.673 189.179L260.591 189.204C260.191 189.328 259.744 189.473 259.263 189.637C257.888 190.105 256.515 190.634 255.237 191.211C254.141 191.705 253.168 192.213 252.349 192.727L251.734 193.114C249.913 194.267 248.322 195.321 247.075 196.217L246.938 196.316C246.11 196.916 245.47 197.422 245.049 197.816C244.974 197.886 244.907 197.951 244.849 198.011L244.806 198.055L244.849 198.074L244.906 198.099C245.276 198.255 245.787 198.387 246.349 198.467C247.482 198.627 248.62 198.554 249.487 198.239L249.516 198.228L249.527 198.217C249.658 198.078 249.823 197.935 250.028 197.779L250.107 197.72C250.264 197.603 250.433 197.484 250.636 197.349L250.726 197.289L250.891 197.154C251.517 196.651 252.174 196.179 252.86 195.739L253.09 195.594C255.102 194.335 257.252 193.395 259.402 192.724C259.95 192.554 260.47 192.409 260.955 192.29L261.08 192.259L261.143 192.24C261.788 192.043 262.259 191.959 262.543 192.005L262.576 192.011C263.403 192.182 263.389 193.353 262.586 193.522L262.361 193.562L262.198 193.594C262.14 193.605 262.08 193.617 262.017 193.631L261.74 193.691L261.513 193.744L261.38 193.788L261.282 193.821C260.62 194.044 259.762 194.377 258.822 194.773L258.493 194.913C256.629 195.713 254.767 196.622 253.652 197.291L252.89 197.755C252.465 198.015 252.134 198.221 251.864 198.393L251.645 198.534L251.53 198.63L251.429 198.715L251.326 198.804L251.45 198.813L251.639 198.825C252.28 198.863 253.045 198.881 254.45 198.89L255.765 198.897L277.995 198.598L277.995 198.584C278.036 193.549 276.158 189.16 272.972 185.424L272.855 185.288C271.725 183.981 270.512 182.852 269.301 181.907C268.878 181.577 268.487 181.294 268.138 181.059L267.999 180.967L267.884 180.891ZM243.117 198.468L243.1 198.408C243.068 198.285 243.058 198.163 243.071 198.039L243.072 198.023C242.107 197.984 241.386 197.816 240.874 197.513L240.812 197.474C240.079 197.007 239.839 196.268 240.037 195.482C240.077 195.321 240.135 195.161 240.207 195.003L240.218 194.978L240.147 194.972C239.967 194.952 239.799 194.92 239.642 194.873L239.565 194.848C238.666 194.545 238.248 193.759 238.46 192.738C238.825 190.995 244.257 186.814 249.765 183.503C251.471 182.484 253.428 181.665 255.587 181.026C258.141 180.269 260.865 179.793 263.614 179.542L263.98 179.509C265.546 179.377 266.884 179.336 267.888 179.346L268.134 179.35C268.265 179.354 268.393 179.391 268.505 179.458L268.662 179.555C268.752 179.612 268.866 179.686 269.001 179.777C269.38 180.032 269.8 180.336 270.252 180.689C271.538 181.693 272.824 182.889 274.024 184.277C277.678 188.501 279.782 193.553 279.519 199.395C279.501 199.789 279.191 200.103 278.803 200.131L278.758 200.133L255.773 200.442L254.311 200.435C250.765 200.411 249.945 200.332 249.467 199.872L249.449 199.854L249.432 199.859C246.959 200.458 243.538 199.804 243.117 198.468Z" fill="#164E63"/>
<path fill-rule="evenodd" clip-rule="evenodd" d="M258.553 184.512C258.973 184.439 259.373 184.72 259.447 185.14C259.52 185.561 259.239 185.961 258.819 186.035C257.033 186.346 253.353 188.092 249.173 190.516L249.018 190.606C247.285 191.614 245.603 192.662 244.276 193.555L244.112 193.666C242.88 194.503 242.024 195.178 241.949 195.311C241.627 195.88 241.672 196.066 241.99 196.194C242.573 196.428 243.72 196.327 245.11 195.826C245.511 195.682 245.954 195.89 246.098 196.292C246.243 196.693 246.034 197.136 245.633 197.28C243.92 197.897 242.414 198.03 241.413 197.627C240.154 197.121 239.855 195.875 240.604 194.551C241.033 193.792 244.166 191.655 247.988 189.418L248.57 189.079C252.84 186.614 256.551 184.862 258.553 184.512Z" fill="#164E63"/>
<path fill-rule="evenodd" clip-rule="evenodd" d="M295.976 85.6088C286.653 103.018 273.571 105.928 265.15 103.739C253.406 100.752 249.105 80.0719 258.428 62.637C267.751 45.2279 281.22 41.1847 293.272 47.623C305.273 54.0612 305.273 68.1997 295.976 85.6088Z" fill="#F1F5F9"/>
<path fill-rule="evenodd" clip-rule="evenodd" d="M257.747 62.2723C253.22 70.7384 251.642 80.4077 253.129 88.7415C254.601 96.9924 258.925 102.953 264.959 104.488C269.793 105.744 275.316 105.232 280.559 102.72C286.732 99.7619 292.246 94.2112 296.657 85.9735C306.365 67.7942 305.741 53.7125 293.995 47.1384L293.636 46.9415C280.497 39.9228 266.828 45.3146 257.747 62.2723ZM292.907 48.3038C304.064 54.2893 304.751 67.537 295.295 85.2449C291.033 93.2035 285.754 98.5168 279.891 101.326C274.979 103.68 269.83 104.157 265.344 102.991C259.976 101.626 256.025 96.1793 254.65 88.4701C253.224 80.4805 254.745 71.1631 259.109 63.0013C267.725 46.9134 280.32 41.8181 292.538 48.1103L292.907 48.3038Z" fill="#164E63"/>
<path fill-rule="evenodd" clip-rule="evenodd" d="M291.598 75.8483C291.598 75.8483 302.646 75.0242 299.839 83.8575C297.032 92.6908 288.74 88.5445 288.74 88.5445" fill="#F1F5F9"/>
<path fill-rule="evenodd" clip-rule="evenodd" d="M291.759 75.0661C293.08 75.012 294.639 75.1209 296.149 75.5313C300.123 76.611 302.066 79.4009 300.575 84.0914C299.489 87.5092 297.514 89.4392 294.93 90.0673C293.246 90.4765 291.476 90.3015 289.771 89.7679L289.569 89.7027C289.043 89.529 288.641 89.359 288.394 89.2355C288.012 89.0447 287.858 88.5806 288.048 88.199C288.232 87.8315 288.669 87.6744 289.042 87.8337L289.177 87.8968C289.228 87.92 289.295 87.9492 289.377 87.9833C289.629 88.0885 289.917 88.1943 290.233 88.2932C291.693 88.7503 293.195 88.8988 294.565 88.5658C296.611 88.0685 298.176 86.5393 299.103 83.6235C300.301 79.8521 298.934 77.8892 295.744 77.0224C294.47 76.6763 293.122 76.5709 291.977 76.6046L291.705 76.6155C291.683 76.6168 291.667 76.6179 291.656 76.6187C291.23 76.6504 290.859 76.3312 290.828 75.9057C290.796 75.4802 291.115 75.1095 291.541 75.0778L291.679 75.0697C291.703 75.0685 291.73 75.0673 291.759 75.0661Z" fill="#164E63"/>
<path fill-rule="evenodd" clip-rule="evenodd" d="M261.526 72.7156C261.852 71.3457 261.398 70.0644 260.512 69.8539C259.627 69.6433 258.645 70.5832 258.319 71.9531C257.994 73.3231 258.447 74.6043 259.333 74.8148C260.219 75.0254 261.201 74.0855 261.526 72.7156Z" fill="#164E63"/>
<path fill-rule="evenodd" clip-rule="evenodd" d="M275.157 74.5081C275.483 73.1381 275.029 71.8569 274.144 71.6464C273.258 71.4358 272.276 72.3757 271.95 73.7456C271.625 75.1155 272.079 76.3968 272.964 76.6073C273.85 76.8178 274.832 75.878 275.157 74.5081Z" fill="#164E63"/>
<path fill-rule="evenodd" clip-rule="evenodd" d="M267.1 67.4661C267.277 67.0781 267.736 66.9076 268.124 67.0852C268.498 67.2565 268.67 67.6889 268.522 68.0674L268.505 68.1093L261.648 83.086L266.203 84.0015C266.607 84.0826 266.873 84.4642 266.816 84.8664L266.808 84.9112C266.727 85.3146 266.346 85.5809 265.944 85.5241L265.899 85.5164L260.388 84.409C259.914 84.314 259.647 83.8155 259.819 83.3727L259.837 83.33L267.1 67.4661Z" fill="#164E63"/>
<path fill-rule="evenodd" clip-rule="evenodd" d="M272.615 64.9294C274.817 63.8584 277.021 64.5038 279.026 66.1638C279.472 66.5333 279.875 66.9277 280.228 67.3226L280.33 67.4382C280.492 67.6237 280.61 67.7721 280.682 67.8692C280.936 68.2125 280.863 68.6962 280.52 68.9497C280.19 69.1935 279.73 69.1356 279.469 68.8257L279.375 68.7044L279.354 68.6781C279.275 68.581 279.183 68.4716 279.077 68.3531C278.772 68.0124 278.424 67.6711 278.041 67.354C276.452 66.0389 274.838 65.5663 273.291 66.319C272.907 66.5056 272.445 66.3458 272.258 65.9621C272.071 65.5784 272.231 65.116 272.615 64.9294Z" fill="#164E63"/>
<path fill-rule="evenodd" clip-rule="evenodd" d="M271.073 88.5704C270.426 89.4269 269.634 89.9494 268.716 90.1978C267.648 90.4867 266.471 90.393 265.332 90.0547C265.101 89.986 264.892 89.9128 264.709 89.8402L264.606 89.7981L264.504 89.7534C264.085 89.5529 263.585 89.7652 263.438 90.206L263.413 90.286C263.382 90.3901 263.346 90.5321 263.311 90.7058C263.153 91.4845 263.134 92.3069 263.35 93.1023C263.886 95.0783 265.69 96.2182 268.857 96.1156C268.915 96.1138 268.973 96.1054 269.029 96.0907C272.047 95.2982 273.778 93.1804 274.015 90.7673C274.113 89.7708 273.918 88.8443 273.454 88.2941C272.792 87.5093 271.805 87.6426 271.115 88.516L271.073 88.5704ZM272.357 89.4362L272.362 89.4471C272.466 89.6963 272.525 90.1262 272.477 90.6162L272.468 90.7023C272.263 92.4203 271.02 93.931 268.751 94.5652L268.72 94.5734L268.578 94.5765C266.244 94.6066 265.166 93.8944 264.841 92.6975L264.814 92.5909C264.74 92.2685 264.722 91.9256 264.747 91.5821L264.754 91.4936L264.892 91.5359C266.282 91.9488 267.733 92.0643 269.119 91.6895C270.323 91.3638 271.379 90.6824 272.224 89.6083L272.335 89.4634L272.357 89.4362Z" fill="#164E63"/>
<path fill-rule="evenodd" clip-rule="evenodd" d="M256.737 61.7124C258.436 61.1778 260.196 61.5967 261.886 62.5924C262.288 62.8293 262.655 63.0826 262.982 63.3367L263.094 63.4259C263.236 63.5395 263.342 63.6311 263.408 63.6927C263.721 63.9828 263.74 64.4716 263.45 64.7846C263.171 65.0855 262.708 65.1142 262.395 64.8581L262.305 64.7792L262.283 64.76C262.212 64.6993 262.128 64.6306 262.032 64.5561C261.756 64.3408 261.443 64.1248 261.101 63.9236C259.752 63.1286 258.404 62.8078 257.201 63.1863C256.705 63.3424 256.232 63.6181 255.782 64.0305C255.468 64.3189 254.979 64.2976 254.691 63.9831C254.403 63.6685 254.424 63.1798 254.738 62.8915C255.353 62.3279 256.023 61.9371 256.737 61.7124Z" fill="#164E63"/>
<path fill-rule="evenodd" clip-rule="evenodd" d="M334.374 35.0296C332.751 35.2871 331.077 35.725 329.455 36.2915C317.403 40.5665 310.449 52.0009 313.926 61.8386C317.377 71.5475 329.687 76.0543 341.61 72.0626C343.465 78.7326 343.799 90.167 332.159 103.61C330.15 105.928 332.648 109.353 335.455 108.143C346.684 103.275 361.827 94.8026 366.848 82.9304C374.652 64.4139 373.776 24.4193 334.374 35.0296Z" fill="#164E63"/>
<path fill-rule="evenodd" clip-rule="evenodd" d="M309.316 63.8472L309.265 63.6412C308.518 61.1947 309.883 58.5936 312.329 57.821L315.033 56.9969C317.48 56.2501 320.081 57.615 320.854 60.0615L320.905 60.2676C321.652 62.7141 320.287 65.3152 317.84 66.0878L315.136 66.9119C312.664 67.6587 310.063 66.2938 309.316 63.8472Z" fill="#06D0B6"/>
<path fill-rule="evenodd" clip-rule="evenodd" d="M311.016 57.1258C308.956 50.7391 301.667 43.2192 280.395 38.6094C280.164 38.5836 279.906 38.6094 279.623 38.6609C268.832 36.3688 251.449 42.3951 251.784 62.6628C251.861 66.4742 252.814 70.0282 254.411 73.273C255.235 69.6934 256.548 66.0879 258.402 62.637C262.986 54.0355 268.6 48.7046 274.549 46.2838C273.236 53.2371 275.94 64.2595 291.289 76.4664C291.315 76.5179 291.34 76.5694 291.392 76.6467L291.572 75.8484C291.572 75.8484 297.212 75.4363 299.401 78.4237C299.427 78.4752 299.453 78.5009 299.478 78.5524C299.504 78.5782 299.53 78.6039 299.53 78.6554C299.556 78.7069 299.581 78.7327 299.607 78.7842C299.633 78.81 299.659 78.8615 299.659 78.8872C299.684 78.9387 299.71 78.9902 299.736 79.016C299.762 79.0675 299.787 79.119 299.813 79.1705C299.839 79.222 299.865 79.2735 299.89 79.3508C299.916 79.4023 299.916 79.428 299.942 79.4795C299.968 79.531 299.968 79.5568 299.993 79.6083C300.019 79.6598 300.019 79.7113 300.045 79.7628C300.045 79.8143 300.071 79.8401 300.071 79.8916C300.097 79.9431 300.097 79.9946 300.122 80.0461C300.122 80.0719 300.148 80.1234 300.148 80.1491C300.2 80.3551 300.225 80.5612 300.225 80.7929C300.225 80.8187 300.225 80.8445 300.225 80.896C300.225 80.9732 300.225 81.0247 300.225 81.102C300.225 81.1277 300.225 81.1792 300.225 81.205C300.225 81.2823 300.225 81.3595 300.225 81.4368C300.225 81.4625 300.225 81.514 300.225 81.5398C300.225 81.617 300.225 81.6943 300.2 81.7716C300.174 81.9776 300.148 82.1836 300.122 82.3896C300.045 82.8532 299.942 83.3425 299.762 83.8833C298.448 88.0038 295.925 89.2915 293.632 89.4975C293.658 89.3945 293.967 94.6481 293.89 94.7254C296.929 93.6953 300.225 91.7123 303.753 88.3644C314.08 78.6039 315.368 66.1137 311.016 57.1258Z" fill="#164E63"/>
<path fill-rule="evenodd" clip-rule="evenodd" d="M174.524 155.193C174.524 155.193 169.709 149.09 172.979 147.905C180.293 145.253 200.149 181.359 178.877 182.518C177.821 182.569 167.442 184.578 161.287 176.105C156.652 169.023 156.317 161.477 159.588 157.28C162.884 153.082 174.524 155.193 174.524 155.193Z" fill="#F1F5F9"/>
<path fill-rule="evenodd" clip-rule="evenodd" d="M172.716 147.179C170.874 147.846 170.688 149.578 171.57 151.742C171.814 152.342 172.137 152.969 172.519 153.611L172.651 153.829L172.785 154.045L172.868 154.176L172.732 154.16C170.669 153.922 168.56 153.821 166.581 153.937C163.041 154.144 160.386 155.011 158.98 156.802C155.366 161.441 155.981 169.408 160.641 176.528L160.662 176.559C162.523 179.121 164.862 180.924 167.566 182.062C170.869 183.453 174.207 183.739 177.617 183.426L177.933 183.395C178.244 183.363 178.763 183.303 178.889 183.291L178.919 183.289C184.231 183 187.508 180.577 188.7 176.462C189.707 172.986 189.164 168.435 187.374 163.518C183.915 154.02 176.869 145.673 172.716 147.179ZM178.977 181.738L178.796 181.749C178.59 181.767 177.89 181.848 177.663 181.87C174.417 182.189 171.253 181.938 168.165 180.638L168.006 180.57C165.676 179.558 163.658 177.999 162.023 175.802L161.922 175.665L161.934 175.682C157.603 169.066 157.043 161.802 160.197 157.754C161.254 156.408 163.534 155.663 166.671 155.48C168.549 155.37 170.573 155.466 172.555 155.695C172.986 155.745 173.386 155.798 173.746 155.851L174.13 155.911L174.386 155.954C175.072 156.078 175.552 155.306 175.157 154.749L175.026 154.578L174.916 154.43C174.859 154.352 174.798 154.269 174.734 154.179C174.431 153.754 174.128 153.294 173.846 152.821C173.501 152.24 173.213 151.68 173.001 151.159L172.934 150.99C172.413 149.637 172.52 148.893 173.242 148.632C176.199 147.56 182.74 155.309 185.922 164.046C187.611 168.684 188.116 172.925 187.216 176.032C186.223 179.459 183.567 181.45 178.977 181.738Z" fill="#164E63"/>
<path fill-rule="evenodd" clip-rule="evenodd" d="M180.757 137.887L161.184 108.915C160.206 107.473 157.991 107.911 157.63 109.636L151.038 142.884C150.754 144.3 152.351 145.33 153.536 144.506L162.42 138.248L170.764 171.16C171.074 172.397 172.335 173.143 173.572 172.834L174.936 172.5C176.173 172.191 176.919 170.929 176.61 169.693L168.421 137.347L179.005 140.36C180.448 140.746 181.607 139.124 180.757 137.887Z" fill="#164E63"/>
<path fill-rule="evenodd" clip-rule="evenodd" d="M162.42 156.095C168.06 154.138 177.512 155.631 179.701 159.056C181.89 162.482 179.752 161.864 179.752 161.864C179.752 161.864 182.25 163.512 182.302 165.031C182.353 166.551 182.019 167.761 182.019 167.761C182.019 167.761 184.079 167.864 183.461 170.182C182.843 172.474 182.559 173.195 182.559 173.195C182.559 173.195 182.997 177.65 179.34 177.933C175.683 178.217 168.215 180.638 164.944 177.985C161.674 175.332 156.78 158.052 162.42 156.095Z" fill="#F1F5F9"/>
<path fill-rule="evenodd" clip-rule="evenodd" d="M166.148 171.731C169.158 170.869 172.925 170.502 176.307 170.669C179.794 170.841 182.271 171.509 182.894 172.754C184.01 175.052 183.394 176.258 180.394 177.73C179.273 178.264 177.42 178.525 174.985 178.599C173.483 178.644 171.879 178.613 170.315 178.533L170.005 178.516C169.855 178.508 169.71 178.499 169.572 178.491L169.089 178.458L168.926 178.446C168.5 178.412 168.183 178.039 168.217 177.614C168.252 177.189 168.624 176.872 169.049 176.906L169.409 176.932L169.805 176.957C169.99 176.968 170.187 176.979 170.394 176.99C171.919 177.067 173.484 177.098 174.939 177.054L175.232 177.044C177.316 176.966 178.901 176.729 179.721 176.338L179.984 176.208C182.034 175.181 182.172 174.806 181.508 173.437C181.417 173.256 180.892 172.967 180.015 172.731C179.036 172.467 177.721 172.286 176.231 172.212C173.01 172.053 169.411 172.404 166.573 173.217C166.163 173.334 165.735 173.097 165.618 172.686C165.5 172.276 165.738 171.849 166.148 171.731Z" fill="#164E63"/>
<path fill-rule="evenodd" clip-rule="evenodd" d="M166.531 165.048C169.126 164.656 171.746 164.448 174.201 164.522C175.581 164.563 176.868 164.694 178.044 164.926L178.245 164.967L178.367 164.988C181.124 165.498 183.24 167.011 184.045 168.867L184.082 168.956C184.921 171.005 183.891 172.877 181.527 173.188C181.104 173.244 180.716 172.946 180.66 172.523C180.605 172.1 180.902 171.712 181.325 171.656C182.667 171.48 183.114 170.668 182.652 169.541C182.089 168.164 180.401 166.938 178.095 166.51L177.945 166.482C176.807 166.243 175.535 166.107 174.154 166.066C171.804 165.995 169.273 166.197 166.762 166.576C166.079 166.679 165.443 166.789 164.868 166.899L164.679 166.936C164.533 166.965 164.4 166.992 164.278 167.017L163.908 167.097C163.492 167.193 163.077 166.934 162.981 166.519C162.888 166.118 163.126 165.718 163.516 165.603L163.602 165.582L163.779 165.543C163.924 165.512 164.087 165.478 164.269 165.442L164.381 165.42C165.026 165.293 165.749 165.166 166.531 165.048Z" fill="#164E63"/>
<path fill-rule="evenodd" clip-rule="evenodd" d="M163.898 159.845C167.157 159.076 170.489 158.749 173.621 159.118C175.199 159.304 176.677 159.665 178.037 160.222C179.075 160.648 179.953 161.104 180.679 161.587C183.369 163.376 183.884 165.459 183.012 167.293C182.872 167.589 182.726 167.808 182.614 167.944C182.342 168.273 181.855 168.319 181.526 168.048C181.21 167.786 181.155 167.326 181.393 166.999L181.423 166.96C181.459 166.916 181.535 166.801 181.616 166.63C181.827 166.187 181.904 165.696 181.775 165.175C181.589 164.423 180.986 163.647 179.823 162.873C179.186 162.449 178.398 162.041 177.451 161.651C176.229 161.151 174.886 160.823 173.44 160.653C170.512 160.308 167.351 160.618 164.253 161.348C163.549 161.515 162.898 161.691 162.314 161.869L162.141 161.922C161.959 161.979 161.795 162.032 161.65 162.08L161.375 162.176C160.975 162.324 160.53 162.12 160.382 161.719C160.234 161.319 160.439 160.875 160.839 160.727L160.944 160.689L161.066 160.647C161.243 160.586 161.45 160.519 161.682 160.447C162.343 160.241 163.087 160.036 163.898 159.845Z" fill="#164E63"/>
<path fill-rule="evenodd" clip-rule="evenodd" d="M173.067 154.633C173.234 154.241 173.688 154.058 174.08 154.225C174.201 154.276 174.319 154.328 174.436 154.379C177.518 155.74 179.428 157.226 180.356 158.798C181.06 159.988 181.144 161.108 180.842 162.041C180.777 162.24 180.707 162.39 180.649 162.489C180.431 162.856 179.957 162.977 179.59 162.76C179.237 162.55 179.111 162.103 179.297 161.742L179.319 161.701C179.322 161.697 179.344 161.649 179.372 161.564C179.543 161.036 179.493 160.374 179.026 159.584C178.282 158.326 176.623 157.034 173.812 155.793C173.701 155.744 173.589 155.695 173.475 155.647C173.082 155.479 172.9 155.026 173.067 154.633Z" fill="#164E63"/>
<path fill-rule="evenodd" clip-rule="evenodd" d="M436.82 198.819C437.246 198.819 437.592 199.165 437.592 199.592C437.592 200.003 437.271 200.34 436.865 200.363L436.82 200.365H1.20606C0.779373 200.365 0.433472 200.019 0.433472 199.592C0.433472 199.18 0.755107 198.844 1.16067 198.821L1.20606 198.819H436.82Z" fill="#164E63"/>
</svg>
