<svg width="212" height="48" viewBox="0 0 212 48" fill="none" xmlns="http://www.w3.org/2000/svg">
<path d="M24 4.5C20.1433 4.5 16.3731 5.64366 13.1664 7.78634C9.95962 9.92903 7.46025 12.9745 5.98434 16.5377C4.50843 20.1008 4.12227 24.0216 4.87468 27.8043C5.62709 31.5869 7.48429 35.0615 10.2114 37.7886C12.9385 40.5157 16.4131 42.3729 20.1957 43.1253C23.9784 43.8777 27.8992 43.4916 31.4623 42.0156C35.0255 40.5397 38.071 38.0404 40.2136 34.8336C42.3563 31.6269 43.5 27.8567 43.5 24C43.4945 18.83 41.4383 13.8732 37.7825 10.2174C34.1268 6.56167 29.17 4.50546 24 4.5ZM19.0556 31.5H28.9444C27.9375 34.9387 26.25 38.0381 24 40.4794C21.75 38.0381 20.0625 34.9387 19.0556 31.5ZM18.375 28.5C17.8775 25.5206 17.8775 22.4794 18.375 19.5H29.625C30.1225 22.4794 30.1225 25.5206 29.625 28.5H18.375ZM7.49999 24C7.49869 22.4783 7.70882 20.9638 8.12437 19.5H15.3356C14.8881 22.4833 14.8881 25.5167 15.3356 28.5H8.12437C7.70882 27.0362 7.49869 25.5217 7.49999 24ZM28.9444 16.5H19.0556C20.0625 13.0612 21.75 9.96187 24 7.52063C26.25 9.96187 27.9375 13.0612 28.9444 16.5ZM32.6644 19.5H39.8756C40.7081 22.4422 40.7081 25.5578 39.8756 28.5H32.6644C33.1119 25.5167 33.1119 22.4833 32.6644 19.5ZM38.6944 16.5H32.0512C31.2857 13.4878 30.0002 10.6325 28.2525 8.0625C30.4853 8.66254 32.5679 9.72323 34.3662 11.1764C36.1646 12.6295 37.6389 14.4429 38.6944 16.5ZM19.7475 8.0625C17.9998 10.6325 16.7142 13.4878 15.9487 16.5H9.30562C10.3611 14.4429 11.8354 12.6295 13.6338 11.1764C15.4321 9.72323 17.5147 8.66254 19.7475 8.0625ZM9.30562 31.5H15.9487C16.7142 34.5122 17.9998 37.3675 19.7475 39.9375C17.5147 39.3375 15.4321 38.2768 13.6338 36.8236C11.8354 35.3705 10.3611 33.5571 9.30562 31.5ZM28.2525 39.9375C30.0002 37.3675 31.2857 34.5122 32.0512 31.5H38.6944C37.6389 33.5571 36.1646 35.3705 34.3662 36.8236C32.5679 38.2768 30.4853 39.3375 28.2525 39.9375Z" fill="#06D0B6"/>
<path d="M73.072 17.076C72.96 19.78 72.904 22.684 72.904 25.788C72.904 28.892 72.96 31.796 73.072 34.5H67.432V27.972H58.6V34.5H52.96C53.088 31.396 53.152 28.492 53.152 25.788C53.152 23.084 53.088 20.18 52.96 17.076H58.6V23.604H67.432V17.076H73.072ZM87.6873 28.5H79.8633C79.9913 29.204 80.3033 29.78 80.7993 30.228C81.3113 30.66 82.0313 30.876 82.9593 30.876C83.6313 30.876 84.2633 30.748 84.8553 30.492C85.4473 30.22 85.9193 29.844 86.2713 29.364C87.3433 29.892 88.7673 30.46 90.5433 31.068C90.0473 32.188 89.1433 33.084 87.8313 33.756C86.5353 34.412 84.8393 34.74 82.7433 34.74C80.0233 34.74 78.0073 34.116 76.6953 32.868C75.3993 31.604 74.7513 29.948 74.7513 27.9C74.7513 25.9 75.3993 24.276 76.6953 23.028C77.9913 21.78 80.0073 21.156 82.7433 21.156C84.3753 21.156 85.7913 21.428 86.9913 21.972C88.1913 22.516 89.1113 23.276 89.7513 24.252C90.3913 25.212 90.7113 26.316 90.7113 27.564C90.7113 27.98 90.6953 28.292 90.6633 28.5H87.6873ZM83.0793 24.78C82.2793 24.78 81.6233 24.932 81.1113 25.236C80.5993 25.54 80.2393 25.956 80.0312 26.484H85.6953C85.5033 25.972 85.1913 25.564 84.7593 25.26C84.3273 24.94 83.7673 24.78 83.0793 24.78ZM98.0219 24.9C98.0059 25.86 97.9979 27.332 97.9979 29.316C97.9979 31.7 98.0139 33.428 98.0459 34.5H92.3819L92.4059 31.788C92.4379 28.812 92.4539 26.516 92.4539 24.9C92.4539 23.364 92.4379 21.188 92.4059 18.372L92.3819 15.78H98.0459C98.0139 18.052 97.9979 19.908 97.9979 21.348C97.9979 22.948 98.0059 24.132 98.0219 24.9ZM105.616 24.9C105.6 25.86 105.592 27.332 105.592 29.316C105.592 31.7 105.608 33.428 105.64 34.5H99.9756L99.9996 31.788C100.032 28.812 100.048 26.516 100.048 24.9C100.048 23.364 100.032 21.188 99.9996 18.372L99.9756 15.78H105.64C105.608 18.052 105.592 19.908 105.592 21.348C105.592 22.948 105.6 24.132 105.616 24.9ZM115.297 34.74C112.561 34.74 110.545 34.116 109.249 32.868C107.969 31.604 107.329 29.948 107.329 27.9C107.329 25.9 107.969 24.276 109.249 23.028C110.545 21.78 112.561 21.156 115.297 21.156C117.137 21.156 118.673 21.46 119.905 22.068C121.153 22.66 122.073 23.468 122.665 24.492C123.257 25.5 123.553 26.636 123.553 27.9C123.553 29.964 122.865 31.62 121.489 32.868C120.129 34.116 118.065 34.74 115.297 34.74ZM115.393 30.66C116.433 30.66 117.209 30.412 117.721 29.916C118.233 29.42 118.489 28.756 118.489 27.924C118.489 27.14 118.233 26.5 117.721 26.004C117.209 25.492 116.433 25.236 115.393 25.236C114.353 25.236 113.593 25.484 113.113 25.98C112.633 26.476 112.393 27.124 112.393 27.924C112.393 28.756 112.633 29.42 113.113 29.916C113.593 30.412 114.353 30.66 115.393 30.66ZM147.326 27.948L148.574 17.076H154.43L151.214 34.5H143.846L142.214 24.78L140.318 34.5H133.262L130.046 17.076H135.902L137.126 27.804L139.046 17.076H145.454L147.326 27.948ZM163.11 34.74C160.374 34.74 158.358 34.116 157.062 32.868C155.782 31.604 155.142 29.948 155.142 27.9C155.142 25.9 155.782 24.276 157.062 23.028C158.358 21.78 160.374 21.156 163.11 21.156C164.95 21.156 166.486 21.46 167.718 22.068C168.966 22.66 169.886 23.468 170.478 24.492C171.07 25.5 171.366 26.636 171.366 27.9C171.366 29.964 170.678 31.62 169.302 32.868C167.942 34.116 165.878 34.74 163.11 34.74ZM163.206 30.66C164.246 30.66 165.022 30.412 165.534 29.916C166.046 29.42 166.302 28.756 166.302 27.924C166.302 27.14 166.046 26.5 165.534 26.004C165.022 25.492 164.246 25.236 163.206 25.236C162.166 25.236 161.406 25.484 160.926 25.98C160.446 26.476 160.206 27.124 160.206 27.924C160.206 28.756 160.446 29.42 160.926 29.916C161.406 30.412 162.166 30.66 163.206 30.66ZM178.622 24.948C179.294 22.532 180.966 21.324 183.638 21.324C184.102 21.324 184.55 21.356 184.982 21.42L184.214 26.796C183.062 26.364 182.118 26.148 181.382 26.148C180.47 26.148 179.798 26.42 179.366 26.964C178.934 27.508 178.718 28.236 178.718 29.148V29.124L178.694 30.708C178.694 31.844 178.726 33.108 178.79 34.5H173.054C173.182 32.196 173.246 30.02 173.246 27.972C173.246 25.924 173.182 23.732 173.054 21.396C174.11 21.444 174.918 21.468 175.478 21.468C176.07 21.468 176.878 21.444 177.902 21.396L178.622 24.948ZM192.545 24.9C192.529 25.86 192.521 27.332 192.521 29.316C192.521 31.7 192.537 33.428 192.569 34.5H186.905L186.929 31.788C186.961 28.812 186.977 26.516 186.977 24.9C186.977 23.364 186.961 21.188 186.929 18.372L186.905 15.78H192.569C192.537 18.052 192.521 19.908 192.521 21.348C192.521 22.948 192.529 24.132 192.545 24.9ZM210.195 15.828C210.099 18.804 210.051 21.916 210.051 25.164C210.051 28.38 210.099 31.492 210.195 34.5H204.771L204.843 31.62C204.379 32.692 203.707 33.484 202.827 33.996C201.947 34.492 200.907 34.74 199.707 34.74C198.667 34.74 197.731 34.444 196.899 33.852C196.067 33.26 195.419 32.46 194.955 31.452C194.491 30.428 194.259 29.308 194.259 28.092C194.259 26.892 194.491 25.764 194.955 24.708C195.419 23.636 196.067 22.78 196.899 22.14C197.747 21.484 198.707 21.156 199.779 21.156C201.027 21.156 202.091 21.42 202.971 21.948C203.867 22.46 204.531 23.26 204.963 24.348C204.963 23.436 204.931 21.972 204.867 19.956C204.803 18.004 204.771 16.628 204.771 15.828H210.195ZM202.227 30.708C203.011 30.708 203.651 30.492 204.147 30.06C204.643 29.612 204.891 28.908 204.891 27.948C204.891 27.1 204.643 26.476 204.147 26.076C203.651 25.676 203.027 25.476 202.275 25.476C201.555 25.476 200.947 25.708 200.451 26.172C199.971 26.62 199.731 27.212 199.731 27.948C199.731 28.764 199.955 29.428 200.403 29.94C200.851 30.452 201.459 30.708 202.227 30.708Z" fill="#06D0B6"/>
</svg>
