<svg width="807" height="335" viewBox="0 0 807 335" fill="none" xmlns="http://www.w3.org/2000/svg">
<path d="M131.699 202.033H253.437V319.604H131.699V202.033Z" fill="#F1F5F9"/>
<path d="M132.504 230.718H200.55V292.712H132.504V230.718Z" fill="#06D0B6"/>
<path d="M240.434 230.718H253.437V292.712H240.434V230.718Z" fill="#06D0B6"/>
<path fill-rule="evenodd" clip-rule="evenodd" d="M253.437 207.736C254.217 207.736 254.85 208.371 254.85 209.155C254.85 209.912 254.262 210.53 253.52 210.573L253.437 210.575H133.813C133.033 210.575 132.4 209.94 132.4 209.155C132.4 208.399 132.989 207.781 133.73 207.738L133.813 207.736H253.437Z" fill="#06D0B6"/>
<path fill-rule="evenodd" clip-rule="evenodd" d="M253.437 214.224C254.217 214.224 254.85 214.86 254.85 215.644C254.85 216.4 254.262 217.018 253.52 217.061L253.437 217.064H133.813C133.033 217.064 132.4 216.428 132.4 215.644C132.4 214.888 132.989 214.27 133.73 214.227L133.813 214.224H253.437Z" fill="#06D0B6"/>
<path fill-rule="evenodd" clip-rule="evenodd" d="M130.143 201.247C130.655 200.656 131.548 200.593 132.136 201.108C132.725 201.623 132.787 202.52 132.275 203.111C127.554 208.564 123.394 214.481 119.859 220.766C101.122 254.492 113.532 281.325 147.612 281.325C182.315 281.325 225.998 253.564 245.013 219.371C248.035 214.04 250.383 208.351 252.004 202.437C252.211 201.681 252.989 201.236 253.741 201.445C254.494 201.653 254.936 202.435 254.728 203.191C253.045 209.333 250.606 215.24 247.474 220.767C227.982 255.818 183.377 284.165 147.612 284.165C111.214 284.165 97.6702 254.88 117.395 219.375C121.027 212.917 125.298 206.844 130.143 201.247Z" fill="#164E63"/>
<path fill-rule="evenodd" clip-rule="evenodd" d="M253.437 200.613H131.699C130.918 200.613 130.286 201.248 130.286 202.033V319.604C130.286 320.388 130.918 321.024 131.699 321.024H253.437C254.217 321.024 254.85 320.388 254.85 319.604V202.033C254.85 201.248 254.217 200.613 253.437 200.613ZM252.024 203.452V318.184H133.111V203.452H252.024Z" fill="#164E63"/>
<path fill-rule="evenodd" clip-rule="evenodd" d="M615.96 0.869297C616.263 0.146579 617.092 -0.192651 617.811 0.111604C618.504 0.404993 618.843 1.18959 618.595 1.89328L618.565 1.9711L486.767 316.591C486.464 317.314 485.636 317.653 484.917 317.349C484.223 317.055 483.885 316.271 484.133 315.567L484.163 315.489L615.96 0.869297Z" fill="#06D0B6"/>
<path fill-rule="evenodd" clip-rule="evenodd" d="M552.502 0.835135C552.823 0.120654 553.66 -0.196606 554.371 0.126516C555.057 0.438098 555.375 1.23136 555.108 1.92826L555.076 2.00526L413.493 316.625C413.171 317.34 412.334 317.657 411.623 317.334C410.938 317.022 410.62 316.229 410.886 315.532L410.918 315.455L552.502 0.835135Z" fill="#06D0B6"/>
<path fill-rule="evenodd" clip-rule="evenodd" d="M601.806 36.897C602.587 36.897 603.219 37.5327 603.219 38.3168C603.219 39.073 602.631 39.6911 601.889 39.7343L601.806 39.7367H538.521C537.741 39.7367 537.108 39.101 537.108 38.3168C537.108 37.5607 537.697 36.9426 538.438 36.8994L538.521 36.897H601.806Z" fill="#06D0B6"/>
<path fill-rule="evenodd" clip-rule="evenodd" d="M576.988 94.4332C577.768 94.4332 578.4 95.0689 578.4 95.853C578.4 96.6092 577.812 97.2273 577.071 97.2705L576.988 97.2729H511.635C510.855 97.2729 510.222 96.6372 510.222 95.853C510.222 95.0969 510.811 94.4788 511.552 94.4356L511.635 94.4332H576.988Z" fill="#06D0B6"/>
<path fill-rule="evenodd" clip-rule="evenodd" d="M551.773 155.245C552.554 155.245 553.186 155.88 553.186 156.664C553.186 157.42 552.598 158.039 551.856 158.082L551.773 158.084H483.93C483.149 158.084 482.517 157.448 482.517 156.664C482.517 155.908 483.105 155.29 483.847 155.247L483.93 155.245H551.773Z" fill="#06D0B6"/>
<path fill-rule="evenodd" clip-rule="evenodd" d="M524.341 219.624C525.121 219.624 525.754 220.26 525.754 221.044C525.754 221.8 525.166 222.418 524.424 222.462L524.341 222.464H455.165C454.384 222.464 453.752 221.828 453.752 221.044C453.752 220.288 454.34 219.67 455.082 219.627L455.165 219.624H524.341Z" fill="#06D0B6"/>
<path fill-rule="evenodd" clip-rule="evenodd" d="M495.972 287.894C496.752 287.894 497.384 288.53 497.384 289.314C497.384 290.07 496.796 290.688 496.055 290.732L495.972 290.734H424.233C423.453 290.734 422.82 290.098 422.82 289.314C422.82 288.558 423.409 287.94 424.15 287.897L424.233 287.894H495.972Z" fill="#06D0B6"/>
<path fill-rule="evenodd" clip-rule="evenodd" d="M553.724 0.110298C554.419 -0.181434 555.213 0.125419 555.539 0.796372L555.573 0.872408L693.794 333.032C694.095 333.755 693.756 334.587 693.036 334.89C692.342 335.181 691.547 334.875 691.221 334.204L691.187 334.128L552.966 1.96799C552.665 1.24455 553.005 0.412834 553.724 0.110298Z" fill="#06D0B6"/>
<path fill-rule="evenodd" clip-rule="evenodd" d="M617.159 0.125168C617.845 -0.184822 618.647 0.100916 618.991 0.76302L619.027 0.838124L767.585 332.998C767.905 333.713 767.587 334.553 766.876 334.875C766.189 335.185 765.387 334.899 765.044 334.237L765.008 334.162L616.45 2.00227C616.13 1.28705 616.447 0.446639 617.159 0.125168Z" fill="#06D0B6"/>
<path fill-rule="evenodd" clip-rule="evenodd" d="M632.907 36.897C633.688 36.897 634.32 37.5327 634.32 38.3168C634.32 39.073 633.732 39.6911 632.99 39.7342L632.907 39.7367H569.622C568.842 39.7367 568.209 39.101 568.209 38.3168C568.209 37.5607 568.798 36.9426 569.539 36.8994L569.622 36.897H632.907Z" fill="#06D0B6"/>
<path fill-rule="evenodd" clip-rule="evenodd" d="M659.633 94.4332C660.413 94.4332 661.046 95.0689 661.046 95.853C661.046 96.6092 660.458 97.2273 659.716 97.2705L659.633 97.2729H594.281C593.5 97.2729 592.868 96.6372 592.868 95.853C592.868 95.0969 593.456 94.4788 594.198 94.4356L594.281 94.4332H659.633Z" fill="#06D0B6"/>
<path fill-rule="evenodd" clip-rule="evenodd" d="M687.174 155.245C687.954 155.245 688.587 155.88 688.587 156.664C688.587 157.42 687.998 158.039 687.257 158.082L687.174 158.084H619.325C618.545 158.084 617.912 157.448 617.912 156.664C617.912 155.908 618.501 155.29 619.242 155.247L619.325 155.245H687.174Z" fill="#06D0B6"/>
<path fill-rule="evenodd" clip-rule="evenodd" d="M715.755 219.624C716.535 219.624 717.168 220.26 717.168 221.044C717.168 221.8 716.58 222.418 715.838 222.462L715.755 222.464H646.583C645.803 222.464 645.17 221.828 645.17 221.044C645.17 220.288 645.759 219.67 646.5 219.627L646.583 219.624H715.755Z" fill="#06D0B6"/>
<path fill-rule="evenodd" clip-rule="evenodd" d="M746.498 287.894C747.278 287.894 747.911 288.53 747.911 289.314C747.911 290.07 747.323 290.689 746.581 290.732L746.498 290.734H674.764C673.984 290.734 673.352 290.098 673.352 289.314C673.352 288.558 673.94 287.94 674.681 287.897L674.764 287.894H746.498Z" fill="#06D0B6"/>
<path fill-rule="evenodd" clip-rule="evenodd" d="M673.272 92.4502H319.194C316.376 92.4475 313.874 94.2621 312.988 96.9511L245.36 302.187L85.6689 302.339C85.6689 302.339 81.275 331.318 118.018 333.102L235.282 332.728L235.155 333.102H616.038L679.568 100.761C680.109 98.7855 679.701 96.6698 678.466 95.0398C677.231 93.4098 675.31 92.4522 673.272 92.4502Z" fill="#0E7490"/>
<path fill-rule="evenodd" clip-rule="evenodd" d="M637.372 104.405H336.252C333.435 104.406 330.936 106.222 330.054 108.911L268.257 291.595C267.61 293.587 267.946 295.769 269.164 297.469C270.381 299.17 272.333 300.184 274.417 300.2L588.286 301.037C591.195 301.043 593.757 299.113 594.568 296.305L643.64 112.796C644.211 110.815 643.822 108.678 642.59 107.029C641.357 105.379 639.425 104.407 637.372 104.405Z" fill="#F1F5F9"/>
<path fill-rule="evenodd" clip-rule="evenodd" d="M672.876 93.7629C673.086 93.0076 673.865 92.5662 674.617 92.7769C675.341 92.9802 675.776 93.7156 675.618 94.4451L675.598 94.5261L609.247 333.498C609.037 334.253 608.258 334.694 607.506 334.484C606.782 334.28 606.347 333.545 606.505 332.815L606.525 332.734L672.876 93.7629Z" fill="#F1F5F9"/>
<path fill-rule="evenodd" clip-rule="evenodd" d="M642.722 116.247H309.06V250.392H341.329C341.418 249.81 341.526 249.218 341.654 248.627C345.449 230.756 363.124 216.269 381.123 216.269C399.123 216.269 410.632 230.756 406.837 248.627C406.709 249.218 406.563 249.81 406.408 250.392H606.85L642.722 116.247ZM427.582 188.838H369.331L386.285 136.219H444.568L427.582 188.838ZM507.42 188.838H449.169L466.123 136.219H524.393L507.42 188.838ZM532.201 188.838L549.155 136.219H607.406L590.452 188.838H532.201Z" fill="#06D0B6"/>
<path fill-rule="evenodd" clip-rule="evenodd" d="M333.017 90.5618C333.797 90.5618 334.429 91.1975 334.429 91.9816C334.429 92.7378 333.841 93.3559 333.1 93.3991L333.017 93.4015L297.527 93.401L260.918 154.923C260.633 155.402 260.097 155.666 259.551 155.605L259.459 155.592L176.178 140.812C175.41 140.675 174.897 139.939 175.033 139.167C175.164 138.422 175.85 137.916 176.588 138.003L176.67 138.015L258.992 152.625L295.513 91.2529C295.752 90.851 296.172 90.5953 296.633 90.5649L296.726 90.5618H333.017Z" fill="#164E63"/>
<path fill-rule="evenodd" clip-rule="evenodd" d="M360.84 113.26C361.592 110.136 361.64 106.883 360.981 103.738C358.25 90.0838 344.154 78.9524 329.508 78.9524C319.957 78.9524 312.582 83.6851 309.413 90.7843V90.8221C309.058 91.6238 308.759 92.4493 308.518 93.2926L264.452 214.764C264.344 215.052 264.236 215.346 264.137 215.639L264.066 215.833C262.819 219.836 262.657 224.1 263.595 228.186C266.779 242.938 281.769 254.822 297.089 254.822C307.967 254.822 316.152 248.835 318.921 240.094L359.983 115.858C360.327 115.017 360.611 114.151 360.835 113.27L360.84 113.26Z" fill="#06D0B6"/>
<path fill-rule="evenodd" clip-rule="evenodd" d="M312.705 228.266C315.267 239.715 307.68 248.944 295.751 248.944C283.822 248.944 271.964 239.705 269.27 228.257C266.576 216.808 274.116 207.376 286.163 207.376C298.209 207.376 310.086 216.761 312.705 228.266Z" fill="#008473"/>
<path fill-rule="evenodd" clip-rule="evenodd" d="M360.651 114.082C360.902 113.339 361.704 112.941 362.443 113.194C363.156 113.437 363.549 114.195 363.351 114.915L363.327 114.995L323.914 231.648C323.663 232.39 322.86 232.788 322.122 232.536C321.409 232.293 321.016 231.534 321.214 230.814L321.238 230.735L360.651 114.082Z" fill="#F1F5F9"/>
<path fill-rule="evenodd" clip-rule="evenodd" d="M286.492 195.79C302.892 195.79 319.006 208.499 322.527 224.209C323.475 228.418 323.737 231.744 323.174 234.769L323.139 234.949L323.099 235.238L323.07 235.428L323.034 235.646C322.939 236.216 322.812 236.848 322.652 237.528C322.192 239.471 321.544 241.416 320.671 243.244C319.064 246.61 316.875 249.203 313.988 250.67C313.291 251.024 312.441 250.743 312.089 250.044C311.737 249.344 312.016 248.49 312.713 248.136C314.97 246.989 316.763 244.865 318.124 242.016C318.901 240.388 319.486 238.63 319.903 236.871C320.028 236.343 320.129 235.848 320.21 235.396L320.278 234.988L320.329 234.649L320.339 234.567C320.344 234.527 320.35 234.488 320.358 234.449C320.888 231.825 320.665 228.802 319.771 224.835C316.542 210.43 301.581 198.63 286.492 198.63C280.168 198.63 273.983 201.178 271.627 205.079C271.222 205.749 270.353 205.963 269.686 205.556C269.019 205.149 268.806 204.276 269.211 203.605C272.162 198.721 279.276 195.79 286.492 195.79Z" fill="#F1F5F9"/>
<path fill-rule="evenodd" clip-rule="evenodd" d="M208.575 159.684L49.5995 128.258C48.2037 127.991 46.9728 127.172 46.1823 125.986C45.3919 124.799 45.1079 123.344 45.394 121.945L49.1615 103.681C49.7917 100.744 52.6311 98.8423 55.5711 99.3884L215.517 129.451C218.771 130.061 220.843 133.057 220.137 136.129L215.719 155.316C215.013 158.368 211.815 160.328 208.575 159.684Z" fill="#164E63"/>
<path fill-rule="evenodd" clip-rule="evenodd" d="M196.335 131.661C197.169 127.83 201.058 125.361 205.028 126.075C205.796 126.213 206.308 126.951 206.17 127.723C206.033 128.495 205.298 129.008 204.53 128.87C202.068 128.427 199.683 129.907 199.124 132.147L199.095 132.268L194.937 151.365C194.448 153.604 195.994 155.815 198.446 156.293C199.212 156.442 199.712 157.187 199.564 157.957C199.415 158.727 198.674 159.23 197.908 159.08C193.984 158.316 191.405 154.686 192.147 150.901L192.177 150.757L196.335 131.661Z" fill="#F1F5F9"/>
<path fill-rule="evenodd" clip-rule="evenodd" d="M439.082 226.851L421.652 285.471H563.943L581.372 226.851H439.082Z" fill="#008473"/>
<path fill-rule="evenodd" clip-rule="evenodd" d="M560.726 243.203C561.506 243.203 562.139 243.839 562.139 244.623C562.139 245.379 561.551 245.997 560.809 246.04L560.726 246.043H445.444C444.664 246.043 444.032 245.407 444.032 244.623C444.032 243.867 444.62 243.249 445.361 243.205L445.444 243.203H560.726Z" fill="#164E63"/>
<path fill-rule="evenodd" clip-rule="evenodd" d="M557.17 250.179C557.951 250.179 558.583 250.815 558.583 251.599C558.583 252.355 557.995 252.973 557.253 253.016L557.17 253.019H443.179C442.399 253.019 441.766 252.383 441.766 251.599C441.766 250.843 442.354 250.225 443.096 250.181L443.179 250.179H557.17Z" fill="#164E63"/>
<path fill-rule="evenodd" clip-rule="evenodd" d="M515.125 257.15C515.905 257.15 516.538 257.786 516.538 258.57C516.538 259.326 515.949 259.944 515.208 259.988L515.125 259.99H440.697C439.917 259.99 439.284 259.354 439.284 258.57C439.284 257.814 439.873 257.196 440.614 257.153L440.697 257.15H515.125Z" fill="#164E63"/>
<path fill-rule="evenodd" clip-rule="evenodd" d="M547.078 271.325C547.858 271.325 548.491 271.961 548.491 272.745C548.491 273.501 547.903 274.119 547.161 274.162L547.078 274.165H472.655C471.875 274.165 471.243 273.529 471.243 272.745C471.243 271.989 471.831 271.371 472.572 271.327L472.655 271.325H547.078Z" fill="#0E7490"/>
<path fill-rule="evenodd" clip-rule="evenodd" d="M345.779 216.477C330.054 229.893 326.024 251.252 336.982 264.225C347.94 277.198 369.564 276.667 385.288 263.25C401.012 249.834 405.043 228.475 394.085 215.502C383.127 202.529 361.503 203.06 345.779 216.477ZM347.606 218.64C362.229 206.163 382.077 205.676 391.93 217.341C401.783 229.005 398.083 248.61 383.461 261.087C368.838 273.564 348.99 274.051 339.137 262.386C329.284 250.722 332.983 231.117 347.606 218.64Z" fill="#0E7490"/>
<path fill-rule="evenodd" clip-rule="evenodd" d="M360.441 222.212C354.562 227.228 353.041 235.299 357.248 240.281C361.456 245.262 369.627 245.063 375.506 240.046C381.385 235.03 382.907 226.959 378.699 221.978C374.491 216.996 366.321 217.196 360.441 222.212ZM362.269 224.376C367.046 220.299 373.441 220.143 376.544 223.817C379.647 227.49 378.456 233.806 373.678 237.883C368.901 241.959 362.506 242.115 359.404 238.442C356.301 234.768 357.492 228.452 362.269 224.376Z" fill="#0E7490"/>
<path fill-rule="evenodd" clip-rule="evenodd" d="M362.441 248.513C372.598 248.513 381.152 252.972 386.044 260.573C386.468 261.231 386.28 262.11 385.625 262.536C384.97 262.962 384.095 262.773 383.671 262.115C379.312 255.342 371.66 251.353 362.441 251.353C353.508 251.353 344.325 255.122 337.003 261.613C336.418 262.132 335.525 262.076 335.009 261.488C334.493 260.9 334.549 260.003 335.134 259.484C342.954 252.551 352.792 248.513 362.441 248.513Z" fill="#0E7490"/>
<path fill-rule="evenodd" clip-rule="evenodd" d="M438.729 220.098C438.925 219.546 438.971 218.951 438.861 218.375C438.722 217.869 438.381 217.444 437.919 217.201C437.251 216.842 436.523 216.611 435.771 216.52C434.601 216.356 433.42 216.282 432.239 216.297L433.963 210.618H436.821C438.262 210.611 439.697 210.79 441.093 211.148C442.375 211.458 443.548 212.112 444.488 213.041C445.45 214.086 446.054 215.413 446.212 216.827C446.457 218.44 446.204 220.49 445.454 222.98C444.512 226.047 443.119 228.388 441.277 230.003C439.365 231.636 436.918 232.498 434.41 232.422C433.265 232.462 432.126 232.244 431.076 231.783C430.275 231.417 429.586 230.844 429.079 230.122C428.622 229.435 428.349 228.641 428.288 227.817C428.218 226.966 428.309 226.11 428.556 225.294C428.813 224.461 429.193 223.672 429.682 222.951C430.176 222.214 430.769 221.548 431.443 220.973C432.09 220.421 432.813 219.966 433.591 219.624C434.318 219.296 435.106 219.123 435.903 219.118C436.927 219.123 437.92 219.467 438.729 220.098ZM457.783 220.098C457.978 219.545 458.023 218.951 457.915 218.375C457.776 217.869 457.435 217.444 456.973 217.201C456.308 216.841 455.581 216.61 454.83 216.52C453.659 216.356 452.476 216.281 451.293 216.297L453.045 210.608H455.871C457.313 210.602 458.75 210.78 460.147 211.138C461.428 211.448 462.6 212.103 463.538 213.032C464.499 214.077 465.103 215.403 465.262 216.818C465.51 218.43 465.257 220.481 464.503 222.97C463.561 226.037 462.169 228.378 460.326 229.994C458.416 231.627 455.971 232.489 453.465 232.412C452.319 232.454 451.18 232.235 450.13 231.773C449.328 231.408 448.637 230.835 448.129 230.112C447.671 229.425 447.399 228.631 447.338 227.807C447.266 226.957 447.359 226.1 447.611 225.285C447.866 224.451 448.245 223.661 448.736 222.942C449.227 222.204 449.819 221.538 450.493 220.964C451.142 220.412 451.867 219.958 452.645 219.615C453.371 219.286 454.157 219.114 454.953 219.108C455.979 219.116 456.974 219.464 457.783 220.098Z" fill="#0E7490"/>
<path fill-rule="evenodd" clip-rule="evenodd" d="M439.85 125.315H381.599C380.987 125.315 380.444 125.711 380.255 126.296L363.278 178.915C362.982 179.833 363.662 180.773 364.621 180.773H422.872C423.485 180.773 424.027 180.377 424.216 179.791L441.194 127.172C441.489 126.255 440.809 125.315 439.85 125.315ZM437.907 128.154L421.845 177.933H366.565L382.626 128.154H437.907Z" fill="#0E7490"/>
<path fill-rule="evenodd" clip-rule="evenodd" d="M518.158 125.315H459.907C459.295 125.315 458.752 125.711 458.563 126.297L441.59 178.915C441.294 179.833 441.975 180.773 442.934 180.773H501.185C501.797 180.773 502.34 180.377 502.529 179.791L519.502 127.172C519.797 126.255 519.117 125.315 518.158 125.315ZM516.215 128.154L500.158 177.933H444.877L460.934 128.154H516.215Z" fill="#0E7490"/>
<path fill-rule="evenodd" clip-rule="evenodd" d="M599.202 125.315H540.951C540.339 125.315 539.796 125.711 539.607 126.297L522.635 178.915C522.339 179.833 523.019 180.773 523.979 180.773H582.229C582.842 180.773 583.384 180.377 583.573 179.791L600.546 127.172C600.842 126.255 600.161 125.315 599.202 125.315ZM597.259 128.154L581.202 177.933H525.922L541.978 128.154H597.259Z" fill="#0E7490"/>
<path fill-rule="evenodd" clip-rule="evenodd" d="M418.85 186.22C419.631 186.22 420.263 186.856 420.263 187.64C420.263 188.396 419.675 189.015 418.933 189.058L418.85 189.06H360.6C359.819 189.06 359.187 188.424 359.187 187.64C359.187 186.884 359.775 186.266 360.517 186.223L360.6 186.22H418.85Z" fill="#0E7490"/>
<path fill-rule="evenodd" clip-rule="evenodd" d="M416.708 191.143C417.488 191.143 418.12 191.778 418.12 192.562C418.12 193.319 417.532 193.937 416.791 193.98L416.708 193.982H358.631C357.851 193.982 357.218 193.347 357.218 192.562C357.218 191.806 357.806 191.188 358.548 191.145L358.631 191.143H416.708Z" fill="#0E7490"/>
<path fill-rule="evenodd" clip-rule="evenodd" d="M497.413 186.22C498.193 186.22 498.826 186.856 498.826 187.64C498.826 188.396 498.237 189.015 497.496 189.058L497.413 189.06H442.096C441.316 189.06 440.683 188.424 440.683 187.64C440.683 186.884 441.271 186.266 442.013 186.223L442.096 186.22H497.413Z" fill="#0E7490"/>
<path fill-rule="evenodd" clip-rule="evenodd" d="M578.711 186.22C579.492 186.22 580.124 186.856 580.124 187.64C580.124 188.396 579.536 189.015 578.794 189.058L578.711 189.06H519.42C518.64 189.06 518.007 188.424 518.007 187.64C518.007 186.884 518.595 186.266 519.337 186.223L519.42 186.22H578.711Z" fill="#0E7490"/>
<path fill-rule="evenodd" clip-rule="evenodd" d="M477.492 191.143C478.272 191.143 478.905 191.778 478.905 192.562C478.905 193.319 478.317 193.937 477.575 193.98L477.492 193.982H439.901C439.121 193.982 438.489 193.347 438.489 192.562C438.489 191.806 439.077 191.188 439.818 191.145L439.901 191.143H477.492Z" fill="#0E7490"/>
<path fill-rule="evenodd" clip-rule="evenodd" d="M517.351 125.569C517.991 125.121 518.872 125.28 519.317 125.923C519.747 126.543 519.616 127.386 519.034 127.848L518.965 127.9L443.741 180.519C443.101 180.967 442.22 180.808 441.775 180.164C441.345 179.545 441.476 178.701 442.058 178.239L442.127 178.188L517.351 125.569Z" fill="#0E7490"/>
<path fill-rule="evenodd" clip-rule="evenodd" d="M459.875 126.689C460.465 126.222 461.309 126.302 461.802 126.856L461.859 126.925L501.456 177.405C501.939 178.02 501.834 178.913 501.221 179.399C500.632 179.865 499.788 179.786 499.295 179.231L499.237 179.163L459.64 128.683C459.157 128.067 459.263 127.174 459.875 126.689Z" fill="#0E7490"/>
<path d="M509.252 198.758H516.717V333.121H509.252V198.758Z" fill="#164E63"/>
<path d="M683.482 198.758H690.946V333.121H683.482V198.758Z" fill="#164E63"/>
<path fill-rule="evenodd" clip-rule="evenodd" d="M686.841 277.292C687.593 277.084 688.371 277.528 688.578 278.284C688.778 279.013 688.374 279.766 687.671 280.005L687.591 280.03L513.437 328.252C512.685 328.46 511.907 328.016 511.7 327.26C511.5 326.531 511.904 325.778 512.607 325.539L512.687 325.514L686.841 277.292Z" fill="#164E63"/>
<path fill-rule="evenodd" clip-rule="evenodd" d="M511.287 278.296C511.48 277.566 512.206 277.12 512.934 277.269L513.015 277.289L685.719 323.39C686.473 323.592 686.922 324.369 686.721 325.127C686.528 325.858 685.802 326.304 685.074 326.154L684.993 326.135L512.29 280.033C511.536 279.832 511.087 279.054 511.287 278.296Z" fill="#164E63"/>
<path d="M488.837 198.015H707.189V211.167H488.837V198.015Z" fill="#164E63"/>
<path fill-rule="evenodd" clip-rule="evenodd" d="M805.587 331.696C806.367 331.696 807 332.332 807 333.116C807 333.872 806.412 334.49 805.67 334.533L805.587 334.536H1.41282C0.632543 334.536 0 333.9 0 333.116C0 332.36 0.588168 331.742 1.32981 331.699L1.41282 331.696H805.587Z" fill="#164E63"/>
</svg>
